<svg width="1035" height="456" viewBox="0 0 1035 456" fill="none" xmlns="http://www.w3.org/2000/svg">
<rect x="0.5" y="0.5" width="1034" height="455" stroke="#AFAFAF"/>
<rect x="44" y="25" width="276" height="406" fill="#E67571"/>
<path d="M131.761 93.9912H136.153C137.05 93.9912 137.736 94.1816 138.21 94.5625C138.811 94.9941 139.12 95.6924 139.137 96.6572C139.137 97.4613 138.879 98.1383 138.362 98.6885C137.838 99.2809 137.05 99.5856 136.001 99.6025H131.761V93.9912ZM128.955 110H131.761V102.091H135.341L139.162 110H142.501L138.21 101.786C140.563 100.881 141.756 99.1709 141.79 96.6572C141.739 94.9476 141.126 93.6315 139.949 92.709C138.976 91.8965 137.719 91.4902 136.179 91.4902H128.955V110ZM144.824 110H156.644V107.347H147.63V101.913H155.323V99.4248H147.63V94.1436H156.644V91.4902H144.824V110ZM159.297 110H165.581C166.969 110 168.141 109.695 169.098 109.086C170.062 108.519 170.816 107.799 171.357 106.928C171.561 106.598 171.734 106.28 171.878 105.976C172.013 105.662 172.115 105.307 172.183 104.909C172.326 104.122 172.398 102.734 172.398 100.745C172.398 98.8747 172.352 97.5586 172.259 96.7969C172.14 96.0352 171.857 95.3073 171.408 94.6133C170.156 92.5482 168.277 91.5072 165.771 91.4902H159.297V110ZM162.103 94.1436H165.454C166.876 94.1097 167.976 94.6302 168.755 95.7051C169.136 96.1367 169.377 96.6995 169.479 97.3936C169.555 98.0876 169.593 99.2386 169.593 100.847C169.593 102.497 169.555 103.623 169.479 104.224C169.394 104.833 169.195 105.337 168.882 105.734C168.171 106.809 167.028 107.347 165.454 107.347H162.103V94.1436ZM181.92 110H184.726V102.091H192.419V99.6025H184.726V94.1436H193.739V91.4902H181.92V110ZM195.885 110H207.704V107.347H198.69V91.4902H195.885V110ZM213.633 103.373L216.312 95.2861H216.362L219.041 103.373H213.633ZM221.275 110H224.233L217.505 91.4902H215.156L208.428 110H211.398L212.82 105.861H219.841L221.275 110ZM231.749 102.459H235.52V103.424C235.503 104.583 235.139 105.519 234.428 106.229C233.717 106.974 232.815 107.347 231.724 107.347C231.063 107.347 230.496 107.207 230.022 106.928C229.54 106.691 229.151 106.382 228.854 106.001C228.491 105.603 228.249 105.083 228.131 104.439C227.995 103.796 227.928 102.565 227.928 100.745C227.928 98.9255 227.995 97.6855 228.131 97.0254C228.249 96.3991 228.491 95.887 228.854 95.4893C229.151 95.1084 229.54 94.791 230.022 94.5371C230.496 94.2917 231.063 94.1605 231.724 94.1436C232.621 94.1605 233.382 94.4186 234.009 94.918C234.61 95.4427 235.024 96.0775 235.253 96.8223H238.224C237.927 95.2734 237.216 93.9743 236.091 92.9248C234.965 91.8838 233.509 91.3548 231.724 91.3379C230.268 91.3548 229.053 91.7018 228.08 92.3789C227.09 93.0475 226.37 93.8092 225.922 94.6641C225.643 95.1126 225.435 95.7008 225.3 96.4287C225.173 97.1566 225.109 98.5954 225.109 100.745C225.109 102.861 225.173 104.291 225.3 105.036C225.368 105.434 225.452 105.764 225.554 106.026C225.664 106.28 225.786 106.547 225.922 106.826C226.37 107.681 227.09 108.434 228.08 109.086C229.053 109.763 230.268 110.118 231.724 110.152C233.611 110.118 235.177 109.479 236.421 108.235C237.657 106.983 238.291 105.43 238.325 103.576V99.8057H231.749V102.459Z" fill="white"/>
<path d="M108.18 193H110.82V185.383L116.394 174.49H113.423L109.5 182.704L105.577 174.49H102.606L108.18 185.383V193ZM117.955 193H129.774V190.347H120.761V184.913H128.454V182.425H120.761V177.144H129.774V174.49H117.955V193ZM132.428 193H144.247V190.347H135.233V174.49H132.428V193ZM146.9 193H158.72V190.347H149.706V174.49H146.9V193ZM160.738 183.745C160.738 185.861 160.802 187.291 160.929 188.036C160.996 188.434 161.081 188.764 161.183 189.026C161.293 189.28 161.415 189.547 161.551 189.826C161.999 190.681 162.719 191.434 163.709 192.086C164.682 192.763 165.897 193.118 167.353 193.152C168.825 193.118 170.052 192.763 171.034 192.086C172.007 191.434 172.71 190.681 173.142 189.826C173.455 189.378 173.671 188.781 173.789 188.036C173.899 187.291 173.954 185.861 173.954 183.745C173.954 181.595 173.899 180.157 173.789 179.429C173.671 178.701 173.455 178.113 173.142 177.664C172.71 176.809 172.007 176.048 171.034 175.379C170.052 174.702 168.825 174.355 167.353 174.338C165.897 174.355 164.682 174.702 163.709 175.379C162.719 176.048 161.999 176.809 161.551 177.664C161.271 178.113 161.064 178.701 160.929 179.429C160.802 180.157 160.738 181.595 160.738 183.745ZM163.557 183.745C163.557 181.925 163.624 180.686 163.76 180.025C163.878 179.399 164.119 178.887 164.483 178.489C164.78 178.108 165.169 177.791 165.651 177.537C166.125 177.292 166.692 177.16 167.353 177.144C168.021 177.16 168.601 177.292 169.092 177.537C169.557 177.791 169.93 178.108 170.209 178.489C170.573 178.887 170.823 179.399 170.958 180.025C171.085 180.686 171.148 181.925 171.148 183.745C171.148 185.565 171.085 186.796 170.958 187.439C170.823 188.083 170.573 188.603 170.209 189.001C169.93 189.382 169.557 189.691 169.092 189.928C168.601 190.207 168.021 190.347 167.353 190.347C166.692 190.347 166.125 190.207 165.651 189.928C165.169 189.691 164.78 189.382 164.483 189.001C164.119 188.603 163.878 188.083 163.76 187.439C163.624 186.796 163.557 185.565 163.557 183.745ZM179.718 193H182.054L185.596 179.657H185.646L189.176 193H191.524L196.146 174.49H193.188L190.268 187.643H190.217L186.637 174.49H184.605L181.013 187.643H180.962L178.055 174.49H175.097L179.718 193ZM204.639 193H207.444V185.091H215.138V182.603H207.444V177.144H216.458V174.49H204.639V193ZM218.604 193H230.423V190.347H221.409V174.49H218.604V193ZM236.352 186.373L239.03 178.286H239.081L241.76 186.373H236.352ZM243.994 193H246.952L240.224 174.49H237.875L231.146 193H234.117L235.539 188.861H242.56L243.994 193ZM254.468 185.459H258.238V186.424C258.221 187.583 257.857 188.519 257.146 189.229C256.436 189.974 255.534 190.347 254.442 190.347C253.782 190.347 253.215 190.207 252.741 189.928C252.259 189.691 251.869 189.382 251.573 189.001C251.209 188.603 250.968 188.083 250.85 187.439C250.714 186.796 250.646 185.565 250.646 183.745C250.646 181.925 250.714 180.686 250.85 180.025C250.968 179.399 251.209 178.887 251.573 178.489C251.869 178.108 252.259 177.791 252.741 177.537C253.215 177.292 253.782 177.16 254.442 177.144C255.34 177.16 256.101 177.419 256.728 177.918C257.328 178.443 257.743 179.077 257.972 179.822H260.942C260.646 178.273 259.935 176.974 258.81 175.925C257.684 174.884 256.228 174.355 254.442 174.338C252.987 174.355 251.772 174.702 250.799 175.379C249.809 176.048 249.089 176.809 248.641 177.664C248.361 178.113 248.154 178.701 248.019 179.429C247.892 180.157 247.828 181.595 247.828 183.745C247.828 185.861 247.892 187.291 248.019 188.036C248.086 188.434 248.171 188.764 248.272 189.026C248.382 189.28 248.505 189.547 248.641 189.826C249.089 190.681 249.809 191.434 250.799 192.086C251.772 192.763 252.987 193.118 254.442 193.152C256.33 193.118 257.896 192.479 259.14 191.235C260.375 189.983 261.01 188.43 261.044 186.576V182.806H254.468V185.459Z" fill="white"/>
<path d="M118.96 268.459H122.73V269.424C122.714 270.583 122.35 271.519 121.639 272.229C120.928 272.974 120.026 273.347 118.935 273.347C118.274 273.347 117.707 273.207 117.233 272.928C116.751 272.691 116.362 272.382 116.065 272.001C115.701 271.603 115.46 271.083 115.342 270.439C115.206 269.796 115.139 268.565 115.139 266.745C115.139 264.925 115.206 263.686 115.342 263.025C115.46 262.399 115.701 261.887 116.065 261.489C116.362 261.108 116.751 260.791 117.233 260.537C117.707 260.292 118.274 260.16 118.935 260.144C119.832 260.16 120.593 260.419 121.22 260.918C121.821 261.443 122.235 262.077 122.464 262.822H125.435C125.138 261.273 124.427 259.974 123.302 258.925C122.176 257.884 120.72 257.355 118.935 257.338C117.479 257.355 116.264 257.702 115.291 258.379C114.301 259.048 113.581 259.809 113.133 260.664C112.854 261.113 112.646 261.701 112.511 262.429C112.384 263.157 112.32 264.595 112.32 266.745C112.32 268.861 112.384 270.291 112.511 271.036C112.578 271.434 112.663 271.764 112.765 272.026C112.875 272.28 112.997 272.547 113.133 272.826C113.581 273.681 114.301 274.434 115.291 275.086C116.264 275.763 117.479 276.118 118.935 276.152C120.822 276.118 122.388 275.479 123.632 274.235C124.868 272.983 125.502 271.43 125.536 269.576V265.806H118.96V268.459ZM131.63 259.991H136.022C136.92 259.991 137.605 260.182 138.079 260.562C138.68 260.994 138.989 261.692 139.006 262.657C139.006 263.461 138.748 264.138 138.231 264.688C137.707 265.281 136.92 265.586 135.87 265.603H131.63V259.991ZM128.824 276H131.63V268.091H135.21L139.031 276H142.37L138.079 267.786C140.432 266.881 141.625 265.171 141.659 262.657C141.608 260.948 140.995 259.632 139.818 258.709C138.845 257.896 137.588 257.49 136.048 257.49H128.824V276ZM144.693 276H156.513V273.347H147.499V267.913H155.192V265.425H147.499V260.144H156.513V257.49H144.693V276ZM159.166 276H170.985V273.347H161.972V267.913H169.665V265.425H161.972V260.144H170.985V257.49H159.166V276ZM173.639 276H176.444V262.848H176.495L184.861 276H187.515V257.49H184.709V270.643H184.658L176.279 257.49H173.639V276ZM197.684 276H200.489V268.091H208.183V265.603H200.489V260.144H209.503V257.49H197.684V276ZM211.648 276H223.468V273.347H214.454V257.49H211.648V276ZM229.396 269.373L232.075 261.286H232.126L234.805 269.373H229.396ZM237.039 276H239.997L233.269 257.49H230.92L224.191 276H227.162L228.584 271.861H235.604L237.039 276ZM247.513 268.459H251.283V269.424C251.266 270.583 250.902 271.519 250.191 272.229C249.48 272.974 248.579 273.347 247.487 273.347C246.827 273.347 246.26 273.207 245.786 272.928C245.304 272.691 244.914 272.382 244.618 272.001C244.254 271.603 244.013 271.083 243.895 270.439C243.759 269.796 243.691 268.565 243.691 266.745C243.691 264.925 243.759 263.686 243.895 263.025C244.013 262.399 244.254 261.887 244.618 261.489C244.914 261.108 245.304 260.791 245.786 260.537C246.26 260.292 246.827 260.16 247.487 260.144C248.384 260.16 249.146 260.419 249.772 260.918C250.373 261.443 250.788 262.077 251.017 262.822H253.987C253.691 261.273 252.98 259.974 251.854 258.925C250.729 257.884 249.273 257.355 247.487 257.338C246.032 257.355 244.817 257.702 243.844 258.379C242.854 259.048 242.134 259.809 241.686 260.664C241.406 261.113 241.199 261.701 241.063 262.429C240.937 263.157 240.873 264.595 240.873 266.745C240.873 268.861 240.937 270.291 241.063 271.036C241.131 271.434 241.216 271.764 241.317 272.026C241.427 272.28 241.55 272.547 241.686 272.826C242.134 273.681 242.854 274.434 243.844 275.086C244.817 275.763 246.032 276.118 247.487 276.152C249.375 276.118 250.94 275.479 252.185 274.235C253.42 272.983 254.055 271.43 254.089 269.576V265.806H247.513V268.459Z" fill="white"/>
<path d="M57.2305 352.373L59.9092 344.286H59.96L62.6387 352.373H57.2305ZM64.873 359H67.8311L61.1025 340.49H58.7539L52.0254 359H54.9961L56.418 354.861H63.4385L64.873 359ZM69.8242 359H72.6299V345.848H72.6807L81.0469 359H83.7002V340.49H80.8945V353.643H80.8438L72.4648 340.49H69.8242V359ZM87.623 359H93.9072C95.2952 359 96.4674 358.695 97.4238 358.086C98.3887 357.519 99.1419 356.799 99.6836 355.928C99.8867 355.598 100.06 355.28 100.204 354.976C100.34 354.662 100.441 354.307 100.509 353.909C100.653 353.122 100.725 351.734 100.725 349.745C100.725 347.875 100.678 346.559 100.585 345.797C100.466 345.035 100.183 344.307 99.7344 343.613C98.4818 341.548 96.6029 340.507 94.0977 340.49H87.623V359ZM90.4287 343.144H93.7803C95.2021 343.11 96.3024 343.63 97.0811 344.705C97.4619 345.137 97.7031 345.7 97.8047 346.394C97.8809 347.088 97.9189 348.239 97.9189 349.847C97.9189 351.497 97.8809 352.623 97.8047 353.224C97.7201 353.833 97.5212 354.337 97.208 354.734C96.4971 355.809 95.3545 356.347 93.7803 356.347H90.4287V343.144ZM113.471 359H116.111V351.383L121.685 340.49H118.714L114.791 348.704L110.868 340.49H107.897L113.471 351.383V359ZM121.951 349.745C121.951 351.861 122.015 353.291 122.142 354.036C122.209 354.434 122.294 354.764 122.396 355.026C122.506 355.28 122.628 355.547 122.764 355.826C123.212 356.681 123.932 357.434 124.922 358.086C125.895 358.763 127.11 359.118 128.565 359.152C130.038 359.118 131.265 358.763 132.247 358.086C133.22 357.434 133.923 356.681 134.354 355.826C134.668 355.378 134.883 354.781 135.002 354.036C135.112 353.291 135.167 351.861 135.167 349.745C135.167 347.595 135.112 346.157 135.002 345.429C134.883 344.701 134.668 344.113 134.354 343.664C133.923 342.809 133.22 342.048 132.247 341.379C131.265 340.702 130.038 340.355 128.565 340.338C127.11 340.355 125.895 340.702 124.922 341.379C123.932 342.048 123.212 342.809 122.764 343.664C122.484 344.113 122.277 344.701 122.142 345.429C122.015 346.157 121.951 347.595 121.951 349.745ZM124.77 349.745C124.77 347.925 124.837 346.686 124.973 346.025C125.091 345.399 125.332 344.887 125.696 344.489C125.993 344.108 126.382 343.791 126.864 343.537C127.338 343.292 127.905 343.16 128.565 343.144C129.234 343.16 129.814 343.292 130.305 343.537C130.77 343.791 131.143 344.108 131.422 344.489C131.786 344.887 132.035 345.399 132.171 346.025C132.298 346.686 132.361 347.925 132.361 349.745C132.361 351.565 132.298 352.796 132.171 353.439C132.035 354.083 131.786 354.603 131.422 355.001C131.143 355.382 130.77 355.691 130.305 355.928C129.814 356.207 129.234 356.347 128.565 356.347C127.905 356.347 127.338 356.207 126.864 355.928C126.382 355.691 125.993 355.382 125.696 355.001C125.332 354.603 125.091 354.083 124.973 353.439C124.837 352.796 124.77 351.565 124.77 349.745ZM138.112 352.729C138.129 354.675 138.772 356.22 140.042 357.362C141.286 358.539 142.835 359.135 144.688 359.152C146.576 359.135 148.137 358.539 149.373 357.362C150.6 356.22 151.231 354.675 151.265 352.729V340.49H148.459V352.424C148.442 353.685 148.087 354.646 147.393 355.306C146.682 356 145.78 356.347 144.688 356.347C143.597 356.347 142.704 356 142.01 355.306C141.299 354.646 140.935 353.685 140.918 352.424V340.49H138.112V352.729ZM164.354 352.373L167.032 344.286H167.083L169.762 352.373H164.354ZM171.996 359H174.954L168.226 340.49H165.877L159.148 359H162.119L163.541 354.861H170.562L171.996 359ZM179.753 342.991H184.146C185.043 342.991 185.728 343.182 186.202 343.562C186.803 343.994 187.112 344.692 187.129 345.657C187.129 346.461 186.871 347.138 186.354 347.688C185.83 348.281 185.043 348.586 183.993 348.603H179.753V342.991ZM176.947 359H179.753V351.091H183.333L187.154 359H190.493L186.202 350.786C188.555 349.881 189.748 348.171 189.782 345.657C189.731 343.948 189.118 342.632 187.941 341.709C186.968 340.896 185.711 340.49 184.171 340.49H176.947V359ZM192.816 359H204.636V356.347H195.622V350.913H203.315V348.425H195.622V343.144H204.636V340.49H192.816V359ZM223.666 359H226.472V340.49H223.666V348.425H216.341V340.49H213.535V359H216.341V350.913H223.666V359ZM230.395 359H242.214V356.347H233.2V350.913H240.894V348.425H233.2V343.144H242.214V340.49H230.395V359ZM248.143 352.373L250.821 344.286H250.872L253.551 352.373H248.143ZM255.785 359H258.743L252.015 340.49H249.666L242.938 359H245.908L247.33 354.861H254.351L255.785 359ZM260.736 359H272.556V356.347H263.542V340.49H260.736V359ZM275.45 359H278.269V342.991H283.334V340.49H270.385V342.991H275.45V359ZM295.445 359H298.251V340.49H295.445V348.425H288.12V340.49H285.314V359H288.12V350.913H295.445V359ZM305.398 359H308.039V351.383L313.612 340.49H310.642L306.719 348.704L302.796 340.49H299.825L305.398 351.383V359Z" fill="#F8E8AE"/>
<rect x="383.5" y="25.5" width="275" height="405" stroke="#E79A74"/>
<rect x="712" y="25" width="276" height="406" fill="#26325B"/>
<path d="M738.008 193H747.676C749.811 193 751.615 192.531 753.086 191.594C754.57 190.721 755.729 189.615 756.562 188.273C756.875 187.766 757.142 187.277 757.363 186.809C757.572 186.327 757.728 185.78 757.832 185.168C758.053 183.957 758.164 181.822 758.164 178.762C758.164 175.884 758.092 173.859 757.949 172.688C757.767 171.516 757.331 170.396 756.641 169.328C754.714 166.151 751.823 164.549 747.969 164.523H738.008V193ZM742.324 168.605H747.48C749.668 168.553 751.361 169.354 752.559 171.008C753.145 171.672 753.516 172.538 753.672 173.605C753.789 174.673 753.848 176.444 753.848 178.918C753.848 181.457 753.789 183.189 753.672 184.113C753.542 185.051 753.236 185.826 752.754 186.438C751.66 188.091 749.902 188.918 747.48 188.918H742.324V168.605ZM763.203 193H767.52V164.523H763.203V193ZM773.516 193H777.832V172.766H777.91L790.781 193H794.863V164.523H790.547V184.758H790.469L777.578 164.523H773.516V193ZM815.547 182.805L819.668 170.363H819.746L823.867 182.805H815.547ZM827.305 193H831.855L821.504 164.523H817.891L807.539 193H812.109L814.297 186.633H825.098L827.305 193ZM834.551 188.078C834.551 189.862 835.059 191.132 836.074 191.887C837.038 192.629 838.262 193 839.746 193H841.562V189.152H840.156C839.141 189.152 838.633 188.69 838.633 187.766V164.523H834.551V188.078ZM845.098 172.727H843.066V175.832H845.098V188C845.098 189.602 845.566 190.826 846.504 191.672C847.415 192.557 848.587 193 850.02 193H852.148V189.152H850.625C849.635 189.178 849.154 188.677 849.18 187.648V175.832H852.148V172.727H849.18V166.555H845.098V172.727ZM871.719 184.406V181.047C871.693 178.378 870.866 176.281 869.238 174.758C867.637 173.26 865.677 172.499 863.359 172.473C862.396 172.473 861.419 172.648 860.43 173C859.427 173.352 858.522 173.924 857.715 174.719C856.921 175.5 856.27 176.568 855.762 177.922C855.254 179.25 855 180.917 855 182.922C855 185.005 855.293 186.698 855.879 188C856.413 189.354 857.109 190.409 857.969 191.164C858.411 191.529 858.887 191.835 859.395 192.082C859.876 192.368 860.371 192.596 860.879 192.766C861.895 193.078 862.936 193.234 864.004 193.234C866.803 193.26 869.238 192.167 871.309 189.953L868.359 187.434C867.057 188.749 865.579 189.406 863.926 189.406C862.507 189.406 861.361 188.977 860.488 188.117C859.551 187.271 859.082 186.034 859.082 184.406H871.719ZM859.082 181.047C859.16 179.471 859.583 178.28 860.352 177.473C861.133 176.704 862.135 176.32 863.359 176.32C864.583 176.32 865.586 176.704 866.367 177.473C867.161 178.28 867.585 179.471 867.637 181.047H859.082ZM875.996 193H880.078V180.793C880.104 179.309 880.534 178.234 881.367 177.57C882.109 176.893 883.001 176.555 884.043 176.555C884.967 176.555 885.859 176.893 886.719 177.57L889.688 174.035C888.477 173.02 887.057 172.499 885.43 172.473C883.255 172.473 881.497 173.273 880.156 174.875H880.078V172.727H875.996V193ZM890.605 193H894.688V180.93C894.688 179.51 895.072 178.43 895.84 177.688C896.595 176.932 897.559 176.555 898.73 176.555C899.902 176.555 900.859 176.932 901.602 177.688C902.357 178.43 902.734 179.51 902.734 180.93V193H906.816V179.523C906.751 177.206 906.029 175.448 904.648 174.25C903.255 173.065 901.719 172.473 900.039 172.473C897.865 172.473 896.107 173.273 894.766 174.875H894.688V172.727H890.605V193ZM922.734 193H926.816V179.152C926.79 176.678 926.016 174.934 924.492 173.918C922.969 172.928 920.931 172.447 918.379 172.473C915.358 172.421 913.073 173.41 911.523 175.441L914.727 177.883C915.078 177.297 915.56 176.88 916.172 176.633C916.758 176.424 917.559 176.32 918.574 176.32C921.374 176.268 922.76 177.134 922.734 178.918V181.047H917.09C914.928 181.073 913.288 181.659 912.168 182.805C911.048 183.924 910.488 185.337 910.488 187.043C910.488 188.827 911.133 190.292 912.422 191.438C913.646 192.609 915.391 193.208 917.656 193.234C919.036 193.234 920.117 193.065 920.898 192.727C921.693 192.401 922.279 191.893 922.656 191.203H922.734V193ZM922.734 185.871C922.734 187.395 922.415 188.371 921.777 188.801C921.074 189.23 919.87 189.432 918.164 189.406C916.81 189.406 915.84 189.139 915.254 188.605C914.642 188.124 914.336 187.538 914.336 186.848C914.31 185.272 915.482 184.458 917.852 184.406H922.734V185.871ZM932.324 172.727H930.293V175.832H932.324V188C932.324 189.602 932.793 190.826 933.73 191.672C934.642 192.557 935.814 193 937.246 193H939.375V189.152H937.852C936.862 189.178 936.38 188.677 936.406 187.648V175.832H939.375V172.727H936.406V166.555H932.324V172.727ZM958.945 184.406V181.047C958.919 178.378 958.092 176.281 956.465 174.758C954.863 173.26 952.904 172.499 950.586 172.473C949.622 172.473 948.646 172.648 947.656 173C946.654 173.352 945.749 173.924 944.941 174.719C944.147 175.5 943.496 176.568 942.988 177.922C942.48 179.25 942.227 180.917 942.227 182.922C942.227 185.005 942.52 186.698 943.105 188C943.639 189.354 944.336 190.409 945.195 191.164C945.638 191.529 946.113 191.835 946.621 192.082C947.103 192.368 947.598 192.596 948.105 192.766C949.121 193.078 950.163 193.234 951.23 193.234C954.03 193.26 956.465 192.167 958.535 189.953L955.586 187.434C954.284 188.749 952.806 189.406 951.152 189.406C949.733 189.406 948.587 188.977 947.715 188.117C946.777 187.271 946.309 186.034 946.309 184.406H958.945ZM946.309 181.047C946.387 179.471 946.81 178.28 947.578 177.473C948.359 176.704 949.362 176.32 950.586 176.32C951.81 176.32 952.812 176.704 953.594 177.473C954.388 178.28 954.811 179.471 954.863 181.047H946.309Z" fill="white"/>
<path d="M738.008 250H747.676C749.811 250 751.615 249.531 753.086 248.594C754.57 247.721 755.729 246.615 756.562 245.273C756.875 244.766 757.142 244.277 757.363 243.809C757.572 243.327 757.728 242.78 757.832 242.168C758.053 240.957 758.164 238.822 758.164 235.762C758.164 232.884 758.092 230.859 757.949 229.688C757.767 228.516 757.331 227.396 756.641 226.328C754.714 223.151 751.823 221.549 747.969 221.523H738.008V250ZM742.324 225.605H747.48C749.668 225.553 751.361 226.354 752.559 228.008C753.145 228.672 753.516 229.538 753.672 230.605C753.789 231.673 753.848 233.444 753.848 235.918C753.848 238.457 753.789 240.189 753.672 241.113C753.542 242.051 753.236 242.826 752.754 243.438C751.66 245.091 749.902 245.918 747.48 245.918H742.324V225.605ZM763.203 250H767.52V221.523H763.203V250ZM773.516 250H777.832V229.766H777.91L790.781 250H794.863V221.523H790.547V241.758H790.469L777.578 221.523H773.516V250ZM815.547 239.805L819.668 227.363H819.746L823.867 239.805H815.547ZM827.305 250H831.855L821.504 221.523H817.891L807.539 250H812.109L814.297 243.633H825.098L827.305 250ZM834.551 245.078C834.551 246.862 835.059 248.132 836.074 248.887C837.038 249.629 838.262 250 839.746 250H841.562V246.152H840.156C839.141 246.152 838.633 245.69 838.633 244.766V221.523H834.551V245.078ZM845.098 229.727H843.066V232.832H845.098V245C845.098 246.602 845.566 247.826 846.504 248.672C847.415 249.557 848.587 250 850.02 250H852.148V246.152H850.625C849.635 246.178 849.154 245.677 849.18 244.648V232.832H852.148V229.727H849.18V223.555H845.098V229.727ZM871.719 241.406V238.047C871.693 235.378 870.866 233.281 869.238 231.758C867.637 230.26 865.677 229.499 863.359 229.473C862.396 229.473 861.419 229.648 860.43 230C859.427 230.352 858.522 230.924 857.715 231.719C856.921 232.5 856.27 233.568 855.762 234.922C855.254 236.25 855 237.917 855 239.922C855 242.005 855.293 243.698 855.879 245C856.413 246.354 857.109 247.409 857.969 248.164C858.411 248.529 858.887 248.835 859.395 249.082C859.876 249.368 860.371 249.596 860.879 249.766C861.895 250.078 862.936 250.234 864.004 250.234C866.803 250.26 869.238 249.167 871.309 246.953L868.359 244.434C867.057 245.749 865.579 246.406 863.926 246.406C862.507 246.406 861.361 245.977 860.488 245.117C859.551 244.271 859.082 243.034 859.082 241.406H871.719ZM859.082 238.047C859.16 236.471 859.583 235.28 860.352 234.473C861.133 233.704 862.135 233.32 863.359 233.32C864.583 233.32 865.586 233.704 866.367 234.473C867.161 235.28 867.585 236.471 867.637 238.047H859.082ZM875.996 250H880.078V237.793C880.104 236.309 880.534 235.234 881.367 234.57C882.109 233.893 883.001 233.555 884.043 233.555C884.967 233.555 885.859 233.893 886.719 234.57L889.688 231.035C888.477 230.02 887.057 229.499 885.43 229.473C883.255 229.473 881.497 230.273 880.156 231.875H880.078V229.727H875.996V250ZM890.605 250H894.688V237.93C894.688 236.51 895.072 235.43 895.84 234.688C896.595 233.932 897.559 233.555 898.73 233.555C899.902 233.555 900.859 233.932 901.602 234.688C902.357 235.43 902.734 236.51 902.734 237.93V250H906.816V236.523C906.751 234.206 906.029 232.448 904.648 231.25C903.255 230.065 901.719 229.473 900.039 229.473C897.865 229.473 896.107 230.273 894.766 231.875H894.688V229.727H890.605V250ZM922.734 250H926.816V236.152C926.79 233.678 926.016 231.934 924.492 230.918C922.969 229.928 920.931 229.447 918.379 229.473C915.358 229.421 913.073 230.41 911.523 232.441L914.727 234.883C915.078 234.297 915.56 233.88 916.172 233.633C916.758 233.424 917.559 233.32 918.574 233.32C921.374 233.268 922.76 234.134 922.734 235.918V238.047H917.09C914.928 238.073 913.288 238.659 912.168 239.805C911.048 240.924 910.488 242.337 910.488 244.043C910.488 245.827 911.133 247.292 912.422 248.438C913.646 249.609 915.391 250.208 917.656 250.234C919.036 250.234 920.117 250.065 920.898 249.727C921.693 249.401 922.279 248.893 922.656 248.203H922.734V250ZM922.734 242.871C922.734 244.395 922.415 245.371 921.777 245.801C921.074 246.23 919.87 246.432 918.164 246.406C916.81 246.406 915.84 246.139 915.254 245.605C914.642 245.124 914.336 244.538 914.336 243.848C914.31 242.272 915.482 241.458 917.852 241.406H922.734V242.871ZM932.324 229.727H930.293V232.832H932.324V245C932.324 246.602 932.793 247.826 933.73 248.672C934.642 249.557 935.814 250 937.246 250H939.375V246.152H937.852C936.862 246.178 936.38 245.677 936.406 244.648V232.832H939.375V229.727H936.406V223.555H932.324V229.727ZM958.945 241.406V238.047C958.919 235.378 958.092 233.281 956.465 231.758C954.863 230.26 952.904 229.499 950.586 229.473C949.622 229.473 948.646 229.648 947.656 230C946.654 230.352 945.749 230.924 944.941 231.719C944.147 232.5 943.496 233.568 942.988 234.922C942.48 236.25 942.227 237.917 942.227 239.922C942.227 242.005 942.52 243.698 943.105 245C943.639 246.354 944.336 247.409 945.195 248.164C945.638 248.529 946.113 248.835 946.621 249.082C947.103 249.368 947.598 249.596 948.105 249.766C949.121 250.078 950.163 250.234 951.23 250.234C954.03 250.26 956.465 249.167 958.535 246.953L955.586 244.434C954.284 245.749 952.806 246.406 951.152 246.406C949.733 246.406 948.587 245.977 947.715 245.117C946.777 244.271 946.309 243.034 946.309 241.406H958.945ZM946.309 238.047C946.387 236.471 946.81 235.28 947.578 234.473C948.359 233.704 949.362 233.32 950.586 233.32C951.81 233.32 952.812 233.704 953.594 234.473C954.388 235.28 954.811 236.471 954.863 238.047H946.309Z" fill="white"/>
<path d="M738.008 307H747.676C749.811 307 751.615 306.531 753.086 305.594C754.57 304.721 755.729 303.615 756.562 302.273C756.875 301.766 757.142 301.277 757.363 300.809C757.572 300.327 757.728 299.78 757.832 299.168C758.053 297.957 758.164 295.822 758.164 292.762C758.164 289.884 758.092 287.859 757.949 286.688C757.767 285.516 757.331 284.396 756.641 283.328C754.714 280.151 751.823 278.549 747.969 278.523H738.008V307ZM742.324 282.605H747.48C749.668 282.553 751.361 283.354 752.559 285.008C753.145 285.672 753.516 286.538 753.672 287.605C753.789 288.673 753.848 290.444 753.848 292.918C753.848 295.457 753.789 297.189 753.672 298.113C753.542 299.051 753.236 299.826 752.754 300.438C751.66 302.091 749.902 302.918 747.48 302.918H742.324V282.605ZM763.203 307H767.52V278.523H763.203V307ZM773.516 307H777.832V286.766H777.91L790.781 307H794.863V278.523H790.547V298.758H790.469L777.578 278.523H773.516V307ZM815.547 296.805L819.668 284.363H819.746L823.867 296.805H815.547ZM827.305 307H831.855L821.504 278.523H817.891L807.539 307H812.109L814.297 300.633H825.098L827.305 307ZM834.551 302.078C834.551 303.862 835.059 305.132 836.074 305.887C837.038 306.629 838.262 307 839.746 307H841.562V303.152H840.156C839.141 303.152 838.633 302.69 838.633 301.766V278.523H834.551V302.078ZM845.098 286.727H843.066V289.832H845.098V302C845.098 303.602 845.566 304.826 846.504 305.672C847.415 306.557 848.587 307 850.02 307H852.148V303.152H850.625C849.635 303.178 849.154 302.677 849.18 301.648V289.832H852.148V286.727H849.18V280.555H845.098V286.727ZM871.719 298.406V295.047C871.693 292.378 870.866 290.281 869.238 288.758C867.637 287.26 865.677 286.499 863.359 286.473C862.396 286.473 861.419 286.648 860.43 287C859.427 287.352 858.522 287.924 857.715 288.719C856.921 289.5 856.27 290.568 855.762 291.922C855.254 293.25 855 294.917 855 296.922C855 299.005 855.293 300.698 855.879 302C856.413 303.354 857.109 304.409 857.969 305.164C858.411 305.529 858.887 305.835 859.395 306.082C859.876 306.368 860.371 306.596 860.879 306.766C861.895 307.078 862.936 307.234 864.004 307.234C866.803 307.26 869.238 306.167 871.309 303.953L868.359 301.434C867.057 302.749 865.579 303.406 863.926 303.406C862.507 303.406 861.361 302.977 860.488 302.117C859.551 301.271 859.082 300.034 859.082 298.406H871.719ZM859.082 295.047C859.16 293.471 859.583 292.28 860.352 291.473C861.133 290.704 862.135 290.32 863.359 290.32C864.583 290.32 865.586 290.704 866.367 291.473C867.161 292.28 867.585 293.471 867.637 295.047H859.082ZM875.996 307H880.078V294.793C880.104 293.309 880.534 292.234 881.367 291.57C882.109 290.893 883.001 290.555 884.043 290.555C884.967 290.555 885.859 290.893 886.719 291.57L889.688 288.035C888.477 287.02 887.057 286.499 885.43 286.473C883.255 286.473 881.497 287.273 880.156 288.875H880.078V286.727H875.996V307ZM890.605 307H894.688V294.93C894.688 293.51 895.072 292.43 895.84 291.688C896.595 290.932 897.559 290.555 898.73 290.555C899.902 290.555 900.859 290.932 901.602 291.688C902.357 292.43 902.734 293.51 902.734 294.93V307H906.816V293.523C906.751 291.206 906.029 289.448 904.648 288.25C903.255 287.065 901.719 286.473 900.039 286.473C897.865 286.473 896.107 287.273 894.766 288.875H894.688V286.727H890.605V307ZM922.734 307H926.816V293.152C926.79 290.678 926.016 288.934 924.492 287.918C922.969 286.928 920.931 286.447 918.379 286.473C915.358 286.421 913.073 287.41 911.523 289.441L914.727 291.883C915.078 291.297 915.56 290.88 916.172 290.633C916.758 290.424 917.559 290.32 918.574 290.32C921.374 290.268 922.76 291.134 922.734 292.918V295.047H917.09C914.928 295.073 913.288 295.659 912.168 296.805C911.048 297.924 910.488 299.337 910.488 301.043C910.488 302.827 911.133 304.292 912.422 305.438C913.646 306.609 915.391 307.208 917.656 307.234C919.036 307.234 920.117 307.065 920.898 306.727C921.693 306.401 922.279 305.893 922.656 305.203H922.734V307ZM922.734 299.871C922.734 301.395 922.415 302.371 921.777 302.801C921.074 303.23 919.87 303.432 918.164 303.406C916.81 303.406 915.84 303.139 915.254 302.605C914.642 302.124 914.336 301.538 914.336 300.848C914.31 299.272 915.482 298.458 917.852 298.406H922.734V299.871ZM932.324 286.727H930.293V289.832H932.324V302C932.324 303.602 932.793 304.826 933.73 305.672C934.642 306.557 935.814 307 937.246 307H939.375V303.152H937.852C936.862 303.178 936.38 302.677 936.406 301.648V289.832H939.375V286.727H936.406V280.555H932.324V286.727ZM958.945 298.406V295.047C958.919 292.378 958.092 290.281 956.465 288.758C954.863 287.26 952.904 286.499 950.586 286.473C949.622 286.473 948.646 286.648 947.656 287C946.654 287.352 945.749 287.924 944.941 288.719C944.147 289.5 943.496 290.568 942.988 291.922C942.48 293.25 942.227 294.917 942.227 296.922C942.227 299.005 942.52 300.698 943.105 302C943.639 303.354 944.336 304.409 945.195 305.164C945.638 305.529 946.113 305.835 946.621 306.082C947.103 306.368 947.598 306.596 948.105 306.766C949.121 307.078 950.163 307.234 951.23 307.234C954.03 307.26 956.465 306.167 958.535 303.953L955.586 301.434C954.284 302.749 952.806 303.406 951.152 303.406C949.733 303.406 948.587 302.977 947.715 302.117C946.777 301.271 946.309 300.034 946.309 298.406H958.945ZM946.309 295.047C946.387 293.471 946.81 292.28 947.578 291.473C948.359 290.704 949.362 290.32 950.586 290.32C951.81 290.32 952.812 290.704 953.594 291.473C954.388 292.28 954.811 293.471 954.863 295.047H946.309Z" fill="white"/>
<path d="M740.23 132.373L742.909 124.286H742.96L745.639 132.373H740.23ZM747.873 139H750.831L744.103 120.49H741.754L735.025 139H737.996L739.418 134.861H746.438L747.873 139ZM759.502 139H762.155V129.999C762.138 128.391 761.635 127.257 760.645 126.597C759.654 125.953 758.33 125.64 756.671 125.657C754.707 125.623 753.222 126.267 752.215 127.587L754.297 129.174C754.525 128.793 754.839 128.522 755.236 128.361C755.617 128.226 756.138 128.158 756.798 128.158C758.618 128.124 759.519 128.687 759.502 129.847V131.23H755.833C754.428 131.247 753.362 131.628 752.634 132.373C751.906 133.101 751.542 134.019 751.542 135.128C751.542 136.287 751.961 137.24 752.799 137.984C753.594 138.746 754.729 139.135 756.201 139.152C757.098 139.152 757.801 139.042 758.309 138.822C758.825 138.611 759.206 138.281 759.451 137.832H759.502V139ZM759.502 134.366C759.502 135.356 759.295 135.991 758.88 136.271C758.423 136.55 757.64 136.681 756.531 136.664C755.651 136.664 755.021 136.491 754.64 136.144C754.242 135.83 754.043 135.45 754.043 135.001C754.026 133.977 754.788 133.448 756.328 133.414H759.502V134.366Z" fill="white"/>
<path d="M491.891 205H498.365V162.285H491.891V180.596H474.986V162.285H468.512V205H474.986V186.338H491.891V205Z" fill="#E79A74"/>
<path d="M520.512 204H547.787V197.877H526.986V185.338H544.74V179.596H526.986V167.408H547.787V161.285H520.512V204Z" fill="#E79A74"/>
<path d="M567.512 204H594.787V197.877H573.986V161.285H567.512V204Z" fill="#E79A74"/>
<path d="M620.986 168.408H630.332C632.09 168.369 633.633 168.77 634.961 169.609C635.84 170.117 636.523 170.811 637.012 171.689C637.48 172.666 637.715 173.867 637.715 175.293C637.715 177.012 637.139 178.574 635.986 179.98C634.775 181.426 632.969 182.168 630.566 182.207H620.986V168.408ZM614.512 205H620.986V188.33H630.83C635.225 188.252 638.564 186.846 640.85 184.111C643.076 181.514 644.189 178.633 644.189 175.469C644.189 173.125 643.75 171.094 642.871 169.375C642.031 167.598 640.938 166.23 639.59 165.273C637.988 164.004 636.406 163.164 634.844 162.754C633.281 162.441 631.66 162.285 629.98 162.285H614.512V205Z" fill="#E79A74"/>
<path d="M413.512 294H412.512V295H413.512V294ZM440.787 294V295H441.787V294H440.787ZM440.787 287.877H441.787V286.877H440.787V287.877ZM419.986 287.877H418.986V288.877H419.986V287.877ZM419.986 251.285H420.986V250.285H419.986V251.285ZM413.512 251.285V250.285H412.512V251.285H413.512ZM413.512 295H440.787V293H413.512V295ZM441.787 294V287.877H439.787V294H441.787ZM440.787 286.877H419.986V288.877H440.787V286.877ZM420.986 287.877V251.285H418.986V287.877H420.986ZM419.986 250.285H413.512V252.285H419.986V250.285ZM412.512 251.285V294H414.512V251.285H412.512Z" fill="#E79A74"/>
<path d="M458.512 294H457.512V295H458.512V294ZM464.986 294V295H465.986V294H464.986ZM464.986 251.285H465.986V250.285H464.986V251.285ZM458.512 251.285V250.285H457.512V251.285H458.512ZM458.512 295H464.986V293H458.512V295ZM465.986 294V251.285H463.986V294H465.986ZM464.986 250.285H458.512V252.285H464.986V250.285ZM457.512 251.285V294H459.512V251.285H457.512Z" fill="#E79A74"/>
<path d="M485.512 294H484.512V295H485.512V294ZM491.986 294V295H492.986V294H491.986ZM491.986 263.648V262.648H490.986V263.648H491.986ZM492.104 263.648L492.947 263.112L492.653 262.648H492.104V263.648ZM511.41 294L510.566 294.537L510.861 295H511.41V294ZM517.533 294V295H518.533V294H517.533ZM517.533 251.285H518.533V250.285H517.533V251.285ZM511.059 251.285V250.285H510.059V251.285H511.059ZM511.059 281.637V282.637H512.059V281.637H511.059ZM510.941 281.637L510.098 282.174L510.393 282.637H510.941V281.637ZM491.605 251.285L492.449 250.748L492.154 250.285H491.605V251.285ZM485.512 251.285V250.285H484.512V251.285H485.512ZM485.512 295H491.986V293H485.512V295ZM492.986 294V263.648H490.986V294H492.986ZM491.986 264.648H492.104V262.648H491.986V264.648ZM491.26 264.185L510.566 294.537L512.254 293.463L492.947 263.112L491.26 264.185ZM511.41 295H517.533V293H511.41V295ZM518.533 294V251.285H516.533V294H518.533ZM517.533 250.285H511.059V252.285H517.533V250.285ZM510.059 251.285V281.637H512.059V251.285H510.059ZM511.059 280.637H510.941V282.637H511.059V280.637ZM511.785 281.099L492.449 250.748L490.762 251.822L510.098 282.174L511.785 281.099ZM491.605 250.285H485.512V252.285H491.605V250.285ZM484.512 251.285V294H486.512V251.285H484.512Z" fill="#E79A74"/>
<path d="M538.512 294H537.512V295H538.512V294ZM565.787 294V295H566.787V294H565.787ZM565.787 287.877H566.787V286.877H565.787V287.877ZM544.986 287.877H543.986V288.877H544.986V287.877ZM544.986 275.338V274.338H543.986V275.338H544.986ZM562.74 275.338V276.338H563.74V275.338H562.74ZM562.74 269.596H563.74V268.596H562.74V269.596ZM544.986 269.596H543.986V270.596H544.986V269.596ZM544.986 257.408V256.408H543.986V257.408H544.986ZM565.787 257.408V258.408H566.787V257.408H565.787ZM565.787 251.285H566.787V250.285H565.787V251.285ZM538.512 251.285V250.285H537.512V251.285H538.512ZM538.512 295H565.787V293H538.512V295ZM566.787 294V287.877H564.787V294H566.787ZM565.787 286.877H544.986V288.877H565.787V286.877ZM545.986 287.877V275.338H543.986V287.877H545.986ZM544.986 276.338H562.74V274.338H544.986V276.338ZM563.74 275.338V269.596H561.74V275.338H563.74ZM562.74 268.596H544.986V270.596H562.74V268.596ZM545.986 269.596V257.408H543.986V269.596H545.986ZM544.986 258.408H565.787V256.408H544.986V258.408ZM566.787 257.408V251.285H564.787V257.408H566.787ZM565.787 250.285H538.512V252.285H565.787V250.285ZM537.512 251.285V294H539.512V251.285H537.512Z" fill="#E79A74"/>
</svg>
