<svg width="276" height="406" viewBox="0 0 276 406" fill="none" xmlns="http://www.w3.org/2000/svg">
<rect width="276" height="406" fill="#E67571"/>
<path d="M87.7607 68.9912H92.1533C93.0505 68.9912 93.736 69.1816 94.21 69.5625C94.8109 69.9941 95.1198 70.6924 95.1367 71.6572C95.1367 72.4613 94.8786 73.1383 94.3623 73.6885C93.8376 74.2809 93.0505 74.5856 92.001 74.6025H87.7607V68.9912ZM84.9551 85H87.7607V77.0908H91.3408L95.1621 85H98.501L94.21 76.7861C96.5628 75.8805 97.7562 74.1709 97.79 71.6572C97.7393 69.9476 97.1257 68.6315 95.9492 67.709C94.9759 66.8965 93.7191 66.4902 92.1787 66.4902H84.9551V85ZM100.824 85H112.644V82.3467H103.63V76.9131H111.323V74.4248H103.63V69.1436H112.644V66.4902H100.824V85ZM115.297 85H121.581C122.969 85 124.141 84.6953 125.098 84.0859C126.062 83.5189 126.816 82.7995 127.357 81.9277C127.561 81.5977 127.734 81.2803 127.878 80.9756C128.013 80.6624 128.115 80.307 128.183 79.9092C128.326 79.1221 128.398 77.734 128.398 75.7451C128.398 73.8747 128.352 72.5586 128.259 71.7969C128.14 71.0352 127.857 70.3073 127.408 69.6133C126.156 67.5482 124.277 66.5072 121.771 66.4902H115.297V85ZM118.103 69.1436H121.454C122.876 69.1097 123.976 69.6302 124.755 70.7051C125.136 71.1367 125.377 71.6995 125.479 72.3936C125.555 73.0876 125.593 74.2386 125.593 75.8467C125.593 77.4971 125.555 78.6227 125.479 79.2236C125.394 79.833 125.195 80.3366 124.882 80.7344C124.171 81.8092 123.028 82.3467 121.454 82.3467H118.103V69.1436ZM137.92 85H140.726V77.0908H148.419V74.6025H140.726V69.1436H149.739V66.4902H137.92V85ZM151.885 85H163.704V82.3467H154.69V66.4902H151.885V85ZM169.633 78.373L172.312 70.2861H172.362L175.041 78.373H169.633ZM177.275 85H180.233L173.505 66.4902H171.156L164.428 85H167.398L168.82 80.8613H175.841L177.275 85ZM187.749 77.459H191.52V78.4238C191.503 79.5833 191.139 80.5186 190.428 81.2295C189.717 81.9743 188.815 82.3467 187.724 82.3467C187.063 82.3467 186.496 82.207 186.022 81.9277C185.54 81.6908 185.151 81.3818 184.854 81.001C184.491 80.6032 184.249 80.0827 184.131 79.4395C183.995 78.7962 183.928 77.5648 183.928 75.7451C183.928 73.9255 183.995 72.6855 184.131 72.0254C184.249 71.3991 184.491 70.887 184.854 70.4893C185.151 70.1084 185.54 69.791 186.022 69.5371C186.496 69.2917 187.063 69.1605 187.724 69.1436C188.621 69.1605 189.382 69.4186 190.009 69.918C190.61 70.4427 191.024 71.0775 191.253 71.8223H194.224C193.927 70.2734 193.216 68.9743 192.091 67.9248C190.965 66.8838 189.509 66.3548 187.724 66.3379C186.268 66.3548 185.053 66.7018 184.08 67.3789C183.09 68.0475 182.37 68.8092 181.922 69.6641C181.643 70.1126 181.435 70.7008 181.3 71.4287C181.173 72.1566 181.109 73.5954 181.109 75.7451C181.109 77.861 181.173 79.2913 181.3 80.0361C181.368 80.4339 181.452 80.764 181.554 81.0264C181.664 81.2803 181.786 81.5469 181.922 81.8262C182.37 82.681 183.09 83.4342 184.08 84.0859C185.053 84.763 186.268 85.1185 187.724 85.1523C189.611 85.1185 191.177 84.4795 192.421 83.2354C193.657 81.9827 194.291 80.4297 194.325 78.5762V74.8057H187.749V77.459Z" fill="white"/>
<path d="M64.1797 168H66.8203V160.383L72.3936 149.49H69.4229L65.5 157.704L61.5771 149.49H58.6064L64.1797 160.383V168ZM73.9551 168H85.7744V165.347H76.7607V159.913H84.4541V157.425H76.7607V152.144H85.7744V149.49H73.9551V168ZM88.4277 168H100.247V165.347H91.2334V149.49H88.4277V168ZM102.9 168H114.72V165.347H105.706V149.49H102.9V168ZM116.738 158.745C116.738 160.861 116.802 162.291 116.929 163.036C116.996 163.434 117.081 163.764 117.183 164.026C117.293 164.28 117.415 164.547 117.551 164.826C117.999 165.681 118.719 166.434 119.709 167.086C120.682 167.763 121.897 168.118 123.353 168.152C124.825 168.118 126.052 167.763 127.034 167.086C128.007 166.434 128.71 165.681 129.142 164.826C129.455 164.378 129.671 163.781 129.789 163.036C129.899 162.291 129.954 160.861 129.954 158.745C129.954 156.595 129.899 155.157 129.789 154.429C129.671 153.701 129.455 153.113 129.142 152.664C128.71 151.809 128.007 151.048 127.034 150.379C126.052 149.702 124.825 149.355 123.353 149.338C121.897 149.355 120.682 149.702 119.709 150.379C118.719 151.048 117.999 151.809 117.551 152.664C117.271 153.113 117.064 153.701 116.929 154.429C116.802 155.157 116.738 156.595 116.738 158.745ZM119.557 158.745C119.557 156.925 119.624 155.686 119.76 155.025C119.878 154.399 120.119 153.887 120.483 153.489C120.78 153.108 121.169 152.791 121.651 152.537C122.125 152.292 122.692 152.16 123.353 152.144C124.021 152.16 124.601 152.292 125.092 152.537C125.557 152.791 125.93 153.108 126.209 153.489C126.573 153.887 126.823 154.399 126.958 155.025C127.085 155.686 127.148 156.925 127.148 158.745C127.148 160.565 127.085 161.796 126.958 162.439C126.823 163.083 126.573 163.603 126.209 164.001C125.93 164.382 125.557 164.691 125.092 164.928C124.601 165.207 124.021 165.347 123.353 165.347C122.692 165.347 122.125 165.207 121.651 164.928C121.169 164.691 120.78 164.382 120.483 164.001C120.119 163.603 119.878 163.083 119.76 162.439C119.624 161.796 119.557 160.565 119.557 158.745ZM135.718 168H138.054L141.596 154.657H141.646L145.176 168H147.524L152.146 149.49H149.188L146.268 162.643H146.217L142.637 149.49H140.605L137.013 162.643H136.962L134.055 149.49H131.097L135.718 168ZM160.639 168H163.444V160.091H171.138V157.603H163.444V152.144H172.458V149.49H160.639V168ZM174.604 168H186.423V165.347H177.409V149.49H174.604V168ZM192.352 161.373L195.03 153.286H195.081L197.76 161.373H192.352ZM199.994 168H202.952L196.224 149.49H193.875L187.146 168H190.117L191.539 163.861H198.56L199.994 168ZM210.468 160.459H214.238V161.424C214.221 162.583 213.857 163.519 213.146 164.229C212.436 164.974 211.534 165.347 210.442 165.347C209.782 165.347 209.215 165.207 208.741 164.928C208.259 164.691 207.869 164.382 207.573 164.001C207.209 163.603 206.968 163.083 206.85 162.439C206.714 161.796 206.646 160.565 206.646 158.745C206.646 156.925 206.714 155.686 206.85 155.025C206.968 154.399 207.209 153.887 207.573 153.489C207.869 153.108 208.259 152.791 208.741 152.537C209.215 152.292 209.782 152.16 210.442 152.144C211.34 152.16 212.101 152.419 212.728 152.918C213.328 153.443 213.743 154.077 213.972 154.822H216.942C216.646 153.273 215.935 151.974 214.81 150.925C213.684 149.884 212.228 149.355 210.442 149.338C208.987 149.355 207.772 149.702 206.799 150.379C205.809 151.048 205.089 151.809 204.641 152.664C204.361 153.113 204.154 153.701 204.019 154.429C203.892 155.157 203.828 156.595 203.828 158.745C203.828 160.861 203.892 162.291 204.019 163.036C204.086 163.434 204.171 163.764 204.272 164.026C204.382 164.28 204.505 164.547 204.641 164.826C205.089 165.681 205.809 166.434 206.799 167.086C207.772 167.763 208.987 168.118 210.442 168.152C212.33 168.118 213.896 167.479 215.14 166.235C216.375 164.983 217.01 163.43 217.044 161.576V157.806H210.468V160.459Z" fill="white"/>
<path d="M74.96 243.459H78.7305V244.424C78.7135 245.583 78.3496 246.519 77.6387 247.229C76.9277 247.974 76.0264 248.347 74.9346 248.347C74.2744 248.347 73.7074 248.207 73.2334 247.928C72.751 247.691 72.3617 247.382 72.0654 247.001C71.7015 246.603 71.4603 246.083 71.3418 245.439C71.2064 244.796 71.1387 243.565 71.1387 241.745C71.1387 239.925 71.2064 238.686 71.3418 238.025C71.4603 237.399 71.7015 236.887 72.0654 236.489C72.3617 236.108 72.751 235.791 73.2334 235.537C73.7074 235.292 74.2744 235.16 74.9346 235.144C75.8317 235.16 76.5934 235.419 77.2197 235.918C77.8206 236.443 78.2354 237.077 78.4639 237.822H81.4346C81.1383 236.273 80.4274 234.974 79.3018 233.925C78.1761 232.884 76.7204 232.355 74.9346 232.338C73.4788 232.355 72.2643 232.702 71.291 233.379C70.3008 234.048 69.5814 234.809 69.1328 235.664C68.8535 236.113 68.6462 236.701 68.5107 237.429C68.3838 238.157 68.3203 239.595 68.3203 241.745C68.3203 243.861 68.3838 245.291 68.5107 246.036C68.5785 246.434 68.6631 246.764 68.7646 247.026C68.8747 247.28 68.9974 247.547 69.1328 247.826C69.5814 248.681 70.3008 249.434 71.291 250.086C72.2643 250.763 73.4788 251.118 74.9346 251.152C76.8219 251.118 78.3877 250.479 79.6318 249.235C80.8675 247.983 81.5023 246.43 81.5361 244.576V240.806H74.96V243.459ZM87.6299 234.991H92.0225C92.9196 234.991 93.6051 235.182 94.0791 235.562C94.68 235.994 94.9889 236.692 95.0059 237.657C95.0059 238.461 94.7477 239.138 94.2314 239.688C93.7067 240.281 92.9196 240.586 91.8701 240.603H87.6299V234.991ZM84.8242 251H87.6299V243.091H91.21L95.0312 251H98.3701L94.0791 242.786C96.432 241.881 97.6253 240.171 97.6592 237.657C97.6084 235.948 96.9948 234.632 95.8184 233.709C94.8451 232.896 93.5882 232.49 92.0479 232.49H84.8242V251ZM100.693 251H112.513V248.347H103.499V242.913H111.192V240.425H103.499V235.144H112.513V232.49H100.693V251ZM115.166 251H126.985V248.347H117.972V242.913H125.665V240.425H117.972V235.144H126.985V232.49H115.166V251ZM129.639 251H132.444V237.848H132.495L140.861 251H143.515V232.49H140.709V245.643H140.658L132.279 232.49H129.639V251ZM153.684 251H156.489V243.091H164.183V240.603H156.489V235.144H165.503V232.49H153.684V251ZM167.648 251H179.468V248.347H170.454V232.49H167.648V251ZM185.396 244.373L188.075 236.286H188.126L190.805 244.373H185.396ZM193.039 251H195.997L189.269 232.49H186.92L180.191 251H183.162L184.584 246.861H191.604L193.039 251ZM203.513 243.459H207.283V244.424C207.266 245.583 206.902 246.519 206.191 247.229C205.48 247.974 204.579 248.347 203.487 248.347C202.827 248.347 202.26 248.207 201.786 247.928C201.304 247.691 200.914 247.382 200.618 247.001C200.254 246.603 200.013 246.083 199.895 245.439C199.759 244.796 199.691 243.565 199.691 241.745C199.691 239.925 199.759 238.686 199.895 238.025C200.013 237.399 200.254 236.887 200.618 236.489C200.914 236.108 201.304 235.791 201.786 235.537C202.26 235.292 202.827 235.16 203.487 235.144C204.384 235.16 205.146 235.419 205.772 235.918C206.373 236.443 206.788 237.077 207.017 237.822H209.987C209.691 236.273 208.98 234.974 207.854 233.925C206.729 232.884 205.273 232.355 203.487 232.338C202.032 232.355 200.817 232.702 199.844 233.379C198.854 234.048 198.134 234.809 197.686 235.664C197.406 236.113 197.199 236.701 197.063 237.429C196.937 238.157 196.873 239.595 196.873 241.745C196.873 243.861 196.937 245.291 197.063 246.036C197.131 246.434 197.216 246.764 197.317 247.026C197.427 247.28 197.55 247.547 197.686 247.826C198.134 248.681 198.854 249.434 199.844 250.086C200.817 250.763 202.032 251.118 203.487 251.152C205.375 251.118 206.94 250.479 208.185 249.235C209.42 247.983 210.055 246.43 210.089 244.576V240.806H203.513V243.459Z" fill="white"/>
<path d="M13.2305 327.373L15.9092 319.286H15.96L18.6387 327.373H13.2305ZM20.873 334H23.8311L17.1025 315.49H14.7539L8.02539 334H10.9961L12.418 329.861H19.4385L20.873 334ZM25.8242 334H28.6299V320.848H28.6807L37.0469 334H39.7002V315.49H36.8945V328.643H36.8438L28.4648 315.49H25.8242V334ZM43.623 334H49.9072C51.2952 334 52.4674 333.695 53.4238 333.086C54.3887 332.519 55.1419 331.799 55.6836 330.928C55.8867 330.598 56.0602 330.28 56.2041 329.976C56.3395 329.662 56.4411 329.307 56.5088 328.909C56.6527 328.122 56.7246 326.734 56.7246 324.745C56.7246 322.875 56.6781 321.559 56.585 320.797C56.4665 320.035 56.1829 319.307 55.7344 318.613C54.4818 316.548 52.6029 315.507 50.0977 315.49H43.623V334ZM46.4287 318.144H49.7803C51.2021 318.11 52.3024 318.63 53.0811 319.705C53.4619 320.137 53.7031 320.7 53.8047 321.394C53.8809 322.088 53.9189 323.239 53.9189 324.847C53.9189 326.497 53.8809 327.623 53.8047 328.224C53.7201 328.833 53.5212 329.337 53.208 329.734C52.4971 330.809 51.3545 331.347 49.7803 331.347H46.4287V318.144ZM69.4707 334H72.1113V326.383L77.6846 315.49H74.7139L70.791 323.704L66.8682 315.49H63.8975L69.4707 326.383V334ZM77.9512 324.745C77.9512 326.861 78.0146 328.291 78.1416 329.036C78.2093 329.434 78.2939 329.764 78.3955 330.026C78.5055 330.28 78.6283 330.547 78.7637 330.826C79.2122 331.681 79.9316 332.434 80.9219 333.086C81.8952 333.763 83.1097 334.118 84.5654 334.152C86.0381 334.118 87.2653 333.763 88.2471 333.086C89.2204 332.434 89.9229 331.681 90.3545 330.826C90.6676 330.378 90.8835 329.781 91.002 329.036C91.112 328.291 91.167 326.861 91.167 324.745C91.167 322.595 91.112 321.157 91.002 320.429C90.8835 319.701 90.6676 319.113 90.3545 318.664C89.9229 317.809 89.2204 317.048 88.2471 316.379C87.2653 315.702 86.0381 315.355 84.5654 315.338C83.1097 315.355 81.8952 315.702 80.9219 316.379C79.9316 317.048 79.2122 317.809 78.7637 318.664C78.4844 319.113 78.277 319.701 78.1416 320.429C78.0146 321.157 77.9512 322.595 77.9512 324.745ZM80.7695 324.745C80.7695 322.925 80.8372 321.686 80.9727 321.025C81.0911 320.399 81.3324 319.887 81.6963 319.489C81.9925 319.108 82.3818 318.791 82.8643 318.537C83.3382 318.292 83.9053 318.16 84.5654 318.144C85.234 318.16 85.8138 318.292 86.3047 318.537C86.7702 318.791 87.1426 319.108 87.4219 319.489C87.7858 319.887 88.0355 320.399 88.1709 321.025C88.2979 321.686 88.3613 322.925 88.3613 324.745C88.3613 326.565 88.2979 327.796 88.1709 328.439C88.0355 329.083 87.7858 329.603 87.4219 330.001C87.1426 330.382 86.7702 330.691 86.3047 330.928C85.8138 331.207 85.234 331.347 84.5654 331.347C83.9053 331.347 83.3382 331.207 82.8643 330.928C82.3818 330.691 81.9925 330.382 81.6963 330.001C81.3324 329.603 81.0911 329.083 80.9727 328.439C80.8372 327.796 80.7695 326.565 80.7695 324.745ZM94.1123 327.729C94.1292 329.675 94.7725 331.22 96.042 332.362C97.2861 333.539 98.835 334.135 100.688 334.152C102.576 334.135 104.137 333.539 105.373 332.362C106.6 331.22 107.231 329.675 107.265 327.729V315.49H104.459V327.424C104.442 328.685 104.087 329.646 103.393 330.306C102.682 331 101.78 331.347 100.688 331.347C99.5967 331.347 98.7038 331 98.0098 330.306C97.2988 329.646 96.9349 328.685 96.918 327.424V315.49H94.1123V327.729ZM120.354 327.373L123.032 319.286H123.083L125.762 327.373H120.354ZM127.996 334H130.954L124.226 315.49H121.877L115.148 334H118.119L119.541 329.861H126.562L127.996 334ZM135.753 317.991H140.146C141.043 317.991 141.728 318.182 142.202 318.562C142.803 318.994 143.112 319.692 143.129 320.657C143.129 321.461 142.871 322.138 142.354 322.688C141.83 323.281 141.043 323.586 139.993 323.603H135.753V317.991ZM132.947 334H135.753V326.091H139.333L143.154 334H146.493L142.202 325.786C144.555 324.881 145.748 323.171 145.782 320.657C145.731 318.948 145.118 317.632 143.941 316.709C142.968 315.896 141.711 315.49 140.171 315.49H132.947V334ZM148.816 334H160.636V331.347H151.622V325.913H159.315V323.425H151.622V318.144H160.636V315.49H148.816V334ZM179.666 334H182.472V315.49H179.666V323.425H172.341V315.49H169.535V334H172.341V325.913H179.666V334ZM186.395 334H198.214V331.347H189.2V325.913H196.894V323.425H189.2V318.144H198.214V315.49H186.395V334ZM204.143 327.373L206.821 319.286H206.872L209.551 327.373H204.143ZM211.785 334H214.743L208.015 315.49H205.666L198.938 334H201.908L203.33 329.861H210.351L211.785 334ZM216.736 334H228.556V331.347H219.542V315.49H216.736V334ZM231.45 334H234.269V317.991H239.334V315.49H226.385V317.991H231.45V334ZM251.445 334H254.251V315.49H251.445V323.425H244.12V315.49H241.314V334H244.12V325.913H251.445V334ZM261.398 334H264.039V326.383L269.612 315.49H266.642L262.719 323.704L258.796 315.49H255.825L261.398 326.383V334Z" fill="#F8E8AE"/>
</svg>
