<svg width="276" height="406" viewBox="0 0 276 406" fill="none" xmlns="http://www.w3.org/2000/svg">
<rect x="0.5" y="0.5" width="275" height="405" stroke="#E79A74"/>
<path d="M108.891 180H115.365V137.285H108.891V155.596H91.9863V137.285H85.5117V180H91.9863V161.338H108.891V180Z" fill="#E79A74"/>
<path d="M137.512 179H164.787V172.877H143.986V160.338H161.74V154.596H143.986V142.408H164.787V136.285H137.512V179Z" fill="#E79A74"/>
<path d="M184.512 179H211.787V172.877H190.986V136.285H184.512V179Z" fill="#E79A74"/>
<path d="M237.986 143.408H247.332C249.09 143.369 250.633 143.77 251.961 144.609C252.84 145.117 253.523 145.811 254.012 146.689C254.48 147.666 254.715 148.867 254.715 150.293C254.715 152.012 254.139 153.574 252.986 154.98C251.775 156.426 249.969 157.168 247.566 157.207H237.986V143.408ZM231.512 180H237.986V163.33H247.83C252.225 163.252 255.564 161.846 257.85 159.111C260.076 156.514 261.189 153.633 261.189 150.469C261.189 148.125 260.75 146.094 259.871 144.375C259.031 142.598 257.938 141.23 256.59 140.273C254.988 139.004 253.406 138.164 251.844 137.754C250.281 137.441 248.66 137.285 246.98 137.285H231.512V180Z" fill="#E79A74"/>
<path d="M30.5117 269H29.5117V270H30.5117V269ZM57.7871 269V270H58.7871V269H57.7871ZM57.7871 262.877H58.7871V261.877H57.7871V262.877ZM36.9863 262.877H35.9863V263.877H36.9863V262.877ZM36.9863 226.285H37.9863V225.285H36.9863V226.285ZM30.5117 226.285V225.285H29.5117V226.285H30.5117ZM30.5117 270H57.7871V268H30.5117V270ZM58.7871 269V262.877H56.7871V269H58.7871ZM57.7871 261.877H36.9863V263.877H57.7871V261.877ZM37.9863 262.877V226.285H35.9863V262.877H37.9863ZM36.9863 225.285H30.5117V227.285H36.9863V225.285ZM29.5117 226.285V269H31.5117V226.285H29.5117Z" fill="#E79A74"/>
<path d="M75.5117 269H74.5117V270H75.5117V269ZM81.9863 269V270H82.9863V269H81.9863ZM81.9863 226.285H82.9863V225.285H81.9863V226.285ZM75.5117 226.285V225.285H74.5117V226.285H75.5117ZM75.5117 270H81.9863V268H75.5117V270ZM82.9863 269V226.285H80.9863V269H82.9863ZM81.9863 225.285H75.5117V227.285H81.9863V225.285ZM74.5117 226.285V269H76.5117V226.285H74.5117Z" fill="#E79A74"/>
<path d="M102.512 269H101.512V270H102.512V269ZM108.986 269V270H109.986V269H108.986ZM108.986 238.648V237.648H107.986V238.648H108.986ZM109.104 238.648L109.947 238.112L109.653 237.648H109.104V238.648ZM128.41 269L127.566 269.537L127.861 270H128.41V269ZM134.533 269V270H135.533V269H134.533ZM134.533 226.285H135.533V225.285H134.533V226.285ZM128.059 226.285V225.285H127.059V226.285H128.059ZM128.059 256.637V257.637H129.059V256.637H128.059ZM127.941 256.637L127.098 257.174L127.393 257.637H127.941V256.637ZM108.605 226.285L109.449 225.748L109.154 225.285H108.605V226.285ZM102.512 226.285V225.285H101.512V226.285H102.512ZM102.512 270H108.986V268H102.512V270ZM109.986 269V238.648H107.986V269H109.986ZM108.986 239.648H109.104V237.648H108.986V239.648ZM108.26 239.185L127.566 269.537L129.254 268.463L109.947 238.112L108.26 239.185ZM128.41 270H134.533V268H128.41V270ZM135.533 269V226.285H133.533V269H135.533ZM134.533 225.285H128.059V227.285H134.533V225.285ZM127.059 226.285V256.637H129.059V226.285H127.059ZM128.059 255.637H127.941V257.637H128.059V255.637ZM128.785 256.099L109.449 225.748L107.762 226.822L127.098 257.174L128.785 256.099ZM108.605 225.285H102.512V227.285H108.605V225.285ZM101.512 226.285V269H103.512V226.285H101.512Z" fill="#E79A74"/>
<path d="M155.512 269H154.512V270H155.512V269ZM182.787 269V270H183.787V269H182.787ZM182.787 262.877H183.787V261.877H182.787V262.877ZM161.986 262.877H160.986V263.877H161.986V262.877ZM161.986 250.338V249.338H160.986V250.338H161.986ZM179.74 250.338V251.338H180.74V250.338H179.74ZM179.74 244.596H180.74V243.596H179.74V244.596ZM161.986 244.596H160.986V245.596H161.986V244.596ZM161.986 232.408V231.408H160.986V232.408H161.986ZM182.787 232.408V233.408H183.787V232.408H182.787ZM182.787 226.285H183.787V225.285H182.787V226.285ZM155.512 226.285V225.285H154.512V226.285H155.512ZM155.512 270H182.787V268H155.512V270ZM183.787 269V262.877H181.787V269H183.787ZM182.787 261.877H161.986V263.877H182.787V261.877ZM162.986 262.877V250.338H160.986V262.877H162.986ZM161.986 251.338H179.74V249.338H161.986V251.338ZM180.74 250.338V244.596H178.74V250.338H180.74ZM179.74 243.596H161.986V245.596H179.74V243.596ZM162.986 244.596V232.408H160.986V244.596H162.986ZM161.986 233.408H182.787V231.408H161.986V233.408ZM183.787 232.408V226.285H181.787V232.408H183.787ZM182.787 225.285H155.512V227.285H182.787V225.285ZM154.512 226.285V269H156.512V226.285H154.512Z" fill="#E79A74"/>
</svg>
