<svg width="276" height="406" viewBox="0 0 276 406" fill="none" xmlns="http://www.w3.org/2000/svg">
<rect width="276" height="406" fill="#26325B"/>
<path d="M26.0078 168H35.6758C37.8112 168 39.6146 167.531 41.0859 166.594C42.5703 165.721 43.7292 164.615 44.5625 163.273C44.875 162.766 45.1419 162.277 45.3633 161.809C45.5716 161.327 45.7279 160.78 45.832 160.168C46.0534 158.957 46.1641 156.822 46.1641 153.762C46.1641 150.884 46.0924 148.859 45.9492 147.688C45.7669 146.516 45.3307 145.396 44.6406 144.328C42.7135 141.151 39.8229 139.549 35.9688 139.523H26.0078V168ZM30.3242 143.605H35.4805C37.668 143.553 39.3607 144.354 40.5586 146.008C41.1445 146.672 41.5156 147.538 41.6719 148.605C41.7891 149.673 41.8477 151.444 41.8477 153.918C41.8477 156.457 41.7891 158.189 41.6719 159.113C41.5417 160.051 41.2357 160.826 40.7539 161.438C39.6602 163.091 37.9023 163.918 35.4805 163.918H30.3242V143.605ZM51.2031 168H55.5195V139.523H51.2031V168ZM61.5156 168H65.832V147.766H65.9102L78.7812 168H82.8633V139.523H78.5469V159.758H78.4688L65.5781 139.523H61.5156V168ZM103.547 157.805L107.668 145.363H107.746L111.867 157.805H103.547ZM115.305 168H119.855L109.504 139.523H105.891L95.5391 168H100.109L102.297 161.633H113.098L115.305 168ZM122.551 163.078C122.551 164.862 123.059 166.132 124.074 166.887C125.038 167.629 126.262 168 127.746 168H129.562V164.152H128.156C127.141 164.152 126.633 163.69 126.633 162.766V139.523H122.551V163.078ZM133.098 147.727H131.066V150.832H133.098V163C133.098 164.602 133.566 165.826 134.504 166.672C135.415 167.557 136.587 168 138.02 168H140.148V164.152H138.625C137.635 164.178 137.154 163.677 137.18 162.648V150.832H140.148V147.727H137.18V141.555H133.098V147.727ZM159.719 159.406V156.047C159.693 153.378 158.866 151.281 157.238 149.758C155.637 148.26 153.677 147.499 151.359 147.473C150.396 147.473 149.419 147.648 148.43 148C147.427 148.352 146.522 148.924 145.715 149.719C144.921 150.5 144.27 151.568 143.762 152.922C143.254 154.25 143 155.917 143 157.922C143 160.005 143.293 161.698 143.879 163C144.413 164.354 145.109 165.409 145.969 166.164C146.411 166.529 146.887 166.835 147.395 167.082C147.876 167.368 148.371 167.596 148.879 167.766C149.895 168.078 150.936 168.234 152.004 168.234C154.803 168.26 157.238 167.167 159.309 164.953L156.359 162.434C155.057 163.749 153.579 164.406 151.926 164.406C150.507 164.406 149.361 163.977 148.488 163.117C147.551 162.271 147.082 161.034 147.082 159.406H159.719ZM147.082 156.047C147.16 154.471 147.583 153.28 148.352 152.473C149.133 151.704 150.135 151.32 151.359 151.32C152.583 151.32 153.586 151.704 154.367 152.473C155.161 153.28 155.585 154.471 155.637 156.047H147.082ZM163.996 168H168.078V155.793C168.104 154.309 168.534 153.234 169.367 152.57C170.109 151.893 171.001 151.555 172.043 151.555C172.967 151.555 173.859 151.893 174.719 152.57L177.688 149.035C176.477 148.02 175.057 147.499 173.43 147.473C171.255 147.473 169.497 148.273 168.156 149.875H168.078V147.727H163.996V168ZM178.605 168H182.688V155.93C182.688 154.51 183.072 153.43 183.84 152.688C184.595 151.932 185.559 151.555 186.73 151.555C187.902 151.555 188.859 151.932 189.602 152.688C190.357 153.43 190.734 154.51 190.734 155.93V168H194.816V154.523C194.751 152.206 194.029 150.448 192.648 149.25C191.255 148.065 189.719 147.473 188.039 147.473C185.865 147.473 184.107 148.273 182.766 149.875H182.688V147.727H178.605V168ZM210.734 168H214.816V154.152C214.79 151.678 214.016 149.934 212.492 148.918C210.969 147.928 208.931 147.447 206.379 147.473C203.358 147.421 201.073 148.41 199.523 150.441L202.727 152.883C203.078 152.297 203.56 151.88 204.172 151.633C204.758 151.424 205.559 151.32 206.574 151.32C209.374 151.268 210.76 152.134 210.734 153.918V156.047H205.09C202.928 156.073 201.288 156.659 200.168 157.805C199.048 158.924 198.488 160.337 198.488 162.043C198.488 163.827 199.133 165.292 200.422 166.438C201.646 167.609 203.391 168.208 205.656 168.234C207.036 168.234 208.117 168.065 208.898 167.727C209.693 167.401 210.279 166.893 210.656 166.203H210.734V168ZM210.734 160.871C210.734 162.395 210.415 163.371 209.777 163.801C209.074 164.23 207.87 164.432 206.164 164.406C204.81 164.406 203.84 164.139 203.254 163.605C202.642 163.124 202.336 162.538 202.336 161.848C202.31 160.272 203.482 159.458 205.852 159.406H210.734V160.871ZM220.324 147.727H218.293V150.832H220.324V163C220.324 164.602 220.793 165.826 221.73 166.672C222.642 167.557 223.814 168 225.246 168H227.375V164.152H225.852C224.862 164.178 224.38 163.677 224.406 162.648V150.832H227.375V147.727H224.406V141.555H220.324V147.727ZM246.945 159.406V156.047C246.919 153.378 246.092 151.281 244.465 149.758C242.863 148.26 240.904 147.499 238.586 147.473C237.622 147.473 236.646 147.648 235.656 148C234.654 148.352 233.749 148.924 232.941 149.719C232.147 150.5 231.496 151.568 230.988 152.922C230.48 154.25 230.227 155.917 230.227 157.922C230.227 160.005 230.52 161.698 231.105 163C231.639 164.354 232.336 165.409 233.195 166.164C233.638 166.529 234.113 166.835 234.621 167.082C235.103 167.368 235.598 167.596 236.105 167.766C237.121 168.078 238.163 168.234 239.23 168.234C242.03 168.26 244.465 167.167 246.535 164.953L243.586 162.434C242.284 163.749 240.806 164.406 239.152 164.406C237.733 164.406 236.587 163.977 235.715 163.117C234.777 162.271 234.309 161.034 234.309 159.406H246.945ZM234.309 156.047C234.387 154.471 234.81 153.28 235.578 152.473C236.359 151.704 237.362 151.32 238.586 151.32C239.81 151.32 240.812 151.704 241.594 152.473C242.388 153.28 242.811 154.471 242.863 156.047H234.309Z" fill="white"/>
<path d="M26.0078 225H35.6758C37.8112 225 39.6146 224.531 41.0859 223.594C42.5703 222.721 43.7292 221.615 44.5625 220.273C44.875 219.766 45.1419 219.277 45.3633 218.809C45.5716 218.327 45.7279 217.78 45.832 217.168C46.0534 215.957 46.1641 213.822 46.1641 210.762C46.1641 207.884 46.0924 205.859 45.9492 204.688C45.7669 203.516 45.3307 202.396 44.6406 201.328C42.7135 198.151 39.8229 196.549 35.9688 196.523H26.0078V225ZM30.3242 200.605H35.4805C37.668 200.553 39.3607 201.354 40.5586 203.008C41.1445 203.672 41.5156 204.538 41.6719 205.605C41.7891 206.673 41.8477 208.444 41.8477 210.918C41.8477 213.457 41.7891 215.189 41.6719 216.113C41.5417 217.051 41.2357 217.826 40.7539 218.438C39.6602 220.091 37.9023 220.918 35.4805 220.918H30.3242V200.605ZM51.2031 225H55.5195V196.523H51.2031V225ZM61.5156 225H65.832V204.766H65.9102L78.7812 225H82.8633V196.523H78.5469V216.758H78.4688L65.5781 196.523H61.5156V225ZM103.547 214.805L107.668 202.363H107.746L111.867 214.805H103.547ZM115.305 225H119.855L109.504 196.523H105.891L95.5391 225H100.109L102.297 218.633H113.098L115.305 225ZM122.551 220.078C122.551 221.862 123.059 223.132 124.074 223.887C125.038 224.629 126.262 225 127.746 225H129.562V221.152H128.156C127.141 221.152 126.633 220.69 126.633 219.766V196.523H122.551V220.078ZM133.098 204.727H131.066V207.832H133.098V220C133.098 221.602 133.566 222.826 134.504 223.672C135.415 224.557 136.587 225 138.02 225H140.148V221.152H138.625C137.635 221.178 137.154 220.677 137.18 219.648V207.832H140.148V204.727H137.18V198.555H133.098V204.727ZM159.719 216.406V213.047C159.693 210.378 158.866 208.281 157.238 206.758C155.637 205.26 153.677 204.499 151.359 204.473C150.396 204.473 149.419 204.648 148.43 205C147.427 205.352 146.522 205.924 145.715 206.719C144.921 207.5 144.27 208.568 143.762 209.922C143.254 211.25 143 212.917 143 214.922C143 217.005 143.293 218.698 143.879 220C144.413 221.354 145.109 222.409 145.969 223.164C146.411 223.529 146.887 223.835 147.395 224.082C147.876 224.368 148.371 224.596 148.879 224.766C149.895 225.078 150.936 225.234 152.004 225.234C154.803 225.26 157.238 224.167 159.309 221.953L156.359 219.434C155.057 220.749 153.579 221.406 151.926 221.406C150.507 221.406 149.361 220.977 148.488 220.117C147.551 219.271 147.082 218.034 147.082 216.406H159.719ZM147.082 213.047C147.16 211.471 147.583 210.28 148.352 209.473C149.133 208.704 150.135 208.32 151.359 208.32C152.583 208.32 153.586 208.704 154.367 209.473C155.161 210.28 155.585 211.471 155.637 213.047H147.082ZM163.996 225H168.078V212.793C168.104 211.309 168.534 210.234 169.367 209.57C170.109 208.893 171.001 208.555 172.043 208.555C172.967 208.555 173.859 208.893 174.719 209.57L177.688 206.035C176.477 205.02 175.057 204.499 173.43 204.473C171.255 204.473 169.497 205.273 168.156 206.875H168.078V204.727H163.996V225ZM178.605 225H182.688V212.93C182.688 211.51 183.072 210.43 183.84 209.688C184.595 208.932 185.559 208.555 186.73 208.555C187.902 208.555 188.859 208.932 189.602 209.688C190.357 210.43 190.734 211.51 190.734 212.93V225H194.816V211.523C194.751 209.206 194.029 207.448 192.648 206.25C191.255 205.065 189.719 204.473 188.039 204.473C185.865 204.473 184.107 205.273 182.766 206.875H182.688V204.727H178.605V225ZM210.734 225H214.816V211.152C214.79 208.678 214.016 206.934 212.492 205.918C210.969 204.928 208.931 204.447 206.379 204.473C203.358 204.421 201.073 205.41 199.523 207.441L202.727 209.883C203.078 209.297 203.56 208.88 204.172 208.633C204.758 208.424 205.559 208.32 206.574 208.32C209.374 208.268 210.76 209.134 210.734 210.918V213.047H205.09C202.928 213.073 201.288 213.659 200.168 214.805C199.048 215.924 198.488 217.337 198.488 219.043C198.488 220.827 199.133 222.292 200.422 223.438C201.646 224.609 203.391 225.208 205.656 225.234C207.036 225.234 208.117 225.065 208.898 224.727C209.693 224.401 210.279 223.893 210.656 223.203H210.734V225ZM210.734 217.871C210.734 219.395 210.415 220.371 209.777 220.801C209.074 221.23 207.87 221.432 206.164 221.406C204.81 221.406 203.84 221.139 203.254 220.605C202.642 220.124 202.336 219.538 202.336 218.848C202.31 217.272 203.482 216.458 205.852 216.406H210.734V217.871ZM220.324 204.727H218.293V207.832H220.324V220C220.324 221.602 220.793 222.826 221.73 223.672C222.642 224.557 223.814 225 225.246 225H227.375V221.152H225.852C224.862 221.178 224.38 220.677 224.406 219.648V207.832H227.375V204.727H224.406V198.555H220.324V204.727ZM246.945 216.406V213.047C246.919 210.378 246.092 208.281 244.465 206.758C242.863 205.26 240.904 204.499 238.586 204.473C237.622 204.473 236.646 204.648 235.656 205C234.654 205.352 233.749 205.924 232.941 206.719C232.147 207.5 231.496 208.568 230.988 209.922C230.48 211.25 230.227 212.917 230.227 214.922C230.227 217.005 230.52 218.698 231.105 220C231.639 221.354 232.336 222.409 233.195 223.164C233.638 223.529 234.113 223.835 234.621 224.082C235.103 224.368 235.598 224.596 236.105 224.766C237.121 225.078 238.163 225.234 239.23 225.234C242.03 225.26 244.465 224.167 246.535 221.953L243.586 219.434C242.284 220.749 240.806 221.406 239.152 221.406C237.733 221.406 236.587 220.977 235.715 220.117C234.777 219.271 234.309 218.034 234.309 216.406H246.945ZM234.309 213.047C234.387 211.471 234.81 210.28 235.578 209.473C236.359 208.704 237.362 208.32 238.586 208.32C239.81 208.32 240.812 208.704 241.594 209.473C242.388 210.28 242.811 211.471 242.863 213.047H234.309Z" fill="white"/>
<path d="M26.0078 282H35.6758C37.8112 282 39.6146 281.531 41.0859 280.594C42.5703 279.721 43.7292 278.615 44.5625 277.273C44.875 276.766 45.1419 276.277 45.3633 275.809C45.5716 275.327 45.7279 274.78 45.832 274.168C46.0534 272.957 46.1641 270.822 46.1641 267.762C46.1641 264.884 46.0924 262.859 45.9492 261.688C45.7669 260.516 45.3307 259.396 44.6406 258.328C42.7135 255.151 39.8229 253.549 35.9688 253.523H26.0078V282ZM30.3242 257.605H35.4805C37.668 257.553 39.3607 258.354 40.5586 260.008C41.1445 260.672 41.5156 261.538 41.6719 262.605C41.7891 263.673 41.8477 265.444 41.8477 267.918C41.8477 270.457 41.7891 272.189 41.6719 273.113C41.5417 274.051 41.2357 274.826 40.7539 275.438C39.6602 277.091 37.9023 277.918 35.4805 277.918H30.3242V257.605ZM51.2031 282H55.5195V253.523H51.2031V282ZM61.5156 282H65.832V261.766H65.9102L78.7812 282H82.8633V253.523H78.5469V273.758H78.4688L65.5781 253.523H61.5156V282ZM103.547 271.805L107.668 259.363H107.746L111.867 271.805H103.547ZM115.305 282H119.855L109.504 253.523H105.891L95.5391 282H100.109L102.297 275.633H113.098L115.305 282ZM122.551 277.078C122.551 278.862 123.059 280.132 124.074 280.887C125.038 281.629 126.262 282 127.746 282H129.562V278.152H128.156C127.141 278.152 126.633 277.69 126.633 276.766V253.523H122.551V277.078ZM133.098 261.727H131.066V264.832H133.098V277C133.098 278.602 133.566 279.826 134.504 280.672C135.415 281.557 136.587 282 138.02 282H140.148V278.152H138.625C137.635 278.178 137.154 277.677 137.18 276.648V264.832H140.148V261.727H137.18V255.555H133.098V261.727ZM159.719 273.406V270.047C159.693 267.378 158.866 265.281 157.238 263.758C155.637 262.26 153.677 261.499 151.359 261.473C150.396 261.473 149.419 261.648 148.43 262C147.427 262.352 146.522 262.924 145.715 263.719C144.921 264.5 144.27 265.568 143.762 266.922C143.254 268.25 143 269.917 143 271.922C143 274.005 143.293 275.698 143.879 277C144.413 278.354 145.109 279.409 145.969 280.164C146.411 280.529 146.887 280.835 147.395 281.082C147.876 281.368 148.371 281.596 148.879 281.766C149.895 282.078 150.936 282.234 152.004 282.234C154.803 282.26 157.238 281.167 159.309 278.953L156.359 276.434C155.057 277.749 153.579 278.406 151.926 278.406C150.507 278.406 149.361 277.977 148.488 277.117C147.551 276.271 147.082 275.034 147.082 273.406H159.719ZM147.082 270.047C147.16 268.471 147.583 267.28 148.352 266.473C149.133 265.704 150.135 265.32 151.359 265.32C152.583 265.32 153.586 265.704 154.367 266.473C155.161 267.28 155.585 268.471 155.637 270.047H147.082ZM163.996 282H168.078V269.793C168.104 268.309 168.534 267.234 169.367 266.57C170.109 265.893 171.001 265.555 172.043 265.555C172.967 265.555 173.859 265.893 174.719 266.57L177.688 263.035C176.477 262.02 175.057 261.499 173.43 261.473C171.255 261.473 169.497 262.273 168.156 263.875H168.078V261.727H163.996V282ZM178.605 282H182.688V269.93C182.688 268.51 183.072 267.43 183.84 266.688C184.595 265.932 185.559 265.555 186.73 265.555C187.902 265.555 188.859 265.932 189.602 266.688C190.357 267.43 190.734 268.51 190.734 269.93V282H194.816V268.523C194.751 266.206 194.029 264.448 192.648 263.25C191.255 262.065 189.719 261.473 188.039 261.473C185.865 261.473 184.107 262.273 182.766 263.875H182.688V261.727H178.605V282ZM210.734 282H214.816V268.152C214.79 265.678 214.016 263.934 212.492 262.918C210.969 261.928 208.931 261.447 206.379 261.473C203.358 261.421 201.073 262.41 199.523 264.441L202.727 266.883C203.078 266.297 203.56 265.88 204.172 265.633C204.758 265.424 205.559 265.32 206.574 265.32C209.374 265.268 210.76 266.134 210.734 267.918V270.047H205.09C202.928 270.073 201.288 270.659 200.168 271.805C199.048 272.924 198.488 274.337 198.488 276.043C198.488 277.827 199.133 279.292 200.422 280.438C201.646 281.609 203.391 282.208 205.656 282.234C207.036 282.234 208.117 282.065 208.898 281.727C209.693 281.401 210.279 280.893 210.656 280.203H210.734V282ZM210.734 274.871C210.734 276.395 210.415 277.371 209.777 277.801C209.074 278.23 207.87 278.432 206.164 278.406C204.81 278.406 203.84 278.139 203.254 277.605C202.642 277.124 202.336 276.538 202.336 275.848C202.31 274.272 203.482 273.458 205.852 273.406H210.734V274.871ZM220.324 261.727H218.293V264.832H220.324V277C220.324 278.602 220.793 279.826 221.73 280.672C222.642 281.557 223.814 282 225.246 282H227.375V278.152H225.852C224.862 278.178 224.38 277.677 224.406 276.648V264.832H227.375V261.727H224.406V255.555H220.324V261.727ZM246.945 273.406V270.047C246.919 267.378 246.092 265.281 244.465 263.758C242.863 262.26 240.904 261.499 238.586 261.473C237.622 261.473 236.646 261.648 235.656 262C234.654 262.352 233.749 262.924 232.941 263.719C232.147 264.5 231.496 265.568 230.988 266.922C230.48 268.25 230.227 269.917 230.227 271.922C230.227 274.005 230.52 275.698 231.105 277C231.639 278.354 232.336 279.409 233.195 280.164C233.638 280.529 234.113 280.835 234.621 281.082C235.103 281.368 235.598 281.596 236.105 281.766C237.121 282.078 238.163 282.234 239.23 282.234C242.03 282.26 244.465 281.167 246.535 278.953L243.586 276.434C242.284 277.749 240.806 278.406 239.152 278.406C237.733 278.406 236.587 277.977 235.715 277.117C234.777 276.271 234.309 275.034 234.309 273.406H246.945ZM234.309 270.047C234.387 268.471 234.81 267.28 235.578 266.473C236.359 265.704 237.362 265.32 238.586 265.32C239.81 265.32 240.812 265.704 241.594 266.473C242.388 267.28 242.811 268.471 242.863 270.047H234.309Z" fill="white"/>
<path d="M28.2305 107.373L30.9092 99.2861H30.96L33.6387 107.373H28.2305ZM35.873 114H38.8311L32.1025 95.4902H29.7539L23.0254 114H25.9961L27.418 109.861H34.4385L35.873 114ZM47.502 114H50.1553V104.999C50.1383 103.391 49.6348 102.257 48.6445 101.597C47.6543 100.953 46.3298 100.64 44.6709 100.657C42.7074 100.623 41.222 101.267 40.2148 102.587L42.2969 104.174C42.5254 103.793 42.8385 103.522 43.2363 103.361C43.6172 103.226 44.1377 103.158 44.7979 103.158C46.6175 103.124 47.5189 103.687 47.502 104.847V106.23H43.833C42.4281 106.247 41.3617 106.628 40.6338 107.373C39.9059 108.101 39.542 109.019 39.542 110.128C39.542 111.287 39.9609 112.24 40.7988 112.984C41.5944 113.746 42.7285 114.135 44.2012 114.152C45.0983 114.152 45.8008 114.042 46.3086 113.822C46.8249 113.611 47.2057 113.281 47.4512 112.832H47.502V114ZM47.502 109.366C47.502 110.356 47.2946 110.991 46.8799 111.271C46.4229 111.55 45.64 111.681 44.5312 111.664C43.651 111.664 43.0205 111.491 42.6396 111.144C42.2419 110.83 42.043 110.45 42.043 110.001C42.026 108.977 42.7878 108.448 44.3281 108.414H47.502V109.366Z" fill="white"/>
</svg>
