<svg width="137" height="137" viewBox="0 0 137 137" fill="none" xmlns="http://www.w3.org/2000/svg">
<g filter="url(#filter0_i)">
<path d="M81.8568 0.129057C90.7444 0.712579 99.0878 3.38133 105.05 7.17423C118.717 15.8841 124.611 25.4608 128.013 31.459C131.321 37.2771 137.845 50.1918 136.909 64.2736C136.668 68.0672 136.174 71.84 135.429 75.5664L135.089 77.4028C134.613 80.1831 134.315 83.0321 134.817 89.2277C135.412 96.5303 133.949 104.528 130.888 111.625C127.826 118.704 123.021 125.243 116.616 129.276C103.306 137.669 87.2744 139.488 72.2377 133.421C65.3573 130.649 63.0354 129.988 60.4329 129.834C58.6018 129.762 56.7682 129.78 54.9387 129.885H54.8792C52.4128 129.988 49.2489 130.109 44.8519 130.109C25.5202 130.109 12.6608 118.438 6.09495 105.704C-3.52412 87.0309 -3.26046 58.7644 17.8913 41.9195C24.355 36.7708 26.2856 35.0546 28.4629 31.3904C32.0435 25.3664 35.4454 20.6467 39.5618 16.5792C43.6867 12.4946 48.3729 9.20797 54.3944 5.86988C63.146 1.01292 72.9351 -0.463046 81.8568 0.120476V0.129057ZM81.304 8.6931C73.6496 8.17823 65.5359 9.48257 58.4853 13.3956C52.9231 16.4848 48.9257 19.3338 45.5153 22.7062C42.1048 26.0872 39.1281 30.1375 35.7601 35.8011C32.6813 40.9756 29.5685 43.55 23.1643 48.6472C6.06944 62.2656 5.33801 85.6322 13.6388 101.748C19.1245 112.388 29.441 121.527 44.8519 121.527C49.0873 121.527 52.1321 121.407 54.573 121.313H54.7346C57.082 121.227 59.0721 121.141 60.9687 121.27C65.0766 121.527 68.5381 122.686 75.3931 125.458C87.8188 130.469 101.01 129.002 112.109 121.999C116.684 119.116 120.529 114.148 123.089 108.192C125.657 102.254 126.814 95.6808 126.346 89.9314C125.785 83.075 126.091 79.4966 126.712 75.9268L127.094 73.8588C127.579 71.2587 128.098 68.4955 128.421 63.6986C129.187 52.3114 123.803 41.3017 120.639 35.7239C117.569 30.3349 112.526 22.0798 100.508 14.4339C95.9154 11.5077 88.9924 9.19939 81.304 8.68452V8.6931Z" fill="#505050"/>
</g>
<path d="M71.6867 110.23C81.8266 110.23 91.5512 106.166 98.7212 98.9303C105.891 91.6951 109.919 81.882 109.919 71.6498C109.919 61.4176 105.891 51.6045 98.7212 44.3693C91.5512 37.1341 81.8266 33.0693 71.6867 33.0693C61.5468 33.0693 51.8222 37.1341 44.6522 44.3693C37.4822 51.6045 33.4541 61.4176 33.4541 71.6498C33.4541 81.882 37.4822 91.6951 44.6522 98.9303C51.8222 106.166 61.5468 110.23 71.6867 110.23ZM71.6867 101.647C67.7829 101.647 63.9173 100.871 60.3106 99.3639C56.704 97.8563 53.4269 95.6467 50.6665 92.8612C47.9061 90.0757 45.7164 86.7688 44.2225 83.1293C42.7286 79.4899 41.9597 75.5891 41.9597 71.6498C41.9597 67.7105 42.7286 63.8097 44.2225 60.1703C45.7164 56.5308 47.9061 53.2239 50.6665 50.4384C53.4269 47.6528 56.704 45.4432 60.3106 43.9357C63.9173 42.4282 67.7829 41.6523 71.6867 41.6523C79.5707 41.6523 87.1319 44.8127 92.7068 50.4384C98.2817 56.064 101.414 63.694 101.414 71.6498C101.414 79.6056 98.2817 87.2356 92.7068 92.8612C87.1319 98.4868 79.5707 101.647 71.6867 101.647Z" fill="#505050"/>
<defs>
<filter id="filter0_i" x="0" y="0" width="137" height="141" filterUnits="userSpaceOnUse" color-interpolation-filters="sRGB">
<feFlood flood-opacity="0" result="BackgroundImageFix"/>
<feBlend mode="normal" in="SourceGraphic" in2="BackgroundImageFix" result="shape"/>
<feColorMatrix in="SourceAlpha" type="matrix" values="0 0 0 0 0 0 0 0 0 0 0 0 0 0 0 0 0 0 127 0" result="hardAlpha"/>
<feOffset dy="4"/>
<feGaussianBlur stdDeviation="2"/>
<feComposite in2="hardAlpha" operator="arithmetic" k2="-1" k3="1"/>
<feColorMatrix type="matrix" values="0 0 0 0 0 0 0 0 0 0 0 0 0 0 0 0 0 0 0.25 0"/>
<feBlend mode="normal" in2="shape" result="effect1_innerShadow"/>
</filter>
</defs>
</svg>
