<svg width="176" height="196" viewBox="0 0 176 196" fill="none" xmlns="http://www.w3.org/2000/svg">
<path d="M42.6089 167.294L36.8489 159.194C36.2009 159.266 35.5289 159.302 34.8329 159.302H28.0649V167.294H25.4009V142.094H34.8329C38.0489 142.094 40.5689 142.862 42.3929 144.398C44.2169 145.934 45.1289 148.046 45.1289 150.734C45.1289 152.702 44.6249 154.37 43.6169 155.738C42.6329 157.082 41.2169 158.054 39.3689 158.654L45.5249 167.294H42.6089ZM34.7609 157.034C37.2569 157.034 39.1649 156.482 40.4849 155.378C41.8049 154.274 42.4649 152.726 42.4649 150.734C42.4649 148.694 41.8049 147.134 40.4849 146.054C39.1649 144.95 37.2569 144.398 34.7609 144.398H28.0649V157.034H34.7609ZM50.8765 148.358H53.4325V167.294H50.8765V148.358ZM52.1725 144.218C51.6445 144.218 51.2005 144.038 50.8405 143.678C50.4805 143.318 50.3005 142.886 50.3005 142.382C50.3005 141.902 50.4805 141.482 50.8405 141.122C51.2005 140.762 51.6445 140.582 52.1725 140.582C52.7005 140.582 53.1445 140.762 53.5045 141.122C53.8645 141.458 54.0445 141.866 54.0445 142.346C54.0445 142.874 53.8645 143.318 53.5045 143.678C53.1445 144.038 52.7005 144.218 52.1725 144.218ZM65.6205 167.474C64.0845 167.474 62.6085 167.258 61.1925 166.826C59.8005 166.37 58.7085 165.806 57.9165 165.134L59.0685 163.118C59.8605 163.742 60.8565 164.258 62.0565 164.666C63.2565 165.05 64.5045 165.242 65.8005 165.242C67.5285 165.242 68.8005 164.978 69.6165 164.45C70.4565 163.898 70.8765 163.13 70.8765 162.146C70.8765 161.45 70.6485 160.91 70.1925 160.526C69.7365 160.118 69.1605 159.818 68.4645 159.626C67.7685 159.41 66.8445 159.206 65.6925 159.014C64.1565 158.726 62.9205 158.438 61.9845 158.15C61.0485 157.838 60.2445 157.322 59.5725 156.602C58.9245 155.882 58.6005 154.886 58.6005 153.614C58.6005 152.03 59.2605 150.734 60.5805 149.726C61.9005 148.718 63.7365 148.214 66.0885 148.214C67.3125 148.214 68.5365 148.382 69.7605 148.718C70.9845 149.03 71.9925 149.45 72.7845 149.978L71.6685 152.03C70.1085 150.95 68.2485 150.41 66.0885 150.41C64.4565 150.41 63.2205 150.698 62.3805 151.274C61.5645 151.85 61.1565 152.606 61.1565 153.542C61.1565 154.262 61.3845 154.838 61.8405 155.27C62.3205 155.702 62.9085 156.026 63.6045 156.242C64.3005 156.434 65.2605 156.638 66.4845 156.854C67.9965 157.142 69.2085 157.43 70.1205 157.718C71.0325 158.006 71.8125 158.498 72.4605 159.194C73.1085 159.89 73.4325 160.85 73.4325 162.074C73.4325 163.73 72.7365 165.05 71.3445 166.034C69.9765 166.994 68.0685 167.474 65.6205 167.474ZM94.6458 158.618H78.8058C78.9498 160.586 79.7058 162.182 81.0738 163.406C82.4418 164.606 84.1698 165.206 86.2578 165.206C87.4338 165.206 88.5138 165.002 89.4978 164.594C90.4818 164.162 91.3338 163.538 92.0538 162.722L93.4938 164.378C92.6538 165.386 91.5978 166.154 90.3258 166.682C89.0778 167.21 87.6978 167.474 86.1858 167.474C84.2418 167.474 82.5138 167.066 81.0018 166.25C79.5138 165.41 78.3498 164.258 77.5098 162.794C76.6698 161.33 76.2498 159.674 76.2498 157.826C76.2498 155.978 76.6458 154.322 77.4378 152.858C78.2538 151.394 79.3578 150.254 80.7498 149.438C82.1658 148.622 83.7498 148.214 85.5018 148.214C87.2538 148.214 88.8258 148.622 90.2178 149.438C91.6098 150.254 92.7018 151.394 93.4938 152.858C94.2858 154.298 94.6818 155.954 94.6818 157.826L94.6458 158.618ZM85.5018 150.41C83.6778 150.41 82.1418 150.998 80.8938 152.174C79.6698 153.326 78.9738 154.838 78.8058 156.71H92.2338C92.0658 154.838 91.3578 153.326 90.1098 152.174C88.8858 150.998 87.3498 150.41 85.5018 150.41ZM119.998 167.51C116.734 167.51 114.19 166.574 112.366 164.702C110.542 162.83 109.63 160.106 109.63 156.53V142.094H112.294V156.422C112.294 159.35 112.954 161.534 114.274 162.974C115.594 164.414 117.502 165.134 119.998 165.134C122.518 165.134 124.438 164.414 125.758 162.974C127.078 161.534 127.738 159.35 127.738 156.422V142.094H130.33V156.53C130.33 160.106 129.418 162.83 127.594 164.702C125.794 166.574 123.262 167.51 119.998 167.51ZM147.574 148.214C149.35 148.214 150.958 148.622 152.398 149.438C153.838 150.23 154.966 151.358 155.782 152.822C156.598 154.286 157.006 155.954 157.006 157.826C157.006 159.722 156.598 161.402 155.782 162.866C154.966 164.33 153.838 165.47 152.398 166.286C150.982 167.078 149.374 167.474 147.574 167.474C146.038 167.474 144.646 167.162 143.398 166.538C142.174 165.89 141.166 164.954 140.374 163.73V174.278H137.818V148.358H140.266V152.102C141.034 150.854 142.042 149.894 143.29 149.222C144.562 148.55 145.99 148.214 147.574 148.214ZM147.394 165.206C148.714 165.206 149.914 164.906 150.994 164.306C152.074 163.682 152.914 162.806 153.514 161.678C154.138 160.55 154.45 159.266 154.45 157.826C154.45 156.386 154.138 155.114 153.514 154.01C152.914 152.882 152.074 152.006 150.994 151.382C149.914 150.758 148.714 150.446 147.394 150.446C146.05 150.446 144.838 150.758 143.758 151.382C142.702 152.006 141.862 152.882 141.238 154.01C140.638 155.114 140.338 156.386 140.338 157.826C140.338 159.266 140.638 160.55 141.238 161.678C141.862 162.806 142.702 163.682 143.758 164.306C144.838 164.906 146.05 165.206 147.394 165.206Z" fill="#E79A74"/>
<path d="M112.985 96.9404C125.714 91.462 133.153 80.5951 133.153 65.8664C133.153 43.8632 104.201 32.9962 73.8135 32.9962L83.4047 49.3415C97.2985 49.3415 110.117 55.0893 110.117 65.8664C110.117 76.6435 103.125 83.02 89.3208 83.02H70.7658V50.6887H78.2057L68.7938 35.6905L59.3819 20.6924L49.97 35.6905L40.6477 50.6887H48.0876V128.463H70.7658V101.161H91.6513L110.565 128.463H134.946L112.985 96.9404Z" fill="#E79A74"/>
<path d="M112.985 96.9404C125.714 91.462 133.153 80.5951 133.153 65.8664C133.153 43.8632 104.201 32.9962 73.8135 32.9962L83.4047 49.3415C97.2985 49.3415 110.117 55.0893 110.117 65.8664C110.117 76.6435 103.125 83.02 89.3208 83.02H70.7658V50.6887H78.2057L68.7938 35.6905L59.3819 20.6924L49.97 35.6905L40.6477 50.6887H48.0876V128.463H70.7658V101.161H91.6513L110.565 128.463H134.946L112.985 96.9404Z" fill="url(#paint0_linear)"/>
<path d="M172.504 3H3V192.515H172.504V3Z" stroke="#26325B" stroke-width="6" stroke-miterlimit="10"/>
<defs>
<linearGradient id="paint0_linear" x1="87.7969" y1="20.6924" x2="87.7969" y2="128.463" gradientUnits="userSpaceOnUse">
<stop offset="0.317708" stop-color="#E67571"/>
<stop offset="1" stop-color="#E79A74"/>
</linearGradient>
</defs>
</svg>
