<svg width="137" height="137" viewBox="0 0 137 137" fill="none" xmlns="http://www.w3.org/2000/svg">
<g filter="url(#filter0_i)">
<path d="M132.3 22.8345H106.311L108.857 12.6567L119.794 8.93207C122.12 8.14148 123.504 5.6698 122.833 3.30658C122.663 2.71211 122.373 2.15849 121.982 1.67931C121.591 1.20013 121.107 0.805387 120.559 0.519013C120.01 0.232638 119.41 0.0606052 118.793 0.0133493C118.176 -0.0339066 117.557 0.0445995 116.971 0.244105L103.557 4.81071C102.835 5.05705 102.186 5.48053 101.669 6.04244C101.153 6.60435 100.785 7.28677 100.6 8.02731L96.8986 22.8345H59.4933C57.036 22.8345 54.9268 24.724 54.8041 27.1814C54.7744 27.7988 54.8703 28.4159 55.0861 28.9952C55.3018 29.5744 55.633 30.1039 56.0594 30.5514C56.4858 30.9989 56.9987 31.3552 57.5669 31.5987C58.1351 31.8421 58.7468 31.9677 59.3649 31.9677H60.1498L60.4352 34.4394C60.5024 35.0166 60.7794 35.549 61.2136 35.9353C61.6477 36.3215 62.2087 36.5347 62.7898 36.5343C73.9206 36.5343 83.8128 39.6453 91.3646 45.5306C95.565 48.7671 98.97 52.921 101.32 57.6749C102.635 60.3489 103.605 63.179 104.208 66.0974C104.328 66.6661 104.665 67.1657 105.147 67.4902C109.029 70.1247 111.893 74.0084 113.263 78.4961C114.633 82.9837 114.426 87.8049 112.676 92.1585C112.472 92.6623 112.457 93.2226 112.633 93.7368C113.644 96.6344 114.161 99.6812 114.163 102.75C114.163 109.126 111.994 115.203 108.055 119.861C105.822 122.519 103.013 124.634 99.8411 126.046C99.2924 126.287 98.8608 126.735 98.6396 127.293C97.4542 130.381 95.7804 133.258 93.6821 135.815C93.5947 135.919 93.5388 136.045 93.5208 136.18C93.5027 136.314 93.5234 136.451 93.5803 136.574C93.6372 136.697 93.728 136.802 93.8421 136.875C93.9561 136.948 94.0887 136.988 94.2244 136.988H108.269C111.708 136.974 115.017 135.673 117.544 133.342C120.072 131.01 121.635 127.817 121.926 124.39L131.687 31.9677H132.429C133.047 31.9685 133.66 31.8435 134.229 31.6004C134.797 31.3572 135.311 31.0011 135.738 30.5535C136.165 30.1059 136.497 29.5762 136.713 28.9965C136.929 28.4168 137.025 27.7993 136.995 27.1814C136.875 24.724 134.758 22.8345 132.3 22.8345Z" fill="#505050"/>
<path d="M26.4543 86.7676C27.3549 86.7633 28.2474 86.9377 29.0803 87.2806C29.9131 87.6236 30.6696 88.1282 31.3061 88.7655L35.7328 93.1922C35.8388 93.2984 35.9647 93.3826 36.1033 93.44C36.2419 93.4975 36.3905 93.5271 36.5405 93.5271C36.6905 93.5271 36.8391 93.4975 36.9777 93.44C37.1163 93.3826 37.2422 93.2984 37.3482 93.1922L41.7663 88.7655C42.4028 88.1282 43.1593 87.6236 43.9922 87.2806C44.825 86.9377 45.7175 86.7633 46.6182 86.7676H102.723C103.023 86.7706 103.321 86.7145 103.599 86.6025C103.877 86.4906 104.13 86.3249 104.344 86.115C104.559 85.9051 104.729 85.655 104.847 85.3791C104.964 85.1033 105.026 84.8069 105.029 84.5071V84.4842C105.026 81.8534 104.116 79.3041 102.452 77.266C100.789 75.228 98.4732 73.8259 95.8963 73.296C95.6623 64.8221 92.186 57.7296 85.7615 52.7462C79.8194 48.1111 71.8794 45.668 62.7892 45.668H42.24C22.7697 45.668 9.58107 56.7335 9.13298 73.296C6.55609 73.8259 4.24067 75.228 2.57701 77.266C0.913358 79.3041 0.00321415 81.8534 0 84.4842C0 85.0898 0.240555 85.6706 0.668747 86.0988C1.09694 86.527 1.67769 86.7676 2.28325 86.7676H26.4543Z" fill="#505050"/>
<path d="M48.5018 95.8995C48.2019 95.8992 47.9049 95.9581 47.6277 96.0727C47.3505 96.1873 47.0986 96.3554 46.8864 96.5673L40.5676 102.889C39.4971 103.959 38.0455 104.561 36.5319 104.561C35.0183 104.561 33.5667 103.959 32.4963 102.889L26.1774 96.5673C25.9652 96.3554 25.7133 96.1873 25.4362 96.0727C25.159 95.9581 24.8619 95.8992 24.562 95.8995H4.75486C3.68218 95.8947 2.64236 96.2694 1.81923 96.9572C0.996113 97.6451 0.442709 98.6019 0.256867 99.6584C0.0854067 100.68 -0.000513023 101.714 2.30432e-06 102.749C2.30432e-06 111.48 6.03062 118.593 13.4883 118.733C14.1818 123.048 15.86 126.947 18.3858 129.998C22.1218 134.51 27.5531 136.999 33.6779 136.999H71.3514C77.4762 136.999 82.9075 134.51 86.6434 129.992C89.1693 126.941 90.8475 123.042 91.541 118.727C98.9987 118.593 105.029 111.48 105.029 102.744C105.03 101.708 104.944 100.674 104.772 99.6526C104.585 98.5972 104.031 97.6418 103.208 96.955C102.385 96.2683 101.346 95.8945 100.274 95.8995H48.5018Z" fill="#505050"/>
</g>
<defs>
<filter id="filter0_i" x="0" y="0" width="137.001" height="140.999" filterUnits="userSpaceOnUse" color-interpolation-filters="sRGB">
<feFlood flood-opacity="0" result="BackgroundImageFix"/>
<feBlend mode="normal" in="SourceGraphic" in2="BackgroundImageFix" result="shape"/>
<feColorMatrix in="SourceAlpha" type="matrix" values="0 0 0 0 0 0 0 0 0 0 0 0 0 0 0 0 0 0 127 0" result="hardAlpha"/>
<feOffset dy="4"/>
<feGaussianBlur stdDeviation="2"/>
<feComposite in2="hardAlpha" operator="arithmetic" k2="-1" k3="1"/>
<feColorMatrix type="matrix" values="0 0 0 0 0 0 0 0 0 0 0 0 0 0 0 0 0 0 0.25 0"/>
<feBlend mode="normal" in2="shape" result="effect1_innerShadow"/>
</filter>
</defs>
</svg>
