<svg width="1001" height="209" viewBox="0 0 1001 209" fill="none" xmlns="http://www.w3.org/2000/svg">
<rect width="1001" height="209" fill="white"/>
<g filter="url(#filter0_i)">
<path d="M176.794 61.081C182.309 61.4473 187.486 63.1226 191.186 65.5035C199.667 70.9711 203.324 76.9827 205.435 80.748C207.488 84.4002 211.536 92.5073 210.955 101.347C210.806 103.728 210.499 106.097 210.037 108.436L209.826 109.589C209.53 111.334 209.346 113.122 209.657 117.012C210.026 121.596 209.119 126.616 207.219 131.071C205.319 135.515 202.337 139.62 198.363 142.151C190.104 147.42 180.156 148.562 170.825 144.753C166.556 143.013 165.115 142.599 163.5 142.502C162.364 142.457 161.226 142.467 160.091 142.534H160.054C158.523 142.599 156.56 142.674 153.832 142.674C141.836 142.674 133.856 135.348 129.782 127.354C123.813 115.633 123.977 97.8886 137.102 87.3144C141.113 84.0824 142.311 83.0051 143.662 80.7049C145.884 76.9234 147.995 73.9607 150.549 71.4074C153.109 68.8433 156.016 66.7802 159.753 64.6847C165.183 61.6358 171.258 60.7093 176.794 61.0756V61.081ZM176.451 66.457C171.701 66.1338 166.666 66.9526 162.291 69.4089C158.84 71.3481 156.359 73.1365 154.243 75.2535C152.127 77.3759 150.28 79.9184 148.19 83.4737C146.279 86.7219 144.348 88.3379 140.374 91.5377C129.766 100.086 129.312 114.755 134.463 124.871C137.867 131.55 144.269 137.287 153.832 137.287C156.46 137.287 158.349 137.212 159.864 137.153H159.964C161.421 137.099 162.656 137.045 163.832 137.126C166.381 137.287 168.529 138.014 172.783 139.754C180.493 142.9 188.679 141.979 195.566 137.584C198.405 135.774 200.791 132.655 202.379 128.916C203.973 125.189 204.691 121.062 204.4 117.453C204.052 113.149 204.242 110.903 204.627 108.662L204.865 107.364C205.166 105.732 205.488 103.997 205.688 100.986C206.163 93.8378 202.823 86.9266 200.859 83.4252C198.954 80.0423 195.825 74.8603 188.367 70.0607C185.518 68.2238 181.222 66.7748 176.451 66.4516V66.457Z" fill="#505050"/>
</g>
<path d="M170.483 130.196C176.775 130.196 182.81 127.644 187.259 123.102C191.708 118.56 194.207 112.4 194.207 105.977C194.207 99.5541 191.708 93.394 187.259 88.8522C182.81 84.3104 176.775 81.7588 170.483 81.7588C164.191 81.7588 158.157 84.3104 153.708 88.8522C149.259 93.394 146.759 99.5541 146.759 105.977C146.759 112.4 149.259 118.56 153.708 123.102C158.157 127.644 164.191 130.196 170.483 130.196V130.196ZM170.483 124.808C168.061 124.808 165.662 124.321 163.424 123.374C161.186 122.428 159.153 121.041 157.44 119.292C155.727 117.544 154.368 115.468 153.441 113.183C152.514 110.899 152.037 108.45 152.037 105.977C152.037 103.504 152.514 101.056 153.441 98.771C154.368 96.4864 155.727 94.4106 157.44 92.662C159.153 90.9134 161.186 89.5264 163.424 88.58C165.662 87.6337 168.061 87.1466 170.483 87.1466C175.375 87.1466 180.067 89.1306 183.527 92.662C186.986 96.1934 188.929 100.983 188.929 105.977C188.929 110.971 186.986 115.761 183.527 119.292C180.067 122.824 175.375 124.808 170.483 124.808Z" fill="#505050"/>
<g filter="url(#filter1_i)">
<path d="M388 68C388 68 365 95.8926 365 115.627C365 131.196 373.887 141 388 141C402.113 141 411 131.196 411 115.627C411 95.8926 388 68 388 68ZM390.556 131.838V127.609C393.096 127.605 395.532 126.491 397.329 124.509C399.125 122.527 400.136 119.84 400.139 117.037H403.972C403.968 120.961 402.554 124.723 400.038 127.498C397.523 130.273 394.113 131.833 390.556 131.838Z" fill="#505050"/>
</g>
<path d="M609.498 124C620.598 124 629.616 115.331 630 104.5C629.616 93.6691 620.598 85 609.498 85C598.399 85 589.379 93.6691 589 104.5C589.377 115.331 598.398 124 609.498 124Z" fill="#505050"/>
<path d="M609.519 74.5938C593.003 74.5938 579.612 87.9836 579.612 104.5C579.612 121.015 593.004 134.406 609.519 134.406C626.034 134.406 639.426 121.015 639.426 104.5C639.426 87.9836 626.034 74.5938 609.519 74.5938ZM609.518 126.25C597.505 126.25 587.767 116.842 587.767 105.233C587.767 104.985 587.801 104.745 587.809 104.5C587.801 104.255 587.767 104.013 587.767 103.767C587.767 92.1582 597.507 82.75 609.518 82.75C621.531 82.75 631.268 92.1582 631.268 103.767C631.268 104.013 631.24 104.255 631.233 104.5C631.241 104.745 631.268 104.985 631.268 105.233C631.267 116.842 621.531 126.25 609.518 126.25Z" fill="#505050"/>
<path d="M569.732 71.088C570.058 69.8089 570.704 71.0731 570.704 71.0731C570.704 71.0731 570.929 84.3134 572.398 84.4575C573.866 84.6016 572.735 70.8338 574.472 70.5701C576.087 70.3132 575.165 84.6764 576.636 84.5309C578.102 84.3759 578.349 71.1411 578.349 71.1411C578.349 71.1411 579.001 69.8782 579.324 71.1479C583.304 86.7943 580.083 93.1901 580.083 93.1901C580.083 93.1901 579.54 94.5346 578.248 94.5413C578.127 94.5346 578.218 131.701 578.21 136.698C578.213 139.127 570.734 139.053 570.738 136.634C570.743 131.637 570.889 94.4747 570.772 94.4775C569.476 94.4775 568.934 93.1344 568.934 93.1344C568.934 93.1344 565.726 86.7426 569.732 71.088" fill="#505050"/>
<path d="M640.608 70.5156C642.291 70.5115 649.273 75.5453 649.281 94.253C649.289 100.236 646.026 100.234 646.031 103.977C646.036 107.712 646.057 137.425 646.057 137.425C646.057 137.425 642.476 139.882 639.815 137.311L639.766 71.0471C639.768 71.0485 639.759 70.5143 640.608 70.5156Z" fill="#505050"/>
<path d="M873.145 79.8062C872.558 79.2174 871.861 78.7505 871.094 78.4323C870.326 78.1141 869.504 77.9508 868.674 77.9517C868.035 77.9517 867.395 78.0479 866.781 78.2413C867.202 76.886 867.159 75.4282 866.657 74.1006C866.156 72.773 865.225 71.6522 864.013 70.9173C862.802 70.1823 861.38 69.8755 859.974 70.0459C858.569 70.2163 857.261 70.8541 856.259 71.8573C852.721 75.4042 855.331 79.8073 855.059 82.0363C854.967 82.7953 853.842 84.3111 852.496 85.8884C848.016 81.948 843.576 79.1165 841.412 79.643C840.183 79.9426 837.014 82.5125 833.381 85.8761L862.16 108.333C863.95 106.205 865.176 104.498 865.376 103.672C865.912 101.455 862.958 96.8554 858.895 92.2656C860.466 90.9946 862 89.9863 862.922 89.9863L862.991 89.9886C863.106 89.974 863.224 89.9684 863.349 89.9684C864.656 89.9684 866.54 90.6649 868.538 90.6649C870.077 90.6649 871.684 90.2513 873.145 88.7858C873.733 88.1962 874.2 87.4962 874.518 86.7259C874.836 85.9555 875 85.1298 875 84.296C875 83.4622 874.836 82.6365 874.518 81.8661C874.2 81.0958 873.733 80.3958 873.145 79.8062V79.8062ZM840.291 83.0446L841.406 81.9268L842.521 83.0446L841.407 84.1624L840.291 83.0446ZM842.752 90.1674L841.638 89.0496L842.752 87.9306L843.867 89.0485L842.752 90.1674ZM844.193 86.3981L842.521 84.7213L844.193 83.0446L845.865 84.7213L844.193 86.3981ZM847.815 91.0226L846.7 89.9047L847.815 88.7869L848.93 89.9047L847.815 91.0226ZM871.569 87.2063C870.725 88.0525 869.79 88.4303 868.538 88.4303C867.651 88.4303 866.731 88.247 865.84 88.0692C864.972 87.8971 864.152 87.7339 863.349 87.7339C863.192 87.7339 863.044 87.7395 862.899 87.7529C861.416 87.7663 859.427 88.9512 857.368 90.6011C856.33 89.502 855.26 88.4344 854.158 87.3997C856.082 85.1193 857.14 83.4057 857.273 82.3091C857.396 81.3064 857.192 80.2735 856.975 79.1802C856.487 76.721 856.286 74.9928 857.835 73.4379C858.216 73.0546 858.668 72.7507 859.166 72.5437C859.665 72.3366 860.199 72.2306 860.738 72.2318C861.277 72.2308 861.811 72.3368 862.309 72.5438C862.807 72.7509 863.259 73.0547 863.639 73.4379C864.72 74.5222 865.107 76.1084 864.651 77.5762C864.53 77.9657 864.518 78.381 864.615 78.7772C864.713 79.1733 864.916 79.5352 865.204 79.8235C865.492 80.1118 865.853 80.3157 866.248 80.4129C866.644 80.5102 867.058 80.4971 867.446 80.3752C867.844 80.2508 868.258 80.1874 868.675 80.1874C869.768 80.1874 870.796 80.6144 871.57 81.3868C872.337 82.16 872.768 83.2062 872.767 84.2968C872.767 85.3874 872.336 86.4335 871.569 87.2063" fill="#505050"/>
<path d="M815.954 104.256C815.41 106.496 818.331 111.089 822.395 115.724C820.768 117.115 819.205 118.278 818.422 118.374C818.298 118.389 818.174 118.396 818.05 118.396C816.699 118.396 814.75 117.678 812.685 117.678C811.092 117.678 809.432 118.104 807.92 119.616C806.883 120.652 806.224 122.005 806.048 123.459C805.871 124.914 806.188 126.386 806.946 127.639C807.705 128.892 808.862 129.855 810.232 130.373C811.603 130.891 813.107 130.935 814.506 130.497C814.148 131.637 814.11 132.854 814.395 134.015C814.68 135.176 815.277 136.237 816.122 137.083C816.73 137.691 817.452 138.174 818.247 138.503C819.041 138.832 819.893 139.001 820.753 139C821.614 139.001 822.466 138.832 823.261 138.503C824.056 138.174 824.778 137.691 825.387 137.083C829.046 133.421 826.346 128.877 826.625 126.578C826.571 125.634 827.628 124.007 828.973 122.342C833.709 126.546 838.454 129.601 840.742 129.046C841.716 128.809 843.876 127.189 846.524 124.884L820.117 98.4766C817.809 101.122 816.189 103.281 815.954 104.256V104.256ZM827.259 120.766C825.579 122.872 824.368 124.91 824.319 126.452C824.23 127.438 824.432 128.453 824.644 129.524C825.149 132.063 825.359 133.848 823.756 135.452C823.362 135.847 822.894 136.16 822.379 136.373C821.863 136.586 821.311 136.695 820.753 136.694C820.088 136.695 819.431 136.538 818.837 136.238C818.243 135.937 817.728 135.501 817.334 134.965C816.94 134.428 816.677 133.806 816.569 133.149C816.46 132.492 816.507 131.819 816.707 131.184C816.832 130.782 816.846 130.354 816.745 129.946C816.644 129.537 816.434 129.164 816.136 128.867C815.839 128.569 815.466 128.358 815.057 128.257C814.648 128.156 814.22 128.17 813.818 128.295C813.406 128.423 812.977 128.488 812.545 128.488C811.989 128.489 811.437 128.381 810.923 128.168C810.409 127.955 809.941 127.643 809.548 127.249C808.748 126.445 808.306 125.38 808.306 124.247C808.306 123.115 808.748 122.049 809.55 121.246C810.423 120.373 811.39 119.983 812.684 119.983C813.599 119.983 814.552 120.172 815.472 120.354C816.369 120.532 817.218 120.701 818.048 120.701C818.274 120.701 818.493 120.687 818.7 120.663C819.831 120.525 821.599 119.43 823.951 117.441C825.02 118.583 826.123 119.691 827.259 120.766V120.766ZM824.39 105.904L825.543 107.058L824.39 108.211L823.237 107.058L824.39 105.904ZM821.699 105.472L820.546 106.624L819.393 105.472L820.546 104.319L821.699 105.472Z" fill="#505050"/>
<path d="M822.428 98.02L850.829 123.667C855.23 119.861 860.425 114.859 864.048 110.917L832.048 88.6191C828.706 91.6529 825.205 95.0685 822.428 98.02V98.02ZM830.825 97.5159L829.623 96.3728L830.825 95.2297L832.026 96.3728L830.825 97.5159ZM839.235 102.817L838.034 103.96L836.832 102.817L838.032 101.673L839.235 102.817ZM835.03 99.3872L836.832 101.102L835.03 102.817L833.228 101.102L835.03 99.3872Z" fill="#505050"/>
<defs>
<filter id="filter0_i" x="126" y="61" width="85.0115" height="90" filterUnits="userSpaceOnUse" color-interpolation-filters="sRGB">
<feFlood flood-opacity="0" result="BackgroundImageFix"/>
<feBlend mode="normal" in="SourceGraphic" in2="BackgroundImageFix" result="shape"/>
<feColorMatrix in="SourceAlpha" type="matrix" values="0 0 0 0 0 0 0 0 0 0 0 0 0 0 0 0 0 0 127 0" result="hardAlpha"/>
<feOffset dy="4"/>
<feGaussianBlur stdDeviation="2"/>
<feComposite in2="hardAlpha" operator="arithmetic" k2="-1" k3="1"/>
<feColorMatrix type="matrix" values="0 0 0 0 0 0 0 0 0 0 0 0 0 0 0 0 0 0 0.25 0"/>
<feBlend mode="normal" in2="shape" result="effect1_innerShadow"/>
</filter>
<filter id="filter1_i" x="365" y="68" width="46" height="77" filterUnits="userSpaceOnUse" color-interpolation-filters="sRGB">
<feFlood flood-opacity="0" result="BackgroundImageFix"/>
<feBlend mode="normal" in="SourceGraphic" in2="BackgroundImageFix" result="shape"/>
<feColorMatrix in="SourceAlpha" type="matrix" values="0 0 0 0 0 0 0 0 0 0 0 0 0 0 0 0 0 0 127 0" result="hardAlpha"/>
<feOffset dy="4"/>
<feGaussianBlur stdDeviation="2"/>
<feComposite in2="hardAlpha" operator="arithmetic" k2="-1" k3="1"/>
<feColorMatrix type="matrix" values="0 0 0 0 0 0 0 0 0 0 0 0 0 0 0 0 0 0 0.25 0"/>
<feBlend mode="normal" in2="shape" result="effect1_innerShadow"/>
</filter>
</defs>
</svg>
