<svg width="1087" height="280" viewBox="0 0 1087 280" fill="none" xmlns="http://www.w3.org/2000/svg">
<g filter="url(#filter0_d)">
<rect width="1079" height="272" rx="15" fill="white"/>
</g>
<g filter="url(#filter1_i)">
<path d="M215.794 93.081C221.309 93.4473 226.486 95.1226 230.186 97.5035C238.667 102.971 242.324 108.983 244.435 112.748C246.488 116.4 250.536 124.507 249.955 133.347C249.806 135.728 249.499 138.097 249.037 140.436L248.826 141.589C248.53 143.334 248.346 145.122 248.657 149.012C249.026 153.596 248.119 158.616 246.219 163.071C244.319 167.515 241.337 171.62 237.363 174.151C229.104 179.42 219.156 180.562 209.825 176.753C205.556 175.013 204.115 174.599 202.5 174.502C201.364 174.457 200.226 174.467 199.091 174.534H199.054C197.523 174.599 195.56 174.674 192.832 174.674C180.836 174.674 172.856 167.348 168.782 159.354C162.813 147.633 162.977 129.889 176.102 119.314C180.113 116.082 181.311 115.005 182.662 112.705C184.884 108.923 186.995 105.961 189.549 103.407C192.109 100.843 195.016 98.7802 198.753 96.6847C204.183 93.6358 210.258 92.7093 215.794 93.0756V93.081ZM215.451 98.457C210.701 98.1338 205.666 98.9526 201.291 101.409C197.84 103.348 195.359 105.137 193.243 107.254C191.127 109.376 189.28 111.918 187.19 115.474C185.279 118.722 183.348 120.338 179.374 123.538C168.766 132.086 168.312 146.755 173.463 156.871C176.867 163.55 183.269 169.287 192.832 169.287C195.46 169.287 197.349 169.212 198.864 169.153H198.964C200.421 169.099 201.656 169.045 202.832 169.126C205.381 169.287 207.529 170.014 211.783 171.754C219.493 174.9 227.679 173.979 234.566 169.584C237.405 167.774 239.791 164.655 241.379 160.916C242.973 157.189 243.691 153.062 243.4 149.453C243.052 145.149 243.242 142.903 243.627 140.662L243.865 139.364C244.166 137.732 244.488 135.997 244.688 132.986C245.163 125.838 241.823 118.927 239.859 115.425C237.954 112.042 234.825 106.86 227.367 102.061C224.518 100.224 220.222 98.7748 215.451 98.4516V98.457Z" fill="#505050"/>
</g>
<path d="M209.483 162.196C215.775 162.196 221.81 159.644 226.259 155.102C230.708 150.56 233.207 144.4 233.207 137.977C233.207 131.554 230.708 125.394 226.259 120.852C221.81 116.31 215.775 113.759 209.483 113.759C203.191 113.759 197.157 116.31 192.708 120.852C188.259 125.394 185.759 131.554 185.759 137.977C185.759 144.4 188.259 150.56 192.708 155.102C197.157 159.644 203.191 162.196 209.483 162.196V162.196ZM209.483 156.808C207.061 156.808 204.662 156.321 202.424 155.374C200.186 154.428 198.153 153.041 196.44 151.292C194.727 149.544 193.368 147.468 192.441 145.183C191.514 142.899 191.037 140.45 191.037 137.977C191.037 135.504 191.514 133.056 192.441 130.771C193.368 128.486 194.727 126.411 196.44 124.662C198.153 122.913 200.186 121.526 202.424 120.58C204.662 119.634 207.061 119.147 209.483 119.147C214.375 119.147 219.067 121.131 222.527 124.662C225.986 128.193 227.929 132.983 227.929 137.977C227.929 142.971 225.986 147.761 222.527 151.292C219.067 154.824 214.375 156.808 209.483 156.808Z" fill="#505050"/>
<g filter="url(#filter2_i)">
<path d="M427 100C427 100 404 127.893 404 147.627C404 163.196 412.887 173 427 173C441.113 173 450 163.196 450 147.627C450 127.893 427 100 427 100ZM429.556 163.838V159.609C432.096 159.605 434.532 158.491 436.329 156.509C438.125 154.527 439.136 151.84 439.139 149.037H442.972C442.968 152.961 441.554 156.723 439.038 159.498C436.523 162.273 433.113 163.833 429.556 163.838Z" fill="#505050"/>
</g>
<path d="M648.498 156C659.598 156 668.616 147.331 669 136.5C668.616 125.669 659.598 117 648.498 117C637.399 117 628.379 125.669 628 136.5C628.377 147.331 637.398 156 648.498 156Z" fill="#505050"/>
<path d="M648.519 106.594C632.003 106.594 618.612 119.984 618.612 136.5C618.612 153.015 632.004 166.406 648.519 166.406C665.034 166.406 678.426 153.015 678.426 136.5C678.426 119.984 665.034 106.594 648.519 106.594ZM648.518 158.25C636.505 158.25 626.767 148.842 626.767 137.233C626.767 136.985 626.801 136.745 626.809 136.5C626.801 136.255 626.767 136.013 626.767 135.767C626.767 124.158 636.507 114.75 648.518 114.75C660.531 114.75 670.268 124.158 670.268 135.767C670.268 136.013 670.24 136.255 670.233 136.5C670.241 136.745 670.268 136.985 670.268 137.233C670.267 148.842 660.531 158.25 648.518 158.25Z" fill="#505050"/>
<path d="M608.732 103.088C609.058 101.809 609.704 103.073 609.704 103.073C609.704 103.073 609.929 116.313 611.398 116.458C612.866 116.602 611.735 102.834 613.472 102.57C615.087 102.313 614.165 116.676 615.636 116.531C617.102 116.376 617.349 103.141 617.349 103.141C617.349 103.141 618.001 101.878 618.324 103.148C622.304 118.794 619.083 125.19 619.083 125.19C619.083 125.19 618.54 126.535 617.248 126.541C617.127 126.535 617.218 163.701 617.21 168.698C617.213 171.127 609.734 171.053 609.738 168.634C609.743 163.637 609.889 126.475 609.772 126.477C608.476 126.477 607.934 125.134 607.934 125.134C607.934 125.134 604.726 118.743 608.732 103.088" fill="#505050"/>
<path d="M679.608 102.516C681.291 102.512 688.273 107.545 688.281 126.253C688.289 132.236 685.026 132.234 685.031 135.977C685.036 139.712 685.057 169.425 685.057 169.425C685.057 169.425 681.476 171.882 678.815 169.311L678.766 103.047C678.768 103.049 678.759 102.514 679.608 102.516Z" fill="#505050"/>
<path d="M912.145 111.806C911.558 111.217 910.861 110.751 910.094 110.432C909.326 110.114 908.504 109.951 907.674 109.952C907.035 109.952 906.395 110.048 905.781 110.241C906.202 108.886 906.159 107.428 905.657 106.101C905.156 104.773 904.225 103.652 903.013 102.917C901.802 102.182 900.38 101.876 898.974 102.046C897.569 102.216 896.261 102.854 895.259 103.857C891.721 107.404 894.331 111.807 894.059 114.036C893.967 114.795 892.842 116.311 891.496 117.888C887.016 113.948 882.576 111.117 880.412 111.643C879.183 111.943 876.014 114.513 872.381 117.876L901.16 140.333C902.95 138.205 904.176 136.498 904.376 135.672C904.912 133.455 901.958 128.855 897.895 124.266C899.466 122.995 901 121.986 901.922 121.986L901.991 121.989C902.106 121.974 902.224 121.968 902.349 121.968C903.656 121.968 905.54 122.665 907.538 122.665C909.077 122.665 910.684 122.251 912.145 120.786C912.733 120.196 913.2 119.496 913.518 118.726C913.836 117.956 914 117.13 914 116.296C914 115.462 913.836 114.636 913.518 113.866C913.2 113.096 912.733 112.396 912.145 111.806V111.806ZM879.291 115.045L880.406 113.927L881.521 115.045L880.407 116.162L879.291 115.045ZM881.752 122.167L880.638 121.05L881.752 119.931L882.867 121.048L881.752 122.167ZM883.193 118.398L881.521 116.721L883.193 115.045L884.865 116.721L883.193 118.398ZM886.815 123.023L885.7 121.905L886.815 120.787L887.93 121.905L886.815 123.023ZM910.569 119.206C909.725 120.052 908.79 120.43 907.538 120.43C906.651 120.43 905.731 120.247 904.84 120.069C903.972 119.897 903.152 119.734 902.349 119.734C902.192 119.734 902.044 119.739 901.899 119.753C900.416 119.766 898.427 120.951 896.368 122.601C895.33 121.502 894.26 120.434 893.158 119.4C895.082 117.119 896.14 115.406 896.273 114.309C896.396 113.306 896.192 112.273 895.975 111.18C895.487 108.721 895.286 106.993 896.835 105.438C897.216 105.055 897.668 104.751 898.166 104.544C898.665 104.337 899.199 104.231 899.738 104.232C900.277 104.231 900.811 104.337 901.309 104.544C901.807 104.751 902.259 105.055 902.639 105.438C903.72 106.522 904.107 108.108 903.651 109.576C903.53 109.966 903.518 110.381 903.615 110.777C903.713 111.173 903.916 111.535 904.204 111.824C904.492 112.112 904.853 112.316 905.248 112.413C905.644 112.51 906.058 112.497 906.446 112.375C906.844 112.251 907.258 112.187 907.675 112.187C908.768 112.187 909.796 112.614 910.57 113.387C911.337 114.16 911.768 115.206 911.767 116.297C911.767 117.387 911.336 118.433 910.569 119.206" fill="#505050"/>
<path d="M854.954 136.256C854.41 138.496 857.331 143.089 861.395 147.724C859.768 149.115 858.205 150.278 857.422 150.374C857.298 150.389 857.174 150.396 857.05 150.396C855.699 150.396 853.75 149.678 851.685 149.678C850.092 149.678 848.432 150.104 846.92 151.616C845.883 152.652 845.224 154.005 845.048 155.459C844.871 156.914 845.188 158.386 845.946 159.639C846.705 160.892 847.862 161.855 849.232 162.373C850.603 162.891 852.107 162.935 853.506 162.497C853.148 163.637 853.11 164.854 853.395 166.015C853.68 167.176 854.277 168.237 855.122 169.083C855.73 169.691 856.452 170.174 857.247 170.503C858.041 170.832 858.893 171.001 859.753 171C860.614 171.001 861.466 170.832 862.261 170.503C863.056 170.174 863.778 169.691 864.387 169.083C868.046 165.421 865.346 160.877 865.625 158.578C865.571 157.634 866.628 156.007 867.973 154.342C872.709 158.546 877.454 161.601 879.742 161.046C880.716 160.809 882.876 159.189 885.524 156.884L859.117 130.477C856.809 133.122 855.189 135.281 854.954 136.256V136.256ZM866.259 152.766C864.579 154.872 863.368 156.91 863.319 158.452C863.23 159.438 863.432 160.453 863.644 161.524C864.149 164.063 864.359 165.848 862.756 167.452C862.362 167.847 861.894 168.16 861.379 168.373C860.863 168.586 860.311 168.695 859.753 168.694C859.088 168.695 858.431 168.538 857.837 168.238C857.243 167.937 856.728 167.501 856.334 166.965C855.94 166.428 855.677 165.806 855.569 165.149C855.46 164.492 855.507 163.819 855.707 163.184C855.832 162.782 855.846 162.354 855.745 161.946C855.644 161.537 855.434 161.164 855.136 160.867C854.839 160.569 854.466 160.358 854.057 160.257C853.648 160.156 853.22 160.17 852.818 160.295C852.406 160.423 851.977 160.488 851.545 160.488C850.989 160.489 850.437 160.381 849.923 160.168C849.409 159.955 848.941 159.643 848.548 159.249C847.748 158.445 847.306 157.38 847.306 156.247C847.306 155.115 847.748 154.049 848.55 153.246C849.423 152.373 850.39 151.983 851.684 151.983C852.599 151.983 853.552 152.172 854.472 152.354C855.369 152.532 856.218 152.701 857.048 152.701C857.274 152.701 857.493 152.687 857.7 152.663C858.831 152.525 860.599 151.43 862.951 149.441C864.02 150.583 865.123 151.691 866.259 152.766V152.766ZM863.39 137.904L864.543 139.058L863.39 140.211L862.237 139.058L863.39 137.904ZM860.699 137.472L859.546 138.624L858.393 137.472L859.546 136.319L860.699 137.472Z" fill="#505050"/>
<path d="M861.428 130.02L889.829 155.667C894.23 151.861 899.425 146.859 903.048 142.917L871.048 120.619C867.706 123.653 864.205 127.069 861.428 130.02V130.02ZM869.825 129.516L868.623 128.373L869.825 127.23L871.026 128.373L869.825 129.516ZM878.235 134.817L877.034 135.96L875.832 134.817L877.032 133.673L878.235 134.817ZM874.03 131.387L875.832 133.102L874.03 134.817L872.228 133.102L874.03 131.387Z" fill="#505050"/>
<defs>
<filter id="filter0_d" x="0" y="0" width="1087" height="280" filterUnits="userSpaceOnUse" color-interpolation-filters="sRGB">
<feFlood flood-opacity="0" result="BackgroundImageFix"/>
<feColorMatrix in="SourceAlpha" type="matrix" values="0 0 0 0 0 0 0 0 0 0 0 0 0 0 0 0 0 0 127 0"/>
<feOffset dx="4" dy="4"/>
<feGaussianBlur stdDeviation="2"/>
<feColorMatrix type="matrix" values="0 0 0 0 0 0 0 0 0 0 0 0 0 0 0 0 0 0 0.25 0"/>
<feBlend mode="normal" in2="BackgroundImageFix" result="effect1_dropShadow"/>
<feBlend mode="normal" in="SourceGraphic" in2="effect1_dropShadow" result="shape"/>
</filter>
<filter id="filter1_i" x="165" y="93" width="85.0115" height="90" filterUnits="userSpaceOnUse" color-interpolation-filters="sRGB">
<feFlood flood-opacity="0" result="BackgroundImageFix"/>
<feBlend mode="normal" in="SourceGraphic" in2="BackgroundImageFix" result="shape"/>
<feColorMatrix in="SourceAlpha" type="matrix" values="0 0 0 0 0 0 0 0 0 0 0 0 0 0 0 0 0 0 127 0" result="hardAlpha"/>
<feOffset dy="4"/>
<feGaussianBlur stdDeviation="2"/>
<feComposite in2="hardAlpha" operator="arithmetic" k2="-1" k3="1"/>
<feColorMatrix type="matrix" values="0 0 0 0 0 0 0 0 0 0 0 0 0 0 0 0 0 0 0.25 0"/>
<feBlend mode="normal" in2="shape" result="effect1_innerShadow"/>
</filter>
<filter id="filter2_i" x="404" y="100" width="46" height="77" filterUnits="userSpaceOnUse" color-interpolation-filters="sRGB">
<feFlood flood-opacity="0" result="BackgroundImageFix"/>
<feBlend mode="normal" in="SourceGraphic" in2="BackgroundImageFix" result="shape"/>
<feColorMatrix in="SourceAlpha" type="matrix" values="0 0 0 0 0 0 0 0 0 0 0 0 0 0 0 0 0 0 127 0" result="hardAlpha"/>
<feOffset dy="4"/>
<feGaussianBlur stdDeviation="2"/>
<feComposite in2="hardAlpha" operator="arithmetic" k2="-1" k3="1"/>
<feColorMatrix type="matrix" values="0 0 0 0 0 0 0 0 0 0 0 0 0 0 0 0 0 0 0.25 0"/>
<feBlend mode="normal" in2="shape" result="effect1_innerShadow"/>
</filter>
</defs>
</svg>
