<svg width="313" height="314" viewBox="0 0 313 314" fill="none" xmlns="http://www.w3.org/2000/svg">
<path d="M111.609 226.294L105.849 218.194C105.201 218.266 104.529 218.302 103.833 218.302H97.0649V226.294H94.4009V201.094H103.833C107.049 201.094 109.569 201.862 111.393 203.398C113.217 204.934 114.129 207.046 114.129 209.734C114.129 211.702 113.625 213.37 112.617 214.738C111.633 216.082 110.217 217.054 108.369 217.654L114.525 226.294H111.609ZM103.761 216.034C106.257 216.034 108.165 215.482 109.485 214.378C110.805 213.274 111.465 211.726 111.465 209.734C111.465 207.694 110.805 206.134 109.485 205.054C108.165 203.95 106.257 203.398 103.761 203.398H97.0649V216.034H103.761ZM119.877 207.358H122.433V226.294H119.877V207.358ZM121.173 203.218C120.645 203.218 120.201 203.038 119.841 202.678C119.481 202.318 119.301 201.886 119.301 201.382C119.301 200.902 119.481 200.482 119.841 200.122C120.201 199.762 120.645 199.582 121.173 199.582C121.701 199.582 122.145 199.762 122.505 200.122C122.865 200.458 123.045 200.866 123.045 201.346C123.045 201.874 122.865 202.318 122.505 202.678C122.145 203.038 121.701 203.218 121.173 203.218ZM134.62 226.474C133.084 226.474 131.608 226.258 130.192 225.826C128.8 225.37 127.708 224.806 126.916 224.134L128.068 222.118C128.86 222.742 129.856 223.258 131.056 223.666C132.256 224.05 133.504 224.242 134.8 224.242C136.528 224.242 137.8 223.978 138.616 223.45C139.456 222.898 139.876 222.13 139.876 221.146C139.876 220.45 139.648 219.91 139.192 219.526C138.736 219.118 138.16 218.818 137.464 218.626C136.768 218.41 135.844 218.206 134.692 218.014C133.156 217.726 131.92 217.438 130.984 217.15C130.048 216.838 129.244 216.322 128.572 215.602C127.924 214.882 127.6 213.886 127.6 212.614C127.6 211.03 128.26 209.734 129.58 208.726C130.9 207.718 132.736 207.214 135.088 207.214C136.312 207.214 137.536 207.382 138.76 207.718C139.984 208.03 140.992 208.45 141.784 208.978L140.668 211.03C139.108 209.95 137.248 209.41 135.088 209.41C133.456 209.41 132.22 209.698 131.38 210.274C130.564 210.85 130.156 211.606 130.156 212.542C130.156 213.262 130.384 213.838 130.84 214.27C131.32 214.702 131.908 215.026 132.604 215.242C133.3 215.434 134.26 215.638 135.484 215.854C136.996 216.142 138.208 216.43 139.12 216.718C140.032 217.006 140.812 217.498 141.46 218.194C142.108 218.89 142.432 219.85 142.432 221.074C142.432 222.73 141.736 224.05 140.344 225.034C138.976 225.994 137.068 226.474 134.62 226.474ZM163.646 217.618H147.806C147.95 219.586 148.706 221.182 150.074 222.406C151.442 223.606 153.17 224.206 155.258 224.206C156.434 224.206 157.514 224.002 158.498 223.594C159.482 223.162 160.334 222.538 161.054 221.722L162.494 223.378C161.654 224.386 160.598 225.154 159.326 225.682C158.078 226.21 156.698 226.474 155.186 226.474C153.242 226.474 151.514 226.066 150.002 225.25C148.514 224.41 147.35 223.258 146.51 221.794C145.67 220.33 145.25 218.674 145.25 216.826C145.25 214.978 145.646 213.322 146.438 211.858C147.254 210.394 148.358 209.254 149.75 208.438C151.166 207.622 152.75 207.214 154.502 207.214C156.254 207.214 157.826 207.622 159.218 208.438C160.61 209.254 161.702 210.394 162.494 211.858C163.286 213.298 163.682 214.954 163.682 216.826L163.646 217.618ZM154.502 209.41C152.678 209.41 151.142 209.998 149.894 211.174C148.67 212.326 147.974 213.838 147.806 215.71H161.234C161.066 213.838 160.358 212.326 159.11 211.174C157.886 209.998 156.35 209.41 154.502 209.41ZM188.998 226.51C185.734 226.51 183.19 225.574 181.366 223.702C179.542 221.83 178.63 219.106 178.63 215.53V201.094H181.294V215.422C181.294 218.35 181.954 220.534 183.274 221.974C184.594 223.414 186.502 224.134 188.998 224.134C191.518 224.134 193.438 223.414 194.758 221.974C196.078 220.534 196.738 218.35 196.738 215.422V201.094H199.33V215.53C199.33 219.106 198.418 221.83 196.594 223.702C194.794 225.574 192.262 226.51 188.998 226.51ZM216.574 207.214C218.35 207.214 219.958 207.622 221.398 208.438C222.838 209.23 223.966 210.358 224.782 211.822C225.598 213.286 226.006 214.954 226.006 216.826C226.006 218.722 225.598 220.402 224.782 221.866C223.966 223.33 222.838 224.47 221.398 225.286C219.982 226.078 218.374 226.474 216.574 226.474C215.038 226.474 213.646 226.162 212.398 225.538C211.174 224.89 210.166 223.954 209.374 222.73V233.278H206.818V207.358H209.266V211.102C210.034 209.854 211.042 208.894 212.29 208.222C213.562 207.55 214.99 207.214 216.574 207.214ZM216.394 224.206C217.714 224.206 218.914 223.906 219.994 223.306C221.074 222.682 221.914 221.806 222.514 220.678C223.138 219.55 223.45 218.266 223.45 216.826C223.45 215.386 223.138 214.114 222.514 213.01C221.914 211.882 221.074 211.006 219.994 210.382C218.914 209.758 217.714 209.446 216.394 209.446C215.05 209.446 213.838 209.758 212.758 210.382C211.702 211.006 210.862 211.882 210.238 213.01C209.638 214.114 209.338 215.386 209.338 216.826C209.338 218.266 209.638 219.55 210.238 220.678C210.862 221.806 211.702 222.682 212.758 223.306C213.838 223.906 215.05 224.206 216.394 224.206Z" fill="#E79A74"/>
<path d="M181.985 155.94C194.714 150.462 202.153 139.595 202.153 124.866C202.153 102.863 173.201 91.9962 142.814 91.9962L152.405 108.342C166.298 108.342 179.117 114.089 179.117 124.866C179.117 135.644 172.125 142.02 158.321 142.02H139.766V109.689H147.206L137.794 94.6905L128.382 79.6924L118.97 94.6905L109.648 109.689H117.088V187.463H139.766V160.161H160.651L179.565 187.463H203.946L181.985 155.94Z" fill="#E79A74"/>
<path d="M181.985 155.94C194.714 150.462 202.153 139.595 202.153 124.866C202.153 102.863 173.201 91.9962 142.814 91.9962L152.405 108.342C166.298 108.342 179.117 114.089 179.117 124.866C179.117 135.644 172.125 142.02 158.321 142.02H139.766V109.689H147.206L137.794 94.6905L128.382 79.6924L118.97 94.6905L109.648 109.689H117.088V187.463H139.766V160.161H160.651L179.565 187.463H203.946L181.985 155.94Z" fill="url(#paint0_linear)"/>
<path d="M241.504 62H72V251.515H241.504V62Z" stroke="#26325B" stroke-width="6" stroke-miterlimit="10"/>
<rect x="2" y="2" width="309" height="310" stroke="#3E3E3E" stroke-width="4"/>
<mask maskUnits="userSpaceOnUse" x="0" y="0" width="0" height="0" fill="black">
<rect fill="white" width="0" height="0"/>
</mask>
<path d="M0 156L10 161.774V150.226L0 156ZM72 156L62 150.226V161.774L72 156ZM9 157H63V155H9V157Z" fill="#3E3E3E" mask="url(#)"/>
<path d="M28.59 107.46C29.778 107.46 30.708 107.802 31.38 108.486C32.064 109.17 32.406 110.178 32.406 111.51V117H31.128V111.636C31.128 110.652 30.888 109.902 30.408 109.386C29.94 108.87 29.274 108.612 28.41 108.612C27.426 108.612 26.652 108.918 26.088 109.53C25.524 110.13 25.242 110.964 25.242 112.032V117H23.964V111.636C23.964 110.652 23.724 109.902 23.244 109.386C22.776 108.87 22.104 108.612 21.228 108.612C20.256 108.612 19.482 108.918 18.906 109.53C18.342 110.13 18.06 110.964 18.06 112.032V117H16.782V107.532H18.006V109.26C18.342 108.684 18.81 108.24 19.41 107.928C20.01 107.616 20.7 107.46 21.48 107.46C22.272 107.46 22.956 107.628 23.532 107.964C24.12 108.3 24.558 108.798 24.846 109.458C25.194 108.834 25.692 108.348 26.34 108C27 107.64 27.75 107.46 28.59 107.46ZM35.8718 107.532H37.1498V117H35.8718V107.532ZM36.5198 105.462C36.2558 105.462 36.0338 105.372 35.8538 105.192C35.6738 105.012 35.5838 104.796 35.5838 104.544C35.5838 104.304 35.6738 104.094 35.8538 103.914C36.0338 103.734 36.2558 103.644 36.5198 103.644C36.7838 103.644 37.0058 103.734 37.1858 103.914C37.3658 104.082 37.4558 104.286 37.4558 104.526C37.4558 104.79 37.3658 105.012 37.1858 105.192C37.0058 105.372 36.7838 105.462 36.5198 105.462ZM45.5298 107.46C46.7178 107.46 47.6598 107.808 48.3558 108.504C49.0638 109.188 49.4178 110.19 49.4178 111.51V117H48.1398V111.636C48.1398 110.652 47.8938 109.902 47.4018 109.386C46.9098 108.87 46.2078 108.612 45.2958 108.612C44.2758 108.612 43.4658 108.918 42.8658 109.53C42.2778 110.13 41.9838 110.964 41.9838 112.032V117H40.7058V107.532H41.9298V109.278C42.2778 108.702 42.7578 108.258 43.3698 107.946C43.9938 107.622 44.7138 107.46 45.5298 107.46ZM19.428 126.4V139H18.132V127.552H15.162V126.4H19.428ZM27.4619 139.108C26.4899 139.108 25.6199 138.85 24.8519 138.334C24.0959 137.818 23.5019 137.08 23.0699 136.12C22.6499 135.148 22.4399 134.008 22.4399 132.7C22.4399 131.392 22.6499 130.258 23.0699 129.298C23.5019 128.326 24.0959 127.582 24.8519 127.066C25.6199 126.55 26.4899 126.292 27.4619 126.292C28.4339 126.292 29.2979 126.55 30.0539 127.066C30.8219 127.582 31.4219 128.326 31.8539 129.298C32.2859 130.258 32.5019 131.392 32.5019 132.7C32.5019 134.008 32.2859 135.148 31.8539 136.12C31.4219 137.08 30.8219 137.818 30.0539 138.334C29.2979 138.85 28.4339 139.108 27.4619 139.108ZM27.4619 137.92C28.1939 137.92 28.8359 137.716 29.3879 137.308C29.9519 136.9 30.3899 136.306 30.7019 135.526C31.0139 134.746 31.1699 133.804 31.1699 132.7C31.1699 131.596 31.0139 130.654 30.7019 129.874C30.3899 129.094 29.9519 128.5 29.3879 128.092C28.8359 127.684 28.1939 127.48 27.4619 127.48C26.7299 127.48 26.0819 127.684 25.5179 128.092C24.9659 128.5 24.5339 129.094 24.2219 129.874C23.9099 130.654 23.7539 131.596 23.7539 132.7C23.7539 133.804 23.9099 134.746 24.2219 135.526C24.5339 136.306 24.9659 136.9 25.5179 137.308C26.0819 137.716 26.7299 137.92 27.4619 137.92ZM40.0819 129.46C40.9699 129.46 41.7739 129.664 42.4939 130.072C43.2139 130.468 43.7779 131.032 44.1859 131.764C44.5939 132.496 44.7979 133.33 44.7979 134.266C44.7979 135.214 44.5939 136.054 44.1859 136.786C43.7779 137.518 43.2139 138.088 42.4939 138.496C41.7859 138.892 40.9819 139.09 40.0819 139.09C39.3139 139.09 38.6179 138.934 37.9939 138.622C37.3819 138.298 36.8779 137.83 36.4819 137.218V142.492H35.2039V129.532H36.4279V131.404C36.8119 130.78 37.3159 130.3 37.9399 129.964C38.5759 129.628 39.2899 129.46 40.0819 129.46ZM39.9919 137.956C40.6519 137.956 41.2519 137.806 41.7919 137.506C42.3319 137.194 42.7519 136.756 43.0519 136.192C43.3639 135.628 43.5199 134.986 43.5199 134.266C43.5199 133.546 43.3639 132.91 43.0519 132.358C42.7519 131.794 42.3319 131.356 41.7919 131.044C41.2519 130.732 40.6519 130.576 39.9919 130.576C39.3199 130.576 38.7139 130.732 38.1739 131.044C37.6459 131.356 37.2259 131.794 36.9139 132.358C36.6139 132.91 36.4639 133.546 36.4639 134.266C36.4639 134.986 36.6139 135.628 36.9139 136.192C37.2259 136.756 37.6459 137.194 38.1739 137.506C38.7139 137.806 39.3199 137.956 39.9919 137.956ZM53.0991 139L50.0931 135.04L47.0691 139H45.6291L49.3731 134.14L45.8091 129.532H47.2491L50.0931 133.24L52.9371 129.532H54.3411L50.7771 134.14L54.5571 139H53.0991Z" fill="#3E3E3E"/>
<defs>
<linearGradient id="paint0_linear" x1="156.797" y1="79.6924" x2="156.797" y2="187.463" gradientUnits="userSpaceOnUse">
<stop offset="0.317708" stop-color="#E67571"/>
<stop offset="1" stop-color="#E79A74"/>
</linearGradient>
</defs>
</svg>
