<svg width="137" height="137" viewBox="0 0 137 137" fill="none" xmlns="http://www.w3.org/2000/svg">
<path d="M133.317 19.4704C132.152 18.3012 130.767 17.3742 129.244 16.7424C127.72 16.1105 126.087 15.7863 124.439 15.7883C123.17 15.7883 121.9 15.9791 120.68 16.3631C121.517 13.6722 121.431 10.7777 120.435 8.14174C119.439 5.50582 117.591 3.28053 115.186 1.82124C112.781 0.36196 109.957 -0.247154 107.166 0.0911725C104.375 0.429499 101.778 1.69575 99.7889 3.68772C92.7654 10.7301 97.9473 19.4726 97.4072 23.8982C97.2235 25.4052 94.99 28.4148 92.3183 31.5465C83.4222 23.7229 74.6079 18.101 70.3115 19.1463C67.8699 19.7411 61.5791 24.8437 54.3652 31.5221L111.505 76.1112C115.06 71.8854 117.495 68.4962 117.891 66.856C118.956 62.4548 113.09 53.3217 105.024 44.2086C108.143 41.685 111.189 39.6831 113.019 39.6831L113.156 39.6875C113.384 39.6587 113.619 39.6476 113.867 39.6476C116.461 39.6476 120.202 41.0303 124.169 41.0303C127.226 41.0303 130.415 40.2091 133.317 37.2994C134.485 36.1287 135.411 34.739 136.043 33.2094C136.675 31.6798 137 30.0405 137 28.3849C137 26.7293 136.675 25.0899 136.043 23.5603C135.411 22.0308 134.485 20.641 133.317 19.4704ZM68.0847 25.9002L70.2982 23.6807L72.5117 25.9002L70.3004 28.1196L68.0847 25.9002ZM72.9721 40.0426L70.7586 37.8232L72.9721 35.6015L75.1856 37.8209L72.9721 40.0426ZM75.832 32.5586L72.5117 29.2294L75.832 25.9002L79.1523 29.2294L75.832 32.5586ZM83.0237 41.7405L80.8102 39.5211L83.0237 37.3016L85.2372 39.5211L83.0237 41.7405ZM130.187 34.1633C128.512 35.8434 126.654 36.5936 124.169 36.5936C122.409 36.5936 120.581 36.2296 118.812 35.8767C117.09 35.5349 115.461 35.2108 113.867 35.2108C113.555 35.2108 113.26 35.2219 112.973 35.2486C110.029 35.2752 106.08 37.6279 101.991 40.9038C99.9311 38.7214 97.8059 36.6016 95.6187 34.5472C99.437 30.0195 101.538 26.6171 101.803 24.4398C102.047 22.4489 101.642 20.3981 101.21 18.2275C100.243 13.3446 99.8421 9.91333 102.919 6.82605C103.674 6.06499 104.573 5.46151 105.562 5.05048C106.551 4.63944 107.612 4.42897 108.683 4.43124C109.753 4.42919 110.813 4.63977 111.802 5.05082C112.79 5.46186 113.688 6.06522 114.442 6.82605C116.59 8.97894 117.358 12.1284 116.452 15.0425C116.212 15.8159 116.187 16.6406 116.38 17.4271C116.574 18.2137 116.979 18.9322 117.55 19.5047C118.122 20.0772 118.839 20.4819 119.624 20.675C120.408 20.8681 121.231 20.8422 122.002 20.6001C122.791 20.353 123.614 20.2273 124.441 20.2272C126.612 20.2272 128.653 21.075 130.189 22.6087C131.713 24.1437 132.567 26.2211 132.567 28.3864C132.567 30.5518 131.711 32.6288 130.187 34.1633Z" fill="#505050"/>
<path d="M19.7634 68.0161C18.6828 72.4627 24.4823 81.5826 32.553 90.785C29.3224 93.5464 26.2178 95.8567 24.6631 96.0467C24.4185 96.0766 24.1723 96.0912 23.9259 96.0902C21.2425 96.0902 17.3731 94.6637 13.2725 94.6637C10.1106 94.6637 6.81358 95.5109 3.81195 98.5127C1.75407 100.569 0.4452 103.256 0.0947217 106.144C-0.255756 109.032 0.372409 111.954 1.87873 114.442C3.38505 116.931 5.68248 118.843 8.4035 119.871C11.1245 120.9 14.1119 120.986 16.8877 120.116C16.1787 122.381 16.103 124.797 16.6688 127.102C17.2347 129.407 18.4205 131.513 20.0977 133.193C21.3043 134.401 22.7376 135.36 24.3155 136.013C25.8934 136.667 27.5848 137.002 29.2927 137C31.0011 137.002 32.6932 136.667 34.2718 136.013C35.8504 135.36 37.2846 134.401 38.4922 133.193C45.757 125.923 40.3971 116.901 40.9512 112.336C40.8436 110.46 42.9431 107.232 45.6128 103.926C55.0161 112.272 64.4377 118.337 68.9802 117.236C70.9149 116.766 75.2033 113.549 80.4601 108.972L28.0288 56.54C23.4474 61.7926 20.2305 66.079 19.7634 68.0161ZM42.2105 100.796C38.8745 104.977 36.4705 109.025 36.372 112.086C36.1957 114.044 36.5964 116.059 37.0177 118.186C38.0205 123.226 38.4372 126.77 35.2547 129.955C34.4728 130.739 33.5434 131.361 32.5201 131.784C31.4969 132.207 30.4 132.424 29.2927 132.421C27.9708 132.422 26.6672 132.112 25.4876 131.515C24.308 130.919 23.2855 130.053 22.503 128.987C21.7206 127.922 21.2001 126.687 20.9839 125.383C20.7677 124.079 20.8618 122.742 21.2585 121.481C21.5077 120.684 21.5338 119.834 21.334 119.023C21.1342 118.212 20.7162 117.471 20.1252 116.881C19.5351 116.289 18.7942 115.87 17.9828 115.67C17.1715 115.47 16.3208 115.496 15.5231 115.745C14.7047 115.999 13.8525 116.128 12.9954 116.127C11.8904 116.13 10.7957 115.915 9.77439 115.493C8.75311 115.071 7.82543 114.451 7.04483 113.668C5.45586 112.072 4.57896 109.957 4.57896 107.708C4.57896 105.46 5.45586 103.344 7.04941 101.748C8.78262 100.015 10.7013 99.2409 13.2702 99.2409C15.0881 99.2409 16.9793 99.6164 18.8064 99.9782C20.5877 100.331 22.2728 100.667 23.9213 100.667C24.3701 100.667 24.8051 100.64 25.2149 100.592C27.461 100.317 30.9709 98.1441 35.6417 94.1943C37.7636 96.4611 39.9542 98.6625 42.2105 100.796ZM36.514 71.2881L38.8036 73.5778L36.514 75.8675L34.2244 73.5778L36.514 71.2881ZM31.1701 70.4294L28.8805 72.7168L26.591 70.4294L28.8805 68.1397L31.1701 70.4294Z" fill="#505050"/>
<path d="M32.6191 55.6343L89.0075 106.556C97.746 99.0005 108.061 89.0685 115.254 81.2405L51.7182 36.9688C45.0839 42.9924 38.1323 49.7741 32.6191 55.6343ZM49.2897 54.6334L46.9041 52.3638L49.2897 50.0941L51.6753 52.3638L49.2897 54.6334ZM65.9889 65.1578L63.6033 67.4274L61.2177 65.1578L63.6009 62.8881L65.9889 65.1578ZM57.6393 58.3488L61.2177 61.7533L57.6393 65.1578L54.0609 61.7533L57.6393 58.3488Z" fill="#505050"/>
</svg>
