<svg width="179" height="179" viewBox="0 0 179 179" fill="none" xmlns="http://www.w3.org/2000/svg">
<circle cx="89.5" cy="89.5" r="89.5" fill="#26325B"/>
<path d="M44.312 160L38.552 151.9C37.904 151.972 37.232 152.008 36.536 152.008H29.768V160H27.104V134.8H36.536C39.752 134.8 42.272 135.568 44.096 137.104C45.92 138.64 46.832 140.752 46.832 143.44C46.832 145.408 46.328 147.076 45.32 148.444C44.336 149.788 42.92 150.76 41.072 151.36L47.228 160H44.312ZM36.464 149.74C38.96 149.74 40.868 149.188 42.188 148.084C43.508 146.98 44.168 145.432 44.168 143.44C44.168 141.4 43.508 139.84 42.188 138.76C40.868 137.656 38.96 137.104 36.464 137.104H29.768V149.74H36.464ZM52.5796 141.064H55.1356V160H52.5796V141.064ZM53.8756 136.924C53.3476 136.924 52.9036 136.744 52.5436 136.384C52.1836 136.024 52.0036 135.592 52.0036 135.088C52.0036 134.608 52.1836 134.188 52.5436 133.828C52.9036 133.468 53.3476 133.288 53.8756 133.288C54.4036 133.288 54.8476 133.468 55.2076 133.828C55.5676 134.164 55.7476 134.572 55.7476 135.052C55.7476 135.58 55.5676 136.024 55.2076 136.384C54.8476 136.744 54.4036 136.924 53.8756 136.924ZM67.3236 160.18C65.7876 160.18 64.3116 159.964 62.8956 159.532C61.5036 159.076 60.4116 158.512 59.6196 157.84L60.7716 155.824C61.5636 156.448 62.5596 156.964 63.7596 157.372C64.9596 157.756 66.2076 157.948 67.5036 157.948C69.2316 157.948 70.5036 157.684 71.3196 157.156C72.1596 156.604 72.5796 155.836 72.5796 154.852C72.5796 154.156 72.3516 153.616 71.8956 153.232C71.4396 152.824 70.8636 152.524 70.1676 152.332C69.4716 152.116 68.5476 151.912 67.3956 151.72C65.8596 151.432 64.6236 151.144 63.6876 150.856C62.7516 150.544 61.9476 150.028 61.2756 149.308C60.6276 148.588 60.3036 147.592 60.3036 146.32C60.3036 144.736 60.9636 143.44 62.2836 142.432C63.6036 141.424 65.4396 140.92 67.7916 140.92C69.0156 140.92 70.2396 141.088 71.4636 141.424C72.6876 141.736 73.6956 142.156 74.4876 142.684L73.3716 144.736C71.8116 143.656 69.9516 143.116 67.7916 143.116C66.1596 143.116 64.9236 143.404 64.0836 143.98C63.2676 144.556 62.8596 145.312 62.8596 146.248C62.8596 146.968 63.0876 147.544 63.5436 147.976C64.0236 148.408 64.6116 148.732 65.3076 148.948C66.0036 149.14 66.9636 149.344 68.1876 149.56C69.6996 149.848 70.9116 150.136 71.8236 150.424C72.7356 150.712 73.5156 151.204 74.1636 151.9C74.8116 152.596 75.1356 153.556 75.1356 154.78C75.1356 156.436 74.4396 157.756 73.0476 158.74C71.6796 159.7 69.7716 160.18 67.3236 160.18ZM96.3489 151.324H80.5089C80.6529 153.292 81.4089 154.888 82.7769 156.112C84.1449 157.312 85.8729 157.912 87.9609 157.912C89.1369 157.912 90.2169 157.708 91.2009 157.3C92.1849 156.868 93.0369 156.244 93.7569 155.428L95.1969 157.084C94.3569 158.092 93.3009 158.86 92.0289 159.388C90.7809 159.916 89.4009 160.18 87.8889 160.18C85.9449 160.18 84.2169 159.772 82.7049 158.956C81.2169 158.116 80.0529 156.964 79.2129 155.5C78.3729 154.036 77.9529 152.38 77.9529 150.532C77.9529 148.684 78.3489 147.028 79.1409 145.564C79.9569 144.1 81.0609 142.96 82.4529 142.144C83.8689 141.328 85.4529 140.92 87.2049 140.92C88.9569 140.92 90.5289 141.328 91.9209 142.144C93.3129 142.96 94.4049 144.1 95.1969 145.564C95.9889 147.004 96.3849 148.66 96.3849 150.532L96.3489 151.324ZM87.2049 143.116C85.3809 143.116 83.8449 143.704 82.5969 144.88C81.3729 146.032 80.6769 147.544 80.5089 149.416H93.9369C93.7689 147.544 93.0609 146.032 91.8129 144.88C90.5889 143.704 89.0529 143.116 87.2049 143.116ZM121.701 160.216C118.437 160.216 115.893 159.28 114.069 157.408C112.245 155.536 111.333 152.812 111.333 149.236V134.8H113.997V149.128C113.997 152.056 114.657 154.24 115.977 155.68C117.297 157.12 119.205 157.84 121.701 157.84C124.221 157.84 126.141 157.12 127.461 155.68C128.781 154.24 129.441 152.056 129.441 149.128V134.8H132.033V149.236C132.033 152.812 131.121 155.536 129.297 157.408C127.497 159.28 124.965 160.216 121.701 160.216ZM149.277 140.92C151.053 140.92 152.661 141.328 154.101 142.144C155.541 142.936 156.669 144.064 157.485 145.528C158.301 146.992 158.709 148.66 158.709 150.532C158.709 152.428 158.301 154.108 157.485 155.572C156.669 157.036 155.541 158.176 154.101 158.992C152.685 159.784 151.077 160.18 149.277 160.18C147.741 160.18 146.349 159.868 145.101 159.244C143.877 158.596 142.869 157.66 142.077 156.436V166.984H139.521V141.064H141.969V144.808C142.737 143.56 143.745 142.6 144.993 141.928C146.265 141.256 147.693 140.92 149.277 140.92ZM149.097 157.912C150.417 157.912 151.617 157.612 152.697 157.012C153.777 156.388 154.617 155.512 155.217 154.384C155.841 153.256 156.153 151.972 156.153 150.532C156.153 149.092 155.841 147.82 155.217 146.716C154.617 145.588 153.777 144.712 152.697 144.088C151.617 143.464 150.417 143.152 149.097 143.152C147.753 143.152 146.541 143.464 145.461 144.088C144.405 144.712 143.565 145.588 142.941 146.716C142.341 147.82 142.041 149.092 142.041 150.532C142.041 151.972 142.341 153.256 142.941 154.384C143.565 155.512 144.405 156.388 145.461 157.012C146.541 157.612 147.753 157.912 149.097 157.912Z" fill="#E79A74"/>
<path d="M114.688 89.6465C127.417 84.1681 134.857 73.3012 134.857 58.5725C134.857 36.5692 105.904 25.7023 75.5166 25.7023L85.1078 42.0476C99.0016 42.0476 111.82 47.7954 111.82 58.5725C111.82 69.3496 104.828 75.726 91.0239 75.726H72.469V43.3947H79.9089L70.4969 28.3966L61.085 13.3984L51.6731 28.3966L42.3508 43.3947H49.7907V121.169H72.469V93.8675H93.3545L112.268 121.169H136.649L114.688 89.6465Z" fill="#E79A74"/>
<path d="M114.688 89.6465C127.417 84.1681 134.857 73.3012 134.857 58.5725C134.857 36.5692 105.904 25.7023 75.5166 25.7023L85.1078 42.0476C99.0016 42.0476 111.82 47.7954 111.82 58.5725C111.82 69.3496 104.828 75.726 91.0239 75.726H72.469V43.3947H79.9089L70.4969 28.3966L61.085 13.3984L51.6731 28.3966L42.3508 43.3947H49.7907V121.169H72.469V93.8675H93.3545L112.268 121.169H136.649L114.688 89.6465Z" fill="url(#paint0_linear)"/>
<defs>
<linearGradient id="paint0_linear" x1="89.5001" y1="13.3984" x2="89.5001" y2="121.169" gradientUnits="userSpaceOnUse">
<stop offset="0.317708" stop-color="#E67571"/>
<stop offset="1" stop-color="#E79A74"/>
</linearGradient>
</defs>
</svg>
