<svg width="173" height="193" viewBox="0 0 173 193" fill="none" xmlns="http://www.w3.org/2000/svg">
<g clip-path="url(#clip0)">
<path d="M41.312 27L35.552 35.1C34.904 35.028 34.232 34.992 33.536 34.992H26.768V27H24.104V52.2H33.536C36.752 52.2 39.272 51.432 41.096 49.896C42.92 48.36 43.832 46.248 43.832 43.56C43.832 41.592 43.328 39.924 42.32 38.556C41.336 37.212 39.92 36.24 38.072 35.64L44.228 27H41.312ZM33.464 37.26C35.96 37.26 37.868 37.812 39.188 38.916C40.508 40.02 41.168 41.568 41.168 43.56C41.168 45.6 40.508 47.16 39.188 48.24C37.868 49.344 35.96 49.896 33.464 49.896H26.768V37.26H33.464ZM49.5796 45.936H52.1356V27H49.5796V45.936ZM50.8756 50.076C50.3476 50.076 49.9036 50.256 49.5436 50.616C49.1836 50.976 49.0036 51.408 49.0036 51.912C49.0036 52.392 49.1836 52.812 49.5436 53.172C49.9036 53.532 50.3476 53.712 50.8756 53.712C51.4036 53.712 51.8476 53.532 52.2076 53.172C52.5676 52.836 52.7476 52.428 52.7476 51.948C52.7476 51.42 52.5676 50.976 52.2076 50.616C51.8476 50.256 51.4036 50.076 50.8756 50.076ZM64.3236 26.82C62.7876 26.82 61.3116 27.036 59.8956 27.468C58.5036 27.924 57.4116 28.488 56.6196 29.16L57.7716 31.176C58.5636 30.552 59.5596 30.036 60.7596 29.628C61.9596 29.244 63.2076 29.052 64.5036 29.052C66.2316 29.052 67.5036 29.316 68.3196 29.844C69.1596 30.396 69.5796 31.164 69.5796 32.148C69.5796 32.844 69.3516 33.384 68.8956 33.768C68.4396 34.176 67.8636 34.476 67.1676 34.668C66.4716 34.884 65.5476 35.088 64.3956 35.28C62.8596 35.568 61.6236 35.856 60.6876 36.144C59.7516 36.456 58.9476 36.972 58.2756 37.692C57.6276 38.412 57.3036 39.408 57.3036 40.68C57.3036 42.264 57.9636 43.56 59.2836 44.568C60.6036 45.576 62.4396 46.08 64.7916 46.08C66.0156 46.08 67.2396 45.912 68.4636 45.576C69.6876 45.264 70.6956 44.844 71.4876 44.316L70.3716 42.264C68.8116 43.344 66.9516 43.884 64.7916 43.884C63.1596 43.884 61.9236 43.596 61.0836 43.02C60.2676 42.444 59.8596 41.688 59.8596 40.752C59.8596 40.032 60.0876 39.456 60.5436 39.024C61.0236 38.592 61.6116 38.268 62.3076 38.052C63.0036 37.86 63.9636 37.656 65.1876 37.44C66.6996 37.152 67.9116 36.864 68.8236 36.576C69.7356 36.288 70.5156 35.796 71.1636 35.1C71.8116 34.404 72.1356 33.444 72.1356 32.22C72.1356 30.564 71.4396 29.244 70.0476 28.26C68.6796 27.3 66.7716 26.82 64.3236 26.82ZM93.3489 35.676H77.5089C77.6529 33.708 78.4089 32.112 79.7769 30.888C81.1449 29.688 82.8729 29.088 84.9609 29.088C86.1369 29.088 87.2169 29.292 88.2009 29.7C89.1849 30.132 90.0369 30.756 90.7569 31.572L92.1969 29.916C91.3569 28.908 90.3009 28.14 89.0289 27.612C87.7809 27.084 86.4009 26.82 84.8889 26.82C82.9449 26.82 81.2169 27.228 79.7049 28.044C78.2169 28.884 77.0529 30.036 76.2129 31.5C75.3729 32.964 74.9529 34.62 74.9529 36.468C74.9529 38.316 75.3489 39.972 76.1409 41.436C76.9569 42.9 78.0609 44.04 79.4529 44.856C80.8689 45.672 82.4529 46.08 84.2049 46.08C85.9569 46.08 87.5289 45.672 88.9209 44.856C90.3129 44.04 91.4049 42.9 92.1969 41.436C92.9889 39.996 93.3849 38.34 93.3849 36.468L93.3489 35.676ZM84.2049 43.884C82.3809 43.884 80.8449 43.296 79.5969 42.12C78.3729 40.968 77.6769 39.456 77.5089 37.584H90.9369C90.7689 39.456 90.0609 40.968 88.8129 42.12C87.5889 43.296 86.0529 43.884 84.2049 43.884ZM118.701 26.784C115.437 26.784 112.893 27.72 111.069 29.592C109.245 31.464 108.333 34.188 108.333 37.764V52.2H110.997V37.872C110.997 34.944 111.657 32.76 112.977 31.32C114.297 29.88 116.205 29.16 118.701 29.16C121.221 29.16 123.141 29.88 124.461 31.32C125.781 32.76 126.441 34.944 126.441 37.872V52.2H129.033V37.764C129.033 34.188 128.121 31.464 126.297 29.592C124.497 27.72 121.965 26.784 118.701 26.784ZM146.277 46.08C148.053 46.08 149.661 45.672 151.101 44.856C152.541 44.064 153.669 42.936 154.485 41.472C155.301 40.008 155.709 38.34 155.709 36.468C155.709 34.572 155.301 32.892 154.485 31.428C153.669 29.964 152.541 28.824 151.101 28.008C149.685 27.216 148.077 26.82 146.277 26.82C144.741 26.82 143.349 27.132 142.101 27.756C140.877 28.404 139.869 29.34 139.077 30.564V20.016H136.521V45.936H138.969V42.192C139.737 43.44 140.745 44.4 141.993 45.072C143.265 45.744 144.693 46.08 146.277 46.08ZM146.097 29.088C147.417 29.088 148.617 29.388 149.697 29.988C150.777 30.612 151.617 31.488 152.217 32.616C152.841 33.744 153.153 35.028 153.153 36.468C153.153 37.908 152.841 39.18 152.217 40.284C151.617 41.412 150.777 42.288 149.697 42.912C148.617 43.536 147.417 43.848 146.097 43.848C144.753 43.848 143.541 43.536 142.461 42.912C141.405 42.288 140.565 41.412 139.941 40.284C139.341 39.18 139.041 37.908 139.041 36.468C139.041 35.028 139.341 33.744 139.941 32.616C140.565 31.488 141.405 30.612 142.461 29.988C143.541 29.388 144.753 29.088 146.097 29.088Z" fill="#E79A74"/>
<path d="M111.688 97.3535C124.417 102.832 131.857 113.699 131.857 128.428C131.857 150.431 102.904 161.298 72.5166 161.298L82.1078 144.952C96.0016 144.952 108.82 139.205 108.82 128.428C108.82 117.65 101.828 111.274 88.0239 111.274H69.469V143.605H76.9089L67.4969 158.603L58.085 173.602L48.6731 158.603L39.3508 143.605H46.7907V65.8305H69.469V93.1325H90.3545L109.268 65.8305H133.649L111.688 97.3535Z" fill="#E79A74"/>
<path d="M111.688 97.3535C124.417 102.832 131.857 113.699 131.857 128.428C131.857 150.431 102.904 161.298 72.5166 161.298L82.1078 144.952C96.0016 144.952 108.82 139.205 108.82 128.428C108.82 117.65 101.828 111.274 88.0239 111.274H69.469V143.605H76.9089L67.4969 158.603L58.085 173.602L48.6731 158.603L39.3508 143.605H46.7907V65.8305H69.469V93.1325H90.3545L109.268 65.8305H133.649L111.688 97.3535Z" fill="url(#paint0_linear)"/>
<path d="M171.207 191.294H1.70312V1.77853H171.207V191.294Z" stroke="#26325B" stroke-width="6" stroke-miterlimit="10"/>
</g>
<defs>
<linearGradient id="paint0_linear" x1="86.5001" y1="173.602" x2="86.5001" y2="65.8305" gradientUnits="userSpaceOnUse">
<stop offset="0.317708" stop-color="#E67571"/>
<stop offset="1" stop-color="#E79A74"/>
</linearGradient>
<clipPath id="clip0">
<rect width="173" height="193" fill="white" transform="matrix(1 0 0 -1 0 193)"/>
</clipPath>
</defs>
</svg>
