<svg width="421" height="193" viewBox="0 0 421 193" fill="none" xmlns="http://www.w3.org/2000/svg">
<g clip-path="url(#clip0)">
<path d="M115.56 148L111.72 142.6C111.288 142.648 110.84 142.672 110.376 142.672H105.864V148H104.088V131.2H110.376C112.52 131.2 114.2 131.712 115.416 132.736C116.632 133.76 117.24 135.168 117.24 136.96C117.24 138.272 116.904 139.384 116.232 140.296C115.576 141.192 114.632 141.84 113.4 142.24L117.504 148H115.56ZM110.328 141.16C111.992 141.16 113.264 140.792 114.144 140.056C115.024 139.32 115.464 138.288 115.464 136.96C115.464 135.6 115.024 134.56 114.144 133.84C113.264 133.104 111.992 132.736 110.328 132.736H105.864V141.16H110.328ZM121.072 135.376H122.776V148H121.072V135.376ZM121.936 132.616C121.584 132.616 121.288 132.496 121.048 132.256C120.808 132.016 120.688 131.728 120.688 131.392C120.688 131.072 120.808 130.792 121.048 130.552C121.288 130.312 121.584 130.192 121.936 130.192C122.288 130.192 122.584 130.312 122.824 130.552C123.064 130.776 123.184 131.048 123.184 131.368C123.184 131.72 123.064 132.016 122.824 132.256C122.584 132.496 122.288 132.616 121.936 132.616ZM130.901 148.12C129.877 148.12 128.893 147.976 127.949 147.688C127.021 147.384 126.293 147.008 125.765 146.56L126.533 145.216C127.061 145.632 127.725 145.976 128.525 146.248C129.325 146.504 130.157 146.632 131.021 146.632C132.173 146.632 133.021 146.456 133.565 146.104C134.125 145.736 134.405 145.224 134.405 144.568C134.405 144.104 134.253 143.744 133.949 143.488C133.645 143.216 133.261 143.016 132.797 142.888C132.333 142.744 131.717 142.608 130.949 142.48C129.925 142.288 129.101 142.096 128.477 141.904C127.853 141.696 127.317 141.352 126.869 140.872C126.437 140.392 126.221 139.728 126.221 138.88C126.221 137.824 126.661 136.96 127.541 136.288C128.421 135.616 129.645 135.28 131.213 135.28C132.029 135.28 132.845 135.392 133.661 135.616C134.477 135.824 135.149 136.104 135.677 136.456L134.933 137.824C133.893 137.104 132.653 136.744 131.213 136.744C130.125 136.744 129.301 136.936 128.741 137.32C128.197 137.704 127.925 138.208 127.925 138.832C127.925 139.312 128.077 139.696 128.381 139.984C128.701 140.272 129.093 140.488 129.557 140.632C130.021 140.76 130.661 140.896 131.477 141.04C132.485 141.232 133.293 141.424 133.901 141.616C134.509 141.808 135.029 142.136 135.461 142.6C135.893 143.064 136.109 143.704 136.109 144.52C136.109 145.624 135.645 146.504 134.717 147.16C133.805 147.8 132.533 148.12 130.901 148.12ZM150.251 142.216H139.691C139.787 143.528 140.291 144.592 141.203 145.408C142.115 146.208 143.267 146.608 144.659 146.608C145.443 146.608 146.163 146.472 146.819 146.2C147.475 145.912 148.043 145.496 148.523 144.952L149.483 146.056C148.923 146.728 148.219 147.24 147.371 147.592C146.539 147.944 145.619 148.12 144.611 148.12C143.315 148.12 142.163 147.848 141.155 147.304C140.163 146.744 139.387 145.976 138.827 145C138.267 144.024 137.987 142.92 137.987 141.688C137.987 140.456 138.251 139.352 138.779 138.376C139.323 137.4 140.059 136.64 140.987 136.096C141.931 135.552 142.987 135.28 144.155 135.28C145.323 135.28 146.371 135.552 147.299 136.096C148.227 136.64 148.955 137.4 149.483 138.376C150.011 139.336 150.275 140.44 150.275 141.688L150.251 142.216ZM144.155 136.744C142.939 136.744 141.915 137.136 141.083 137.92C140.267 138.688 139.803 139.696 139.691 140.944H148.643C148.531 139.696 148.059 138.688 147.227 137.92C146.411 137.136 145.387 136.744 144.155 136.744ZM167.153 148.144C164.977 148.144 163.281 147.52 162.065 146.272C160.849 145.024 160.241 143.208 160.241 140.824V131.2H162.017V140.752C162.017 142.704 162.457 144.16 163.337 145.12C164.217 146.08 165.489 146.56 167.153 146.56C168.833 146.56 170.113 146.08 170.993 145.12C171.873 144.16 172.313 142.704 172.313 140.752V131.2H174.041V140.824C174.041 143.208 173.433 145.024 172.217 146.272C171.017 147.52 169.329 148.144 167.153 148.144ZM185.536 135.28C186.72 135.28 187.792 135.552 188.752 136.096C189.712 136.624 190.464 137.376 191.008 138.352C191.552 139.328 191.824 140.44 191.824 141.688C191.824 142.952 191.552 144.072 191.008 145.048C190.464 146.024 189.712 146.784 188.752 147.328C187.808 147.856 186.736 148.12 185.536 148.12C184.512 148.12 183.584 147.912 182.752 147.496C181.936 147.064 181.264 146.44 180.736 145.624V152.656H179.032V135.376H180.664V137.872C181.176 137.04 181.848 136.4 182.68 135.952C183.528 135.504 184.48 135.28 185.536 135.28ZM185.416 146.608C186.296 146.608 187.096 146.408 187.816 146.008C188.536 145.592 189.096 145.008 189.496 144.256C189.912 143.504 190.12 142.648 190.12 141.688C190.12 140.728 189.912 139.88 189.496 139.144C189.096 138.392 188.536 137.808 187.816 137.392C187.096 136.976 186.296 136.768 185.416 136.768C184.52 136.768 183.712 136.976 182.992 137.392C182.288 137.808 181.728 138.392 181.312 139.144C180.912 139.88 180.712 140.728 180.712 141.688C180.712 142.648 180.912 143.504 181.312 144.256C181.728 145.008 182.288 145.592 182.992 146.008C183.712 146.408 184.52 146.608 185.416 146.608Z" fill="#E79A74"/>
<path d="M267.652 93.9404C298.627 88.462 316.732 77.5951 316.732 62.8664C316.732 40.8632 246.274 29.9962 172.327 29.9962L195.667 46.3415C229.478 46.3415 260.671 52.0893 260.671 62.8664C260.671 73.6435 243.657 80.02 210.064 80.02H164.91V47.6887H183.015L160.111 32.6905L137.207 17.6924L114.303 32.6905L91.6169 47.6887H109.722V125.463H164.91V98.1614H215.736L261.762 125.463H321.095L267.652 93.9404Z" fill="#E79A74"/>
<path d="M267.652 93.9404C298.627 88.462 316.732 77.5951 316.732 62.8664C316.732 40.8632 246.274 29.9962 172.327 29.9962L195.667 46.3415C229.478 46.3415 260.671 52.0893 260.671 62.8664C260.671 73.6435 243.657 80.02 210.064 80.02H164.91V47.6887H183.015L160.111 32.6905L137.207 17.6924L114.303 32.6905L91.6169 47.6887H109.722V125.463H164.91V98.1614H215.736L261.762 125.463H321.095L267.652 93.9404Z" fill="url(#paint0_linear)"/>
<path d="M412.493 0H0V189.515H412.493V0Z" stroke="#26325B" stroke-width="6" stroke-miterlimit="10"/>
</g>
<defs>
<linearGradient id="paint0_linear" x1="206.356" y1="17.6924" x2="206.356" y2="125.463" gradientUnits="userSpaceOnUse">
<stop offset="0.317708" stop-color="#E67571"/>
<stop offset="1" stop-color="#E79A74"/>
</linearGradient>
<clipPath id="clip0">
<rect width="421" height="193" fill="white"/>
</clipPath>
</defs>
</svg>
