<svg width="108" height="193" viewBox="0 0 108 193" fill="none" xmlns="http://www.w3.org/2000/svg">
<g clip-path="url(#clip0)">
<path d="M40.208 148L36.368 142.6C35.936 142.648 35.488 142.672 35.024 142.672H30.512V148H28.736V131.2H35.024C37.168 131.2 38.848 131.712 40.064 132.736C41.28 133.76 41.888 135.168 41.888 136.96C41.888 138.272 41.552 139.384 40.88 140.296C40.224 141.192 39.28 141.84 38.048 142.24L42.152 148H40.208ZM34.976 141.16C36.64 141.16 37.912 140.792 38.792 140.056C39.672 139.32 40.112 138.288 40.112 136.96C40.112 135.6 39.672 134.56 38.792 133.84C37.912 133.104 36.64 132.736 34.976 132.736H30.512V141.16H34.976ZM45.7198 135.376H47.4238V148H45.7198V135.376ZM46.5838 132.616C46.2318 132.616 45.9358 132.496 45.6958 132.256C45.4558 132.016 45.3358 131.728 45.3358 131.392C45.3358 131.072 45.4558 130.792 45.6958 130.552C45.9358 130.312 46.2318 130.192 46.5838 130.192C46.9358 130.192 47.2318 130.312 47.4718 130.552C47.7118 130.776 47.8318 131.048 47.8318 131.368C47.8318 131.72 47.7118 132.016 47.4718 132.256C47.2318 132.496 46.9358 132.616 46.5838 132.616ZM55.5491 148.12C54.5251 148.12 53.5411 147.976 52.5971 147.688C51.6691 147.384 50.9411 147.008 50.4131 146.56L51.1811 145.216C51.7091 145.632 52.3731 145.976 53.1731 146.248C53.9731 146.504 54.8051 146.632 55.6691 146.632C56.8211 146.632 57.6691 146.456 58.2131 146.104C58.7731 145.736 59.0531 145.224 59.0531 144.568C59.0531 144.104 58.9011 143.744 58.5971 143.488C58.2931 143.216 57.9091 143.016 57.4451 142.888C56.9811 142.744 56.3651 142.608 55.5971 142.48C54.5731 142.288 53.7491 142.096 53.1251 141.904C52.5011 141.696 51.9651 141.352 51.5171 140.872C51.0851 140.392 50.8691 139.728 50.8691 138.88C50.8691 137.824 51.3091 136.96 52.1891 136.288C53.0691 135.616 54.2931 135.28 55.8611 135.28C56.6771 135.28 57.4931 135.392 58.3091 135.616C59.1251 135.824 59.7971 136.104 60.3251 136.456L59.5811 137.824C58.5411 137.104 57.3011 136.744 55.8611 136.744C54.7731 136.744 53.9491 136.936 53.3891 137.32C52.8451 137.704 52.5731 138.208 52.5731 138.832C52.5731 139.312 52.7251 139.696 53.0291 139.984C53.3491 140.272 53.7411 140.488 54.2051 140.632C54.6691 140.76 55.3091 140.896 56.1251 141.04C57.1331 141.232 57.9411 141.424 58.5491 141.616C59.1571 141.808 59.6771 142.136 60.1091 142.6C60.5411 143.064 60.7571 143.704 60.7571 144.52C60.7571 145.624 60.2931 146.504 59.3651 147.16C58.4531 147.8 57.1811 148.12 55.5491 148.12ZM74.8993 142.216H64.3393C64.4353 143.528 64.9393 144.592 65.8513 145.408C66.7633 146.208 67.9153 146.608 69.3073 146.608C70.0913 146.608 70.8113 146.472 71.4673 146.2C72.1233 145.912 72.6913 145.496 73.1713 144.952L74.1313 146.056C73.5713 146.728 72.8673 147.24 72.0193 147.592C71.1873 147.944 70.2673 148.12 69.2593 148.12C67.9633 148.12 66.8113 147.848 65.8033 147.304C64.8113 146.744 64.0353 145.976 63.4753 145C62.9153 144.024 62.6353 142.92 62.6353 141.688C62.6353 140.456 62.8993 139.352 63.4273 138.376C63.9713 137.4 64.7073 136.64 65.6353 136.096C66.5793 135.552 67.6353 135.28 68.8033 135.28C69.9713 135.28 71.0193 135.552 71.9473 136.096C72.8753 136.64 73.6033 137.4 74.1313 138.376C74.6593 139.336 74.9233 140.44 74.9233 141.688L74.8993 142.216ZM68.8033 136.744C67.5873 136.744 66.5633 137.136 65.7313 137.92C64.9153 138.688 64.4513 139.696 64.3393 140.944H73.2913C73.1793 139.696 72.7073 138.688 71.8753 137.92C71.0593 137.136 70.0353 136.744 68.8033 136.744ZM35.504 177.144C33.328 177.144 31.632 176.52 30.416 175.272C29.2 174.024 28.592 172.208 28.592 169.824V160.2H30.368V169.752C30.368 171.704 30.808 173.16 31.688 174.12C32.568 175.08 33.84 175.56 35.504 175.56C37.184 175.56 38.464 175.08 39.344 174.12C40.224 173.16 40.664 171.704 40.664 169.752V160.2H42.392V169.824C42.392 172.208 41.784 174.024 40.568 175.272C39.368 176.52 37.68 177.144 35.504 177.144ZM53.8878 164.28C55.0718 164.28 56.1438 164.552 57.1038 165.096C58.0638 165.624 58.8158 166.376 59.3598 167.352C59.9038 168.328 60.1758 169.44 60.1758 170.688C60.1758 171.952 59.9038 173.072 59.3598 174.048C58.8158 175.024 58.0638 175.784 57.1038 176.328C56.1598 176.856 55.0878 177.12 53.8878 177.12C52.8638 177.12 51.9358 176.912 51.1038 176.496C50.2878 176.064 49.6158 175.44 49.0878 174.624V181.656H47.3838V164.376H49.0158V166.872C49.5278 166.04 50.1998 165.4 51.0318 164.952C51.8798 164.504 52.8318 164.28 53.8878 164.28ZM53.7678 175.608C54.6478 175.608 55.4478 175.408 56.1678 175.008C56.8878 174.592 57.4478 174.008 57.8478 173.256C58.2638 172.504 58.4718 171.648 58.4718 170.688C58.4718 169.728 58.2638 168.88 57.8478 168.144C57.4478 167.392 56.8878 166.808 56.1678 166.392C55.4478 165.976 54.6478 165.768 53.7678 165.768C52.8718 165.768 52.0638 165.976 51.3438 166.392C50.6398 166.808 50.0798 167.392 49.6638 168.144C49.2638 168.88 49.0638 169.728 49.0638 170.688C49.0638 171.648 49.2638 172.504 49.6638 173.256C50.0798 174.008 50.6398 174.592 51.3438 175.008C52.0638 175.408 52.8718 175.608 53.7678 175.608Z" fill="#E79A74"/>
<path d="M68.6612 93.9404C76.6073 88.462 81.2519 77.5951 81.2519 62.8664C81.2519 40.8632 63.1773 29.9962 44.2073 29.9962L50.1949 46.3415C58.8685 46.3415 66.8706 52.0893 66.8706 62.8664C66.8706 73.6435 62.5058 80.02 53.8882 80.02H42.3048V47.6887H46.9493L41.0737 32.6905L35.198 17.6924L29.3224 32.6905L23.5027 47.6887H28.1472V125.463H42.3048V98.1614H55.3431L67.1504 125.463H82.3711L68.6612 93.9404Z" fill="#E79A74"/>
<path d="M68.6612 93.9404C76.6073 88.462 81.2519 77.5951 81.2519 62.8664C81.2519 40.8632 63.1773 29.9962 44.2073 29.9962L50.1949 46.3415C58.8685 46.3415 66.8706 52.0893 66.8706 62.8664C66.8706 73.6435 62.5058 80.02 53.8882 80.02H42.3048V47.6887H46.9493L41.0737 32.6905L35.198 17.6924L29.3224 32.6905L23.5027 47.6887H28.1472V125.463H42.3048V98.1614H55.3431L67.1504 125.463H82.3711L68.6612 93.9404Z" fill="url(#paint0_linear)"/>
<path d="M105.818 0H0V189.515H105.818V0Z" stroke="#26325B" stroke-width="6" stroke-miterlimit="10"/>
</g>
<defs>
<linearGradient id="paint0_linear" x1="52.9369" y1="17.6924" x2="52.9369" y2="125.463" gradientUnits="userSpaceOnUse">
<stop offset="0.317708" stop-color="#E67571"/>
<stop offset="1" stop-color="#E79A74"/>
</linearGradient>
<clipPath id="clip0">
<rect width="108" height="193" fill="white"/>
</clipPath>
</defs>
</svg>
