<svg width="265" height="153" viewBox="0 0 265 153" fill="none" xmlns="http://www.w3.org/2000/svg">
<path d="M178.312 73L172.552 64.9C171.904 64.972 171.232 65.008 170.536 65.008H163.768V73H161.104V47.8H170.536C173.752 47.8 176.272 48.568 178.096 50.104C179.92 51.64 180.832 53.752 180.832 56.44C180.832 58.408 180.328 60.076 179.32 61.444C178.336 62.788 176.92 63.76 175.072 64.36L181.228 73H178.312ZM170.464 62.74C172.96 62.74 174.868 62.188 176.188 61.084C177.508 59.98 178.168 58.432 178.168 56.44C178.168 54.4 177.508 52.84 176.188 51.76C174.868 50.656 172.96 50.104 170.464 50.104H163.768V62.74H170.464ZM186.58 54.064H189.136V73H186.58V54.064ZM187.876 49.924C187.348 49.924 186.904 49.744 186.544 49.384C186.184 49.024 186.004 48.592 186.004 48.088C186.004 47.608 186.184 47.188 186.544 46.828C186.904 46.468 187.348 46.288 187.876 46.288C188.404 46.288 188.848 46.468 189.208 46.828C189.568 47.164 189.748 47.572 189.748 48.052C189.748 48.58 189.568 49.024 189.208 49.384C188.848 49.744 188.404 49.924 187.876 49.924ZM201.324 73.18C199.788 73.18 198.312 72.964 196.896 72.532C195.504 72.076 194.412 71.512 193.62 70.84L194.772 68.824C195.564 69.448 196.56 69.964 197.76 70.372C198.96 70.756 200.208 70.948 201.504 70.948C203.232 70.948 204.504 70.684 205.32 70.156C206.16 69.604 206.58 68.836 206.58 67.852C206.58 67.156 206.352 66.616 205.896 66.232C205.44 65.824 204.864 65.524 204.168 65.332C203.472 65.116 202.548 64.912 201.396 64.72C199.86 64.432 198.624 64.144 197.688 63.856C196.752 63.544 195.948 63.028 195.276 62.308C194.628 61.588 194.304 60.592 194.304 59.32C194.304 57.736 194.964 56.44 196.284 55.432C197.604 54.424 199.44 53.92 201.792 53.92C203.016 53.92 204.24 54.088 205.464 54.424C206.688 54.736 207.696 55.156 208.488 55.684L207.372 57.736C205.812 56.656 203.952 56.116 201.792 56.116C200.16 56.116 198.924 56.404 198.084 56.98C197.268 57.556 196.86 58.312 196.86 59.248C196.86 59.968 197.088 60.544 197.544 60.976C198.024 61.408 198.612 61.732 199.308 61.948C200.004 62.14 200.964 62.344 202.188 62.56C203.7 62.848 204.912 63.136 205.824 63.424C206.736 63.712 207.516 64.204 208.164 64.9C208.812 65.596 209.136 66.556 209.136 67.78C209.136 69.436 208.44 70.756 207.048 71.74C205.68 72.7 203.772 73.18 201.324 73.18ZM230.349 64.324H214.509C214.653 66.292 215.409 67.888 216.777 69.112C218.145 70.312 219.873 70.912 221.961 70.912C223.137 70.912 224.217 70.708 225.201 70.3C226.185 69.868 227.037 69.244 227.757 68.428L229.197 70.084C228.357 71.092 227.301 71.86 226.029 72.388C224.781 72.916 223.401 73.18 221.889 73.18C219.945 73.18 218.217 72.772 216.705 71.956C215.217 71.116 214.053 69.964 213.213 68.5C212.373 67.036 211.953 65.38 211.953 63.532C211.953 61.684 212.349 60.028 213.141 58.564C213.957 57.1 215.061 55.96 216.453 55.144C217.869 54.328 219.453 53.92 221.205 53.92C222.957 53.92 224.529 54.328 225.921 55.144C227.313 55.96 228.405 57.1 229.197 58.564C229.989 60.004 230.385 61.66 230.385 63.532L230.349 64.324ZM221.205 56.116C219.381 56.116 217.845 56.704 216.597 57.88C215.373 59.032 214.677 60.544 214.509 62.416H227.937C227.769 60.544 227.061 59.032 225.813 57.88C224.589 56.704 223.053 56.116 221.205 56.116ZM171.256 117.216C167.992 117.216 165.448 116.28 163.624 114.408C161.8 112.536 160.888 109.812 160.888 106.236V91.8H163.552V106.128C163.552 109.056 164.212 111.24 165.532 112.68C166.852 114.12 168.76 114.84 171.256 114.84C173.776 114.84 175.696 114.12 177.016 112.68C178.336 111.24 178.996 109.056 178.996 106.128V91.8H181.588V106.236C181.588 109.812 180.676 112.536 178.852 114.408C177.052 116.28 174.52 117.216 171.256 117.216ZM198.832 97.92C200.608 97.92 202.216 98.328 203.656 99.144C205.096 99.936 206.224 101.064 207.04 102.528C207.856 103.992 208.264 105.66 208.264 107.532C208.264 109.428 207.856 111.108 207.04 112.572C206.224 114.036 205.096 115.176 203.656 115.992C202.24 116.784 200.632 117.18 198.832 117.18C197.296 117.18 195.904 116.868 194.656 116.244C193.432 115.596 192.424 114.66 191.632 113.436V123.984H189.076V98.064H191.524V101.808C192.292 100.56 193.3 99.6 194.548 98.928C195.82 98.256 197.248 97.92 198.832 97.92ZM198.652 114.912C199.972 114.912 201.172 114.612 202.252 114.012C203.332 113.388 204.172 112.512 204.772 111.384C205.396 110.256 205.708 108.972 205.708 107.532C205.708 106.092 205.396 104.82 204.772 103.716C204.172 102.588 203.332 101.712 202.252 101.088C201.172 100.464 199.972 100.152 198.652 100.152C197.308 100.152 196.096 100.464 195.016 101.088C193.96 101.712 193.12 102.588 192.496 103.716C191.896 104.82 191.596 106.092 191.596 107.532C191.596 108.972 191.896 110.256 192.496 111.384C193.12 112.512 193.96 113.388 195.016 114.012C196.096 114.612 197.308 114.912 198.652 114.912Z" fill="#E79A74"/>
<path d="M110.711 95.41C124.209 89.92 132.099 79.03 132.099 64.27C132.099 42.22 101.395 31.33 69.1711 31.33L79.3422 47.71C94.076 47.71 107.669 53.47 107.669 64.27C107.669 75.07 100.255 81.46 85.616 81.46H65.9392V49.06H73.8289L63.8479 34.03L53.8669 19L43.8859 34.03L34 49.06H41.8897V127H65.9392V99.64H88.0875L108.144 127H134L110.711 95.41Z" fill="#E79A74"/>
<path d="M110.711 95.41C124.209 89.92 132.099 79.03 132.099 64.27C132.099 42.22 101.395 31.33 69.1711 31.33L79.3422 47.71C94.076 47.71 107.669 53.47 107.669 64.27C107.669 75.07 100.255 81.46 85.616 81.46H65.9392V49.06H73.8289L63.8479 34.03L53.8669 19L43.8859 34.03L34 49.06H41.8897V127H65.9392V99.64H88.0875L108.144 127H134L110.711 95.41Z" fill="url(#paint0_linear)"/>
<path d="M262 3H3V150H262V3Z" stroke="#26325B" stroke-width="6" stroke-miterlimit="10"/>
<defs>
<linearGradient id="paint0_linear" x1="84" y1="19" x2="84" y2="127" gradientUnits="userSpaceOnUse">
<stop offset="0.317708" stop-color="#E67571"/>
<stop offset="1" stop-color="#E79A74"/>
</linearGradient>
</defs>
</svg>
