<svg width="1035" height="456" viewBox="0 0 1035 456" fill="none" xmlns="http://www.w3.org/2000/svg">
<rect x="0.5" y="0.5" width="1034" height="455" stroke="#AFAFAF"/>
<rect x="44" y="25" width="276" height="406" fill="#E69B77"/>
<path d="M77.918 271.85H71.222L69.836 275H67.982L73.688 262.4H75.47L81.194 275H79.304L77.918 271.85ZM77.288 270.41L74.57 264.236L71.852 270.41H77.288ZM87.9156 265.37C89.1276 265.37 90.0876 265.724 90.7956 266.432C91.5156 267.128 91.8756 268.154 91.8756 269.51V275H90.1476V269.708C90.1476 268.784 89.9256 268.088 89.4816 267.62C89.0376 267.152 88.4016 266.918 87.5736 266.918C86.6376 266.918 85.8996 267.194 85.3596 267.746C84.8196 268.286 84.5496 269.066 84.5496 270.086V275H82.8216V265.46H84.4776V266.9C84.8256 266.408 85.2936 266.03 85.8816 265.766C86.4816 265.502 87.1596 265.37 87.9156 265.37ZM99.2123 275.108C98.2643 275.108 97.4123 274.898 96.6563 274.478C95.9003 274.058 95.3063 273.482 94.8743 272.75C94.4543 272.006 94.2443 271.166 94.2443 270.23C94.2443 269.294 94.4543 268.46 94.8743 267.728C95.3063 266.984 95.9003 266.408 96.6563 266C97.4123 265.58 98.2643 265.37 99.2123 265.37C100.16 265.37 101.006 265.58 101.75 266C102.506 266.408 103.094 266.984 103.514 267.728C103.946 268.46 104.162 269.294 104.162 270.23C104.162 271.166 103.946 272.006 103.514 272.75C103.094 273.482 102.506 274.058 101.75 274.478C101.006 274.898 100.16 275.108 99.2123 275.108ZM99.2123 273.596C99.8243 273.596 100.37 273.458 100.85 273.182C101.342 272.894 101.726 272.498 102.002 271.994C102.278 271.478 102.416 270.89 102.416 270.23C102.416 269.57 102.278 268.988 102.002 268.484C101.726 267.968 101.342 267.572 100.85 267.296C100.37 267.02 99.8243 266.882 99.2123 266.882C98.6003 266.882 98.0483 267.02 97.5563 267.296C97.0763 267.572 96.6923 267.968 96.4043 268.484C96.1283 268.988 95.9903 269.57 95.9903 270.23C95.9903 270.89 96.1283 271.478 96.4043 271.994C96.6923 272.498 97.0763 272.894 97.5563 273.182C98.0483 273.458 98.6003 273.596 99.2123 273.596ZM108.208 267.062C108.508 266.51 108.952 266.09 109.54 265.802C110.128 265.514 110.842 265.37 111.682 265.37V267.044C111.586 267.032 111.454 267.026 111.286 267.026C110.35 267.026 109.612 267.308 109.072 267.872C108.544 268.424 108.28 269.216 108.28 270.248V275H106.552V265.46H108.208V267.062ZM122.346 270.284C122.346 270.416 122.334 270.59 122.31 270.806H114.57C114.678 271.646 115.044 272.324 115.668 272.84C116.304 273.344 117.09 273.596 118.026 273.596C119.166 273.596 120.084 273.212 120.78 272.444L121.734 273.56C121.302 274.064 120.762 274.448 120.114 274.712C119.478 274.976 118.764 275.108 117.972 275.108C116.964 275.108 116.07 274.904 115.29 274.496C114.51 274.076 113.904 273.494 113.472 272.75C113.052 272.006 112.842 271.166 112.842 270.23C112.842 269.306 113.046 268.472 113.454 267.728C113.874 266.984 114.444 266.408 115.164 266C115.896 265.58 116.718 265.37 117.63 265.37C118.542 265.37 119.352 265.58 120.06 266C120.78 266.408 121.338 266.984 121.734 267.728C122.142 268.472 122.346 269.324 122.346 270.284ZM117.63 266.828C116.802 266.828 116.106 267.08 115.542 267.584C114.99 268.088 114.666 268.748 114.57 269.564H120.69C120.594 268.76 120.264 268.106 119.7 267.602C119.148 267.086 118.458 266.828 117.63 266.828ZM130.566 275L127.812 271.346L125.022 275H123.096L126.858 270.122L123.276 265.46H125.202L127.83 268.898L130.44 265.46H132.33L128.73 270.122L132.528 275H130.566ZM134.413 265.46H136.141V275H134.413V265.46ZM135.277 263.624C134.941 263.624 134.659 263.516 134.431 263.3C134.215 263.084 134.107 262.82 134.107 262.508C134.107 262.196 134.215 261.932 134.431 261.716C134.659 261.488 134.941 261.374 135.277 261.374C135.613 261.374 135.889 261.482 136.105 261.698C136.333 261.902 136.447 262.16 136.447 262.472C136.447 262.796 136.333 263.072 136.105 263.3C135.889 263.516 135.613 263.624 135.277 263.624ZM142.915 265.37C144.235 265.37 145.243 265.694 145.939 266.342C146.647 266.99 147.001 267.956 147.001 269.24V275H145.363V273.74C145.075 274.184 144.661 274.526 144.121 274.766C143.593 274.994 142.963 275.108 142.231 275.108C141.163 275.108 140.305 274.85 139.657 274.334C139.021 273.818 138.703 273.14 138.703 272.3C138.703 271.46 139.009 270.788 139.621 270.284C140.233 269.768 141.205 269.51 142.537 269.51H145.273V269.168C145.273 268.424 145.057 267.854 144.625 267.458C144.193 267.062 143.557 266.864 142.717 266.864C142.153 266.864 141.601 266.96 141.061 267.152C140.521 267.332 140.065 267.578 139.693 267.89L138.973 266.594C139.465 266.198 140.053 265.898 140.737 265.694C141.421 265.478 142.147 265.37 142.915 265.37ZM142.519 273.776C143.179 273.776 143.749 273.632 144.229 273.344C144.709 273.044 145.057 272.624 145.273 272.084V270.752H142.609C141.145 270.752 140.413 271.244 140.413 272.228C140.413 272.708 140.599 273.086 140.971 273.362C141.343 273.638 141.859 273.776 142.519 273.776Z" fill="white"/>
<path d="M78.368 313.466C79.1 313.67 79.676 314.042 80.096 314.582C80.516 315.11 80.726 315.782 80.726 316.598C80.726 317.69 80.312 318.53 79.484 319.118C78.668 319.706 77.474 320 75.902 320H69.89V307.4H75.542C76.982 307.4 78.092 307.688 78.872 308.264C79.664 308.84 80.06 309.638 80.06 310.658C80.06 311.318 79.904 311.888 79.592 312.368C79.292 312.848 78.884 313.214 78.368 313.466ZM71.69 308.858V312.89H75.38C76.304 312.89 77.012 312.722 77.504 312.386C78.008 312.038 78.26 311.534 78.26 310.874C78.26 310.214 78.008 309.716 77.504 309.38C77.012 309.032 76.304 308.858 75.38 308.858H71.69ZM75.83 318.542C76.85 318.542 77.618 318.374 78.134 318.038C78.65 317.702 78.908 317.174 78.908 316.454C78.908 315.05 77.882 314.348 75.83 314.348H71.69V318.542H75.83ZM92.153 310.46V320H90.515V318.56C90.167 319.052 89.705 319.436 89.129 319.712C88.565 319.976 87.947 320.108 87.275 320.108C86.003 320.108 85.001 319.76 84.269 319.064C83.537 318.356 83.171 317.318 83.171 315.95V310.46H84.899V315.752C84.899 316.676 85.121 317.378 85.565 317.858C86.009 318.326 86.645 318.56 87.473 318.56C88.385 318.56 89.105 318.284 89.633 317.732C90.161 317.18 90.425 316.4 90.425 315.392V310.46H92.153ZM95.4427 306.644H97.1707V320H95.4427V306.644ZM100.47 310.46H102.198V320H100.47V310.46ZM101.334 308.624C100.998 308.624 100.716 308.516 100.488 308.3C100.272 308.084 100.164 307.82 100.164 307.508C100.164 307.196 100.272 306.932 100.488 306.716C100.716 306.488 100.998 306.374 101.334 306.374C101.67 306.374 101.946 306.482 102.162 306.698C102.39 306.902 102.504 307.16 102.504 307.472C102.504 307.796 102.39 308.072 102.162 308.3C101.946 308.516 101.67 308.624 101.334 308.624ZM117.431 310.37C118.631 310.37 119.579 310.718 120.275 311.414C120.983 312.11 121.337 313.142 121.337 314.51V320H119.609V314.708C119.609 313.784 119.393 313.088 118.961 312.62C118.541 312.152 117.935 311.918 117.143 311.918C116.267 311.918 115.571 312.194 115.055 312.746C114.539 313.286 114.281 314.066 114.281 315.086V320H112.553V314.708C112.553 313.784 112.337 313.088 111.905 312.62C111.485 312.152 110.879 311.918 110.087 311.918C109.211 311.918 108.515 312.194 107.999 312.746C107.483 313.286 107.225 314.066 107.225 315.086V320H105.497V310.46H107.153V311.882C107.501 311.39 107.957 311.018 108.521 310.766C109.085 310.502 109.727 310.37 110.447 310.37C111.191 310.37 111.851 310.52 112.427 310.82C113.003 311.12 113.447 311.558 113.759 312.134C114.119 311.582 114.617 311.15 115.253 310.838C115.901 310.526 116.627 310.37 117.431 310.37ZM124.517 310.46H126.245V320H124.517V310.46ZM125.381 308.624C125.045 308.624 124.763 308.516 124.535 308.3C124.319 308.084 124.211 307.82 124.211 307.508C124.211 307.196 124.319 306.932 124.535 306.716C124.763 306.488 125.045 306.374 125.381 306.374C125.717 306.374 125.993 306.482 126.209 306.698C126.437 306.902 126.551 307.16 126.551 307.472C126.551 307.796 126.437 308.072 126.209 308.3C125.993 308.516 125.717 308.624 125.381 308.624ZM133.018 310.37C134.338 310.37 135.346 310.694 136.042 311.342C136.75 311.99 137.104 312.956 137.104 314.24V320H135.466V318.74C135.178 319.184 134.764 319.526 134.224 319.766C133.696 319.994 133.066 320.108 132.334 320.108C131.266 320.108 130.408 319.85 129.76 319.334C129.124 318.818 128.806 318.14 128.806 317.3C128.806 316.46 129.112 315.788 129.724 315.284C130.336 314.768 131.308 314.51 132.64 314.51H135.376V314.168C135.376 313.424 135.16 312.854 134.728 312.458C134.296 312.062 133.66 311.864 132.82 311.864C132.256 311.864 131.704 311.96 131.164 312.152C130.624 312.332 130.168 312.578 129.796 312.89L129.076 311.594C129.568 311.198 130.156 310.898 130.84 310.694C131.524 310.478 132.25 310.37 133.018 310.37ZM132.622 318.776C133.282 318.776 133.852 318.632 134.332 318.344C134.812 318.044 135.16 317.624 135.376 317.084V315.752H132.712C131.248 315.752 130.516 316.244 130.516 317.228C130.516 317.708 130.702 318.086 131.074 318.362C131.446 318.638 131.962 318.776 132.622 318.776Z" fill="white"/>
<path d="M78.368 358.466C79.1 358.67 79.676 359.042 80.096 359.582C80.516 360.11 80.726 360.782 80.726 361.598C80.726 362.69 80.312 363.53 79.484 364.118C78.668 364.706 77.474 365 75.902 365H69.89V352.4H75.542C76.982 352.4 78.092 352.688 78.872 353.264C79.664 353.84 80.06 354.638 80.06 355.658C80.06 356.318 79.904 356.888 79.592 357.368C79.292 357.848 78.884 358.214 78.368 358.466ZM71.69 353.858V357.89H75.38C76.304 357.89 77.012 357.722 77.504 357.386C78.008 357.038 78.26 356.534 78.26 355.874C78.26 355.214 78.008 354.716 77.504 354.38C77.012 354.032 76.304 353.858 75.38 353.858H71.69ZM75.83 363.542C76.85 363.542 77.618 363.374 78.134 363.038C78.65 362.702 78.908 362.174 78.908 361.454C78.908 360.05 77.882 359.348 75.83 359.348H71.69V363.542H75.83ZM83.261 355.46H84.989V365H83.261V355.46ZM84.125 353.624C83.789 353.624 83.507 353.516 83.279 353.3C83.063 353.084 82.955 352.82 82.955 352.508C82.955 352.196 83.063 351.932 83.279 351.716C83.507 351.488 83.789 351.374 84.125 351.374C84.461 351.374 84.737 351.482 84.953 351.698C85.181 351.902 85.295 352.16 85.295 352.472C85.295 352.796 85.181 353.072 84.953 353.3C84.737 353.516 84.461 353.624 84.125 353.624ZM93.3824 355.37C94.5944 355.37 95.5544 355.724 96.2624 356.432C96.9824 357.128 97.3424 358.154 97.3424 359.51V365H95.6144V359.708C95.6144 358.784 95.3924 358.088 94.9484 357.62C94.5044 357.152 93.8684 356.918 93.0404 356.918C92.1044 356.918 91.3664 357.194 90.8264 357.746C90.2864 358.286 90.0164 359.066 90.0164 360.086V365H88.2884V355.46H89.9444V356.9C90.2924 356.408 90.7604 356.03 91.3484 355.766C91.9484 355.502 92.6264 355.37 93.3824 355.37ZM109.719 355.46V363.704C109.719 365.372 109.305 366.602 108.477 367.394C107.649 368.198 106.413 368.6 104.769 368.6C103.869 368.6 103.011 368.474 102.195 368.222C101.379 367.982 100.719 367.634 100.215 367.178L101.043 365.846C101.487 366.23 102.033 366.53 102.681 366.746C103.341 366.974 104.019 367.088 104.715 367.088C105.831 367.088 106.653 366.824 107.181 366.296C107.721 365.768 107.991 364.964 107.991 363.884V363.128C107.583 363.62 107.079 363.992 106.479 364.244C105.891 364.484 105.249 364.604 104.553 364.604C103.641 364.604 102.813 364.412 102.069 364.028C101.337 363.632 100.761 363.086 100.341 362.39C99.9211 361.682 99.7111 360.878 99.7111 359.978C99.7111 359.078 99.9211 358.28 100.341 357.584C100.761 356.876 101.337 356.33 102.069 355.946C102.813 355.562 103.641 355.37 104.553 355.37C105.273 355.37 105.939 355.502 106.551 355.766C107.175 356.03 107.685 356.42 108.081 356.936V355.46H109.719ZM104.751 363.092C105.375 363.092 105.933 362.96 106.425 362.696C106.929 362.432 107.319 362.066 107.595 361.598C107.883 361.118 108.027 360.578 108.027 359.978C108.027 359.054 107.721 358.31 107.109 357.746C106.497 357.17 105.711 356.882 104.751 356.882C103.779 356.882 102.987 357.17 102.375 357.746C101.763 358.31 101.457 359.054 101.457 359.978C101.457 360.578 101.595 361.118 101.871 361.598C102.159 362.066 102.549 362.432 103.041 362.696C103.545 362.96 104.115 363.092 104.751 363.092ZM121.643 360.284C121.643 360.416 121.631 360.59 121.607 360.806H113.867C113.975 361.646 114.341 362.324 114.965 362.84C115.601 363.344 116.387 363.596 117.323 363.596C118.463 363.596 119.381 363.212 120.077 362.444L121.031 363.56C120.599 364.064 120.059 364.448 119.411 364.712C118.775 364.976 118.061 365.108 117.269 365.108C116.261 365.108 115.367 364.904 114.587 364.496C113.807 364.076 113.201 363.494 112.769 362.75C112.349 362.006 112.139 361.166 112.139 360.23C112.139 359.306 112.343 358.472 112.751 357.728C113.171 356.984 113.741 356.408 114.461 356C115.193 355.58 116.015 355.37 116.927 355.37C117.839 355.37 118.649 355.58 119.357 356C120.077 356.408 120.635 356.984 121.031 357.728C121.439 358.472 121.643 359.324 121.643 360.284ZM116.927 356.828C116.099 356.828 115.403 357.08 114.839 357.584C114.287 358.088 113.963 358.748 113.867 359.564H119.987C119.891 358.76 119.561 358.106 118.997 357.602C118.445 357.086 117.755 356.828 116.927 356.828ZM138.272 363.434V365H129.128V352.4H138.02V353.966H130.928V357.836H137.246V359.366H130.928V363.434H138.272ZM144.286 355.37C145.606 355.37 146.614 355.694 147.31 356.342C148.018 356.99 148.372 357.956 148.372 359.24V365H146.734V363.74C146.446 364.184 146.032 364.526 145.492 364.766C144.964 364.994 144.334 365.108 143.602 365.108C142.534 365.108 141.676 364.85 141.028 364.334C140.392 363.818 140.074 363.14 140.074 362.3C140.074 361.46 140.38 360.788 140.992 360.284C141.604 359.768 142.576 359.51 143.908 359.51H146.644V359.168C146.644 358.424 146.428 357.854 145.996 357.458C145.564 357.062 144.928 356.864 144.088 356.864C143.524 356.864 142.972 356.96 142.432 357.152C141.892 357.332 141.436 357.578 141.064 357.89L140.344 356.594C140.836 356.198 141.424 355.898 142.108 355.694C142.792 355.478 143.518 355.37 144.286 355.37ZM143.89 363.776C144.55 363.776 145.12 363.632 145.6 363.344C146.08 363.044 146.428 362.624 146.644 362.084V360.752H143.98C142.516 360.752 141.784 361.244 141.784 362.228C141.784 362.708 141.97 363.086 142.342 363.362C142.714 363.638 143.23 363.776 143.89 363.776ZM156.934 364.442C156.682 364.658 156.37 364.826 155.998 364.946C155.626 365.054 155.242 365.108 154.846 365.108C153.886 365.108 153.142 364.85 152.614 364.334C152.086 363.818 151.822 363.08 151.822 362.12V356.882H150.202V355.46H151.822V353.372H153.55V355.46H156.286V356.882H153.55V362.048C153.55 362.564 153.676 362.96 153.928 363.236C154.192 363.512 154.564 363.65 155.044 363.65C155.572 363.65 156.022 363.5 156.394 363.2L156.934 364.442ZM159.023 355.46H160.751V365H159.023V355.46ZM159.887 353.624C159.551 353.624 159.269 353.516 159.041 353.3C158.825 353.084 158.717 352.82 158.717 352.508C158.717 352.196 158.825 351.932 159.041 351.716C159.269 351.488 159.551 351.374 159.887 351.374C160.223 351.374 160.499 351.482 160.715 351.698C160.943 351.902 161.057 352.16 161.057 352.472C161.057 352.796 160.943 353.072 160.715 353.3C160.499 353.516 160.223 353.624 159.887 353.624ZM169.144 355.37C170.356 355.37 171.316 355.724 172.024 356.432C172.744 357.128 173.104 358.154 173.104 359.51V365H171.376V359.708C171.376 358.784 171.154 358.088 170.71 357.62C170.266 357.152 169.63 356.918 168.802 356.918C167.866 356.918 167.128 357.194 166.588 357.746C166.048 358.286 165.778 359.066 165.778 360.086V365H164.05V355.46H165.706V356.9C166.054 356.408 166.522 356.03 167.11 355.766C167.71 355.502 168.388 355.37 169.144 355.37ZM185.481 355.46V363.704C185.481 365.372 185.067 366.602 184.239 367.394C183.411 368.198 182.175 368.6 180.531 368.6C179.631 368.6 178.773 368.474 177.957 368.222C177.141 367.982 176.481 367.634 175.977 367.178L176.805 365.846C177.249 366.23 177.795 366.53 178.443 366.746C179.103 366.974 179.781 367.088 180.477 367.088C181.593 367.088 182.415 366.824 182.943 366.296C183.483 365.768 183.753 364.964 183.753 363.884V363.128C183.345 363.62 182.841 363.992 182.241 364.244C181.653 364.484 181.011 364.604 180.315 364.604C179.403 364.604 178.575 364.412 177.831 364.028C177.099 363.632 176.523 363.086 176.103 362.39C175.683 361.682 175.473 360.878 175.473 359.978C175.473 359.078 175.683 358.28 176.103 357.584C176.523 356.876 177.099 356.33 177.831 355.946C178.575 355.562 179.403 355.37 180.315 355.37C181.035 355.37 181.701 355.502 182.313 355.766C182.937 356.03 183.447 356.42 183.843 356.936V355.46H185.481ZM180.513 363.092C181.137 363.092 181.695 362.96 182.187 362.696C182.691 362.432 183.081 362.066 183.357 361.598C183.645 361.118 183.789 360.578 183.789 359.978C183.789 359.054 183.483 358.31 182.871 357.746C182.259 357.17 181.473 356.882 180.513 356.882C179.541 356.882 178.749 357.17 178.137 357.746C177.525 358.31 177.219 359.054 177.219 359.978C177.219 360.578 177.357 361.118 177.633 361.598C177.921 362.066 178.311 362.432 178.803 362.696C179.307 362.96 179.877 363.092 180.513 363.092ZM193.869 352.4H199.179C200.511 352.4 201.693 352.664 202.725 353.192C203.757 353.72 204.555 354.464 205.119 355.424C205.695 356.372 205.983 357.464 205.983 358.7C205.983 359.936 205.695 361.034 205.119 361.994C204.555 362.942 203.757 363.68 202.725 364.208C201.693 364.736 200.511 365 199.179 365H193.869V352.4ZM199.071 363.434C200.091 363.434 200.985 363.236 201.753 362.84C202.533 362.444 203.133 361.892 203.553 361.184C203.973 360.464 204.183 359.636 204.183 358.7C204.183 357.764 203.973 356.942 203.553 356.234C203.133 355.514 202.533 354.956 201.753 354.56C200.985 354.164 200.091 353.966 199.071 353.966H195.669V363.434H199.071ZM208.488 355.46H210.216V365H208.488V355.46ZM209.352 353.624C209.016 353.624 208.734 353.516 208.506 353.3C208.29 353.084 208.182 352.82 208.182 352.508C208.182 352.196 208.29 351.932 208.506 351.716C208.734 351.488 209.016 351.374 209.352 351.374C209.688 351.374 209.964 351.482 210.18 351.698C210.408 351.902 210.522 352.16 210.522 352.472C210.522 352.796 210.408 353.072 210.18 353.3C209.964 353.516 209.688 353.624 209.352 353.624ZM216.251 365.108C215.471 365.108 214.721 365.006 214.001 364.802C213.281 364.586 212.717 364.316 212.309 363.992L213.029 362.624C213.449 362.924 213.959 363.164 214.559 363.344C215.159 363.524 215.765 363.614 216.377 363.614C217.889 363.614 218.645 363.182 218.645 362.318C218.645 362.03 218.543 361.802 218.339 361.634C218.135 361.466 217.877 361.346 217.565 361.274C217.265 361.19 216.833 361.1 216.269 361.004C215.501 360.884 214.871 360.746 214.379 360.59C213.899 360.434 213.485 360.17 213.137 359.798C212.789 359.426 212.615 358.904 212.615 358.232C212.615 357.368 212.975 356.678 213.695 356.162C214.415 355.634 215.381 355.37 216.593 355.37C217.229 355.37 217.865 355.448 218.501 355.604C219.137 355.76 219.659 355.97 220.067 356.234L219.329 357.602C218.549 357.098 217.631 356.846 216.575 356.846C215.843 356.846 215.285 356.966 214.901 357.206C214.517 357.446 214.325 357.764 214.325 358.16C214.325 358.472 214.433 358.718 214.649 358.898C214.865 359.078 215.129 359.21 215.441 359.294C215.765 359.378 216.215 359.474 216.791 359.582C217.559 359.714 218.177 359.858 218.645 360.014C219.125 360.158 219.533 360.41 219.869 360.77C220.205 361.13 220.373 361.634 220.373 362.282C220.373 363.146 220.001 363.836 219.257 364.352C218.525 364.856 217.523 365.108 216.251 365.108ZM226.619 365.108C225.671 365.108 224.819 364.898 224.063 364.478C223.307 364.058 222.713 363.482 222.281 362.75C221.861 362.006 221.651 361.166 221.651 360.23C221.651 359.294 221.861 358.46 222.281 357.728C222.713 356.984 223.307 356.408 224.063 356C224.819 355.58 225.671 355.37 226.619 355.37C227.567 355.37 228.413 355.58 229.157 356C229.913 356.408 230.501 356.984 230.921 357.728C231.353 358.46 231.569 359.294 231.569 360.23C231.569 361.166 231.353 362.006 230.921 362.75C230.501 363.482 229.913 364.058 229.157 364.478C228.413 364.898 227.567 365.108 226.619 365.108ZM226.619 363.596C227.231 363.596 227.777 363.458 228.257 363.182C228.749 362.894 229.133 362.498 229.409 361.994C229.685 361.478 229.823 360.89 229.823 360.23C229.823 359.57 229.685 358.988 229.409 358.484C229.133 357.968 228.749 357.572 228.257 357.296C227.777 357.02 227.231 356.882 226.619 356.882C226.007 356.882 225.455 357.02 224.963 357.296C224.483 357.572 224.099 357.968 223.811 358.484C223.535 358.988 223.397 359.57 223.397 360.23C223.397 360.89 223.535 361.478 223.811 361.994C224.099 362.498 224.483 362.894 224.963 363.182C225.455 363.458 226.007 363.596 226.619 363.596ZM235.614 357.062C235.914 356.51 236.358 356.09 236.946 355.802C237.534 355.514 238.248 355.37 239.088 355.37V357.044C238.992 357.032 238.86 357.026 238.692 357.026C237.756 357.026 237.018 357.308 236.478 357.872C235.95 358.424 235.686 359.216 235.686 360.248V365H233.958V355.46H235.614V357.062ZM250.13 351.644V365H248.474V363.488C248.09 364.016 247.604 364.418 247.016 364.694C246.428 364.97 245.78 365.108 245.072 365.108C244.148 365.108 243.32 364.904 242.588 364.496C241.856 364.088 241.28 363.518 240.86 362.786C240.452 362.042 240.248 361.19 240.248 360.23C240.248 359.27 240.452 358.424 240.86 357.692C241.28 356.96 241.856 356.39 242.588 355.982C243.32 355.574 244.148 355.37 245.072 355.37C245.756 355.37 246.386 355.502 246.962 355.766C247.538 356.018 248.018 356.396 248.402 356.9V351.644H250.13ZM245.216 363.596C245.816 363.596 246.362 363.458 246.854 363.182C247.346 362.894 247.73 362.498 248.006 361.994C248.282 361.478 248.42 360.89 248.42 360.23C248.42 359.57 248.282 358.988 248.006 358.484C247.73 357.968 247.346 357.572 246.854 357.296C246.362 357.02 245.816 356.882 245.216 356.882C244.604 356.882 244.052 357.02 243.56 357.296C243.08 357.572 242.696 357.968 242.408 358.484C242.132 358.988 241.994 359.57 241.994 360.23C241.994 360.89 242.132 361.478 242.408 361.994C242.696 362.498 243.08 362.894 243.56 363.182C244.052 363.458 244.604 363.596 245.216 363.596ZM262.022 360.284C262.022 360.416 262.01 360.59 261.986 360.806H254.246C254.354 361.646 254.72 362.324 255.344 362.84C255.98 363.344 256.766 363.596 257.702 363.596C258.842 363.596 259.76 363.212 260.456 362.444L261.41 363.56C260.978 364.064 260.438 364.448 259.79 364.712C259.154 364.976 258.44 365.108 257.648 365.108C256.64 365.108 255.746 364.904 254.966 364.496C254.186 364.076 253.58 363.494 253.148 362.75C252.728 362.006 252.518 361.166 252.518 360.23C252.518 359.306 252.722 358.472 253.13 357.728C253.55 356.984 254.12 356.408 254.84 356C255.572 355.58 256.394 355.37 257.306 355.37C258.218 355.37 259.028 355.58 259.736 356C260.456 356.408 261.014 356.984 261.41 357.728C261.818 358.472 262.022 359.324 262.022 360.284ZM257.306 356.828C256.478 356.828 255.782 357.08 255.218 357.584C254.666 358.088 254.342 358.748 254.246 359.564H260.366C260.27 358.76 259.94 358.106 259.376 357.602C258.824 357.086 258.134 356.828 257.306 356.828ZM266.077 357.062C266.377 356.51 266.821 356.09 267.409 355.802C267.997 355.514 268.711 355.37 269.551 355.37V357.044C269.455 357.032 269.323 357.026 269.155 357.026C268.219 357.026 267.481 357.308 266.941 357.872C266.413 358.424 266.149 359.216 266.149 360.248V365H264.421V355.46H266.077V357.062Z" fill="white"/>
<path d="M75.578 410.144C74.306 410.144 73.16 409.868 72.14 409.316C71.12 408.752 70.316 407.978 69.728 406.994C69.152 406.01 68.864 404.912 68.864 403.7C68.864 402.488 69.152 401.39 69.728 400.406C70.316 399.422 71.12 398.654 72.14 398.102C73.16 397.538 74.306 397.256 75.578 397.256C76.838 397.256 77.978 397.538 78.998 398.102C80.018 398.654 80.816 399.422 81.392 400.406C81.968 401.378 82.256 402.476 82.256 403.7C82.256 404.924 81.968 406.028 81.392 407.012C80.816 407.984 80.018 408.752 78.998 409.316C77.978 409.868 76.838 410.144 75.578 410.144ZM75.578 408.542C76.502 408.542 77.33 408.332 78.062 407.912C78.806 407.492 79.388 406.916 79.808 406.184C80.24 405.44 80.456 404.612 80.456 403.7C80.456 402.788 80.24 401.966 79.808 401.234C79.388 400.49 78.806 399.908 78.062 399.488C77.33 399.068 76.502 398.858 75.578 398.858C74.654 398.858 73.814 399.068 73.058 399.488C72.314 399.908 71.726 400.49 71.294 401.234C70.874 401.966 70.664 402.788 70.664 403.7C70.664 404.612 70.874 405.44 71.294 406.184C71.726 406.916 72.314 407.492 73.058 407.912C73.814 408.332 74.654 408.542 75.578 408.542ZM86.4112 402.062C86.7112 401.51 87.1552 401.09 87.7432 400.802C88.3312 400.514 89.0452 400.37 89.8852 400.37V402.044C89.7892 402.032 89.6572 402.026 89.4892 402.026C88.5532 402.026 87.8152 402.308 87.2752 402.872C86.7472 403.424 86.4832 404.216 86.4832 405.248V410H84.7552V400.46H86.4112V402.062ZM97.7657 409.442C97.5137 409.658 97.2017 409.826 96.8297 409.946C96.4577 410.054 96.0737 410.108 95.6777 410.108C94.7177 410.108 93.9737 409.85 93.4457 409.334C92.9177 408.818 92.6537 408.08 92.6537 407.12V401.882H91.0337V400.46H92.6537V398.372H94.3817V400.46H97.1177V401.882H94.3817V407.048C94.3817 407.564 94.5077 407.96 94.7597 408.236C95.0237 408.512 95.3957 408.65 95.8757 408.65C96.4037 408.65 96.8537 408.5 97.2257 408.2L97.7657 409.442ZM104.949 400.37C106.161 400.37 107.121 400.724 107.829 401.432C108.549 402.128 108.909 403.154 108.909 404.51V410H107.181V404.708C107.181 403.784 106.959 403.088 106.515 402.62C106.071 402.152 105.435 401.918 104.607 401.918C103.671 401.918 102.933 402.194 102.393 402.746C101.853 403.286 101.583 404.066 101.583 405.086V410H99.8548V396.644H101.583V401.81C101.943 401.354 102.411 401 102.987 400.748C103.575 400.496 104.229 400.37 104.949 400.37ZM116.245 410.108C115.297 410.108 114.445 409.898 113.689 409.478C112.933 409.058 112.339 408.482 111.907 407.75C111.487 407.006 111.277 406.166 111.277 405.23C111.277 404.294 111.487 403.46 111.907 402.728C112.339 401.984 112.933 401.408 113.689 401C114.445 400.58 115.297 400.37 116.245 400.37C117.193 400.37 118.039 400.58 118.783 401C119.539 401.408 120.127 401.984 120.547 402.728C120.979 403.46 121.195 404.294 121.195 405.23C121.195 406.166 120.979 407.006 120.547 407.75C120.127 408.482 119.539 409.058 118.783 409.478C118.039 409.898 117.193 410.108 116.245 410.108ZM116.245 408.596C116.857 408.596 117.403 408.458 117.883 408.182C118.375 407.894 118.759 407.498 119.035 406.994C119.311 406.478 119.449 405.89 119.449 405.23C119.449 404.57 119.311 403.988 119.035 403.484C118.759 402.968 118.375 402.572 117.883 402.296C117.403 402.02 116.857 401.882 116.245 401.882C115.633 401.882 115.081 402.02 114.589 402.296C114.109 402.572 113.725 402.968 113.437 403.484C113.161 403.988 113.023 404.57 113.023 405.23C113.023 405.89 113.161 406.478 113.437 406.994C113.725 407.498 114.109 407.894 114.589 408.182C115.081 408.458 115.633 408.596 116.245 408.596ZM125.241 402.062C125.541 401.51 125.985 401.09 126.573 400.802C127.161 400.514 127.875 400.37 128.715 400.37V402.044C128.619 402.032 128.487 402.026 128.319 402.026C127.383 402.026 126.645 402.308 126.105 402.872C125.577 403.424 125.313 404.216 125.313 405.248V410H123.585V400.46H125.241V402.062ZM139.379 405.284C139.379 405.416 139.367 405.59 139.343 405.806H131.603C131.711 406.646 132.077 407.324 132.701 407.84C133.337 408.344 134.123 408.596 135.059 408.596C136.199 408.596 137.117 408.212 137.813 407.444L138.767 408.56C138.335 409.064 137.795 409.448 137.147 409.712C136.511 409.976 135.797 410.108 135.005 410.108C133.997 410.108 133.103 409.904 132.323 409.496C131.543 409.076 130.937 408.494 130.505 407.75C130.085 407.006 129.875 406.166 129.875 405.23C129.875 404.306 130.079 403.472 130.487 402.728C130.907 401.984 131.477 401.408 132.197 401C132.929 400.58 133.751 400.37 134.663 400.37C135.575 400.37 136.385 400.58 137.093 401C137.813 401.408 138.371 401.984 138.767 402.728C139.175 403.472 139.379 404.324 139.379 405.284ZM134.663 401.828C133.835 401.828 133.139 402.08 132.575 402.584C132.023 403.088 131.699 403.748 131.603 404.564H137.723C137.627 403.76 137.297 403.106 136.733 402.602C136.181 402.086 135.491 401.828 134.663 401.828ZM147.599 410L144.845 406.346L142.055 410H140.129L143.891 405.122L140.309 400.46H142.235L144.863 403.898L147.473 400.46H149.363L145.763 405.122L149.561 410H147.599ZM151.447 400.46H153.175V410H151.447V400.46ZM152.311 398.624C151.975 398.624 151.693 398.516 151.465 398.3C151.249 398.084 151.141 397.82 151.141 397.508C151.141 397.196 151.249 396.932 151.465 396.716C151.693 396.488 151.975 396.374 152.311 396.374C152.647 396.374 152.923 396.482 153.139 396.698C153.367 396.902 153.481 397.16 153.481 397.472C153.481 397.796 153.367 398.072 153.139 398.3C152.923 398.516 152.647 398.624 152.311 398.624ZM159.948 400.37C161.268 400.37 162.276 400.694 162.972 401.342C163.68 401.99 164.034 402.956 164.034 404.24V410H162.396V408.74C162.108 409.184 161.694 409.526 161.154 409.766C160.626 409.994 159.996 410.108 159.264 410.108C158.196 410.108 157.338 409.85 156.69 409.334C156.054 408.818 155.736 408.14 155.736 407.3C155.736 406.46 156.042 405.788 156.654 405.284C157.266 404.768 158.238 404.51 159.57 404.51H162.306V404.168C162.306 403.424 162.09 402.854 161.658 402.458C161.226 402.062 160.59 401.864 159.75 401.864C159.186 401.864 158.634 401.96 158.094 402.152C157.554 402.332 157.098 402.578 156.726 402.89L156.006 401.594C156.498 401.198 157.086 400.898 157.77 400.694C158.454 400.478 159.18 400.37 159.948 400.37ZM159.552 408.776C160.212 408.776 160.782 408.632 161.262 408.344C161.742 408.044 162.09 407.624 162.306 407.084V405.752H159.642C158.178 405.752 157.446 406.244 157.446 407.228C157.446 407.708 157.632 408.086 158.004 408.362C158.376 408.638 158.892 408.776 159.552 408.776Z" fill="white"/>
<rect x="383" y="25" width="276" height="406" fill="#F8E8AE"/>
<path d="M464.12 142.229L451.623 132.62C450.578 133.03 449.75 133.331 449.139 133.522L439.232 136.619L443.045 148.817L437.319 150.607L424.787 110.52L440.421 105.633C445.613 104.01 450.086 103.974 453.84 105.524C457.593 107.075 460.15 110.026 461.511 114.379C462.478 117.471 462.538 120.344 461.691 122.998C460.844 125.651 459.163 127.916 456.648 129.792L470.362 140.278L464.12 142.229ZM447.446 128.708C451.073 127.574 453.596 125.926 455.016 123.764C456.435 121.602 456.691 119.07 455.784 116.169C454.877 113.267 453.231 111.351 450.844 110.421C448.446 109.453 445.433 109.535 441.807 110.669L432.071 113.712L437.71 131.751L447.446 128.708Z" fill="white"/>
<path d="M485.468 192.107L491.245 193.729L479.895 234.166L474.119 232.545L485.468 192.107Z" fill="white"/>
<path d="M532.733 167.082C529.823 165.85 527.192 164.216 524.84 162.178C522.541 160.119 520.921 158.044 519.982 155.953L523.85 152.508C524.763 154.457 526.182 156.339 528.107 158.153C530.085 159.945 532.289 161.356 534.721 162.385C537.925 163.741 540.546 164.22 542.582 163.822C544.634 163.387 546.041 162.267 546.805 160.462C547.366 159.136 547.376 157.881 546.835 156.696C546.347 155.491 545.551 154.394 544.449 153.406C543.383 152.434 541.807 151.181 539.72 149.646C537.106 147.715 535.045 146.017 533.536 144.553C532.064 143.105 530.987 141.39 530.306 139.408C529.677 137.404 529.885 135.168 530.929 132.7C531.802 130.637 533.124 129.003 534.893 127.798C536.7 126.608 538.919 125.983 541.55 125.924C544.181 125.864 547.136 126.528 550.414 127.916C552.698 128.882 554.821 130.128 556.782 131.653C558.742 133.177 560.281 134.827 561.397 136.603L557.703 140.252C556.519 138.534 555.115 137.028 553.491 135.733C551.883 134.401 550.195 133.361 548.427 132.612C545.296 131.287 542.696 130.861 540.629 131.332C538.599 131.82 537.202 132.966 536.438 134.771C535.877 136.097 535.859 137.371 536.384 138.592C536.926 139.777 537.739 140.881 538.826 141.906C539.965 142.909 541.549 144.144 543.578 145.61C546.192 147.542 548.235 149.232 549.707 150.68C551.179 152.128 552.237 153.835 552.882 155.802C553.563 157.784 553.389 159.991 552.361 162.422C551.503 164.448 550.163 166.075 548.341 167.302C546.535 168.492 544.297 169.109 541.629 169.152C538.977 169.159 536.012 168.469 532.733 167.082Z" fill="white"/>
<path d="M619.927 225.007L622.03 229.785L594.133 242.064L577.212 203.624L604.34 191.683L606.443 196.46L584.807 205.984L590.004 217.791L609.279 209.306L611.334 213.974L592.058 222.459L597.521 234.87L619.927 225.007Z" fill="white"/>
<path d="M467.613 335.545C462.176 334.203 458.327 331.604 456.065 327.749C453.803 323.895 453.391 319.055 454.83 313.23L460.554 290.046L466.379 291.485L460.712 314.435C458.555 323.173 461.301 328.486 468.951 330.375C472.679 331.296 475.797 330.933 478.305 329.286C480.823 327.6 482.628 324.544 483.721 320.117L489.388 297.166L495.039 298.561L489.314 321.745C487.866 327.609 485.244 331.72 481.448 334.079C477.661 336.399 473.05 336.888 467.613 335.545Z" fill="white"/>
<path d="M567.54 315.854C572.709 314.157 577.181 314.056 580.956 315.553C584.732 317.049 587.331 319.964 588.754 324.296C590.177 328.628 589.812 332.516 587.659 335.96C585.506 339.404 581.845 341.975 576.677 343.672L566.815 346.911L570.785 358.996L565.084 360.868L551.978 320.966L567.54 315.854ZM574.877 338.769C578.487 337.583 580.993 335.918 582.394 333.774C583.782 331.592 584.002 329.057 583.053 326.168C582.105 323.28 580.431 321.388 578.031 320.492C575.619 319.558 572.608 319.684 568.998 320.87L559.308 324.053L565.187 341.952L574.877 338.769Z" fill="white"/>
<rect x="712.5" y="25.5" width="275" height="405" stroke="#E67571"/>
<rect x="58.5" y="222.5" width="247" height="198" stroke="white"/>
<path d="M765.16 172.6C767.827 172.6 769.933 173.373 771.48 174.92C773.053 176.467 773.84 178.76 773.84 181.8V194H770V182.24C770 180.187 769.52 178.64 768.56 177.6C767.627 176.56 766.28 176.04 764.52 176.04C762.573 176.04 761.027 176.653 759.88 177.88C758.733 179.08 758.16 180.813 758.16 183.08V194H754.32V182.24C754.32 180.187 753.84 178.64 752.88 177.6C751.947 176.56 750.6 176.04 748.84 176.04C746.893 176.04 745.347 176.653 744.2 177.88C743.053 179.08 742.48 180.813 742.48 183.08V194H738.64V172.8H742.32V175.96C743.093 174.867 744.107 174.04 745.36 173.48C746.613 172.893 748.04 172.6 749.64 172.6C751.293 172.6 752.76 172.933 754.04 173.6C755.32 174.267 756.307 175.24 757 176.52C757.8 175.293 758.907 174.333 760.32 173.64C761.76 172.947 763.373 172.6 765.16 172.6ZM790.103 194.24C787.996 194.24 786.103 193.773 784.423 192.84C782.743 191.907 781.423 190.627 780.463 189C779.529 187.347 779.063 185.48 779.063 183.4C779.063 181.32 779.529 179.467 780.463 177.84C781.423 176.187 782.743 174.907 784.423 174C786.103 173.067 787.996 172.6 790.103 172.6C792.209 172.6 794.089 173.067 795.743 174C797.423 174.907 798.729 176.187 799.663 177.84C800.623 179.467 801.103 181.32 801.103 183.4C801.103 185.48 800.623 187.347 799.663 189C798.729 190.627 797.423 191.907 795.743 192.84C794.089 193.773 792.209 194.24 790.103 194.24ZM790.103 190.88C791.463 190.88 792.676 190.573 793.743 189.96C794.836 189.32 795.689 188.44 796.303 187.32C796.916 186.173 797.223 184.867 797.223 183.4C797.223 181.933 796.916 180.64 796.303 179.52C795.689 178.373 794.836 177.493 793.743 176.88C792.676 176.267 791.463 175.96 790.103 175.96C788.743 175.96 787.516 176.267 786.423 176.88C785.356 177.493 784.503 178.373 783.863 179.52C783.249 180.64 782.943 181.933 782.943 183.4C782.943 184.867 783.249 186.173 783.863 187.32C784.503 188.44 785.356 189.32 786.423 189.96C787.516 190.573 788.743 190.88 790.103 190.88ZM817.733 172.6C820.427 172.6 822.56 173.387 824.133 174.96C825.733 176.507 826.533 178.787 826.533 181.8V194H822.693V182.24C822.693 180.187 822.2 178.64 821.213 177.6C820.227 176.56 818.813 176.04 816.973 176.04C814.893 176.04 813.253 176.653 812.053 177.88C810.853 179.08 810.253 180.813 810.253 183.08V194H806.413V172.8H810.093V176C810.867 174.907 811.907 174.067 813.213 173.48C814.547 172.893 816.053 172.6 817.733 172.6ZM845.56 192.76C845 193.24 844.307 193.613 843.48 193.88C842.653 194.12 841.8 194.24 840.92 194.24C838.787 194.24 837.133 193.667 835.96 192.52C834.787 191.373 834.2 189.733 834.2 187.6V175.96H830.6V172.8H834.2V168.16H838.04V172.8H844.12V175.96H838.04V187.44C838.04 188.587 838.32 189.467 838.88 190.08C839.467 190.693 840.293 191 841.36 191C842.533 191 843.533 190.667 844.36 190L845.56 192.76ZM856.283 194.24C854.549 194.24 852.883 194.013 851.283 193.56C849.683 193.08 848.429 192.48 847.523 191.76L849.123 188.72C850.056 189.387 851.189 189.92 852.523 190.32C853.856 190.72 855.203 190.92 856.562 190.92C859.923 190.92 861.603 189.96 861.603 188.04C861.603 187.4 861.376 186.893 860.923 186.52C860.469 186.147 859.896 185.88 859.203 185.72C858.536 185.533 857.576 185.333 856.323 185.12C854.616 184.853 853.216 184.547 852.123 184.2C851.056 183.853 850.136 183.267 849.363 182.44C848.589 181.613 848.203 180.453 848.203 178.96C848.203 177.04 849.003 175.507 850.603 174.36C852.203 173.187 854.349 172.6 857.043 172.6C858.456 172.6 859.869 172.773 861.283 173.12C862.696 173.467 863.856 173.933 864.763 174.52L863.123 177.56C861.389 176.44 859.349 175.88 857.003 175.88C855.376 175.88 854.136 176.147 853.283 176.68C852.429 177.213 852.003 177.92 852.003 178.8C852.003 179.493 852.243 180.04 852.723 180.44C853.203 180.84 853.789 181.133 854.483 181.32C855.203 181.507 856.203 181.72 857.483 181.96C859.189 182.253 860.563 182.573 861.603 182.92C862.669 183.24 863.576 183.8 864.323 184.6C865.069 185.4 865.443 186.52 865.443 187.96C865.443 189.88 864.616 191.413 862.963 192.56C861.336 193.68 859.109 194.24 856.283 194.24ZM889.402 183.52C889.402 183.813 889.375 184.2 889.322 184.68H872.122C872.362 186.547 873.175 188.053 874.562 189.2C875.975 190.32 877.722 190.88 879.802 190.88C882.335 190.88 884.375 190.027 885.922 188.32L888.042 190.8C887.082 191.92 885.882 192.773 884.442 193.36C883.028 193.947 881.442 194.24 879.682 194.24C877.442 194.24 875.455 193.787 873.722 192.88C871.988 191.947 870.642 190.653 869.682 189C868.748 187.347 868.282 185.48 868.282 183.4C868.282 181.347 868.735 179.493 869.642 177.84C870.575 176.187 871.842 174.907 873.442 174C875.068 173.067 876.895 172.6 878.922 172.6C880.948 172.6 882.748 173.067 884.322 174C885.922 174.907 887.162 176.187 888.042 177.84C888.948 179.493 889.402 181.387 889.402 183.52ZM878.922 175.84C877.082 175.84 875.535 176.4 874.282 177.52C873.055 178.64 872.335 180.107 872.122 181.92H885.722C885.508 180.133 884.775 178.68 883.522 177.56C882.295 176.413 880.762 175.84 878.922 175.84ZM898.414 176.36C899.08 175.133 900.067 174.2 901.374 173.56C902.68 172.92 904.267 172.6 906.134 172.6V176.32C905.92 176.293 905.627 176.28 905.254 176.28C903.174 176.28 901.534 176.907 900.334 178.16C899.16 179.387 898.574 181.147 898.574 183.44V194H894.734V172.8H898.414V176.36ZM914.547 176.36C915.213 175.133 916.2 174.2 917.507 173.56C918.813 172.92 920.4 172.6 922.267 172.6V176.32C922.053 176.293 921.76 176.28 921.387 176.28C919.307 176.28 917.667 176.907 916.467 178.16C915.293 179.387 914.707 181.147 914.707 183.44V194H910.867V172.8H914.547V176.36ZM934.68 172.6C937.614 172.6 939.854 173.32 941.4 174.76C942.974 176.2 943.76 178.347 943.76 181.2V194H940.12V191.2C939.48 192.187 938.56 192.947 937.36 193.48C936.187 193.987 934.787 194.24 933.16 194.24C930.787 194.24 928.88 193.667 927.44 192.52C926.027 191.373 925.32 189.867 925.32 188C925.32 186.133 926 184.64 927.36 183.52C928.72 182.373 930.88 181.8 933.84 181.8H939.92V181.04C939.92 179.387 939.44 178.12 938.48 177.24C937.52 176.36 936.107 175.92 934.24 175.92C932.987 175.92 931.76 176.133 930.56 176.56C929.36 176.96 928.347 177.507 927.52 178.2L925.92 175.32C927.014 174.44 928.32 173.773 929.84 173.32C931.36 172.84 932.974 172.6 934.68 172.6ZM933.8 191.28C935.267 191.28 936.534 190.96 937.6 190.32C938.667 189.653 939.44 188.72 939.92 187.52V184.56H934C930.747 184.56 929.12 185.653 929.12 187.84C929.12 188.907 929.534 189.747 930.36 190.36C931.187 190.973 932.334 191.28 933.8 191.28ZM962.787 192.76C962.227 193.24 961.533 193.613 960.707 193.88C959.88 194.12 959.027 194.24 958.147 194.24C956.013 194.24 954.36 193.667 953.187 192.52C952.013 191.373 951.427 189.733 951.427 187.6V175.96H947.827V172.8H951.427V168.16H955.267V172.8H961.347V175.96H955.267V187.44C955.267 188.587 955.547 189.467 956.107 190.08C956.693 190.693 957.52 191 958.587 191C959.76 191 960.76 190.667 961.587 190L962.787 192.76Z" fill="#E67571"/>
<path d="M765.16 229.6C767.827 229.6 769.933 230.373 771.48 231.92C773.053 233.467 773.84 235.76 773.84 238.8V251H770V239.24C770 237.187 769.52 235.64 768.56 234.6C767.627 233.56 766.28 233.04 764.52 233.04C762.573 233.04 761.027 233.653 759.88 234.88C758.733 236.08 758.16 237.813 758.16 240.08V251H754.32V239.24C754.32 237.187 753.84 235.64 752.88 234.6C751.947 233.56 750.6 233.04 748.84 233.04C746.893 233.04 745.347 233.653 744.2 234.88C743.053 236.08 742.48 237.813 742.48 240.08V251H738.64V229.8H742.32V232.96C743.093 231.867 744.107 231.04 745.36 230.48C746.613 229.893 748.04 229.6 749.64 229.6C751.293 229.6 752.76 229.933 754.04 230.6C755.32 231.267 756.307 232.24 757 233.52C757.8 232.293 758.907 231.333 760.32 230.64C761.76 229.947 763.373 229.6 765.16 229.6ZM790.103 251.24C787.996 251.24 786.103 250.773 784.423 249.84C782.743 248.907 781.423 247.627 780.463 246C779.529 244.347 779.063 242.48 779.063 240.4C779.063 238.32 779.529 236.467 780.463 234.84C781.423 233.187 782.743 231.907 784.423 231C786.103 230.067 787.996 229.6 790.103 229.6C792.209 229.6 794.089 230.067 795.743 231C797.423 231.907 798.729 233.187 799.663 234.84C800.623 236.467 801.103 238.32 801.103 240.4C801.103 242.48 800.623 244.347 799.663 246C798.729 247.627 797.423 248.907 795.743 249.84C794.089 250.773 792.209 251.24 790.103 251.24ZM790.103 247.88C791.463 247.88 792.676 247.573 793.743 246.96C794.836 246.32 795.689 245.44 796.303 244.32C796.916 243.173 797.223 241.867 797.223 240.4C797.223 238.933 796.916 237.64 796.303 236.52C795.689 235.373 794.836 234.493 793.743 233.88C792.676 233.267 791.463 232.96 790.103 232.96C788.743 232.96 787.516 233.267 786.423 233.88C785.356 234.493 784.503 235.373 783.863 236.52C783.249 237.64 782.943 238.933 782.943 240.4C782.943 241.867 783.249 243.173 783.863 244.32C784.503 245.44 785.356 246.32 786.423 246.96C787.516 247.573 788.743 247.88 790.103 247.88ZM817.733 229.6C820.427 229.6 822.56 230.387 824.133 231.96C825.733 233.507 826.533 235.787 826.533 238.8V251H822.693V239.24C822.693 237.187 822.2 235.64 821.213 234.6C820.227 233.56 818.813 233.04 816.973 233.04C814.893 233.04 813.253 233.653 812.053 234.88C810.853 236.08 810.253 237.813 810.253 240.08V251H806.413V229.8H810.093V233C810.867 231.907 811.907 231.067 813.213 230.48C814.547 229.893 816.053 229.6 817.733 229.6ZM845.56 249.76C845 250.24 844.307 250.613 843.48 250.88C842.653 251.12 841.8 251.24 840.92 251.24C838.787 251.24 837.133 250.667 835.96 249.52C834.787 248.373 834.2 246.733 834.2 244.6V232.96H830.6V229.8H834.2V225.16H838.04V229.8H844.12V232.96H838.04V244.44C838.04 245.587 838.32 246.467 838.88 247.08C839.467 247.693 840.293 248 841.36 248C842.533 248 843.533 247.667 844.36 247L845.56 249.76ZM856.283 251.24C854.549 251.24 852.883 251.013 851.283 250.56C849.683 250.08 848.429 249.48 847.523 248.76L849.123 245.72C850.056 246.387 851.189 246.92 852.523 247.32C853.856 247.72 855.203 247.92 856.562 247.92C859.923 247.92 861.603 246.96 861.603 245.04C861.603 244.4 861.376 243.893 860.923 243.52C860.469 243.147 859.896 242.88 859.203 242.72C858.536 242.533 857.576 242.333 856.323 242.12C854.616 241.853 853.216 241.547 852.123 241.2C851.056 240.853 850.136 240.267 849.363 239.44C848.589 238.613 848.203 237.453 848.203 235.96C848.203 234.04 849.003 232.507 850.603 231.36C852.203 230.187 854.349 229.6 857.043 229.6C858.456 229.6 859.869 229.773 861.283 230.12C862.696 230.467 863.856 230.933 864.763 231.52L863.123 234.56C861.389 233.44 859.349 232.88 857.003 232.88C855.376 232.88 854.136 233.147 853.283 233.68C852.429 234.213 852.003 234.92 852.003 235.8C852.003 236.493 852.243 237.04 852.723 237.44C853.203 237.84 853.789 238.133 854.483 238.32C855.203 238.507 856.203 238.72 857.483 238.96C859.189 239.253 860.563 239.573 861.603 239.92C862.669 240.24 863.576 240.8 864.323 241.6C865.069 242.4 865.443 243.52 865.443 244.96C865.443 246.88 864.616 248.413 862.963 249.56C861.336 250.68 859.109 251.24 856.283 251.24ZM889.402 240.52C889.402 240.813 889.375 241.2 889.322 241.68H872.122C872.362 243.547 873.175 245.053 874.562 246.2C875.975 247.32 877.722 247.88 879.802 247.88C882.335 247.88 884.375 247.027 885.922 245.32L888.042 247.8C887.082 248.92 885.882 249.773 884.442 250.36C883.028 250.947 881.442 251.24 879.682 251.24C877.442 251.24 875.455 250.787 873.722 249.88C871.988 248.947 870.642 247.653 869.682 246C868.748 244.347 868.282 242.48 868.282 240.4C868.282 238.347 868.735 236.493 869.642 234.84C870.575 233.187 871.842 231.907 873.442 231C875.068 230.067 876.895 229.6 878.922 229.6C880.948 229.6 882.748 230.067 884.322 231C885.922 231.907 887.162 233.187 888.042 234.84C888.948 236.493 889.402 238.387 889.402 240.52ZM878.922 232.84C877.082 232.84 875.535 233.4 874.282 234.52C873.055 235.64 872.335 237.107 872.122 238.92H885.722C885.508 237.133 884.775 235.68 883.522 234.56C882.295 233.413 880.762 232.84 878.922 232.84ZM898.414 233.36C899.08 232.133 900.067 231.2 901.374 230.56C902.68 229.92 904.267 229.6 906.134 229.6V233.32C905.92 233.293 905.627 233.28 905.254 233.28C903.174 233.28 901.534 233.907 900.334 235.16C899.16 236.387 898.574 238.147 898.574 240.44V251H894.734V229.8H898.414V233.36ZM914.547 233.36C915.213 232.133 916.2 231.2 917.507 230.56C918.813 229.92 920.4 229.6 922.267 229.6V233.32C922.053 233.293 921.76 233.28 921.387 233.28C919.307 233.28 917.667 233.907 916.467 235.16C915.293 236.387 914.707 238.147 914.707 240.44V251H910.867V229.8H914.547V233.36ZM934.68 229.6C937.614 229.6 939.854 230.32 941.4 231.76C942.974 233.2 943.76 235.347 943.76 238.2V251H940.12V248.2C939.48 249.187 938.56 249.947 937.36 250.48C936.187 250.987 934.787 251.24 933.16 251.24C930.787 251.24 928.88 250.667 927.44 249.52C926.027 248.373 925.32 246.867 925.32 245C925.32 243.133 926 241.64 927.36 240.52C928.72 239.373 930.88 238.8 933.84 238.8H939.92V238.04C939.92 236.387 939.44 235.12 938.48 234.24C937.52 233.36 936.107 232.92 934.24 232.92C932.987 232.92 931.76 233.133 930.56 233.56C929.36 233.96 928.347 234.507 927.52 235.2L925.92 232.32C927.014 231.44 928.32 230.773 929.84 230.32C931.36 229.84 932.974 229.6 934.68 229.6ZM933.8 248.28C935.267 248.28 936.534 247.96 937.6 247.32C938.667 246.653 939.44 245.72 939.92 244.52V241.56H934C930.747 241.56 929.12 242.653 929.12 244.84C929.12 245.907 929.534 246.747 930.36 247.36C931.187 247.973 932.334 248.28 933.8 248.28ZM962.787 249.76C962.227 250.24 961.533 250.613 960.707 250.88C959.88 251.12 959.027 251.24 958.147 251.24C956.013 251.24 954.36 250.667 953.187 249.52C952.013 248.373 951.427 246.733 951.427 244.6V232.96H947.827V229.8H951.427V225.16H955.267V229.8H961.347V232.96H955.267V244.44C955.267 245.587 955.547 246.467 956.107 247.08C956.693 247.693 957.52 248 958.587 248C959.76 248 960.76 247.667 961.587 247L962.787 249.76Z" fill="#E67571"/>
<path d="M765.16 286.6C767.827 286.6 769.933 287.373 771.48 288.92C773.053 290.467 773.84 292.76 773.84 295.8V308H770V296.24C770 294.187 769.52 292.64 768.56 291.6C767.627 290.56 766.28 290.04 764.52 290.04C762.573 290.04 761.027 290.653 759.88 291.88C758.733 293.08 758.16 294.813 758.16 297.08V308H754.32V296.24C754.32 294.187 753.84 292.64 752.88 291.6C751.947 290.56 750.6 290.04 748.84 290.04C746.893 290.04 745.347 290.653 744.2 291.88C743.053 293.08 742.48 294.813 742.48 297.08V308H738.64V286.8H742.32V289.96C743.093 288.867 744.107 288.04 745.36 287.48C746.613 286.893 748.04 286.6 749.64 286.6C751.293 286.6 752.76 286.933 754.04 287.6C755.32 288.267 756.307 289.24 757 290.52C757.8 289.293 758.907 288.333 760.32 287.64C761.76 286.947 763.373 286.6 765.16 286.6ZM790.103 308.24C787.996 308.24 786.103 307.773 784.423 306.84C782.743 305.907 781.423 304.627 780.463 303C779.529 301.347 779.063 299.48 779.063 297.4C779.063 295.32 779.529 293.467 780.463 291.84C781.423 290.187 782.743 288.907 784.423 288C786.103 287.067 787.996 286.6 790.103 286.6C792.209 286.6 794.089 287.067 795.743 288C797.423 288.907 798.729 290.187 799.663 291.84C800.623 293.467 801.103 295.32 801.103 297.4C801.103 299.48 800.623 301.347 799.663 303C798.729 304.627 797.423 305.907 795.743 306.84C794.089 307.773 792.209 308.24 790.103 308.24ZM790.103 304.88C791.463 304.88 792.676 304.573 793.743 303.96C794.836 303.32 795.689 302.44 796.303 301.32C796.916 300.173 797.223 298.867 797.223 297.4C797.223 295.933 796.916 294.64 796.303 293.52C795.689 292.373 794.836 291.493 793.743 290.88C792.676 290.267 791.463 289.96 790.103 289.96C788.743 289.96 787.516 290.267 786.423 290.88C785.356 291.493 784.503 292.373 783.863 293.52C783.249 294.64 782.943 295.933 782.943 297.4C782.943 298.867 783.249 300.173 783.863 301.32C784.503 302.44 785.356 303.32 786.423 303.96C787.516 304.573 788.743 304.88 790.103 304.88ZM817.733 286.6C820.427 286.6 822.56 287.387 824.133 288.96C825.733 290.507 826.533 292.787 826.533 295.8V308H822.693V296.24C822.693 294.187 822.2 292.64 821.213 291.6C820.227 290.56 818.813 290.04 816.973 290.04C814.893 290.04 813.253 290.653 812.053 291.88C810.853 293.08 810.253 294.813 810.253 297.08V308H806.413V286.8H810.093V290C810.867 288.907 811.907 288.067 813.213 287.48C814.547 286.893 816.053 286.6 817.733 286.6ZM845.56 306.76C845 307.24 844.307 307.613 843.48 307.88C842.653 308.12 841.8 308.24 840.92 308.24C838.787 308.24 837.133 307.667 835.96 306.52C834.787 305.373 834.2 303.733 834.2 301.6V289.96H830.6V286.8H834.2V282.16H838.04V286.8H844.12V289.96H838.04V301.44C838.04 302.587 838.32 303.467 838.88 304.08C839.467 304.693 840.293 305 841.36 305C842.533 305 843.533 304.667 844.36 304L845.56 306.76ZM856.283 308.24C854.549 308.24 852.883 308.013 851.283 307.56C849.683 307.08 848.429 306.48 847.523 305.76L849.123 302.72C850.056 303.387 851.189 303.92 852.523 304.32C853.856 304.72 855.203 304.92 856.562 304.92C859.923 304.92 861.603 303.96 861.603 302.04C861.603 301.4 861.376 300.893 860.923 300.52C860.469 300.147 859.896 299.88 859.203 299.72C858.536 299.533 857.576 299.333 856.323 299.12C854.616 298.853 853.216 298.547 852.123 298.2C851.056 297.853 850.136 297.267 849.363 296.44C848.589 295.613 848.203 294.453 848.203 292.96C848.203 291.04 849.003 289.507 850.603 288.36C852.203 287.187 854.349 286.6 857.043 286.6C858.456 286.6 859.869 286.773 861.283 287.12C862.696 287.467 863.856 287.933 864.763 288.52L863.123 291.56C861.389 290.44 859.349 289.88 857.003 289.88C855.376 289.88 854.136 290.147 853.283 290.68C852.429 291.213 852.003 291.92 852.003 292.8C852.003 293.493 852.243 294.04 852.723 294.44C853.203 294.84 853.789 295.133 854.483 295.32C855.203 295.507 856.203 295.72 857.483 295.96C859.189 296.253 860.563 296.573 861.603 296.92C862.669 297.24 863.576 297.8 864.323 298.6C865.069 299.4 865.443 300.52 865.443 301.96C865.443 303.88 864.616 305.413 862.963 306.56C861.336 307.68 859.109 308.24 856.283 308.24ZM889.402 297.52C889.402 297.813 889.375 298.2 889.322 298.68H872.122C872.362 300.547 873.175 302.053 874.562 303.2C875.975 304.32 877.722 304.88 879.802 304.88C882.335 304.88 884.375 304.027 885.922 302.32L888.042 304.8C887.082 305.92 885.882 306.773 884.442 307.36C883.028 307.947 881.442 308.24 879.682 308.24C877.442 308.24 875.455 307.787 873.722 306.88C871.988 305.947 870.642 304.653 869.682 303C868.748 301.347 868.282 299.48 868.282 297.4C868.282 295.347 868.735 293.493 869.642 291.84C870.575 290.187 871.842 288.907 873.442 288C875.068 287.067 876.895 286.6 878.922 286.6C880.948 286.6 882.748 287.067 884.322 288C885.922 288.907 887.162 290.187 888.042 291.84C888.948 293.493 889.402 295.387 889.402 297.52ZM878.922 289.84C877.082 289.84 875.535 290.4 874.282 291.52C873.055 292.64 872.335 294.107 872.122 295.92H885.722C885.508 294.133 884.775 292.68 883.522 291.56C882.295 290.413 880.762 289.84 878.922 289.84ZM898.414 290.36C899.08 289.133 900.067 288.2 901.374 287.56C902.68 286.92 904.267 286.6 906.134 286.6V290.32C905.92 290.293 905.627 290.28 905.254 290.28C903.174 290.28 901.534 290.907 900.334 292.16C899.16 293.387 898.574 295.147 898.574 297.44V308H894.734V286.8H898.414V290.36ZM914.547 290.36C915.213 289.133 916.2 288.2 917.507 287.56C918.813 286.92 920.4 286.6 922.267 286.6V290.32C922.053 290.293 921.76 290.28 921.387 290.28C919.307 290.28 917.667 290.907 916.467 292.16C915.293 293.387 914.707 295.147 914.707 297.44V308H910.867V286.8H914.547V290.36ZM934.68 286.6C937.614 286.6 939.854 287.32 941.4 288.76C942.974 290.2 943.76 292.347 943.76 295.2V308H940.12V305.2C939.48 306.187 938.56 306.947 937.36 307.48C936.187 307.987 934.787 308.24 933.16 308.24C930.787 308.24 928.88 307.667 927.44 306.52C926.027 305.373 925.32 303.867 925.32 302C925.32 300.133 926 298.64 927.36 297.52C928.72 296.373 930.88 295.8 933.84 295.8H939.92V295.04C939.92 293.387 939.44 292.12 938.48 291.24C937.52 290.36 936.107 289.92 934.24 289.92C932.987 289.92 931.76 290.133 930.56 290.56C929.36 290.96 928.347 291.507 927.52 292.2L925.92 289.32C927.014 288.44 928.32 287.773 929.84 287.32C931.36 286.84 932.974 286.6 934.68 286.6ZM933.8 305.28C935.267 305.28 936.534 304.96 937.6 304.32C938.667 303.653 939.44 302.72 939.92 301.52V298.56H934C930.747 298.56 929.12 299.653 929.12 301.84C929.12 302.907 929.534 303.747 930.36 304.36C931.187 304.973 932.334 305.28 933.8 305.28ZM962.787 306.76C962.227 307.24 961.533 307.613 960.707 307.88C959.88 308.12 959.027 308.24 958.147 308.24C956.013 308.24 954.36 307.667 953.187 306.52C952.013 305.373 951.427 303.733 951.427 301.6V289.96H947.827V286.8H951.427V282.16H955.267V286.8H961.347V289.96H955.267V301.44C955.267 302.587 955.547 303.467 956.107 304.08C956.693 304.693 957.52 305 958.587 305C959.76 305 960.76 304.667 961.587 304L962.787 306.76Z" fill="#E67571"/>
<path d="M749.326 135.45H739.654L737.652 140H734.974L743.216 121.8H745.79L754.058 140H751.328L749.326 135.45ZM748.416 133.37L744.49 124.452L740.564 133.37H748.416ZM761.427 126.09C763.334 126.09 764.79 126.558 765.795 127.494C766.818 128.43 767.329 129.825 767.329 131.68V140H764.963V138.18C764.547 138.821 763.949 139.315 763.169 139.662C762.406 139.991 761.496 140.156 760.439 140.156C758.896 140.156 757.657 139.783 756.721 139.038C755.802 138.293 755.343 137.313 755.343 136.1C755.343 134.887 755.785 133.916 756.669 133.188C757.553 132.443 758.957 132.07 760.881 132.07H764.833V131.576C764.833 130.501 764.521 129.678 763.897 129.106C763.273 128.534 762.354 128.248 761.141 128.248C760.326 128.248 759.529 128.387 758.749 128.664C757.969 128.924 757.31 129.279 756.773 129.73L755.733 127.858C756.444 127.286 757.293 126.853 758.281 126.558C759.269 126.246 760.318 126.09 761.427 126.09ZM760.855 138.232C761.808 138.232 762.632 138.024 763.325 137.608C764.018 137.175 764.521 136.568 764.833 135.788V133.864H760.985C758.87 133.864 757.813 134.575 757.813 135.996C757.813 136.689 758.082 137.235 758.619 137.634C759.156 138.033 759.902 138.232 760.855 138.232Z" fill="#E67571"/>
</svg>
