<svg width="276" height="406" viewBox="0 0 276 406" fill="none" xmlns="http://www.w3.org/2000/svg">
<rect width="276" height="406" fill="#E69B77"/>
<path d="M33.918 246.85H27.222L25.836 250H23.982L29.688 237.4H31.47L37.194 250H35.304L33.918 246.85ZM33.288 245.41L30.57 239.236L27.852 245.41H33.288ZM43.9156 240.37C45.1276 240.37 46.0876 240.724 46.7956 241.432C47.5156 242.128 47.8756 243.154 47.8756 244.51V250H46.1476V244.708C46.1476 243.784 45.9256 243.088 45.4816 242.62C45.0376 242.152 44.4016 241.918 43.5736 241.918C42.6376 241.918 41.8996 242.194 41.3596 242.746C40.8196 243.286 40.5496 244.066 40.5496 245.086V250H38.8216V240.46H40.4776V241.9C40.8256 241.408 41.2936 241.03 41.8816 240.766C42.4816 240.502 43.1596 240.37 43.9156 240.37ZM55.2123 250.108C54.2643 250.108 53.4123 249.898 52.6563 249.478C51.9003 249.058 51.3063 248.482 50.8743 247.75C50.4543 247.006 50.2443 246.166 50.2443 245.23C50.2443 244.294 50.4543 243.46 50.8743 242.728C51.3063 241.984 51.9003 241.408 52.6563 241C53.4123 240.58 54.2643 240.37 55.2123 240.37C56.1603 240.37 57.0063 240.58 57.7503 241C58.5063 241.408 59.0943 241.984 59.5143 242.728C59.9463 243.46 60.1623 244.294 60.1623 245.23C60.1623 246.166 59.9463 247.006 59.5143 247.75C59.0943 248.482 58.5063 249.058 57.7503 249.478C57.0063 249.898 56.1603 250.108 55.2123 250.108ZM55.2123 248.596C55.8243 248.596 56.3703 248.458 56.8503 248.182C57.3423 247.894 57.7263 247.498 58.0023 246.994C58.2783 246.478 58.4163 245.89 58.4163 245.23C58.4163 244.57 58.2783 243.988 58.0023 243.484C57.7263 242.968 57.3423 242.572 56.8503 242.296C56.3703 242.02 55.8243 241.882 55.2123 241.882C54.6003 241.882 54.0483 242.02 53.5563 242.296C53.0763 242.572 52.6923 242.968 52.4043 243.484C52.1283 243.988 51.9903 244.57 51.9903 245.23C51.9903 245.89 52.1283 246.478 52.4043 246.994C52.6923 247.498 53.0763 247.894 53.5563 248.182C54.0483 248.458 54.6003 248.596 55.2123 248.596ZM64.2081 242.062C64.5081 241.51 64.9521 241.09 65.5401 240.802C66.1281 240.514 66.8421 240.37 67.6821 240.37V242.044C67.5861 242.032 67.4541 242.026 67.2861 242.026C66.3501 242.026 65.6121 242.308 65.0721 242.872C64.5441 243.424 64.2801 244.216 64.2801 245.248V250H62.5521V240.46H64.2081V242.062ZM78.3459 245.284C78.3459 245.416 78.3339 245.59 78.3099 245.806H70.5699C70.6779 246.646 71.0439 247.324 71.6679 247.84C72.3039 248.344 73.0899 248.596 74.0259 248.596C75.1659 248.596 76.0839 248.212 76.7799 247.444L77.7339 248.56C77.3019 249.064 76.7619 249.448 76.1139 249.712C75.4779 249.976 74.7639 250.108 73.9719 250.108C72.9639 250.108 72.0699 249.904 71.2899 249.496C70.5099 249.076 69.9039 248.494 69.4719 247.75C69.0519 247.006 68.8419 246.166 68.8419 245.23C68.8419 244.306 69.0459 243.472 69.4539 242.728C69.8739 241.984 70.4439 241.408 71.1639 241C71.8959 240.58 72.7179 240.37 73.6299 240.37C74.5419 240.37 75.3519 240.58 76.0599 241C76.7799 241.408 77.3379 241.984 77.7339 242.728C78.1419 243.472 78.3459 244.324 78.3459 245.284ZM73.6299 241.828C72.8019 241.828 72.1059 242.08 71.5419 242.584C70.9899 243.088 70.6659 243.748 70.5699 244.564H76.6899C76.5939 243.76 76.2639 243.106 75.6999 242.602C75.1479 242.086 74.4579 241.828 73.6299 241.828ZM86.5658 250L83.8118 246.346L81.0218 250H79.0958L82.8578 245.122L79.2758 240.46H81.2018L83.8298 243.898L86.4398 240.46H88.3298L84.7298 245.122L88.5278 250H86.5658ZM90.4134 240.46H92.1414V250H90.4134V240.46ZM91.2774 238.624C90.9414 238.624 90.6594 238.516 90.4314 238.3C90.2154 238.084 90.1074 237.82 90.1074 237.508C90.1074 237.196 90.2154 236.932 90.4314 236.716C90.6594 236.488 90.9414 236.374 91.2774 236.374C91.6134 236.374 91.8894 236.482 92.1054 236.698C92.3334 236.902 92.4474 237.16 92.4474 237.472C92.4474 237.796 92.3334 238.072 92.1054 238.3C91.8894 238.516 91.6134 238.624 91.2774 238.624ZM98.9147 240.37C100.235 240.37 101.243 240.694 101.939 241.342C102.647 241.99 103.001 242.956 103.001 244.24V250H101.363V248.74C101.075 249.184 100.661 249.526 100.121 249.766C99.5927 249.994 98.9627 250.108 98.2307 250.108C97.1627 250.108 96.3047 249.85 95.6567 249.334C95.0207 248.818 94.7027 248.14 94.7027 247.3C94.7027 246.46 95.0087 245.788 95.6207 245.284C96.2327 244.768 97.2047 244.51 98.5367 244.51H101.273V244.168C101.273 243.424 101.057 242.854 100.625 242.458C100.193 242.062 99.5567 241.864 98.7167 241.864C98.1527 241.864 97.6007 241.96 97.0607 242.152C96.5207 242.332 96.0647 242.578 95.6927 242.89L94.9727 241.594C95.4647 241.198 96.0527 240.898 96.7367 240.694C97.4207 240.478 98.1467 240.37 98.9147 240.37ZM98.5187 248.776C99.1787 248.776 99.7487 248.632 100.229 248.344C100.709 248.044 101.057 247.624 101.273 247.084V245.752H98.6087C97.1447 245.752 96.4127 246.244 96.4127 247.228C96.4127 247.708 96.5987 248.086 96.9707 248.362C97.3427 248.638 97.8587 248.776 98.5187 248.776Z" fill="white"/>
<path d="M34.368 288.466C35.1 288.67 35.676 289.042 36.096 289.582C36.516 290.11 36.726 290.782 36.726 291.598C36.726 292.69 36.312 293.53 35.484 294.118C34.668 294.706 33.474 295 31.902 295H25.89V282.4H31.542C32.982 282.4 34.092 282.688 34.872 283.264C35.664 283.84 36.06 284.638 36.06 285.658C36.06 286.318 35.904 286.888 35.592 287.368C35.292 287.848 34.884 288.214 34.368 288.466ZM27.69 283.858V287.89H31.38C32.304 287.89 33.012 287.722 33.504 287.386C34.008 287.038 34.26 286.534 34.26 285.874C34.26 285.214 34.008 284.716 33.504 284.38C33.012 284.032 32.304 283.858 31.38 283.858H27.69ZM31.83 293.542C32.85 293.542 33.618 293.374 34.134 293.038C34.65 292.702 34.908 292.174 34.908 291.454C34.908 290.05 33.882 289.348 31.83 289.348H27.69V293.542H31.83ZM48.153 285.46V295H46.515V293.56C46.167 294.052 45.705 294.436 45.129 294.712C44.565 294.976 43.947 295.108 43.275 295.108C42.003 295.108 41.001 294.76 40.269 294.064C39.537 293.356 39.171 292.318 39.171 290.95V285.46H40.899V290.752C40.899 291.676 41.121 292.378 41.565 292.858C42.009 293.326 42.645 293.56 43.473 293.56C44.385 293.56 45.105 293.284 45.633 292.732C46.161 292.18 46.425 291.4 46.425 290.392V285.46H48.153ZM51.4427 281.644H53.1707V295H51.4427V281.644ZM56.47 285.46H58.198V295H56.47V285.46ZM57.334 283.624C56.998 283.624 56.716 283.516 56.488 283.3C56.272 283.084 56.164 282.82 56.164 282.508C56.164 282.196 56.272 281.932 56.488 281.716C56.716 281.488 56.998 281.374 57.334 281.374C57.67 281.374 57.946 281.482 58.162 281.698C58.39 281.902 58.504 282.16 58.504 282.472C58.504 282.796 58.39 283.072 58.162 283.3C57.946 283.516 57.67 283.624 57.334 283.624ZM73.4314 285.37C74.6314 285.37 75.5794 285.718 76.2754 286.414C76.9834 287.11 77.3374 288.142 77.3374 289.51V295H75.6094V289.708C75.6094 288.784 75.3934 288.088 74.9614 287.62C74.5414 287.152 73.9354 286.918 73.1434 286.918C72.2674 286.918 71.5714 287.194 71.0554 287.746C70.5394 288.286 70.2814 289.066 70.2814 290.086V295H68.5534V289.708C68.5534 288.784 68.3374 288.088 67.9054 287.62C67.4854 287.152 66.8794 286.918 66.0874 286.918C65.2114 286.918 64.5154 287.194 63.9994 287.746C63.4834 288.286 63.2254 289.066 63.2254 290.086V295H61.4974V285.46H63.1534V286.882C63.5014 286.39 63.9574 286.018 64.5214 285.766C65.0854 285.502 65.7274 285.37 66.4474 285.37C67.1914 285.37 67.8514 285.52 68.4274 285.82C69.0034 286.12 69.4474 286.558 69.7594 287.134C70.1194 286.582 70.6174 286.15 71.2534 285.838C71.9014 285.526 72.6274 285.37 73.4314 285.37ZM80.5169 285.46H82.2449V295H80.5169V285.46ZM81.3809 283.624C81.0449 283.624 80.7629 283.516 80.5349 283.3C80.3189 283.084 80.2109 282.82 80.2109 282.508C80.2109 282.196 80.3189 281.932 80.5349 281.716C80.7629 281.488 81.0449 281.374 81.3809 281.374C81.7169 281.374 81.9929 281.482 82.2089 281.698C82.4369 281.902 82.5509 282.16 82.5509 282.472C82.5509 282.796 82.4369 283.072 82.2089 283.3C81.9929 283.516 81.7169 283.624 81.3809 283.624ZM89.0183 285.37C90.3383 285.37 91.3463 285.694 92.0423 286.342C92.7503 286.99 93.1043 287.956 93.1043 289.24V295H91.4663V293.74C91.1783 294.184 90.7643 294.526 90.2243 294.766C89.6963 294.994 89.0663 295.108 88.3343 295.108C87.2663 295.108 86.4083 294.85 85.7603 294.334C85.1243 293.818 84.8063 293.14 84.8063 292.3C84.8063 291.46 85.1123 290.788 85.7243 290.284C86.3363 289.768 87.3083 289.51 88.6403 289.51H91.3763V289.168C91.3763 288.424 91.1603 287.854 90.7283 287.458C90.2963 287.062 89.6603 286.864 88.8203 286.864C88.2563 286.864 87.7043 286.96 87.1643 287.152C86.6243 287.332 86.1683 287.578 85.7963 287.89L85.0763 286.594C85.5683 286.198 86.1563 285.898 86.8403 285.694C87.5243 285.478 88.2503 285.37 89.0183 285.37ZM88.6223 293.776C89.2823 293.776 89.8523 293.632 90.3323 293.344C90.8123 293.044 91.1603 292.624 91.3763 292.084V290.752H88.7123C87.2483 290.752 86.5163 291.244 86.5163 292.228C86.5163 292.708 86.7023 293.086 87.0743 293.362C87.4463 293.638 87.9623 293.776 88.6223 293.776Z" fill="white"/>
<path d="M34.368 333.466C35.1 333.67 35.676 334.042 36.096 334.582C36.516 335.11 36.726 335.782 36.726 336.598C36.726 337.69 36.312 338.53 35.484 339.118C34.668 339.706 33.474 340 31.902 340H25.89V327.4H31.542C32.982 327.4 34.092 327.688 34.872 328.264C35.664 328.84 36.06 329.638 36.06 330.658C36.06 331.318 35.904 331.888 35.592 332.368C35.292 332.848 34.884 333.214 34.368 333.466ZM27.69 328.858V332.89H31.38C32.304 332.89 33.012 332.722 33.504 332.386C34.008 332.038 34.26 331.534 34.26 330.874C34.26 330.214 34.008 329.716 33.504 329.38C33.012 329.032 32.304 328.858 31.38 328.858H27.69ZM31.83 338.542C32.85 338.542 33.618 338.374 34.134 338.038C34.65 337.702 34.908 337.174 34.908 336.454C34.908 335.05 33.882 334.348 31.83 334.348H27.69V338.542H31.83ZM39.261 330.46H40.989V340H39.261V330.46ZM40.125 328.624C39.789 328.624 39.507 328.516 39.279 328.3C39.063 328.084 38.955 327.82 38.955 327.508C38.955 327.196 39.063 326.932 39.279 326.716C39.507 326.488 39.789 326.374 40.125 326.374C40.461 326.374 40.737 326.482 40.953 326.698C41.181 326.902 41.295 327.16 41.295 327.472C41.295 327.796 41.181 328.072 40.953 328.3C40.737 328.516 40.461 328.624 40.125 328.624ZM49.3824 330.37C50.5944 330.37 51.5544 330.724 52.2624 331.432C52.9824 332.128 53.3424 333.154 53.3424 334.51V340H51.6144V334.708C51.6144 333.784 51.3924 333.088 50.9484 332.62C50.5044 332.152 49.8684 331.918 49.0404 331.918C48.1044 331.918 47.3664 332.194 46.8264 332.746C46.2864 333.286 46.0164 334.066 46.0164 335.086V340H44.2884V330.46H45.9444V331.9C46.2924 331.408 46.7604 331.03 47.3484 330.766C47.9484 330.502 48.6264 330.37 49.3824 330.37ZM65.7191 330.46V338.704C65.7191 340.372 65.3051 341.602 64.4771 342.394C63.6491 343.198 62.4131 343.6 60.7691 343.6C59.8691 343.6 59.0111 343.474 58.1951 343.222C57.3791 342.982 56.7191 342.634 56.2151 342.178L57.0431 340.846C57.4871 341.23 58.0331 341.53 58.6811 341.746C59.3411 341.974 60.0191 342.088 60.7151 342.088C61.8311 342.088 62.6531 341.824 63.1811 341.296C63.7211 340.768 63.9911 339.964 63.9911 338.884V338.128C63.5831 338.62 63.0791 338.992 62.4791 339.244C61.8911 339.484 61.2491 339.604 60.5531 339.604C59.6411 339.604 58.8131 339.412 58.0691 339.028C57.3371 338.632 56.7611 338.086 56.3411 337.39C55.9211 336.682 55.7111 335.878 55.7111 334.978C55.7111 334.078 55.9211 333.28 56.3411 332.584C56.7611 331.876 57.3371 331.33 58.0691 330.946C58.8131 330.562 59.6411 330.37 60.5531 330.37C61.2731 330.37 61.9391 330.502 62.5511 330.766C63.1751 331.03 63.6851 331.42 64.0811 331.936V330.46H65.7191ZM60.7511 338.092C61.3751 338.092 61.9331 337.96 62.4251 337.696C62.9291 337.432 63.3191 337.066 63.5951 336.598C63.8831 336.118 64.0271 335.578 64.0271 334.978C64.0271 334.054 63.7211 333.31 63.1091 332.746C62.4971 332.17 61.7111 331.882 60.7511 331.882C59.7791 331.882 58.9871 332.17 58.3751 332.746C57.7631 333.31 57.4571 334.054 57.4571 334.978C57.4571 335.578 57.5951 336.118 57.8711 336.598C58.1591 337.066 58.5491 337.432 59.0411 337.696C59.5451 337.96 60.1151 338.092 60.7511 338.092ZM77.6428 335.284C77.6428 335.416 77.6308 335.59 77.6068 335.806H69.8668C69.9748 336.646 70.3408 337.324 70.9648 337.84C71.6008 338.344 72.3868 338.596 73.3228 338.596C74.4628 338.596 75.3808 338.212 76.0768 337.444L77.0308 338.56C76.5988 339.064 76.0588 339.448 75.4108 339.712C74.7748 339.976 74.0608 340.108 73.2688 340.108C72.2608 340.108 71.3668 339.904 70.5868 339.496C69.8068 339.076 69.2008 338.494 68.7688 337.75C68.3488 337.006 68.1388 336.166 68.1388 335.23C68.1388 334.306 68.3428 333.472 68.7508 332.728C69.1708 331.984 69.7408 331.408 70.4608 331C71.1928 330.58 72.0148 330.37 72.9268 330.37C73.8388 330.37 74.6488 330.58 75.3568 331C76.0768 331.408 76.6348 331.984 77.0308 332.728C77.4388 333.472 77.6428 334.324 77.6428 335.284ZM72.9268 331.828C72.0988 331.828 71.4028 332.08 70.8388 332.584C70.2868 333.088 69.9628 333.748 69.8668 334.564H75.9868C75.8908 333.76 75.5608 333.106 74.9968 332.602C74.4448 332.086 73.7548 331.828 72.9268 331.828ZM94.2723 338.434V340H85.1283V327.4H94.0203V328.966H86.9283V332.836H93.2463V334.366H86.9283V338.434H94.2723ZM100.286 330.37C101.606 330.37 102.614 330.694 103.31 331.342C104.018 331.99 104.372 332.956 104.372 334.24V340H102.734V338.74C102.446 339.184 102.032 339.526 101.492 339.766C100.964 339.994 100.334 340.108 99.6018 340.108C98.5338 340.108 97.6758 339.85 97.0278 339.334C96.3918 338.818 96.0738 338.14 96.0738 337.3C96.0738 336.46 96.3798 335.788 96.9918 335.284C97.6038 334.768 98.5758 334.51 99.9078 334.51H102.644V334.168C102.644 333.424 102.428 332.854 101.996 332.458C101.564 332.062 100.928 331.864 100.088 331.864C99.5238 331.864 98.9718 331.96 98.4318 332.152C97.8918 332.332 97.4358 332.578 97.0638 332.89L96.3438 331.594C96.8358 331.198 97.4238 330.898 98.1078 330.694C98.7918 330.478 99.5178 330.37 100.286 330.37ZM99.8898 338.776C100.55 338.776 101.12 338.632 101.6 338.344C102.08 338.044 102.428 337.624 102.644 337.084V335.752H99.9798C98.5158 335.752 97.7838 336.244 97.7838 337.228C97.7838 337.708 97.9698 338.086 98.3418 338.362C98.7138 338.638 99.2298 338.776 99.8898 338.776ZM112.934 339.442C112.682 339.658 112.37 339.826 111.998 339.946C111.626 340.054 111.242 340.108 110.846 340.108C109.886 340.108 109.142 339.85 108.614 339.334C108.086 338.818 107.822 338.08 107.822 337.12V331.882H106.202V330.46H107.822V328.372H109.55V330.46H112.286V331.882H109.55V337.048C109.55 337.564 109.676 337.96 109.928 338.236C110.192 338.512 110.564 338.65 111.044 338.65C111.572 338.65 112.022 338.5 112.394 338.2L112.934 339.442ZM115.023 330.46H116.751V340H115.023V330.46ZM115.887 328.624C115.551 328.624 115.269 328.516 115.041 328.3C114.825 328.084 114.717 327.82 114.717 327.508C114.717 327.196 114.825 326.932 115.041 326.716C115.269 326.488 115.551 326.374 115.887 326.374C116.223 326.374 116.499 326.482 116.715 326.698C116.943 326.902 117.057 327.16 117.057 327.472C117.057 327.796 116.943 328.072 116.715 328.3C116.499 328.516 116.223 328.624 115.887 328.624ZM125.144 330.37C126.356 330.37 127.316 330.724 128.024 331.432C128.744 332.128 129.104 333.154 129.104 334.51V340H127.376V334.708C127.376 333.784 127.154 333.088 126.71 332.62C126.266 332.152 125.63 331.918 124.802 331.918C123.866 331.918 123.128 332.194 122.588 332.746C122.048 333.286 121.778 334.066 121.778 335.086V340H120.05V330.46H121.706V331.9C122.054 331.408 122.522 331.03 123.11 330.766C123.71 330.502 124.388 330.37 125.144 330.37ZM141.481 330.46V338.704C141.481 340.372 141.067 341.602 140.239 342.394C139.411 343.198 138.175 343.6 136.531 343.6C135.631 343.6 134.773 343.474 133.957 343.222C133.141 342.982 132.481 342.634 131.977 342.178L132.805 340.846C133.249 341.23 133.795 341.53 134.443 341.746C135.103 341.974 135.781 342.088 136.477 342.088C137.593 342.088 138.415 341.824 138.943 341.296C139.483 340.768 139.753 339.964 139.753 338.884V338.128C139.345 338.62 138.841 338.992 138.241 339.244C137.653 339.484 137.011 339.604 136.315 339.604C135.403 339.604 134.575 339.412 133.831 339.028C133.099 338.632 132.523 338.086 132.103 337.39C131.683 336.682 131.473 335.878 131.473 334.978C131.473 334.078 131.683 333.28 132.103 332.584C132.523 331.876 133.099 331.33 133.831 330.946C134.575 330.562 135.403 330.37 136.315 330.37C137.035 330.37 137.701 330.502 138.313 330.766C138.937 331.03 139.447 331.42 139.843 331.936V330.46H141.481ZM136.513 338.092C137.137 338.092 137.695 337.96 138.187 337.696C138.691 337.432 139.081 337.066 139.357 336.598C139.645 336.118 139.789 335.578 139.789 334.978C139.789 334.054 139.483 333.31 138.871 332.746C138.259 332.17 137.473 331.882 136.513 331.882C135.541 331.882 134.749 332.17 134.137 332.746C133.525 333.31 133.219 334.054 133.219 334.978C133.219 335.578 133.357 336.118 133.633 336.598C133.921 337.066 134.311 337.432 134.803 337.696C135.307 337.96 135.877 338.092 136.513 338.092ZM149.869 327.4H155.179C156.511 327.4 157.693 327.664 158.725 328.192C159.757 328.72 160.555 329.464 161.119 330.424C161.695 331.372 161.983 332.464 161.983 333.7C161.983 334.936 161.695 336.034 161.119 336.994C160.555 337.942 159.757 338.68 158.725 339.208C157.693 339.736 156.511 340 155.179 340H149.869V327.4ZM155.071 338.434C156.091 338.434 156.985 338.236 157.753 337.84C158.533 337.444 159.133 336.892 159.553 336.184C159.973 335.464 160.183 334.636 160.183 333.7C160.183 332.764 159.973 331.942 159.553 331.234C159.133 330.514 158.533 329.956 157.753 329.56C156.985 329.164 156.091 328.966 155.071 328.966H151.669V338.434H155.071ZM164.488 330.46H166.216V340H164.488V330.46ZM165.352 328.624C165.016 328.624 164.734 328.516 164.506 328.3C164.29 328.084 164.182 327.82 164.182 327.508C164.182 327.196 164.29 326.932 164.506 326.716C164.734 326.488 165.016 326.374 165.352 326.374C165.688 326.374 165.964 326.482 166.18 326.698C166.408 326.902 166.522 327.16 166.522 327.472C166.522 327.796 166.408 328.072 166.18 328.3C165.964 328.516 165.688 328.624 165.352 328.624ZM172.251 340.108C171.471 340.108 170.721 340.006 170.001 339.802C169.281 339.586 168.717 339.316 168.309 338.992L169.029 337.624C169.449 337.924 169.959 338.164 170.559 338.344C171.159 338.524 171.765 338.614 172.377 338.614C173.889 338.614 174.645 338.182 174.645 337.318C174.645 337.03 174.543 336.802 174.339 336.634C174.135 336.466 173.877 336.346 173.565 336.274C173.265 336.19 172.833 336.1 172.269 336.004C171.501 335.884 170.871 335.746 170.379 335.59C169.899 335.434 169.485 335.17 169.137 334.798C168.789 334.426 168.615 333.904 168.615 333.232C168.615 332.368 168.975 331.678 169.695 331.162C170.415 330.634 171.381 330.37 172.593 330.37C173.229 330.37 173.865 330.448 174.501 330.604C175.137 330.76 175.659 330.97 176.067 331.234L175.329 332.602C174.549 332.098 173.631 331.846 172.575 331.846C171.843 331.846 171.285 331.966 170.901 332.206C170.517 332.446 170.325 332.764 170.325 333.16C170.325 333.472 170.433 333.718 170.649 333.898C170.865 334.078 171.129 334.21 171.441 334.294C171.765 334.378 172.215 334.474 172.791 334.582C173.559 334.714 174.177 334.858 174.645 335.014C175.125 335.158 175.533 335.41 175.869 335.77C176.205 336.13 176.373 336.634 176.373 337.282C176.373 338.146 176.001 338.836 175.257 339.352C174.525 339.856 173.523 340.108 172.251 340.108ZM182.619 340.108C181.671 340.108 180.819 339.898 180.063 339.478C179.307 339.058 178.713 338.482 178.281 337.75C177.861 337.006 177.651 336.166 177.651 335.23C177.651 334.294 177.861 333.46 178.281 332.728C178.713 331.984 179.307 331.408 180.063 331C180.819 330.58 181.671 330.37 182.619 330.37C183.567 330.37 184.413 330.58 185.157 331C185.913 331.408 186.501 331.984 186.921 332.728C187.353 333.46 187.569 334.294 187.569 335.23C187.569 336.166 187.353 337.006 186.921 337.75C186.501 338.482 185.913 339.058 185.157 339.478C184.413 339.898 183.567 340.108 182.619 340.108ZM182.619 338.596C183.231 338.596 183.777 338.458 184.257 338.182C184.749 337.894 185.133 337.498 185.409 336.994C185.685 336.478 185.823 335.89 185.823 335.23C185.823 334.57 185.685 333.988 185.409 333.484C185.133 332.968 184.749 332.572 184.257 332.296C183.777 332.02 183.231 331.882 182.619 331.882C182.007 331.882 181.455 332.02 180.963 332.296C180.483 332.572 180.099 332.968 179.811 333.484C179.535 333.988 179.397 334.57 179.397 335.23C179.397 335.89 179.535 336.478 179.811 336.994C180.099 337.498 180.483 337.894 180.963 338.182C181.455 338.458 182.007 338.596 182.619 338.596ZM191.614 332.062C191.914 331.51 192.358 331.09 192.946 330.802C193.534 330.514 194.248 330.37 195.088 330.37V332.044C194.992 332.032 194.86 332.026 194.692 332.026C193.756 332.026 193.018 332.308 192.478 332.872C191.95 333.424 191.686 334.216 191.686 335.248V340H189.958V330.46H191.614V332.062ZM206.13 326.644V340H204.474V338.488C204.09 339.016 203.604 339.418 203.016 339.694C202.428 339.97 201.78 340.108 201.072 340.108C200.148 340.108 199.32 339.904 198.588 339.496C197.856 339.088 197.28 338.518 196.86 337.786C196.452 337.042 196.248 336.19 196.248 335.23C196.248 334.27 196.452 333.424 196.86 332.692C197.28 331.96 197.856 331.39 198.588 330.982C199.32 330.574 200.148 330.37 201.072 330.37C201.756 330.37 202.386 330.502 202.962 330.766C203.538 331.018 204.018 331.396 204.402 331.9V326.644H206.13ZM201.216 338.596C201.816 338.596 202.362 338.458 202.854 338.182C203.346 337.894 203.73 337.498 204.006 336.994C204.282 336.478 204.42 335.89 204.42 335.23C204.42 334.57 204.282 333.988 204.006 333.484C203.73 332.968 203.346 332.572 202.854 332.296C202.362 332.02 201.816 331.882 201.216 331.882C200.604 331.882 200.052 332.02 199.56 332.296C199.08 332.572 198.696 332.968 198.408 333.484C198.132 333.988 197.994 334.57 197.994 335.23C197.994 335.89 198.132 336.478 198.408 336.994C198.696 337.498 199.08 337.894 199.56 338.182C200.052 338.458 200.604 338.596 201.216 338.596ZM218.022 335.284C218.022 335.416 218.01 335.59 217.986 335.806H210.246C210.354 336.646 210.72 337.324 211.344 337.84C211.98 338.344 212.766 338.596 213.702 338.596C214.842 338.596 215.76 338.212 216.456 337.444L217.41 338.56C216.978 339.064 216.438 339.448 215.79 339.712C215.154 339.976 214.44 340.108 213.648 340.108C212.64 340.108 211.746 339.904 210.966 339.496C210.186 339.076 209.58 338.494 209.148 337.75C208.728 337.006 208.518 336.166 208.518 335.23C208.518 334.306 208.722 333.472 209.13 332.728C209.55 331.984 210.12 331.408 210.84 331C211.572 330.58 212.394 330.37 213.306 330.37C214.218 330.37 215.028 330.58 215.736 331C216.456 331.408 217.014 331.984 217.41 332.728C217.818 333.472 218.022 334.324 218.022 335.284ZM213.306 331.828C212.478 331.828 211.782 332.08 211.218 332.584C210.666 333.088 210.342 333.748 210.246 334.564H216.366C216.27 333.76 215.94 333.106 215.376 332.602C214.824 332.086 214.134 331.828 213.306 331.828ZM222.077 332.062C222.377 331.51 222.821 331.09 223.409 330.802C223.997 330.514 224.711 330.37 225.551 330.37V332.044C225.455 332.032 225.323 332.026 225.155 332.026C224.219 332.026 223.481 332.308 222.941 332.872C222.413 333.424 222.149 334.216 222.149 335.248V340H220.421V330.46H222.077V332.062Z" fill="white"/>
<path d="M31.578 385.144C30.306 385.144 29.16 384.868 28.14 384.316C27.12 383.752 26.316 382.978 25.728 381.994C25.152 381.01 24.864 379.912 24.864 378.7C24.864 377.488 25.152 376.39 25.728 375.406C26.316 374.422 27.12 373.654 28.14 373.102C29.16 372.538 30.306 372.256 31.578 372.256C32.838 372.256 33.978 372.538 34.998 373.102C36.018 373.654 36.816 374.422 37.392 375.406C37.968 376.378 38.256 377.476 38.256 378.7C38.256 379.924 37.968 381.028 37.392 382.012C36.816 382.984 36.018 383.752 34.998 384.316C33.978 384.868 32.838 385.144 31.578 385.144ZM31.578 383.542C32.502 383.542 33.33 383.332 34.062 382.912C34.806 382.492 35.388 381.916 35.808 381.184C36.24 380.44 36.456 379.612 36.456 378.7C36.456 377.788 36.24 376.966 35.808 376.234C35.388 375.49 34.806 374.908 34.062 374.488C33.33 374.068 32.502 373.858 31.578 373.858C30.654 373.858 29.814 374.068 29.058 374.488C28.314 374.908 27.726 375.49 27.294 376.234C26.874 376.966 26.664 377.788 26.664 378.7C26.664 379.612 26.874 380.44 27.294 381.184C27.726 381.916 28.314 382.492 29.058 382.912C29.814 383.332 30.654 383.542 31.578 383.542ZM42.4112 377.062C42.7112 376.51 43.1552 376.09 43.7432 375.802C44.3312 375.514 45.0452 375.37 45.8852 375.37V377.044C45.7892 377.032 45.6572 377.026 45.4892 377.026C44.5532 377.026 43.8152 377.308 43.2752 377.872C42.7472 378.424 42.4832 379.216 42.4832 380.248V385H40.7552V375.46H42.4112V377.062ZM53.7657 384.442C53.5137 384.658 53.2017 384.826 52.8297 384.946C52.4577 385.054 52.0737 385.108 51.6777 385.108C50.7177 385.108 49.9737 384.85 49.4457 384.334C48.9177 383.818 48.6537 383.08 48.6537 382.12V376.882H47.0337V375.46H48.6537V373.372H50.3817V375.46H53.1177V376.882H50.3817V382.048C50.3817 382.564 50.5077 382.96 50.7597 383.236C51.0237 383.512 51.3957 383.65 51.8757 383.65C52.4037 383.65 52.8537 383.5 53.2257 383.2L53.7657 384.442ZM60.9488 375.37C62.1608 375.37 63.1208 375.724 63.8288 376.432C64.5488 377.128 64.9088 378.154 64.9088 379.51V385H63.1808V379.708C63.1808 378.784 62.9588 378.088 62.5148 377.62C62.0708 377.152 61.4348 376.918 60.6068 376.918C59.6708 376.918 58.9328 377.194 58.3928 377.746C57.8528 378.286 57.5828 379.066 57.5828 380.086V385H55.8548V371.644H57.5828V376.81C57.9428 376.354 58.4108 376 58.9868 375.748C59.5748 375.496 60.2288 375.37 60.9488 375.37ZM72.2455 385.108C71.2975 385.108 70.4455 384.898 69.6895 384.478C68.9335 384.058 68.3395 383.482 67.9075 382.75C67.4875 382.006 67.2775 381.166 67.2775 380.23C67.2775 379.294 67.4875 378.46 67.9075 377.728C68.3395 376.984 68.9335 376.408 69.6895 376C70.4455 375.58 71.2975 375.37 72.2455 375.37C73.1935 375.37 74.0395 375.58 74.7835 376C75.5395 376.408 76.1275 376.984 76.5475 377.728C76.9795 378.46 77.1955 379.294 77.1955 380.23C77.1955 381.166 76.9795 382.006 76.5475 382.75C76.1275 383.482 75.5395 384.058 74.7835 384.478C74.0395 384.898 73.1935 385.108 72.2455 385.108ZM72.2455 383.596C72.8575 383.596 73.4035 383.458 73.8835 383.182C74.3755 382.894 74.7595 382.498 75.0355 381.994C75.3115 381.478 75.4495 380.89 75.4495 380.23C75.4495 379.57 75.3115 378.988 75.0355 378.484C74.7595 377.968 74.3755 377.572 73.8835 377.296C73.4035 377.02 72.8575 376.882 72.2455 376.882C71.6335 376.882 71.0815 377.02 70.5895 377.296C70.1095 377.572 69.7255 377.968 69.4375 378.484C69.1615 378.988 69.0235 379.57 69.0235 380.23C69.0235 380.89 69.1615 381.478 69.4375 381.994C69.7255 382.498 70.1095 382.894 70.5895 383.182C71.0815 383.458 71.6335 383.596 72.2455 383.596ZM81.2413 377.062C81.5413 376.51 81.9853 376.09 82.5733 375.802C83.1613 375.514 83.8753 375.37 84.7153 375.37V377.044C84.6193 377.032 84.4873 377.026 84.3193 377.026C83.3833 377.026 82.6453 377.308 82.1053 377.872C81.5773 378.424 81.3133 379.216 81.3133 380.248V385H79.5853V375.46H81.2413V377.062ZM95.3791 380.284C95.3791 380.416 95.3671 380.59 95.3431 380.806H87.6031C87.7111 381.646 88.0771 382.324 88.7011 382.84C89.3371 383.344 90.1231 383.596 91.0591 383.596C92.1991 383.596 93.1171 383.212 93.8131 382.444L94.7671 383.56C94.3351 384.064 93.7951 384.448 93.1471 384.712C92.5111 384.976 91.7971 385.108 91.0051 385.108C89.9971 385.108 89.1031 384.904 88.3231 384.496C87.5431 384.076 86.9371 383.494 86.5051 382.75C86.0851 382.006 85.8751 381.166 85.8751 380.23C85.8751 379.306 86.0791 378.472 86.4871 377.728C86.9071 376.984 87.4771 376.408 88.1971 376C88.9291 375.58 89.7511 375.37 90.6631 375.37C91.5751 375.37 92.3851 375.58 93.0931 376C93.8131 376.408 94.3711 376.984 94.7671 377.728C95.1751 378.472 95.3791 379.324 95.3791 380.284ZM90.6631 376.828C89.8351 376.828 89.1391 377.08 88.5751 377.584C88.0231 378.088 87.6991 378.748 87.6031 379.564H93.7231C93.6271 378.76 93.2971 378.106 92.7331 377.602C92.1811 377.086 91.4911 376.828 90.6631 376.828ZM103.599 385L100.845 381.346L98.055 385H96.129L99.891 380.122L96.309 375.46H98.235L100.863 378.898L103.473 375.46H105.363L101.763 380.122L105.561 385H103.599ZM107.447 375.46H109.175V385H107.447V375.46ZM108.311 373.624C107.975 373.624 107.693 373.516 107.465 373.3C107.249 373.084 107.141 372.82 107.141 372.508C107.141 372.196 107.249 371.932 107.465 371.716C107.693 371.488 107.975 371.374 108.311 371.374C108.647 371.374 108.923 371.482 109.139 371.698C109.367 371.902 109.481 372.16 109.481 372.472C109.481 372.796 109.367 373.072 109.139 373.3C108.923 373.516 108.647 373.624 108.311 373.624ZM115.948 375.37C117.268 375.37 118.276 375.694 118.972 376.342C119.68 376.99 120.034 377.956 120.034 379.24V385H118.396V383.74C118.108 384.184 117.694 384.526 117.154 384.766C116.626 384.994 115.996 385.108 115.264 385.108C114.196 385.108 113.338 384.85 112.69 384.334C112.054 383.818 111.736 383.14 111.736 382.3C111.736 381.46 112.042 380.788 112.654 380.284C113.266 379.768 114.238 379.51 115.57 379.51H118.306V379.168C118.306 378.424 118.09 377.854 117.658 377.458C117.226 377.062 116.59 376.864 115.75 376.864C115.186 376.864 114.634 376.96 114.094 377.152C113.554 377.332 113.098 377.578 112.726 377.89L112.006 376.594C112.498 376.198 113.086 375.898 113.77 375.694C114.454 375.478 115.18 375.37 115.948 375.37ZM115.552 383.776C116.212 383.776 116.782 383.632 117.262 383.344C117.742 383.044 118.09 382.624 118.306 382.084V380.752H115.642C114.178 380.752 113.446 381.244 113.446 382.228C113.446 382.708 113.632 383.086 114.004 383.362C114.376 383.638 114.892 383.776 115.552 383.776Z" fill="white"/>
<rect x="14.5" y="197.5" width="247" height="198" stroke="white"/>
</svg>
