<svg width="276" height="406" viewBox="0 0 276 406" fill="none" xmlns="http://www.w3.org/2000/svg">
<rect width="276" height="406" fill="#F8E8AE"/>
<path d="M81.1195 117.229L68.6232 107.62C67.5781 108.03 66.7501 108.331 66.1393 108.522L56.2321 111.619L60.0453 123.817L54.3186 125.607L41.787 85.5204L57.4209 80.633C62.6131 79.0099 67.086 78.9736 70.8397 80.5243C74.5933 82.0749 77.1504 85.0264 78.511 89.3787C79.4777 92.4711 79.5377 95.3441 78.6908 97.9976C77.844 100.651 76.1632 102.916 73.6483 104.792L87.3616 115.278L81.1195 117.229ZM64.4458 103.708C68.0727 102.574 70.5959 100.926 72.0155 98.7643C73.4351 96.6022 73.6913 94.0705 72.7843 91.1689C71.8772 88.2674 70.2306 86.3514 67.8443 85.4211C65.446 84.4525 62.4335 84.5351 58.8066 85.669L49.0712 88.7124L54.7104 106.751L64.4458 103.708Z" fill="white"/>
<path d="M102.468 167.107L108.245 168.729L96.8955 209.166L91.1187 207.545L102.468 167.107Z" fill="white"/>
<path d="M149.733 142.082C146.823 140.85 144.192 139.216 141.84 137.178C139.541 135.119 137.921 133.044 136.982 130.953L140.85 127.508C141.763 129.457 143.182 131.339 145.107 133.153C147.085 134.945 149.289 136.356 151.721 137.385C154.925 138.741 157.546 139.22 159.582 138.822C161.634 138.387 163.041 137.267 163.805 135.462C164.366 134.136 164.376 132.881 163.835 131.696C163.347 130.491 162.551 129.394 161.449 128.406C160.383 127.434 158.807 126.181 156.72 124.646C154.106 122.715 152.045 121.017 150.536 119.553C149.064 118.105 147.987 116.39 147.306 114.408C146.677 112.404 146.885 110.168 147.929 107.7C148.802 105.637 150.124 104.003 151.893 102.798C153.7 101.608 155.919 100.983 158.55 100.924C161.181 100.864 164.136 101.528 167.414 102.916C169.698 103.882 171.821 105.128 173.782 106.653C175.742 108.177 177.281 109.827 178.397 111.603L174.703 115.252C173.519 113.534 172.115 112.028 170.491 110.733C168.883 109.401 167.195 108.361 165.427 107.612C162.296 106.287 159.696 105.861 157.629 106.332C155.599 106.82 154.202 107.966 153.438 109.771C152.877 111.097 152.859 112.371 153.384 113.592C153.926 114.777 154.739 115.881 155.826 116.906C156.965 117.909 158.549 119.144 160.578 120.61C163.192 122.542 165.235 124.232 166.707 125.68C168.179 127.128 169.237 128.835 169.882 130.802C170.563 132.784 170.389 134.991 169.361 137.422C168.503 139.448 167.163 141.075 165.341 142.302C163.535 143.492 161.297 144.109 158.629 144.152C155.977 144.159 153.012 143.469 149.733 142.082Z" fill="white"/>
<path d="M236.927 200.007L239.03 204.785L211.133 217.064L194.212 178.624L221.34 166.683L223.443 171.46L201.807 180.984L207.004 192.791L226.279 184.306L228.334 188.974L209.058 197.459L214.521 209.87L236.927 200.007Z" fill="white"/>
<path d="M84.6129 310.545C79.1762 309.203 75.3269 306.604 73.065 302.749C70.8031 298.895 70.3913 294.055 71.8296 288.23L77.5543 265.046L83.3793 266.485L77.7122 289.435C75.5547 298.173 78.3011 303.486 85.9513 305.375C89.6793 306.296 92.7973 305.933 95.3052 304.286C97.8227 302.6 99.628 299.544 100.721 295.117L106.388 272.166L112.039 273.561L106.314 296.745C104.866 302.609 102.244 306.72 98.4478 309.079C94.6613 311.399 90.0496 311.888 84.6129 310.545Z" fill="white"/>
<path d="M184.54 290.854C189.709 289.157 194.181 289.056 197.956 290.553C201.732 292.049 204.331 294.964 205.754 299.296C207.177 303.628 206.812 307.516 204.659 310.96C202.506 314.404 198.845 316.975 193.677 318.672L183.815 321.911L187.785 333.996L182.084 335.868L168.978 295.966L184.54 290.854ZM191.877 313.769C195.487 312.583 197.993 310.918 199.394 308.774C200.782 306.592 201.002 304.057 200.053 301.168C199.105 298.28 197.431 296.388 195.031 295.492C192.619 294.558 189.608 294.684 185.998 295.87L176.308 299.053L182.187 316.952L191.877 313.769Z" fill="white"/>
</svg>
