<svg width="276" height="406" viewBox="0 0 276 406" fill="none" xmlns="http://www.w3.org/2000/svg">
<rect x="0.5" y="0.5" width="275" height="405" stroke="#E67571"/>
<path d="M53.16 147.6C55.8267 147.6 57.9333 148.373 59.48 149.92C61.0533 151.467 61.84 153.76 61.84 156.8V169H58V157.24C58 155.187 57.52 153.64 56.56 152.6C55.6267 151.56 54.28 151.04 52.52 151.04C50.5733 151.04 49.0267 151.653 47.88 152.88C46.7333 154.08 46.16 155.813 46.16 158.08V169H42.32V157.24C42.32 155.187 41.84 153.64 40.88 152.6C39.9467 151.56 38.6 151.04 36.84 151.04C34.8933 151.04 33.3467 151.653 32.2 152.88C31.0533 154.08 30.48 155.813 30.48 158.08V169H26.64V147.8H30.32V150.96C31.0933 149.867 32.1067 149.04 33.36 148.48C34.6133 147.893 36.04 147.6 37.64 147.6C39.2933 147.6 40.76 147.933 42.04 148.6C43.32 149.267 44.3067 150.24 45 151.52C45.8 150.293 46.9067 149.333 48.32 148.64C49.76 147.947 51.3733 147.6 53.16 147.6ZM78.1028 169.24C75.9961 169.24 74.1028 168.773 72.4228 167.84C70.7428 166.907 69.4228 165.627 68.4628 164C67.5295 162.347 67.0628 160.48 67.0628 158.4C67.0628 156.32 67.5295 154.467 68.4628 152.84C69.4228 151.187 70.7428 149.907 72.4228 149C74.1028 148.067 75.9961 147.6 78.1028 147.6C80.2095 147.6 82.0895 148.067 83.7428 149C85.4228 149.907 86.7295 151.187 87.6628 152.84C88.6228 154.467 89.1028 156.32 89.1028 158.4C89.1028 160.48 88.6228 162.347 87.6628 164C86.7295 165.627 85.4228 166.907 83.7428 167.84C82.0895 168.773 80.2095 169.24 78.1028 169.24ZM78.1028 165.88C79.4628 165.88 80.6761 165.573 81.7428 164.96C82.8361 164.32 83.6895 163.44 84.3028 162.32C84.9161 161.173 85.2228 159.867 85.2228 158.4C85.2228 156.933 84.9161 155.64 84.3028 154.52C83.6895 153.373 82.8361 152.493 81.7428 151.88C80.6761 151.267 79.4628 150.96 78.1028 150.96C76.7428 150.96 75.5161 151.267 74.4228 151.88C73.3561 152.493 72.5028 153.373 71.8628 154.52C71.2495 155.64 70.9428 156.933 70.9428 158.4C70.9428 159.867 71.2495 161.173 71.8628 162.32C72.5028 163.44 73.3561 164.32 74.4228 164.96C75.5161 165.573 76.7428 165.88 78.1028 165.88ZM105.733 147.6C108.427 147.6 110.56 148.387 112.133 149.96C113.733 151.507 114.533 153.787 114.533 156.8V169H110.693V157.24C110.693 155.187 110.2 153.64 109.213 152.6C108.227 151.56 106.813 151.04 104.973 151.04C102.893 151.04 101.253 151.653 100.053 152.88C98.8534 154.08 98.2534 155.813 98.2534 158.08V169H94.4134V147.8H98.0934V151C98.8668 149.907 99.9068 149.067 101.213 148.48C102.547 147.893 104.053 147.6 105.733 147.6ZM133.56 167.76C133 168.24 132.307 168.613 131.48 168.88C130.653 169.12 129.8 169.24 128.92 169.24C126.787 169.24 125.133 168.667 123.96 167.52C122.787 166.373 122.2 164.733 122.2 162.6V150.96H118.6V147.8H122.2V143.16H126.04V147.8H132.12V150.96H126.04V162.44C126.04 163.587 126.32 164.467 126.88 165.08C127.467 165.693 128.293 166 129.36 166C130.533 166 131.533 165.667 132.36 165L133.56 167.76ZM144.283 169.24C142.549 169.24 140.883 169.013 139.283 168.56C137.683 168.08 136.429 167.48 135.523 166.76L137.123 163.72C138.056 164.387 139.189 164.92 140.523 165.32C141.856 165.72 143.203 165.92 144.562 165.92C147.923 165.92 149.603 164.96 149.603 163.04C149.603 162.4 149.376 161.893 148.923 161.52C148.469 161.147 147.896 160.88 147.203 160.72C146.536 160.533 145.576 160.333 144.323 160.12C142.616 159.853 141.216 159.547 140.123 159.2C139.056 158.853 138.136 158.267 137.363 157.44C136.589 156.613 136.203 155.453 136.203 153.96C136.203 152.04 137.003 150.507 138.603 149.36C140.203 148.187 142.349 147.6 145.043 147.6C146.456 147.6 147.869 147.773 149.283 148.12C150.696 148.467 151.856 148.933 152.763 149.52L151.123 152.56C149.389 151.44 147.349 150.88 145.003 150.88C143.376 150.88 142.136 151.147 141.283 151.68C140.429 152.213 140.003 152.92 140.003 153.8C140.003 154.493 140.243 155.04 140.723 155.44C141.203 155.84 141.789 156.133 142.483 156.32C143.203 156.507 144.203 156.72 145.483 156.96C147.189 157.253 148.563 157.573 149.603 157.92C150.669 158.24 151.576 158.8 152.323 159.6C153.069 160.4 153.443 161.52 153.443 162.96C153.443 164.88 152.616 166.413 150.963 167.56C149.336 168.68 147.109 169.24 144.283 169.24ZM177.402 158.52C177.402 158.813 177.375 159.2 177.322 159.68H160.122C160.362 161.547 161.175 163.053 162.562 164.2C163.975 165.32 165.722 165.88 167.802 165.88C170.335 165.88 172.375 165.027 173.922 163.32L176.042 165.8C175.082 166.92 173.882 167.773 172.442 168.36C171.028 168.947 169.442 169.24 167.682 169.24C165.442 169.24 163.455 168.787 161.722 167.88C159.988 166.947 158.642 165.653 157.682 164C156.748 162.347 156.282 160.48 156.282 158.4C156.282 156.347 156.735 154.493 157.642 152.84C158.575 151.187 159.842 149.907 161.442 149C163.068 148.067 164.895 147.6 166.922 147.6C168.948 147.6 170.748 148.067 172.322 149C173.922 149.907 175.162 151.187 176.042 152.84C176.948 154.493 177.402 156.387 177.402 158.52ZM166.922 150.84C165.082 150.84 163.535 151.4 162.282 152.52C161.055 153.64 160.335 155.107 160.122 156.92H173.722C173.508 155.133 172.775 153.68 171.522 152.56C170.295 151.413 168.762 150.84 166.922 150.84ZM186.414 151.36C187.08 150.133 188.067 149.2 189.374 148.56C190.68 147.92 192.267 147.6 194.134 147.6V151.32C193.92 151.293 193.627 151.28 193.254 151.28C191.174 151.28 189.534 151.907 188.334 153.16C187.16 154.387 186.574 156.147 186.574 158.44V169H182.734V147.8H186.414V151.36ZM202.547 151.36C203.213 150.133 204.2 149.2 205.507 148.56C206.813 147.92 208.4 147.6 210.267 147.6V151.32C210.053 151.293 209.76 151.28 209.387 151.28C207.307 151.28 205.667 151.907 204.467 153.16C203.293 154.387 202.707 156.147 202.707 158.44V169H198.867V147.8H202.547V151.36ZM222.68 147.6C225.614 147.6 227.854 148.32 229.4 149.76C230.974 151.2 231.76 153.347 231.76 156.2V169H228.12V166.2C227.48 167.187 226.56 167.947 225.36 168.48C224.187 168.987 222.787 169.24 221.16 169.24C218.787 169.24 216.88 168.667 215.44 167.52C214.027 166.373 213.32 164.867 213.32 163C213.32 161.133 214 159.64 215.36 158.52C216.72 157.373 218.88 156.8 221.84 156.8H227.92V156.04C227.92 154.387 227.44 153.12 226.48 152.24C225.52 151.36 224.107 150.92 222.24 150.92C220.987 150.92 219.76 151.133 218.56 151.56C217.36 151.96 216.347 152.507 215.52 153.2L213.92 150.32C215.014 149.44 216.32 148.773 217.84 148.32C219.36 147.84 220.974 147.6 222.68 147.6ZM221.8 166.28C223.267 166.28 224.534 165.96 225.6 165.32C226.667 164.653 227.44 163.72 227.92 162.52V159.56H222C218.747 159.56 217.12 160.653 217.12 162.84C217.12 163.907 217.534 164.747 218.36 165.36C219.187 165.973 220.334 166.28 221.8 166.28ZM250.787 167.76C250.227 168.24 249.533 168.613 248.707 168.88C247.88 169.12 247.027 169.24 246.147 169.24C244.013 169.24 242.36 168.667 241.187 167.52C240.013 166.373 239.427 164.733 239.427 162.6V150.96H235.827V147.8H239.427V143.16H243.267V147.8H249.347V150.96H243.267V162.44C243.267 163.587 243.547 164.467 244.107 165.08C244.693 165.693 245.52 166 246.587 166C247.76 166 248.76 165.667 249.587 165L250.787 167.76Z" fill="#E67571"/>
<path d="M53.16 204.6C55.8267 204.6 57.9333 205.373 59.48 206.92C61.0533 208.467 61.84 210.76 61.84 213.8V226H58V214.24C58 212.187 57.52 210.64 56.56 209.6C55.6267 208.56 54.28 208.04 52.52 208.04C50.5733 208.04 49.0267 208.653 47.88 209.88C46.7333 211.08 46.16 212.813 46.16 215.08V226H42.32V214.24C42.32 212.187 41.84 210.64 40.88 209.6C39.9467 208.56 38.6 208.04 36.84 208.04C34.8933 208.04 33.3467 208.653 32.2 209.88C31.0533 211.08 30.48 212.813 30.48 215.08V226H26.64V204.8H30.32V207.96C31.0933 206.867 32.1067 206.04 33.36 205.48C34.6133 204.893 36.04 204.6 37.64 204.6C39.2933 204.6 40.76 204.933 42.04 205.6C43.32 206.267 44.3067 207.24 45 208.52C45.8 207.293 46.9067 206.333 48.32 205.64C49.76 204.947 51.3733 204.6 53.16 204.6ZM78.1028 226.24C75.9961 226.24 74.1028 225.773 72.4228 224.84C70.7428 223.907 69.4228 222.627 68.4628 221C67.5295 219.347 67.0628 217.48 67.0628 215.4C67.0628 213.32 67.5295 211.467 68.4628 209.84C69.4228 208.187 70.7428 206.907 72.4228 206C74.1028 205.067 75.9961 204.6 78.1028 204.6C80.2095 204.6 82.0895 205.067 83.7428 206C85.4228 206.907 86.7295 208.187 87.6628 209.84C88.6228 211.467 89.1028 213.32 89.1028 215.4C89.1028 217.48 88.6228 219.347 87.6628 221C86.7295 222.627 85.4228 223.907 83.7428 224.84C82.0895 225.773 80.2095 226.24 78.1028 226.24ZM78.1028 222.88C79.4628 222.88 80.6761 222.573 81.7428 221.96C82.8361 221.32 83.6895 220.44 84.3028 219.32C84.9161 218.173 85.2228 216.867 85.2228 215.4C85.2228 213.933 84.9161 212.64 84.3028 211.52C83.6895 210.373 82.8361 209.493 81.7428 208.88C80.6761 208.267 79.4628 207.96 78.1028 207.96C76.7428 207.96 75.5161 208.267 74.4228 208.88C73.3561 209.493 72.5028 210.373 71.8628 211.52C71.2495 212.64 70.9428 213.933 70.9428 215.4C70.9428 216.867 71.2495 218.173 71.8628 219.32C72.5028 220.44 73.3561 221.32 74.4228 221.96C75.5161 222.573 76.7428 222.88 78.1028 222.88ZM105.733 204.6C108.427 204.6 110.56 205.387 112.133 206.96C113.733 208.507 114.533 210.787 114.533 213.8V226H110.693V214.24C110.693 212.187 110.2 210.64 109.213 209.6C108.227 208.56 106.813 208.04 104.973 208.04C102.893 208.04 101.253 208.653 100.053 209.88C98.8534 211.08 98.2534 212.813 98.2534 215.08V226H94.4134V204.8H98.0934V208C98.8668 206.907 99.9068 206.067 101.213 205.48C102.547 204.893 104.053 204.6 105.733 204.6ZM133.56 224.76C133 225.24 132.307 225.613 131.48 225.88C130.653 226.12 129.8 226.24 128.92 226.24C126.787 226.24 125.133 225.667 123.96 224.52C122.787 223.373 122.2 221.733 122.2 219.6V207.96H118.6V204.8H122.2V200.16H126.04V204.8H132.12V207.96H126.04V219.44C126.04 220.587 126.32 221.467 126.88 222.08C127.467 222.693 128.293 223 129.36 223C130.533 223 131.533 222.667 132.36 222L133.56 224.76ZM144.283 226.24C142.549 226.24 140.883 226.013 139.283 225.56C137.683 225.08 136.429 224.48 135.523 223.76L137.123 220.72C138.056 221.387 139.189 221.92 140.523 222.32C141.856 222.72 143.203 222.92 144.562 222.92C147.923 222.92 149.603 221.96 149.603 220.04C149.603 219.4 149.376 218.893 148.923 218.52C148.469 218.147 147.896 217.88 147.203 217.72C146.536 217.533 145.576 217.333 144.323 217.12C142.616 216.853 141.216 216.547 140.123 216.2C139.056 215.853 138.136 215.267 137.363 214.44C136.589 213.613 136.203 212.453 136.203 210.96C136.203 209.04 137.003 207.507 138.603 206.36C140.203 205.187 142.349 204.6 145.043 204.6C146.456 204.6 147.869 204.773 149.283 205.12C150.696 205.467 151.856 205.933 152.763 206.52L151.123 209.56C149.389 208.44 147.349 207.88 145.003 207.88C143.376 207.88 142.136 208.147 141.283 208.68C140.429 209.213 140.003 209.92 140.003 210.8C140.003 211.493 140.243 212.04 140.723 212.44C141.203 212.84 141.789 213.133 142.483 213.32C143.203 213.507 144.203 213.72 145.483 213.96C147.189 214.253 148.563 214.573 149.603 214.92C150.669 215.24 151.576 215.8 152.323 216.6C153.069 217.4 153.443 218.52 153.443 219.96C153.443 221.88 152.616 223.413 150.963 224.56C149.336 225.68 147.109 226.24 144.283 226.24ZM177.402 215.52C177.402 215.813 177.375 216.2 177.322 216.68H160.122C160.362 218.547 161.175 220.053 162.562 221.2C163.975 222.32 165.722 222.88 167.802 222.88C170.335 222.88 172.375 222.027 173.922 220.32L176.042 222.8C175.082 223.92 173.882 224.773 172.442 225.36C171.028 225.947 169.442 226.24 167.682 226.24C165.442 226.24 163.455 225.787 161.722 224.88C159.988 223.947 158.642 222.653 157.682 221C156.748 219.347 156.282 217.48 156.282 215.4C156.282 213.347 156.735 211.493 157.642 209.84C158.575 208.187 159.842 206.907 161.442 206C163.068 205.067 164.895 204.6 166.922 204.6C168.948 204.6 170.748 205.067 172.322 206C173.922 206.907 175.162 208.187 176.042 209.84C176.948 211.493 177.402 213.387 177.402 215.52ZM166.922 207.84C165.082 207.84 163.535 208.4 162.282 209.52C161.055 210.64 160.335 212.107 160.122 213.92H173.722C173.508 212.133 172.775 210.68 171.522 209.56C170.295 208.413 168.762 207.84 166.922 207.84ZM186.414 208.36C187.08 207.133 188.067 206.2 189.374 205.56C190.68 204.92 192.267 204.6 194.134 204.6V208.32C193.92 208.293 193.627 208.28 193.254 208.28C191.174 208.28 189.534 208.907 188.334 210.16C187.16 211.387 186.574 213.147 186.574 215.44V226H182.734V204.8H186.414V208.36ZM202.547 208.36C203.213 207.133 204.2 206.2 205.507 205.56C206.813 204.92 208.4 204.6 210.267 204.6V208.32C210.053 208.293 209.76 208.28 209.387 208.28C207.307 208.28 205.667 208.907 204.467 210.16C203.293 211.387 202.707 213.147 202.707 215.44V226H198.867V204.8H202.547V208.36ZM222.68 204.6C225.614 204.6 227.854 205.32 229.4 206.76C230.974 208.2 231.76 210.347 231.76 213.2V226H228.12V223.2C227.48 224.187 226.56 224.947 225.36 225.48C224.187 225.987 222.787 226.24 221.16 226.24C218.787 226.24 216.88 225.667 215.44 224.52C214.027 223.373 213.32 221.867 213.32 220C213.32 218.133 214 216.64 215.36 215.52C216.72 214.373 218.88 213.8 221.84 213.8H227.92V213.04C227.92 211.387 227.44 210.12 226.48 209.24C225.52 208.36 224.107 207.92 222.24 207.92C220.987 207.92 219.76 208.133 218.56 208.56C217.36 208.96 216.347 209.507 215.52 210.2L213.92 207.32C215.014 206.44 216.32 205.773 217.84 205.32C219.36 204.84 220.974 204.6 222.68 204.6ZM221.8 223.28C223.267 223.28 224.534 222.96 225.6 222.32C226.667 221.653 227.44 220.72 227.92 219.52V216.56H222C218.747 216.56 217.12 217.653 217.12 219.84C217.12 220.907 217.534 221.747 218.36 222.36C219.187 222.973 220.334 223.28 221.8 223.28ZM250.787 224.76C250.227 225.24 249.533 225.613 248.707 225.88C247.88 226.12 247.027 226.24 246.147 226.24C244.013 226.24 242.36 225.667 241.187 224.52C240.013 223.373 239.427 221.733 239.427 219.6V207.96H235.827V204.8H239.427V200.16H243.267V204.8H249.347V207.96H243.267V219.44C243.267 220.587 243.547 221.467 244.107 222.08C244.693 222.693 245.52 223 246.587 223C247.76 223 248.76 222.667 249.587 222L250.787 224.76Z" fill="#E67571"/>
<path d="M53.16 261.6C55.8267 261.6 57.9333 262.373 59.48 263.92C61.0533 265.467 61.84 267.76 61.84 270.8V283H58V271.24C58 269.187 57.52 267.64 56.56 266.6C55.6267 265.56 54.28 265.04 52.52 265.04C50.5733 265.04 49.0267 265.653 47.88 266.88C46.7333 268.08 46.16 269.813 46.16 272.08V283H42.32V271.24C42.32 269.187 41.84 267.64 40.88 266.6C39.9467 265.56 38.6 265.04 36.84 265.04C34.8933 265.04 33.3467 265.653 32.2 266.88C31.0533 268.08 30.48 269.813 30.48 272.08V283H26.64V261.8H30.32V264.96C31.0933 263.867 32.1067 263.04 33.36 262.48C34.6133 261.893 36.04 261.6 37.64 261.6C39.2933 261.6 40.76 261.933 42.04 262.6C43.32 263.267 44.3067 264.24 45 265.52C45.8 264.293 46.9067 263.333 48.32 262.64C49.76 261.947 51.3733 261.6 53.16 261.6ZM78.1028 283.24C75.9961 283.24 74.1028 282.773 72.4228 281.84C70.7428 280.907 69.4228 279.627 68.4628 278C67.5295 276.347 67.0628 274.48 67.0628 272.4C67.0628 270.32 67.5295 268.467 68.4628 266.84C69.4228 265.187 70.7428 263.907 72.4228 263C74.1028 262.067 75.9961 261.6 78.1028 261.6C80.2095 261.6 82.0895 262.067 83.7428 263C85.4228 263.907 86.7295 265.187 87.6628 266.84C88.6228 268.467 89.1028 270.32 89.1028 272.4C89.1028 274.48 88.6228 276.347 87.6628 278C86.7295 279.627 85.4228 280.907 83.7428 281.84C82.0895 282.773 80.2095 283.24 78.1028 283.24ZM78.1028 279.88C79.4628 279.88 80.6761 279.573 81.7428 278.96C82.8361 278.32 83.6895 277.44 84.3028 276.32C84.9161 275.173 85.2228 273.867 85.2228 272.4C85.2228 270.933 84.9161 269.64 84.3028 268.52C83.6895 267.373 82.8361 266.493 81.7428 265.88C80.6761 265.267 79.4628 264.96 78.1028 264.96C76.7428 264.96 75.5161 265.267 74.4228 265.88C73.3561 266.493 72.5028 267.373 71.8628 268.52C71.2495 269.64 70.9428 270.933 70.9428 272.4C70.9428 273.867 71.2495 275.173 71.8628 276.32C72.5028 277.44 73.3561 278.32 74.4228 278.96C75.5161 279.573 76.7428 279.88 78.1028 279.88ZM105.733 261.6C108.427 261.6 110.56 262.387 112.133 263.96C113.733 265.507 114.533 267.787 114.533 270.8V283H110.693V271.24C110.693 269.187 110.2 267.64 109.213 266.6C108.227 265.56 106.813 265.04 104.973 265.04C102.893 265.04 101.253 265.653 100.053 266.88C98.8534 268.08 98.2534 269.813 98.2534 272.08V283H94.4134V261.8H98.0934V265C98.8668 263.907 99.9068 263.067 101.213 262.48C102.547 261.893 104.053 261.6 105.733 261.6ZM133.56 281.76C133 282.24 132.307 282.613 131.48 282.88C130.653 283.12 129.8 283.24 128.92 283.24C126.787 283.24 125.133 282.667 123.96 281.52C122.787 280.373 122.2 278.733 122.2 276.6V264.96H118.6V261.8H122.2V257.16H126.04V261.8H132.12V264.96H126.04V276.44C126.04 277.587 126.32 278.467 126.88 279.08C127.467 279.693 128.293 280 129.36 280C130.533 280 131.533 279.667 132.36 279L133.56 281.76ZM144.283 283.24C142.549 283.24 140.883 283.013 139.283 282.56C137.683 282.08 136.429 281.48 135.523 280.76L137.123 277.72C138.056 278.387 139.189 278.92 140.523 279.32C141.856 279.72 143.203 279.92 144.562 279.92C147.923 279.92 149.603 278.96 149.603 277.04C149.603 276.4 149.376 275.893 148.923 275.52C148.469 275.147 147.896 274.88 147.203 274.72C146.536 274.533 145.576 274.333 144.323 274.12C142.616 273.853 141.216 273.547 140.123 273.2C139.056 272.853 138.136 272.267 137.363 271.44C136.589 270.613 136.203 269.453 136.203 267.96C136.203 266.04 137.003 264.507 138.603 263.36C140.203 262.187 142.349 261.6 145.043 261.6C146.456 261.6 147.869 261.773 149.283 262.12C150.696 262.467 151.856 262.933 152.763 263.52L151.123 266.56C149.389 265.44 147.349 264.88 145.003 264.88C143.376 264.88 142.136 265.147 141.283 265.68C140.429 266.213 140.003 266.92 140.003 267.8C140.003 268.493 140.243 269.04 140.723 269.44C141.203 269.84 141.789 270.133 142.483 270.32C143.203 270.507 144.203 270.72 145.483 270.96C147.189 271.253 148.563 271.573 149.603 271.92C150.669 272.24 151.576 272.8 152.323 273.6C153.069 274.4 153.443 275.52 153.443 276.96C153.443 278.88 152.616 280.413 150.963 281.56C149.336 282.68 147.109 283.24 144.283 283.24ZM177.402 272.52C177.402 272.813 177.375 273.2 177.322 273.68H160.122C160.362 275.547 161.175 277.053 162.562 278.2C163.975 279.32 165.722 279.88 167.802 279.88C170.335 279.88 172.375 279.027 173.922 277.32L176.042 279.8C175.082 280.92 173.882 281.773 172.442 282.36C171.028 282.947 169.442 283.24 167.682 283.24C165.442 283.24 163.455 282.787 161.722 281.88C159.988 280.947 158.642 279.653 157.682 278C156.748 276.347 156.282 274.48 156.282 272.4C156.282 270.347 156.735 268.493 157.642 266.84C158.575 265.187 159.842 263.907 161.442 263C163.068 262.067 164.895 261.6 166.922 261.6C168.948 261.6 170.748 262.067 172.322 263C173.922 263.907 175.162 265.187 176.042 266.84C176.948 268.493 177.402 270.387 177.402 272.52ZM166.922 264.84C165.082 264.84 163.535 265.4 162.282 266.52C161.055 267.64 160.335 269.107 160.122 270.92H173.722C173.508 269.133 172.775 267.68 171.522 266.56C170.295 265.413 168.762 264.84 166.922 264.84ZM186.414 265.36C187.08 264.133 188.067 263.2 189.374 262.56C190.68 261.92 192.267 261.6 194.134 261.6V265.32C193.92 265.293 193.627 265.28 193.254 265.28C191.174 265.28 189.534 265.907 188.334 267.16C187.16 268.387 186.574 270.147 186.574 272.44V283H182.734V261.8H186.414V265.36ZM202.547 265.36C203.213 264.133 204.2 263.2 205.507 262.56C206.813 261.92 208.4 261.6 210.267 261.6V265.32C210.053 265.293 209.76 265.28 209.387 265.28C207.307 265.28 205.667 265.907 204.467 267.16C203.293 268.387 202.707 270.147 202.707 272.44V283H198.867V261.8H202.547V265.36ZM222.68 261.6C225.614 261.6 227.854 262.32 229.4 263.76C230.974 265.2 231.76 267.347 231.76 270.2V283H228.12V280.2C227.48 281.187 226.56 281.947 225.36 282.48C224.187 282.987 222.787 283.24 221.16 283.24C218.787 283.24 216.88 282.667 215.44 281.52C214.027 280.373 213.32 278.867 213.32 277C213.32 275.133 214 273.64 215.36 272.52C216.72 271.373 218.88 270.8 221.84 270.8H227.92V270.04C227.92 268.387 227.44 267.12 226.48 266.24C225.52 265.36 224.107 264.92 222.24 264.92C220.987 264.92 219.76 265.133 218.56 265.56C217.36 265.96 216.347 266.507 215.52 267.2L213.92 264.32C215.014 263.44 216.32 262.773 217.84 262.32C219.36 261.84 220.974 261.6 222.68 261.6ZM221.8 280.28C223.267 280.28 224.534 279.96 225.6 279.32C226.667 278.653 227.44 277.72 227.92 276.52V273.56H222C218.747 273.56 217.12 274.653 217.12 276.84C217.12 277.907 217.534 278.747 218.36 279.36C219.187 279.973 220.334 280.28 221.8 280.28ZM250.787 281.76C250.227 282.24 249.533 282.613 248.707 282.88C247.88 283.12 247.027 283.24 246.147 283.24C244.013 283.24 242.36 282.667 241.187 281.52C240.013 280.373 239.427 278.733 239.427 276.6V264.96H235.827V261.8H239.427V257.16H243.267V261.8H249.347V264.96H243.267V276.44C243.267 277.587 243.547 278.467 244.107 279.08C244.693 279.693 245.52 280 246.587 280C247.76 280 248.76 279.667 249.587 279L250.787 281.76Z" fill="#E67571"/>
<path d="M37.326 110.45H27.654L25.652 115H22.974L31.216 96.8H33.79L42.058 115H39.328L37.326 110.45ZM36.416 108.37L32.49 99.452L28.564 108.37H36.416ZM49.427 101.09C51.3336 101.09 52.7896 101.558 53.795 102.494C54.8176 103.43 55.329 104.825 55.329 106.68V115H52.963V113.18C52.547 113.821 51.949 114.315 51.169 114.662C50.4063 114.991 49.4963 115.156 48.439 115.156C46.8963 115.156 45.657 114.783 44.721 114.038C43.8023 113.293 43.343 112.313 43.343 111.1C43.343 109.887 43.785 108.916 44.669 108.188C45.553 107.443 46.957 107.07 48.881 107.07H52.833V106.576C52.833 105.501 52.521 104.678 51.897 104.106C51.273 103.534 50.3543 103.248 49.141 103.248C48.3263 103.248 47.529 103.387 46.749 103.664C45.969 103.924 45.3103 104.279 44.773 104.73L43.733 102.858C44.4436 102.286 45.293 101.853 46.281 101.558C47.269 101.246 48.3176 101.09 49.427 101.09ZM48.855 113.232C49.8083 113.232 50.6316 113.024 51.325 112.608C52.0183 112.175 52.521 111.568 52.833 110.788V108.864H48.985C46.8703 108.864 45.813 109.575 45.813 110.996C45.813 111.689 46.0816 112.235 46.619 112.634C47.1563 113.033 47.9016 113.232 48.855 113.232Z" fill="#E67571"/>
</svg>
