<svg width="836" height="742" viewBox="0 0 836 742" fill="none" xmlns="http://www.w3.org/2000/svg">
<g filter="url(#filter0_d)">
<rect x="4" y="598" width="461" height="136" fill="black"/>
</g>
<g filter="url(#filter1_d)">
<rect x="4" width="828" height="144" fill="#26325B"/>
</g>
<g filter="url(#filter2_d)">
<rect x="234" y="144" width="598" height="454" fill="#E79A74"/>
</g>
<rect x="4" y="453" width="647" height="145" fill="#F8E8AE"/>
<g filter="url(#filter3_d)">
<rect x="4" y="144" width="408" height="309" fill="#E67571"/>
</g>
<path d="M61.2295 68.1973H59.4248L58.8779 71H57.9004L58.4473 68.1973H56.8135V67.2607H58.625L59.0967 64.8408H57.333V63.8906H59.2812L59.8418 61.0469H60.8193L60.2588 63.8906H62.0635L62.624 61.0469H63.6084L63.0479 63.8906H64.4424V64.8408H62.8633L62.3916 67.2607H63.9297V68.1973H62.2139L61.667 71H60.6826L61.2295 68.1973ZM59.6025 67.2607H61.4072L61.8789 64.8408H60.0742L59.6025 67.2607ZM71.9756 71H65.4541V70.0908L68.8994 66.2627C69.4098 65.6839 69.7607 65.2145 69.9521 64.8545C70.1481 64.4899 70.2461 64.1139 70.2461 63.7266C70.2461 63.207 70.0889 62.7809 69.7744 62.4482C69.46 62.1156 69.0407 61.9492 68.5166 61.9492C67.8877 61.9492 67.3978 62.1292 67.0469 62.4893C66.7005 62.8447 66.5273 63.3415 66.5273 63.9795H65.2627C65.2627 63.0635 65.5566 62.3229 66.1445 61.7578C66.737 61.1927 67.5277 60.9102 68.5166 60.9102C69.4417 60.9102 70.1732 61.154 70.7109 61.6416C71.2487 62.1247 71.5176 62.7695 71.5176 63.5762C71.5176 64.556 70.8932 65.7227 69.6445 67.0762L66.9785 69.9678H71.9756V71ZM78.2783 61.04V62.1133H78.0459C77.0615 62.1315 76.2777 62.4232 75.6943 62.9883C75.111 63.5534 74.7738 64.3486 74.6826 65.374C75.2067 64.7725 75.9222 64.4717 76.8291 64.4717C77.695 64.4717 78.3854 64.777 78.9004 65.3877C79.4199 65.9984 79.6797 66.7868 79.6797 67.7529C79.6797 68.7783 79.3994 69.5986 78.8389 70.2139C78.2829 70.8291 77.5355 71.1367 76.5967 71.1367C75.6442 71.1367 74.8717 70.7721 74.2793 70.043C73.6868 69.3092 73.3906 68.3659 73.3906 67.2129V66.7275C73.3906 64.8955 73.7803 63.4964 74.5596 62.5303C75.3434 61.5596 76.5078 61.0628 78.0527 61.04H78.2783ZM76.6172 65.5244C76.1842 65.5244 75.7855 65.6543 75.4209 65.9141C75.0563 66.1738 74.8034 66.4997 74.6621 66.8916V67.3564C74.6621 68.1768 74.8467 68.8376 75.2158 69.3389C75.585 69.8402 76.0452 70.0908 76.5967 70.0908C77.1663 70.0908 77.613 69.8812 77.9365 69.4619C78.2646 69.0426 78.4287 68.4935 78.4287 67.8145C78.4287 67.1309 78.2624 66.5794 77.9297 66.1602C77.6016 65.7363 77.1641 65.5244 76.6172 65.5244ZM83.0156 65.4082H83.9658C84.5628 65.3991 85.0322 65.2419 85.374 64.9365C85.7158 64.6312 85.8867 64.2188 85.8867 63.6992C85.8867 62.5326 85.3057 61.9492 84.1436 61.9492C83.5967 61.9492 83.1592 62.1064 82.8311 62.4209C82.5075 62.7308 82.3457 63.1432 82.3457 63.6582H81.0811C81.0811 62.8698 81.3682 62.2158 81.9424 61.6963C82.5212 61.1722 83.2549 60.9102 84.1436 60.9102C85.0824 60.9102 85.8184 61.1585 86.3516 61.6553C86.8848 62.152 87.1514 62.8424 87.1514 63.7266C87.1514 64.1595 87.0101 64.5788 86.7275 64.9844C86.4495 65.39 86.069 65.693 85.5859 65.8936C86.1328 66.0667 86.5544 66.3538 86.8506 66.7549C87.1514 67.1559 87.3018 67.6458 87.3018 68.2246C87.3018 69.1178 87.0101 69.8265 86.4268 70.3506C85.8434 70.8747 85.0846 71.1367 84.1504 71.1367C83.2161 71.1367 82.4551 70.8838 81.8672 70.3779C81.2839 69.8721 80.9922 69.2044 80.9922 68.375H82.2637C82.2637 68.8991 82.4346 69.3184 82.7764 69.6328C83.1182 69.9473 83.5762 70.1045 84.1504 70.1045C84.7611 70.1045 85.2282 69.945 85.5518 69.626C85.8753 69.307 86.0371 68.849 86.0371 68.252C86.0371 67.6732 85.8594 67.2288 85.5039 66.9189C85.1484 66.609 84.6357 66.4495 83.9658 66.4404H83.0156V65.4082ZM95.5596 71H89.0381V70.0908L92.4834 66.2627C92.9938 65.6839 93.3447 65.2145 93.5361 64.8545C93.7321 64.4899 93.8301 64.1139 93.8301 63.7266C93.8301 63.207 93.6729 62.7809 93.3584 62.4482C93.0439 62.1156 92.6247 61.9492 92.1006 61.9492C91.4717 61.9492 90.9818 62.1292 90.6309 62.4893C90.2845 62.8447 90.1113 63.3415 90.1113 63.9795H88.8467C88.8467 63.0635 89.1406 62.3229 89.7285 61.7578C90.321 61.1927 91.1117 60.9102 92.1006 60.9102C93.0257 60.9102 93.7572 61.154 94.2949 61.6416C94.8327 62.1247 95.1016 62.7695 95.1016 63.5762C95.1016 64.556 94.4772 65.7227 93.2285 67.0762L90.5625 69.9678H95.5596V71ZM97.4805 66.0098L97.9863 61.0469H103.086V62.2158H99.0596L98.7588 64.9297C99.2464 64.6426 99.8001 64.499 100.42 64.499C101.327 64.499 102.047 64.7998 102.58 65.4014C103.113 65.9984 103.38 66.8073 103.38 67.8281C103.38 68.8535 103.102 69.6624 102.546 70.2549C101.994 70.8428 101.222 71.1367 100.229 71.1367C99.349 71.1367 98.6312 70.8929 98.0752 70.4053C97.5192 69.9176 97.2025 69.2432 97.125 68.3818H98.3213C98.3988 68.9515 98.6016 69.3822 98.9297 69.6738C99.2578 69.9609 99.6908 70.1045 100.229 70.1045C100.816 70.1045 101.277 69.904 101.609 69.5029C101.947 69.1019 102.115 68.5482 102.115 67.8418C102.115 67.1764 101.933 66.6432 101.568 66.2422C101.208 65.8366 100.728 65.6338 100.126 65.6338C99.5745 65.6338 99.1416 65.7546 98.8271 65.9961L98.4922 66.2695L97.4805 66.0098ZM105.089 71V61.0469H108.343C109.423 61.0469 110.234 61.2702 110.776 61.7168C111.323 62.1634 111.597 62.8242 111.597 63.6992C111.597 64.1641 111.465 64.5765 111.2 64.9365C110.936 65.292 110.576 65.5677 110.12 65.7637C110.658 65.9141 111.082 66.2012 111.392 66.625C111.706 67.0443 111.863 67.5456 111.863 68.1289C111.863 69.0221 111.574 69.724 110.995 70.2344C110.416 70.7448 109.598 71 108.541 71H105.089ZM106.401 66.3447V69.9268H108.568C109.179 69.9268 109.66 69.7695 110.011 69.4551C110.366 69.1361 110.544 68.6986 110.544 68.1426C110.544 66.944 109.892 66.3447 108.589 66.3447H106.401ZM106.401 65.292H108.384C108.958 65.292 109.416 65.1484 109.758 64.8613C110.104 64.5742 110.277 64.1846 110.277 63.6924C110.277 63.1455 110.118 62.749 109.799 62.5029C109.48 62.2523 108.994 62.127 108.343 62.127H106.401V65.292Z" fill="#7289D8"/>
<path d="M70.5312 103.586C70.3203 105.391 69.6523 106.785 68.5273 107.77C67.4102 108.746 65.9219 109.234 64.0625 109.234C62.0469 109.234 60.4297 108.512 59.2109 107.066C58 105.621 57.3945 103.688 57.3945 101.266V99.625C57.3945 98.0391 57.6758 96.6445 58.2383 95.4414C58.8086 94.2383 59.6133 93.3164 60.6523 92.6758C61.6914 92.0273 62.8945 91.7031 64.2617 91.7031C66.0742 91.7031 67.5273 92.2109 68.6211 93.2266C69.7148 94.2344 70.3516 95.6328 70.5312 97.4219H68.2695C68.0742 96.0625 67.6484 95.0781 66.9922 94.4688C66.3438 93.8594 65.4336 93.5547 64.2617 93.5547C62.8242 93.5547 61.6953 94.0859 60.875 95.1484C60.0625 96.2109 59.6562 97.7227 59.6562 99.6836V101.336C59.6562 103.188 60.043 104.66 60.8164 105.754C61.5898 106.848 62.6719 107.395 64.0625 107.395C65.3125 107.395 66.2695 107.113 66.9336 106.551C67.6055 105.98 68.0508 104.992 68.2695 103.586H70.5312ZM72.6992 102.543C72.6992 101.301 72.9414 100.184 73.4258 99.1914C73.918 98.1992 74.5977 97.4336 75.4648 96.8945C76.3398 96.3555 77.3359 96.0859 78.4531 96.0859C80.1797 96.0859 81.5742 96.6836 82.6367 97.8789C83.707 99.0742 84.2422 100.664 84.2422 102.648V102.801C84.2422 104.035 84.0039 105.145 83.5273 106.129C83.0586 107.105 82.3828 107.867 81.5 108.414C80.625 108.961 79.6172 109.234 78.4766 109.234C76.7578 109.234 75.3633 108.637 74.293 107.441C73.2305 106.246 72.6992 104.664 72.6992 102.695V102.543ZM74.8789 102.801C74.8789 104.207 75.2031 105.336 75.8516 106.188C76.5078 107.039 77.3828 107.465 78.4766 107.465C79.5781 107.465 80.4531 107.035 81.1016 106.176C81.75 105.309 82.0742 104.098 82.0742 102.543C82.0742 101.152 81.7422 100.027 81.0781 99.168C80.4219 98.3008 79.5469 97.8672 78.4531 97.8672C77.3828 97.8672 76.5195 98.293 75.8633 99.1445C75.207 99.9961 74.8789 101.215 74.8789 102.801ZM86.3867 102.543C86.3867 101.301 86.6289 100.184 87.1133 99.1914C87.6055 98.1992 88.2852 97.4336 89.1523 96.8945C90.0273 96.3555 91.0234 96.0859 92.1406 96.0859C93.8672 96.0859 95.2617 96.6836 96.3242 97.8789C97.3945 99.0742 97.9297 100.664 97.9297 102.648V102.801C97.9297 104.035 97.6914 105.145 97.2148 106.129C96.7461 107.105 96.0703 107.867 95.1875 108.414C94.3125 108.961 93.3047 109.234 92.1641 109.234C90.4453 109.234 89.0508 108.637 87.9805 107.441C86.918 106.246 86.3867 104.664 86.3867 102.695V102.543ZM88.5664 102.801C88.5664 104.207 88.8906 105.336 89.5391 106.188C90.1953 107.039 91.0703 107.465 92.1641 107.465C93.2656 107.465 94.1406 107.035 94.7891 106.176C95.4375 105.309 95.7617 104.098 95.7617 102.543C95.7617 101.152 95.4297 100.027 94.7656 99.168C94.1094 98.3008 93.2344 97.8672 92.1406 97.8672C91.0703 97.8672 90.207 98.293 89.5508 99.1445C88.8945 99.9961 88.5664 101.215 88.5664 102.801ZM103.004 109H100.836V91H103.004V109ZM112.777 109V91.9375H118.355C120.207 91.9375 121.598 92.3203 122.527 93.0859C123.465 93.8516 123.934 94.9844 123.934 96.4844C123.934 97.2812 123.707 97.9883 123.254 98.6055C122.801 99.2148 122.184 99.6875 121.402 100.023C122.324 100.281 123.051 100.773 123.582 101.5C124.121 102.219 124.391 103.078 124.391 104.078C124.391 105.609 123.895 106.812 122.902 107.688C121.91 108.562 120.508 109 118.695 109H112.777ZM115.027 101.02V107.16H118.742C119.789 107.16 120.613 106.891 121.215 106.352C121.824 105.805 122.129 105.055 122.129 104.102C122.129 102.047 121.012 101.02 118.777 101.02H115.027ZM115.027 99.2148H118.426C119.41 99.2148 120.195 98.9688 120.781 98.4766C121.375 97.9844 121.672 97.3164 121.672 96.4727C121.672 95.5352 121.398 94.8555 120.852 94.4336C120.305 94.0039 119.473 93.7891 118.355 93.7891H115.027V99.2148ZM129.746 109H127.578V91H129.746V109ZM141.055 107.746C140.211 108.738 138.973 109.234 137.34 109.234C135.988 109.234 134.957 108.844 134.246 108.062C133.543 107.273 133.188 106.109 133.18 104.57V96.3203H135.348V104.512C135.348 106.434 136.129 107.395 137.691 107.395C139.348 107.395 140.449 106.777 140.996 105.543V96.3203H143.164V109H141.102L141.055 107.746ZM151.73 109.234C150.012 109.234 148.613 108.672 147.535 107.547C146.457 106.414 145.918 104.902 145.918 103.012V102.613C145.918 101.355 146.156 100.234 146.633 99.25C147.117 98.2578 147.789 97.4844 148.648 96.9297C149.516 96.3672 150.453 96.0859 151.461 96.0859C153.109 96.0859 154.391 96.6289 155.305 97.7148C156.219 98.8008 156.676 100.355 156.676 102.379V103.281H148.086C148.117 104.531 148.48 105.543 149.176 106.316C149.879 107.082 150.77 107.465 151.848 107.465C152.613 107.465 153.262 107.309 153.793 106.996C154.324 106.684 154.789 106.27 155.188 105.754L156.512 106.785C155.449 108.418 153.855 109.234 151.73 109.234ZM151.461 97.8672C150.586 97.8672 149.852 98.1875 149.258 98.8281C148.664 99.4609 148.297 100.352 148.156 101.5H154.508V101.336C154.445 100.234 154.148 99.3828 153.617 98.7812C153.086 98.1719 152.367 97.8672 151.461 97.8672Z" fill="#7289D8"/>
<path d="M64.2295 668.197H62.4248L61.8779 671H60.9004L61.4473 668.197H59.8135V667.261H61.625L62.0967 664.841H60.333V663.891H62.2812L62.8418 661.047H63.8193L63.2588 663.891H65.0635L65.624 661.047H66.6084L66.0479 663.891H67.4424V664.841H65.8633L65.3916 667.261H66.9297V668.197H65.2139L64.667 671H63.6826L64.2295 668.197ZM62.6025 667.261H64.4072L64.8789 664.841H63.0742L62.6025 667.261ZM74.6953 666.755C74.6953 668.236 74.4424 669.337 73.9365 670.057C73.4307 670.777 72.64 671.137 71.5645 671.137C70.5026 671.137 69.7165 670.786 69.2061 670.084C68.6956 669.378 68.4313 668.325 68.4131 666.926V665.237C68.4131 663.774 68.666 662.688 69.1719 661.977C69.6777 661.266 70.4707 660.91 71.5508 660.91C72.6217 660.91 73.4102 661.254 73.916 661.942C74.4219 662.626 74.6816 663.683 74.6953 665.114V666.755ZM73.4307 665.025C73.4307 663.954 73.2803 663.175 72.9795 662.688C72.6787 662.195 72.2025 661.949 71.5508 661.949C70.9036 661.949 70.432 662.193 70.1357 662.681C69.8395 663.168 69.6868 663.918 69.6777 664.93V666.953C69.6777 668.029 69.8327 668.824 70.1426 669.339C70.457 669.849 70.931 670.104 71.5645 670.104C72.1888 670.104 72.6514 669.863 72.9521 669.38C73.2575 668.897 73.417 668.136 73.4307 667.097V665.025ZM82.5566 666.755C82.5566 668.236 82.3037 669.337 81.7979 670.057C81.292 670.777 80.5013 671.137 79.4258 671.137C78.3639 671.137 77.5778 670.786 77.0674 670.084C76.557 669.378 76.2926 668.325 76.2744 666.926V665.237C76.2744 663.774 76.5273 662.688 77.0332 661.977C77.5391 661.266 78.332 660.91 79.4121 660.91C80.4831 660.91 81.2715 661.254 81.7773 661.942C82.2832 662.626 82.543 663.683 82.5566 665.114V666.755ZM81.292 665.025C81.292 663.954 81.1416 663.175 80.8408 662.688C80.54 662.195 80.0638 661.949 79.4121 661.949C78.765 661.949 78.2933 662.193 77.9971 662.681C77.7008 663.168 77.5482 663.918 77.5391 664.93V666.953C77.5391 668.029 77.694 668.824 78.0039 669.339C78.3184 669.849 78.7923 670.104 79.4258 670.104C80.0501 670.104 80.5127 669.863 80.8135 669.38C81.1188 668.897 81.2783 668.136 81.292 667.097V665.025ZM90.418 666.755C90.418 668.236 90.165 669.337 89.6592 670.057C89.1533 670.777 88.3626 671.137 87.2871 671.137C86.2253 671.137 85.4391 670.786 84.9287 670.084C84.4183 669.378 84.154 668.325 84.1357 666.926V665.237C84.1357 663.774 84.3887 662.688 84.8945 661.977C85.4004 661.266 86.1934 660.91 87.2734 660.91C88.3444 660.91 89.1328 661.254 89.6387 661.942C90.1445 662.626 90.4043 663.683 90.418 665.114V666.755ZM89.1533 665.025C89.1533 663.954 89.0029 663.175 88.7021 662.688C88.4014 662.195 87.9251 661.949 87.2734 661.949C86.6263 661.949 86.1546 662.193 85.8584 662.681C85.5622 663.168 85.4095 663.918 85.4004 664.93V666.953C85.4004 668.029 85.5553 668.824 85.8652 669.339C86.1797 669.849 86.6536 670.104 87.2871 670.104C87.9115 670.104 88.374 669.863 88.6748 669.38C88.9801 668.897 89.1396 668.136 89.1533 667.097V665.025ZM98.2793 666.755C98.2793 668.236 98.0264 669.337 97.5205 670.057C97.0146 670.777 96.224 671.137 95.1484 671.137C94.0866 671.137 93.3005 670.786 92.79 670.084C92.2796 669.378 92.0153 668.325 91.9971 666.926V665.237C91.9971 663.774 92.25 662.688 92.7559 661.977C93.2617 661.266 94.0547 660.91 95.1348 660.91C96.2057 660.91 96.9941 661.254 97.5 661.942C98.0059 662.626 98.2656 663.683 98.2793 665.114V666.755ZM97.0146 665.025C97.0146 663.954 96.8643 663.175 96.5635 662.688C96.2627 662.195 95.7865 661.949 95.1348 661.949C94.4876 661.949 94.016 662.193 93.7197 662.681C93.4235 663.168 93.2708 663.918 93.2617 664.93V666.953C93.2617 668.029 93.4167 668.824 93.7266 669.339C94.041 669.849 94.515 670.104 95.1484 670.104C95.7728 670.104 96.2354 669.863 96.5361 669.38C96.8415 668.897 97.001 668.136 97.0146 667.097V665.025ZM106.141 666.755C106.141 668.236 105.888 669.337 105.382 670.057C104.876 670.777 104.085 671.137 103.01 671.137C101.948 671.137 101.162 670.786 100.651 670.084C100.141 669.378 99.8766 668.325 99.8584 666.926V665.237C99.8584 663.774 100.111 662.688 100.617 661.977C101.123 661.266 101.916 660.91 102.996 660.91C104.067 660.91 104.855 661.254 105.361 661.942C105.867 662.626 106.127 663.683 106.141 665.114V666.755ZM104.876 665.025C104.876 663.954 104.726 663.175 104.425 662.688C104.124 662.195 103.648 661.949 102.996 661.949C102.349 661.949 101.877 662.193 101.581 662.681C101.285 663.168 101.132 663.918 101.123 664.93V666.953C101.123 668.029 101.278 668.824 101.588 669.339C101.902 669.849 102.376 670.104 103.01 670.104C103.634 670.104 104.097 669.863 104.397 669.38C104.703 668.897 104.862 668.136 104.876 667.097V665.025ZM114.002 666.755C114.002 668.236 113.749 669.337 113.243 670.057C112.737 670.777 111.947 671.137 110.871 671.137C109.809 671.137 109.023 670.786 108.513 670.084C108.002 669.378 107.738 668.325 107.72 666.926V665.237C107.72 663.774 107.973 662.688 108.479 661.977C108.984 661.266 109.777 660.91 110.857 660.91C111.928 660.91 112.717 661.254 113.223 661.942C113.729 662.626 113.988 663.683 114.002 665.114V666.755ZM112.737 665.025C112.737 663.954 112.587 663.175 112.286 662.688C111.985 662.195 111.509 661.949 110.857 661.949C110.21 661.949 109.739 662.193 109.442 662.681C109.146 663.168 108.993 663.918 108.984 664.93V666.953C108.984 668.029 109.139 668.824 109.449 669.339C109.764 669.849 110.238 670.104 110.871 670.104C111.495 670.104 111.958 669.863 112.259 669.38C112.564 668.897 112.724 668.136 112.737 667.097V665.025Z" fill="#D9D9D9"/>
<path d="M64.2295 301.197H62.4248L61.8779 304H60.9004L61.4473 301.197H59.8135V300.261H61.625L62.0967 297.841H60.333V296.891H62.2812L62.8418 294.047H63.8193L63.2588 296.891H65.0635L65.624 294.047H66.6084L66.0479 296.891H67.4424V297.841H65.8633L65.3916 300.261H66.9297V301.197H65.2139L64.667 304H63.6826L64.2295 301.197ZM62.6025 300.261H64.4072L64.8789 297.841H63.0742L62.6025 300.261ZM74.4082 299.399H70.0947V302.927H75.1055V304H68.7822V294.047H75.0371V295.127H70.0947V298.326H74.4082V299.399ZM81.374 294.04V295.113H81.1416C80.1572 295.132 79.3734 295.423 78.79 295.988C78.2067 296.553 77.8695 297.349 77.7783 298.374C78.3024 297.772 79.0179 297.472 79.9248 297.472C80.7907 297.472 81.4811 297.777 81.9961 298.388C82.5156 298.998 82.7754 299.787 82.7754 300.753C82.7754 301.778 82.4951 302.599 81.9346 303.214C81.3786 303.829 80.6312 304.137 79.6924 304.137C78.7399 304.137 77.9674 303.772 77.375 303.043C76.7826 302.309 76.4863 301.366 76.4863 300.213V299.728C76.4863 297.896 76.876 296.496 77.6553 295.53C78.4391 294.56 79.6035 294.063 81.1484 294.04H81.374ZM79.7129 298.524C79.2799 298.524 78.8812 298.654 78.5166 298.914C78.152 299.174 77.8991 299.5 77.7578 299.892V300.356C77.7578 301.177 77.9424 301.838 78.3115 302.339C78.6807 302.84 79.141 303.091 79.6924 303.091C80.262 303.091 80.7087 302.881 81.0322 302.462C81.3604 302.043 81.5244 301.493 81.5244 300.814C81.5244 300.131 81.3581 299.579 81.0254 299.16C80.6973 298.736 80.2598 298.524 79.7129 298.524ZM90.6982 294.758L86.5762 304H85.25L89.3584 295.086H83.9717V294.047H90.6982V294.758ZM92.7148 299.01L93.2207 294.047H98.3203V295.216H94.2939L93.9932 297.93C94.4808 297.643 95.0345 297.499 95.6543 297.499C96.5612 297.499 97.2812 297.8 97.8145 298.401C98.3477 298.998 98.6143 299.807 98.6143 300.828C98.6143 301.854 98.3363 302.662 97.7803 303.255C97.2288 303.843 96.4564 304.137 95.4629 304.137C94.5833 304.137 93.8656 303.893 93.3096 303.405C92.7536 302.918 92.4368 302.243 92.3594 301.382H93.5557C93.6331 301.951 93.8359 302.382 94.1641 302.674C94.4922 302.961 94.9251 303.104 95.4629 303.104C96.0508 303.104 96.5111 302.904 96.8438 302.503C97.181 302.102 97.3496 301.548 97.3496 300.842C97.3496 300.176 97.1673 299.643 96.8027 299.242C96.4427 298.837 95.9619 298.634 95.3604 298.634C94.8089 298.634 94.376 298.755 94.0615 298.996L93.7266 299.27L92.7148 299.01ZM106.421 294.758L102.299 304H100.973L105.081 295.086H99.6943V294.047H106.421V294.758ZM112.013 304H110.741V295.571L108.191 296.508V295.359L111.814 293.999H112.013V304Z" fill="#5B302F"/>
<path d="M464.229 301.197H462.425L461.878 304H460.9L461.447 301.197H459.813V300.261H461.625L462.097 297.841H460.333V296.891H462.281L462.842 294.047H463.819L463.259 296.891H465.063L465.624 294.047H466.608L466.048 296.891H467.442V297.841H465.863L465.392 300.261H466.93V301.197H465.214L464.667 304H463.683L464.229 301.197ZM462.603 300.261H464.407L464.879 297.841H463.074L462.603 300.261ZM474.408 299.399H470.095V302.927H475.105V304H468.782V294.047H475.037V295.127H470.095V298.326H474.408V299.399ZM482.837 294.758L478.715 304H477.389L481.497 295.086H476.11V294.047H482.837V294.758ZM489.119 299.625C488.855 299.939 488.538 300.192 488.169 300.384C487.804 300.575 487.403 300.671 486.966 300.671C486.392 300.671 485.89 300.53 485.462 300.247C485.038 299.965 484.71 299.568 484.478 299.058C484.245 298.543 484.129 297.975 484.129 297.355C484.129 296.69 484.254 296.091 484.505 295.558C484.76 295.024 485.12 294.617 485.585 294.334C486.05 294.051 486.592 293.91 487.212 293.91C488.196 293.91 488.971 294.279 489.536 295.018C490.106 295.751 490.391 296.754 490.391 298.025V298.395C490.391 300.331 490.008 301.746 489.242 302.64C488.477 303.528 487.321 303.984 485.776 304.007H485.53V302.94H485.797C486.84 302.922 487.643 302.651 488.203 302.127C488.764 301.598 489.069 300.764 489.119 299.625ZM487.171 299.625C487.595 299.625 487.984 299.495 488.34 299.235C488.7 298.976 488.962 298.654 489.126 298.271V297.766C489.126 296.936 488.946 296.262 488.586 295.742C488.226 295.223 487.77 294.963 487.219 294.963C486.663 294.963 486.216 295.177 485.879 295.605C485.542 296.029 485.373 296.59 485.373 297.287C485.373 297.966 485.535 298.527 485.858 298.969C486.187 299.406 486.624 299.625 487.171 299.625ZM497.958 301.402H493.788L492.852 304H491.498L495.299 294.047H496.447L500.255 304H498.908L497.958 301.402ZM494.185 300.322H497.568L495.873 295.667L494.185 300.322ZM507.692 294.758L503.57 304H502.244L506.353 295.086H500.966V294.047H507.692V294.758ZM514.467 300.657H515.848V301.689H514.467V304H513.195V301.689H508.663V300.944L513.12 294.047H514.467V300.657ZM510.099 300.657H513.195V295.776L513.045 296.05L510.099 300.657Z" fill="#513527"/>
<g filter="url(#filter4_d)">
<rect x="465" y="598" width="367" height="136" fill="white"/>
</g>
<path d="M522.229 668.197H520.425L519.878 671H518.9L519.447 668.197H517.813V667.261H519.625L520.097 664.841H518.333V663.891H520.281L520.842 661.047H521.819L521.259 663.891H523.063L523.624 661.047H524.608L524.048 663.891H525.442V664.841H523.863L523.392 667.261H524.93V668.197H523.214L522.667 671H521.683L522.229 668.197ZM520.603 667.261H522.407L522.879 664.841H521.074L520.603 667.261ZM532.271 666.604H528.095V671H526.782V661.047H532.948V662.127H528.095V665.531H532.271V666.604ZM540.01 666.604H535.833V671H534.521V661.047H540.687V662.127H535.833V665.531H540.01V666.604ZM547.748 666.604H543.571V671H542.259V661.047H548.425V662.127H543.571V665.531H547.748V666.604ZM555.486 666.604H551.31V671H549.997V661.047H556.163V662.127H551.31V665.531H555.486V666.604ZM563.225 666.604H559.048V671H557.735V661.047H563.901V662.127H559.048V665.531H563.225V666.604ZM570.963 666.604H566.786V671H565.474V661.047H571.64V662.127H566.786V665.531H570.963V666.604Z" fill="#8E8E8E"/>
<path d="M64.2295 510.197H62.4248L61.8779 513H60.9004L61.4473 510.197H59.8135V509.261H61.625L62.0967 506.841H60.333V505.891H62.2812L62.8418 503.047H63.8193L63.2588 505.891H65.0635L65.624 503.047H66.6084L66.0479 505.891H67.4424V506.841H65.8633L65.3916 509.261H66.9297V510.197H65.2139L64.667 513H63.6826L64.2295 510.197ZM62.6025 509.261H64.4072L64.8789 506.841H63.0742L62.6025 509.261ZM74.2715 508.604H70.0947V513H68.7822V503.047H74.9482V504.127H70.0947V507.531H74.2715V508.604ZM82.2285 505.645C82.2285 506.141 82.0964 506.583 81.832 506.971C81.5723 507.358 81.2191 507.661 80.7725 507.88C81.292 508.103 81.7021 508.429 82.0029 508.857C82.3083 509.286 82.4609 509.771 82.4609 510.313C82.4609 511.175 82.1693 511.861 81.5859 512.371C81.0072 512.882 80.2438 513.137 79.2959 513.137C78.3389 513.137 77.571 512.882 76.9922 512.371C76.418 511.856 76.1309 511.17 76.1309 510.313C76.1309 509.776 76.2767 509.29 76.5684 508.857C76.8646 508.424 77.2725 508.096 77.792 507.873C77.3499 507.654 77.0013 507.351 76.7461 506.964C76.4909 506.576 76.3633 506.137 76.3633 505.645C76.3633 504.806 76.6322 504.141 77.1699 503.648C77.7077 503.156 78.4163 502.91 79.2959 502.91C80.1709 502.91 80.8773 503.156 81.415 503.648C81.9574 504.141 82.2285 504.806 82.2285 505.645ZM81.1963 510.286C81.1963 509.73 81.0186 509.277 80.6631 508.926C80.3122 508.575 79.8519 508.399 79.2822 508.399C78.7126 508.399 78.2546 508.573 77.9082 508.919C77.5664 509.265 77.3955 509.721 77.3955 510.286C77.3955 510.851 77.5618 511.296 77.8945 511.619C78.2318 511.943 78.6989 512.104 79.2959 512.104C79.8883 512.104 80.3532 511.943 80.6904 511.619C81.0277 511.291 81.1963 510.847 81.1963 510.286ZM79.2959 503.949C78.7992 503.949 78.3958 504.104 78.0859 504.414C77.7806 504.719 77.6279 505.136 77.6279 505.665C77.6279 506.171 77.7783 506.581 78.0791 506.896C78.3844 507.205 78.79 507.36 79.2959 507.36C79.8018 507.36 80.2051 507.205 80.5059 506.896C80.8112 506.581 80.9639 506.171 80.9639 505.665C80.9639 505.159 80.8066 504.747 80.4922 504.428C80.1777 504.109 79.779 503.949 79.2959 503.949ZM90.0078 508.399H85.6943V511.927H90.7051V513H84.3818V503.047H90.6367V504.127H85.6943V507.326H90.0078V508.399ZM98.0469 505.645C98.0469 506.141 97.9147 506.583 97.6504 506.971C97.3906 507.358 97.0374 507.661 96.5908 507.88C97.1104 508.103 97.5205 508.429 97.8213 508.857C98.1266 509.286 98.2793 509.771 98.2793 510.313C98.2793 511.175 97.9876 511.861 97.4043 512.371C96.8255 512.882 96.0622 513.137 95.1143 513.137C94.1572 513.137 93.3893 512.882 92.8105 512.371C92.2363 511.856 91.9492 511.17 91.9492 510.313C91.9492 509.776 92.0951 509.29 92.3867 508.857C92.6829 508.424 93.0908 508.096 93.6104 507.873C93.1683 507.654 92.8197 507.351 92.5645 506.964C92.3092 506.576 92.1816 506.137 92.1816 505.645C92.1816 504.806 92.4505 504.141 92.9883 503.648C93.526 503.156 94.2347 502.91 95.1143 502.91C95.9893 502.91 96.6956 503.156 97.2334 503.648C97.7757 504.141 98.0469 504.806 98.0469 505.645ZM97.0146 510.286C97.0146 509.73 96.8369 509.277 96.4814 508.926C96.1305 508.575 95.6702 508.399 95.1006 508.399C94.5309 508.399 94.0729 508.573 93.7266 508.919C93.3848 509.265 93.2139 509.721 93.2139 510.286C93.2139 510.851 93.3802 511.296 93.7129 511.619C94.0501 511.943 94.5173 512.104 95.1143 512.104C95.7067 512.104 96.1715 511.943 96.5088 511.619C96.846 511.291 97.0146 510.847 97.0146 510.286ZM95.1143 503.949C94.6175 503.949 94.2142 504.104 93.9043 504.414C93.599 504.719 93.4463 505.136 93.4463 505.665C93.4463 506.171 93.5967 506.581 93.8975 506.896C94.2028 507.205 94.6084 507.36 95.1143 507.36C95.6201 507.36 96.0234 507.205 96.3242 506.896C96.6296 506.581 96.7822 506.171 96.7822 505.665C96.7822 505.159 96.625 504.747 96.3105 504.428C95.9961 504.109 95.5973 503.949 95.1143 503.949ZM105.696 510.402H101.526L100.59 513H99.2363L103.037 503.047H104.186L107.993 513H106.646L105.696 510.402ZM101.923 509.322H105.307L103.611 504.667L101.923 509.322ZM114.959 508.399H110.646V511.927H115.656V513H109.333V503.047H115.588V504.127H110.646V507.326H114.959V508.399Z" fill="#575430"/>
<path d="M63.2305 338.32V345H60.9805V327.938H67.2734C69.1406 327.938 70.6016 328.414 71.6562 329.367C72.7188 330.32 73.25 331.582 73.25 333.152C73.25 334.809 72.7305 336.086 71.6914 336.984C70.6602 337.875 69.1797 338.32 67.25 338.32H63.2305ZM63.2305 336.48H67.2734C68.4766 336.48 69.3984 336.199 70.0391 335.637C70.6797 335.066 71 334.246 71 333.176C71 332.16 70.6797 331.348 70.0391 330.738C69.3984 330.129 68.5195 329.812 67.4023 329.789H63.2305V336.48ZM83.4688 345C83.3438 344.75 83.2422 344.305 83.1641 343.664C82.1562 344.711 80.9531 345.234 79.5547 345.234C78.3047 345.234 77.2773 344.883 76.4727 344.18C75.6758 343.469 75.2773 342.57 75.2773 341.484C75.2773 340.164 75.7773 339.141 76.7773 338.414C77.7852 337.68 79.1992 337.312 81.0195 337.312H83.1289V336.316C83.1289 335.559 82.9023 334.957 82.4492 334.512C81.9961 334.059 81.3281 333.832 80.4453 333.832C79.6719 333.832 79.0234 334.027 78.5 334.418C77.9766 334.809 77.7148 335.281 77.7148 335.836H75.5352C75.5352 335.203 75.7578 334.594 76.2031 334.008C76.6562 333.414 77.2656 332.945 78.0312 332.602C78.8047 332.258 79.6523 332.086 80.5742 332.086C82.0352 332.086 83.1797 332.453 84.0078 333.188C84.8359 333.914 85.2656 334.918 85.2969 336.199V342.035C85.2969 343.199 85.4453 344.125 85.7422 344.812V345H83.4688ZM79.8711 343.348C80.5508 343.348 81.1953 343.172 81.8047 342.82C82.4141 342.469 82.8555 342.012 83.1289 341.449V338.848H81.4297C78.7734 338.848 77.4453 339.625 77.4453 341.18C77.4453 341.859 77.6719 342.391 78.125 342.773C78.5781 343.156 79.1602 343.348 79.8711 343.348ZM91.0508 345H88.8828V327H91.0508V345ZM99.793 345.234C98.0742 345.234 96.6758 344.672 95.5977 343.547C94.5195 342.414 93.9805 340.902 93.9805 339.012V338.613C93.9805 337.355 94.2188 336.234 94.6953 335.25C95.1797 334.258 95.8516 333.484 96.7109 332.93C97.5781 332.367 98.5156 332.086 99.5234 332.086C101.172 332.086 102.453 332.629 103.367 333.715C104.281 334.801 104.738 336.355 104.738 338.379V339.281H96.1484C96.1797 340.531 96.543 341.543 97.2383 342.316C97.9414 343.082 98.832 343.465 99.9102 343.465C100.676 343.465 101.324 343.309 101.855 342.996C102.387 342.684 102.852 342.27 103.25 341.754L104.574 342.785C103.512 344.418 101.918 345.234 99.793 345.234ZM99.5234 333.867C98.6484 333.867 97.9141 334.188 97.3203 334.828C96.7266 335.461 96.3594 336.352 96.2188 337.5H102.57V337.336C102.508 336.234 102.211 335.383 101.68 334.781C101.148 334.172 100.43 333.867 99.5234 333.867ZM126.676 337.02C126.676 338.691 126.395 340.152 125.832 341.402C125.27 342.645 124.473 343.594 123.441 344.25C122.41 344.906 121.207 345.234 119.832 345.234C118.488 345.234 117.297 344.906 116.258 344.25C115.219 343.586 114.41 342.645 113.832 341.426C113.262 340.199 112.969 338.781 112.953 337.172V335.941C112.953 334.301 113.238 332.852 113.809 331.594C114.379 330.336 115.184 329.375 116.223 328.711C117.27 328.039 118.465 327.703 119.809 327.703C121.176 327.703 122.379 328.035 123.418 328.699C124.465 329.355 125.27 330.312 125.832 331.57C126.395 332.82 126.676 334.277 126.676 335.941V337.02ZM124.438 335.918C124.438 333.895 124.031 332.344 123.219 331.266C122.406 330.18 121.27 329.637 119.809 329.637C118.387 329.637 117.266 330.18 116.445 331.266C115.633 332.344 115.215 333.844 115.191 335.766V337.02C115.191 338.98 115.602 340.523 116.422 341.648C117.25 342.766 118.387 343.324 119.832 343.324C121.285 343.324 122.41 342.797 123.207 341.742C124.004 340.68 124.414 339.16 124.438 337.184V335.918ZM135.84 334.266C135.512 334.211 135.156 334.184 134.773 334.184C133.352 334.184 132.387 334.789 131.879 336V345H129.711V332.32H131.82L131.855 333.785C132.566 332.652 133.574 332.086 134.879 332.086C135.301 332.086 135.621 332.141 135.84 332.25V334.266ZM145.203 345C145.078 344.75 144.977 344.305 144.898 343.664C143.891 344.711 142.688 345.234 141.289 345.234C140.039 345.234 139.012 344.883 138.207 344.18C137.41 343.469 137.012 342.57 137.012 341.484C137.012 340.164 137.512 339.141 138.512 338.414C139.52 337.68 140.934 337.312 142.754 337.312H144.863V336.316C144.863 335.559 144.637 334.957 144.184 334.512C143.73 334.059 143.062 333.832 142.18 333.832C141.406 333.832 140.758 334.027 140.234 334.418C139.711 334.809 139.449 335.281 139.449 335.836H137.27C137.27 335.203 137.492 334.594 137.938 334.008C138.391 333.414 139 332.945 139.766 332.602C140.539 332.258 141.387 332.086 142.309 332.086C143.77 332.086 144.914 332.453 145.742 333.188C146.57 333.914 147 334.918 147.031 336.199V342.035C147.031 343.199 147.18 344.125 147.477 344.812V345H145.203ZM141.605 343.348C142.285 343.348 142.93 343.172 143.539 342.82C144.148 342.469 144.59 342.012 144.863 341.449V338.848H143.164C140.508 338.848 139.18 339.625 139.18 341.18C139.18 341.859 139.406 342.391 139.859 342.773C140.312 343.156 140.895 343.348 141.605 343.348ZM152.48 332.32L152.551 333.914C153.52 332.695 154.785 332.086 156.348 332.086C159.027 332.086 160.379 333.598 160.402 336.621V345H158.234V336.609C158.227 335.695 158.016 335.02 157.602 334.582C157.195 334.145 156.559 333.926 155.691 333.926C154.988 333.926 154.371 334.113 153.84 334.488C153.309 334.863 152.895 335.355 152.598 335.965V345H150.43V332.32H152.48ZM163.156 338.555C163.156 336.578 163.613 335.008 164.527 333.844C165.441 332.672 166.652 332.086 168.16 332.086C169.707 332.086 170.914 332.633 171.781 333.727L171.887 332.32H173.867V344.695C173.867 346.336 173.379 347.629 172.402 348.574C171.434 349.52 170.129 349.992 168.488 349.992C167.574 349.992 166.68 349.797 165.805 349.406C164.93 349.016 164.262 348.48 163.801 347.801L164.926 346.5C165.855 347.648 166.992 348.223 168.336 348.223C169.391 348.223 170.211 347.926 170.797 347.332C171.391 346.738 171.688 345.902 171.688 344.824V343.734C170.82 344.734 169.637 345.234 168.137 345.234C166.652 345.234 165.449 344.637 164.527 343.441C163.613 342.246 163.156 340.617 163.156 338.555ZM165.336 338.801C165.336 340.23 165.629 341.355 166.215 342.176C166.801 342.988 167.621 343.395 168.676 343.395C170.043 343.395 171.047 342.773 171.688 341.531V335.742C171.023 334.531 170.027 333.926 168.699 333.926C167.645 333.926 166.82 334.336 166.227 335.156C165.633 335.977 165.336 337.191 165.336 338.801ZM182.41 345.234C180.691 345.234 179.293 344.672 178.215 343.547C177.137 342.414 176.598 340.902 176.598 339.012V338.613C176.598 337.355 176.836 336.234 177.312 335.25C177.797 334.258 178.469 333.484 179.328 332.93C180.195 332.367 181.133 332.086 182.141 332.086C183.789 332.086 185.07 332.629 185.984 333.715C186.898 334.801 187.355 336.355 187.355 338.379V339.281H178.766C178.797 340.531 179.16 341.543 179.855 342.316C180.559 343.082 181.449 343.465 182.527 343.465C183.293 343.465 183.941 343.309 184.473 342.996C185.004 342.684 185.469 342.27 185.867 341.754L187.191 342.785C186.129 344.418 184.535 345.234 182.41 345.234ZM182.141 333.867C181.266 333.867 180.531 334.188 179.938 334.828C179.344 335.461 178.977 336.352 178.836 337.5H185.188V337.336C185.125 336.234 184.828 335.383 184.297 334.781C183.766 334.172 183.047 333.867 182.141 333.867Z" fill="#5B302F"/>
<path d="M474.105 337.02C474.105 338.691 473.824 340.152 473.262 341.402C472.699 342.645 471.902 343.594 470.871 344.25C469.84 344.906 468.637 345.234 467.262 345.234C465.918 345.234 464.727 344.906 463.688 344.25C462.648 343.586 461.84 342.645 461.262 341.426C460.691 340.199 460.398 338.781 460.383 337.172V335.941C460.383 334.301 460.668 332.852 461.238 331.594C461.809 330.336 462.613 329.375 463.652 328.711C464.699 328.039 465.895 327.703 467.238 327.703C468.605 327.703 469.809 328.035 470.848 328.699C471.895 329.355 472.699 330.312 473.262 331.57C473.824 332.82 474.105 334.277 474.105 335.941V337.02ZM471.867 335.918C471.867 333.895 471.461 332.344 470.648 331.266C469.836 330.18 468.699 329.637 467.238 329.637C465.816 329.637 464.695 330.18 463.875 331.266C463.062 332.344 462.645 333.844 462.621 335.766V337.02C462.621 338.98 463.031 340.523 463.852 341.648C464.68 342.766 465.816 343.324 467.262 343.324C468.715 343.324 469.84 342.797 470.637 341.742C471.434 340.68 471.844 339.16 471.867 337.184V335.918ZM483.27 334.266C482.941 334.211 482.586 334.184 482.203 334.184C480.781 334.184 479.816 334.789 479.309 336V345H477.141V332.32H479.25L479.285 333.785C479.996 332.652 481.004 332.086 482.309 332.086C482.73 332.086 483.051 332.141 483.27 332.25V334.266ZM492.633 345C492.508 344.75 492.406 344.305 492.328 343.664C491.32 344.711 490.117 345.234 488.719 345.234C487.469 345.234 486.441 344.883 485.637 344.18C484.84 343.469 484.441 342.57 484.441 341.484C484.441 340.164 484.941 339.141 485.941 338.414C486.949 337.68 488.363 337.312 490.184 337.312H492.293V336.316C492.293 335.559 492.066 334.957 491.613 334.512C491.16 334.059 490.492 333.832 489.609 333.832C488.836 333.832 488.188 334.027 487.664 334.418C487.141 334.809 486.879 335.281 486.879 335.836H484.699C484.699 335.203 484.922 334.594 485.367 334.008C485.82 333.414 486.43 332.945 487.195 332.602C487.969 332.258 488.816 332.086 489.738 332.086C491.199 332.086 492.344 332.453 493.172 333.188C494 333.914 494.43 334.918 494.461 336.199V342.035C494.461 343.199 494.609 344.125 494.906 344.812V345H492.633ZM489.035 343.348C489.715 343.348 490.359 343.172 490.969 342.82C491.578 342.469 492.02 342.012 492.293 341.449V338.848H490.594C487.938 338.848 486.609 339.625 486.609 341.18C486.609 341.859 486.836 342.391 487.289 342.773C487.742 343.156 488.324 343.348 489.035 343.348ZM499.91 332.32L499.98 333.914C500.949 332.695 502.215 332.086 503.777 332.086C506.457 332.086 507.809 333.598 507.832 336.621V345H505.664V336.609C505.656 335.695 505.445 335.02 505.031 334.582C504.625 334.145 503.988 333.926 503.121 333.926C502.418 333.926 501.801 334.113 501.27 334.488C500.738 334.863 500.324 335.355 500.027 335.965V345H497.859V332.32H499.91ZM510.586 338.555C510.586 336.578 511.043 335.008 511.957 333.844C512.871 332.672 514.082 332.086 515.59 332.086C517.137 332.086 518.344 332.633 519.211 333.727L519.316 332.32H521.297V344.695C521.297 346.336 520.809 347.629 519.832 348.574C518.863 349.52 517.559 349.992 515.918 349.992C515.004 349.992 514.109 349.797 513.234 349.406C512.359 349.016 511.691 348.48 511.23 347.801L512.355 346.5C513.285 347.648 514.422 348.223 515.766 348.223C516.82 348.223 517.641 347.926 518.227 347.332C518.82 346.738 519.117 345.902 519.117 344.824V343.734C518.25 344.734 517.066 345.234 515.566 345.234C514.082 345.234 512.879 344.637 511.957 343.441C511.043 342.246 510.586 340.617 510.586 338.555ZM512.766 338.801C512.766 340.23 513.059 341.355 513.645 342.176C514.23 342.988 515.051 343.395 516.105 343.395C517.473 343.395 518.477 342.773 519.117 341.531V335.742C518.453 334.531 517.457 333.926 516.129 333.926C515.074 333.926 514.25 334.336 513.656 335.156C513.062 335.977 512.766 337.191 512.766 338.801ZM529.84 345.234C528.121 345.234 526.723 344.672 525.645 343.547C524.566 342.414 524.027 340.902 524.027 339.012V338.613C524.027 337.355 524.266 336.234 524.742 335.25C525.227 334.258 525.898 333.484 526.758 332.93C527.625 332.367 528.562 332.086 529.57 332.086C531.219 332.086 532.5 332.629 533.414 333.715C534.328 334.801 534.785 336.355 534.785 338.379V339.281H526.195C526.227 340.531 526.59 341.543 527.285 342.316C527.988 343.082 528.879 343.465 529.957 343.465C530.723 343.465 531.371 343.309 531.902 342.996C532.434 342.684 532.898 342.27 533.297 341.754L534.621 342.785C533.559 344.418 531.965 345.234 529.84 345.234ZM529.57 333.867C528.695 333.867 527.961 334.188 527.367 334.828C526.773 335.461 526.406 336.352 526.266 337.5H532.617V337.336C532.555 336.234 532.258 335.383 531.727 334.781C531.195 334.172 530.477 333.867 529.57 333.867Z" fill="#513527"/>
<path d="M66.0078 538.395C64.0781 537.84 62.6719 537.16 61.7891 536.355C60.9141 535.543 60.4766 534.543 60.4766 533.355C60.4766 532.012 61.0117 530.902 62.082 530.027C63.1602 529.145 64.5586 528.703 66.2773 528.703C67.4492 528.703 68.4922 528.93 69.4062 529.383C70.3281 529.836 71.0391 530.461 71.5391 531.258C72.0469 532.055 72.3008 532.926 72.3008 533.871H70.0391C70.0391 532.84 69.7109 532.031 69.0547 531.445C68.3984 530.852 67.4727 530.555 66.2773 530.555C65.168 530.555 64.3008 530.801 63.6758 531.293C63.0586 531.777 62.75 532.453 62.75 533.32C62.75 534.016 63.043 534.605 63.6289 535.09C64.2227 535.566 65.2266 536.004 66.6406 536.402C68.0625 536.801 69.1719 537.242 69.9688 537.727C70.7734 538.203 71.3672 538.762 71.75 539.402C72.1406 540.043 72.3359 540.797 72.3359 541.664C72.3359 543.047 71.7969 544.156 70.7188 544.992C69.6406 545.82 68.1992 546.234 66.3945 546.234C65.2227 546.234 64.1289 546.012 63.1133 545.566C62.0977 545.113 61.3125 544.496 60.7578 543.715C60.2109 542.934 59.9375 542.047 59.9375 541.055H62.1992C62.1992 542.086 62.5781 542.902 63.3359 543.504C64.1016 544.098 65.1211 544.395 66.3945 544.395C67.582 544.395 68.4922 544.152 69.125 543.668C69.7578 543.184 70.0742 542.523 70.0742 541.688C70.0742 540.852 69.7812 540.207 69.1953 539.754C68.6094 539.293 67.5469 538.84 66.0078 538.395ZM82.7188 546C82.5938 545.75 82.4922 545.305 82.4141 544.664C81.4062 545.711 80.2031 546.234 78.8047 546.234C77.5547 546.234 76.5273 545.883 75.7227 545.18C74.9258 544.469 74.5273 543.57 74.5273 542.484C74.5273 541.164 75.0273 540.141 76.0273 539.414C77.0352 538.68 78.4492 538.312 80.2695 538.312H82.3789V537.316C82.3789 536.559 82.1523 535.957 81.6992 535.512C81.2461 535.059 80.5781 534.832 79.6953 534.832C78.9219 534.832 78.2734 535.027 77.75 535.418C77.2266 535.809 76.9648 536.281 76.9648 536.836H74.7852C74.7852 536.203 75.0078 535.594 75.4531 535.008C75.9062 534.414 76.5156 533.945 77.2812 533.602C78.0547 533.258 78.9023 533.086 79.8242 533.086C81.2852 533.086 82.4297 533.453 83.2578 534.188C84.0859 534.914 84.5156 535.918 84.5469 537.199V543.035C84.5469 544.199 84.6953 545.125 84.9922 545.812V546H82.7188ZM79.1211 544.348C79.8008 544.348 80.4453 544.172 81.0547 543.82C81.6641 543.469 82.1055 543.012 82.3789 542.449V539.848H80.6797C78.0234 539.848 76.6953 540.625 76.6953 542.18C76.6953 542.859 76.9219 543.391 77.375 543.773C77.8281 544.156 78.4102 544.348 79.1211 544.348ZM89.9961 533.32L90.0664 534.914C91.0352 533.695 92.3008 533.086 93.8633 533.086C96.543 533.086 97.8945 534.598 97.918 537.621V546H95.75V537.609C95.7422 536.695 95.5312 536.02 95.1172 535.582C94.7109 535.145 94.0742 534.926 93.207 534.926C92.5039 534.926 91.8867 535.113 91.3555 535.488C90.8242 535.863 90.4102 536.355 90.1133 536.965V546H87.9453V533.32H89.9961ZM100.66 539.555C100.66 537.609 101.121 536.047 102.043 534.867C102.965 533.68 104.172 533.086 105.664 533.086C107.148 533.086 108.324 533.594 109.191 534.609V528H111.359V546H109.367L109.262 544.641C108.395 545.703 107.188 546.234 105.641 546.234C104.172 546.234 102.973 545.633 102.043 544.43C101.121 543.227 100.66 541.656 100.66 539.719V539.555ZM102.828 539.801C102.828 541.238 103.125 542.363 103.719 543.176C104.312 543.988 105.133 544.395 106.18 544.395C107.555 544.395 108.559 543.777 109.191 542.543V536.719C108.543 535.523 107.547 534.926 106.203 534.926C105.141 534.926 104.312 535.336 103.719 536.156C103.125 536.977 102.828 538.191 102.828 539.801ZM126.23 537.504L130.684 528.938H133.238L127.355 539.637V546H125.105V539.637L119.223 528.938H121.801L126.23 537.504ZM139.59 546.234C137.871 546.234 136.473 545.672 135.395 544.547C134.316 543.414 133.777 541.902 133.777 540.012V539.613C133.777 538.355 134.016 537.234 134.492 536.25C134.977 535.258 135.648 534.484 136.508 533.93C137.375 533.367 138.312 533.086 139.32 533.086C140.969 533.086 142.25 533.629 143.164 534.715C144.078 535.801 144.535 537.355 144.535 539.379V540.281H135.945C135.977 541.531 136.34 542.543 137.035 543.316C137.738 544.082 138.629 544.465 139.707 544.465C140.473 544.465 141.121 544.309 141.652 543.996C142.184 543.684 142.648 543.27 143.047 542.754L144.371 543.785C143.309 545.418 141.715 546.234 139.59 546.234ZM139.32 534.867C138.445 534.867 137.711 535.188 137.117 535.828C136.523 536.461 136.156 537.352 136.016 538.5H142.367V538.336C142.305 537.234 142.008 536.383 141.477 535.781C140.945 535.172 140.227 534.867 139.32 534.867ZM149.41 546H147.242V528H149.41V546ZM155.246 546H153.078V528H155.246V546ZM158.152 539.543C158.152 538.301 158.395 537.184 158.879 536.191C159.371 535.199 160.051 534.434 160.918 533.895C161.793 533.355 162.789 533.086 163.906 533.086C165.633 533.086 167.027 533.684 168.09 534.879C169.16 536.074 169.695 537.664 169.695 539.648V539.801C169.695 541.035 169.457 542.145 168.98 543.129C168.512 544.105 167.836 544.867 166.953 545.414C166.078 545.961 165.07 546.234 163.93 546.234C162.211 546.234 160.816 545.637 159.746 544.441C158.684 543.246 158.152 541.664 158.152 539.695V539.543ZM160.332 539.801C160.332 541.207 160.656 542.336 161.305 543.188C161.961 544.039 162.836 544.465 163.93 544.465C165.031 544.465 165.906 544.035 166.555 543.176C167.203 542.309 167.527 541.098 167.527 539.543C167.527 538.152 167.195 537.027 166.531 536.168C165.875 535.301 165 534.867 163.906 534.867C162.836 534.867 161.973 535.293 161.316 536.145C160.66 536.996 160.332 538.215 160.332 539.801ZM183.641 543.012L186.078 533.32H188.246L184.555 546H182.797L179.715 536.391L176.715 546H174.957L171.277 533.32H173.434L175.93 542.812L178.883 533.32H180.629L183.641 543.012Z" fill="#575430"/>
<path d="M60.9805 704V686.938H66.5586C68.4102 686.938 69.8008 687.32 70.7305 688.086C71.668 688.852 72.1367 689.984 72.1367 691.484C72.1367 692.281 71.9102 692.988 71.457 693.605C71.0039 694.215 70.3867 694.688 69.6055 695.023C70.5273 695.281 71.2539 695.773 71.7852 696.5C72.3242 697.219 72.5938 698.078 72.5938 699.078C72.5938 700.609 72.0977 701.812 71.1055 702.688C70.1133 703.562 68.7109 704 66.8984 704H60.9805ZM63.2305 696.02V702.16H66.9453C67.9922 702.16 68.8164 701.891 69.418 701.352C70.0273 700.805 70.332 700.055 70.332 699.102C70.332 697.047 69.2148 696.02 66.9805 696.02H63.2305ZM63.2305 694.215H66.6289C67.6133 694.215 68.3984 693.969 68.9844 693.477C69.5781 692.984 69.875 692.316 69.875 691.473C69.875 690.535 69.6016 689.855 69.0547 689.434C68.5078 689.004 67.6758 688.789 66.5586 688.789H63.2305V694.215ZM77.9492 704H75.7812V686H77.9492V704ZM89.2578 704C89.1328 703.75 89.0312 703.305 88.9531 702.664C87.9453 703.711 86.7422 704.234 85.3438 704.234C84.0938 704.234 83.0664 703.883 82.2617 703.18C81.4648 702.469 81.0664 701.57 81.0664 700.484C81.0664 699.164 81.5664 698.141 82.5664 697.414C83.5742 696.68 84.9883 696.312 86.8086 696.312H88.918V695.316C88.918 694.559 88.6914 693.957 88.2383 693.512C87.7852 693.059 87.1172 692.832 86.2344 692.832C85.4609 692.832 84.8125 693.027 84.2891 693.418C83.7656 693.809 83.5039 694.281 83.5039 694.836H81.3242C81.3242 694.203 81.5469 693.594 81.9922 693.008C82.4453 692.414 83.0547 691.945 83.8203 691.602C84.5938 691.258 85.4414 691.086 86.3633 691.086C87.8242 691.086 88.9688 691.453 89.7969 692.188C90.625 692.914 91.0547 693.918 91.0859 695.199V701.035C91.0859 702.199 91.2344 703.125 91.5312 703.812V704H89.2578ZM85.6602 702.348C86.3398 702.348 86.9844 702.172 87.5938 701.82C88.2031 701.469 88.6445 701.012 88.918 700.449V697.848H87.2188C84.5625 697.848 83.2344 698.625 83.2344 700.18C83.2344 700.859 83.4609 701.391 83.9141 701.773C84.3672 702.156 84.9492 702.348 85.6602 702.348ZM99.5703 702.465C100.344 702.465 101.02 702.23 101.598 701.762C102.176 701.293 102.496 700.707 102.559 700.004H104.609C104.57 700.73 104.32 701.422 103.859 702.078C103.398 702.734 102.781 703.258 102.008 703.648C101.242 704.039 100.43 704.234 99.5703 704.234C97.8438 704.234 96.4688 703.66 95.4453 702.512C94.4297 701.355 93.9219 699.777 93.9219 697.777V697.414C93.9219 696.18 94.1484 695.082 94.6016 694.121C95.0547 693.16 95.7031 692.414 96.5469 691.883C97.3984 691.352 98.4023 691.086 99.5586 691.086C100.98 691.086 102.16 691.512 103.098 692.363C104.043 693.215 104.547 694.32 104.609 695.68H102.559C102.496 694.859 102.184 694.188 101.621 693.664C101.066 693.133 100.379 692.867 99.5586 692.867C98.457 692.867 97.6016 693.266 96.9922 694.062C96.3906 694.852 96.0898 695.996 96.0898 697.496V697.906C96.0898 699.367 96.3906 700.492 96.9922 701.281C97.5938 702.07 98.4531 702.465 99.5703 702.465ZM110.586 698.129L109.227 699.547V704H107.059V686H109.227V696.887L110.387 695.492L114.336 691.32H116.973L112.039 696.617L117.547 704H115.004L110.586 698.129Z" fill="#D9D9D9"/>
<path d="M522.66 698.621L522.988 700.871L523.469 698.844L526.844 686.938H528.742L532.035 698.844L532.504 700.906L532.867 698.609L535.516 686.938H537.777L533.641 704H531.59L528.074 691.566L527.805 690.266L527.535 691.566L523.891 704H521.84L517.715 686.938H519.965L522.66 698.621ZM542.113 692.855C543.074 691.676 544.324 691.086 545.863 691.086C548.543 691.086 549.895 692.598 549.918 695.621V704H547.75V695.609C547.742 694.695 547.531 694.02 547.117 693.582C546.711 693.145 546.074 692.926 545.207 692.926C544.504 692.926 543.887 693.113 543.355 693.488C542.824 693.863 542.41 694.355 542.113 694.965V704H539.945V686H542.113V692.855ZM555.52 704H553.352V691.32H555.52V704ZM553.176 687.957C553.176 687.605 553.281 687.309 553.492 687.066C553.711 686.824 554.031 686.703 554.453 686.703C554.875 686.703 555.195 686.824 555.414 687.066C555.633 687.309 555.742 687.605 555.742 687.957C555.742 688.309 555.633 688.602 555.414 688.836C555.195 689.07 554.875 689.188 554.453 689.188C554.031 689.188 553.711 689.07 553.492 688.836C553.281 688.602 553.176 688.309 553.176 687.957ZM561.941 688.25V691.32H564.309V692.996H561.941V700.859C561.941 701.367 562.047 701.75 562.258 702.008C562.469 702.258 562.828 702.383 563.336 702.383C563.586 702.383 563.93 702.336 564.367 702.242V704C563.797 704.156 563.242 704.234 562.703 704.234C561.734 704.234 561.004 703.941 560.512 703.355C560.02 702.77 559.773 701.938 559.773 700.859V692.996H557.465V691.32H559.773V688.25H561.941ZM572.113 704.234C570.395 704.234 568.996 703.672 567.918 702.547C566.84 701.414 566.301 699.902 566.301 698.012V697.613C566.301 696.355 566.539 695.234 567.016 694.25C567.5 693.258 568.172 692.484 569.031 691.93C569.898 691.367 570.836 691.086 571.844 691.086C573.492 691.086 574.773 691.629 575.688 692.715C576.602 693.801 577.059 695.355 577.059 697.379V698.281H568.469C568.5 699.531 568.863 700.543 569.559 701.316C570.262 702.082 571.152 702.465 572.23 702.465C572.996 702.465 573.645 702.309 574.176 701.996C574.707 701.684 575.172 701.27 575.57 700.754L576.895 701.785C575.832 703.418 574.238 704.234 572.113 704.234ZM571.844 692.867C570.969 692.867 570.234 693.188 569.641 693.828C569.047 694.461 568.68 695.352 568.539 696.5H574.891V696.336C574.828 695.234 574.531 694.383 574 693.781C573.469 693.172 572.75 692.867 571.844 692.867Z" fill="#8E8E8E"/>
<defs>
<filter id="filter0_d" x="0" y="598" width="469" height="144" filterUnits="userSpaceOnUse" color-interpolation-filters="sRGB">
<feFlood flood-opacity="0" result="BackgroundImageFix"/>
<feColorMatrix in="SourceAlpha" type="matrix" values="0 0 0 0 0 0 0 0 0 0 0 0 0 0 0 0 0 0 127 0"/>
<feOffset dy="4"/>
<feGaussianBlur stdDeviation="2"/>
<feColorMatrix type="matrix" values="0 0 0 0 0 0 0 0 0 0 0 0 0 0 0 0 0 0 0.25 0"/>
<feBlend mode="normal" in2="BackgroundImageFix" result="effect1_dropShadow"/>
<feBlend mode="normal" in="SourceGraphic" in2="effect1_dropShadow" result="shape"/>
</filter>
<filter id="filter1_d" x="0" y="0" width="836" height="152" filterUnits="userSpaceOnUse" color-interpolation-filters="sRGB">
<feFlood flood-opacity="0" result="BackgroundImageFix"/>
<feColorMatrix in="SourceAlpha" type="matrix" values="0 0 0 0 0 0 0 0 0 0 0 0 0 0 0 0 0 0 127 0"/>
<feOffset dy="4"/>
<feGaussianBlur stdDeviation="2"/>
<feColorMatrix type="matrix" values="0 0 0 0 0 0 0 0 0 0 0 0 0 0 0 0 0 0 0.25 0"/>
<feBlend mode="normal" in2="BackgroundImageFix" result="effect1_dropShadow"/>
<feBlend mode="normal" in="SourceGraphic" in2="effect1_dropShadow" result="shape"/>
</filter>
<filter id="filter2_d" x="230" y="144" width="606" height="462" filterUnits="userSpaceOnUse" color-interpolation-filters="sRGB">
<feFlood flood-opacity="0" result="BackgroundImageFix"/>
<feColorMatrix in="SourceAlpha" type="matrix" values="0 0 0 0 0 0 0 0 0 0 0 0 0 0 0 0 0 0 127 0"/>
<feOffset dy="4"/>
<feGaussianBlur stdDeviation="2"/>
<feColorMatrix type="matrix" values="0 0 0 0 0 0 0 0 0 0 0 0 0 0 0 0 0 0 0.25 0"/>
<feBlend mode="normal" in2="BackgroundImageFix" result="effect1_dropShadow"/>
<feBlend mode="normal" in="SourceGraphic" in2="effect1_dropShadow" result="shape"/>
</filter>
<filter id="filter3_d" x="0" y="144" width="416" height="317" filterUnits="userSpaceOnUse" color-interpolation-filters="sRGB">
<feFlood flood-opacity="0" result="BackgroundImageFix"/>
<feColorMatrix in="SourceAlpha" type="matrix" values="0 0 0 0 0 0 0 0 0 0 0 0 0 0 0 0 0 0 127 0"/>
<feOffset dy="4"/>
<feGaussianBlur stdDeviation="2"/>
<feColorMatrix type="matrix" values="0 0 0 0 0 0 0 0 0 0 0 0 0 0 0 0 0 0 0.25 0"/>
<feBlend mode="normal" in2="BackgroundImageFix" result="effect1_dropShadow"/>
<feBlend mode="normal" in="SourceGraphic" in2="effect1_dropShadow" result="shape"/>
</filter>
<filter id="filter4_d" x="461" y="598" width="375" height="144" filterUnits="userSpaceOnUse" color-interpolation-filters="sRGB">
<feFlood flood-opacity="0" result="BackgroundImageFix"/>
<feColorMatrix in="SourceAlpha" type="matrix" values="0 0 0 0 0 0 0 0 0 0 0 0 0 0 0 0 0 0 127 0"/>
<feOffset dy="4"/>
<feGaussianBlur stdDeviation="2"/>
<feColorMatrix type="matrix" values="0 0 0 0 0 0 0 0 0 0 0 0 0 0 0 0 0 0 0.25 0"/>
<feBlend mode="normal" in2="BackgroundImageFix" result="effect1_dropShadow"/>
<feBlend mode="normal" in="SourceGraphic" in2="effect1_dropShadow" result="shape"/>
</filter>
</defs>
</svg>
