<svg width="178" height="178" viewBox="0 0 178 178" fill="none" xmlns="http://www.w3.org/2000/svg">
<path d="M91.0421 128.897C113.753 128.897 132.203 111.16 132.989 89.0001C132.203 66.8404 113.753 49.1035 91.0421 49.1035C68.3343 49.1035 49.8782 66.8404 49.1035 89.0001C49.8756 111.16 68.3317 128.897 91.0421 128.897Z" fill="#505050"/>
<path d="M91.0858 27.8125C57.2936 27.8125 29.8955 55.2078 29.8955 89C29.8955 122.789 57.2964 150.188 91.0858 150.188C124.875 150.188 152.273 122.789 152.273 89C152.273 55.2078 124.875 27.8125 91.0858 27.8125ZM91.083 133.5C66.5051 133.5 46.5802 114.251 46.5802 90.4991C46.5802 89.9929 46.6498 89.5006 46.6664 89C46.6498 88.4994 46.5802 88.0043 46.5802 87.5009C46.5802 63.749 66.5079 44.5 91.083 44.5C115.661 44.5 135.583 63.749 135.583 87.5009C135.583 88.0043 135.525 88.4994 135.511 89C135.527 89.5006 135.583 89.9929 135.583 90.4991C135.58 114.251 115.661 133.5 91.083 133.5Z" fill="#505050"/>
<path d="M9.68174 20.6399C10.3492 18.0228 11.6703 20.6093 11.6703 20.6093C11.6703 20.6093 12.132 47.6987 15.1358 47.9935C18.1395 48.2883 15.8255 20.1198 19.38 19.5803C22.6841 19.0546 20.7984 48.4413 23.8077 48.1437C26.8059 47.8266 27.3121 20.7484 27.3121 20.7484C27.3121 20.7484 28.6471 18.1646 29.3062 20.7623C37.4497 52.7745 30.861 65.8603 30.861 65.8603C30.861 65.8603 29.7485 68.6109 27.1063 68.6248C26.8587 68.6109 27.0451 144.653 27.0284 154.877C27.034 159.847 11.7315 159.694 11.7399 154.746C11.751 144.522 12.0486 68.4885 11.8094 68.4941C9.15887 68.4941 8.04915 65.7462 8.04915 65.7462C8.04915 65.7462 1.4854 52.6688 9.68174 20.6399Z" fill="#505050"/>
<path d="M154.693 19.4688C158.136 19.4604 172.421 29.7594 172.438 68.0349C172.454 80.2752 165.776 80.2724 165.788 87.9292C165.799 95.5721 165.84 156.365 165.84 156.365C165.84 156.365 158.515 161.39 153.069 156.131L152.969 20.5562C152.974 20.559 152.955 19.466 154.693 19.4688Z" fill="#505050"/>
</svg>
