<svg width="173" height="193" viewBox="0 0 173 193" fill="none" xmlns="http://www.w3.org/2000/svg">
<g clip-path="url(#clip0)">
<path d="M41.312 166L35.552 157.9C34.904 157.972 34.232 158.008 33.536 158.008H26.768V166H24.104V140.8H33.536C36.752 140.8 39.272 141.568 41.096 143.104C42.92 144.64 43.832 146.752 43.832 149.44C43.832 151.408 43.328 153.076 42.32 154.444C41.336 155.788 39.92 156.76 38.072 157.36L44.228 166H41.312ZM33.464 155.74C35.96 155.74 37.868 155.188 39.188 154.084C40.508 152.98 41.168 151.432 41.168 149.44C41.168 147.4 40.508 145.84 39.188 144.76C37.868 143.656 35.96 143.104 33.464 143.104H26.768V155.74H33.464ZM49.5796 147.064H52.1356V166H49.5796V147.064ZM50.8756 142.924C50.3476 142.924 49.9036 142.744 49.5436 142.384C49.1836 142.024 49.0036 141.592 49.0036 141.088C49.0036 140.608 49.1836 140.188 49.5436 139.828C49.9036 139.468 50.3476 139.288 50.8756 139.288C51.4036 139.288 51.8476 139.468 52.2076 139.828C52.5676 140.164 52.7476 140.572 52.7476 141.052C52.7476 141.58 52.5676 142.024 52.2076 142.384C51.8476 142.744 51.4036 142.924 50.8756 142.924ZM64.3236 166.18C62.7876 166.18 61.3116 165.964 59.8956 165.532C58.5036 165.076 57.4116 164.512 56.6196 163.84L57.7716 161.824C58.5636 162.448 59.5596 162.964 60.7596 163.372C61.9596 163.756 63.2076 163.948 64.5036 163.948C66.2316 163.948 67.5036 163.684 68.3196 163.156C69.1596 162.604 69.5796 161.836 69.5796 160.852C69.5796 160.156 69.3516 159.616 68.8956 159.232C68.4396 158.824 67.8636 158.524 67.1676 158.332C66.4716 158.116 65.5476 157.912 64.3956 157.72C62.8596 157.432 61.6236 157.144 60.6876 156.856C59.7516 156.544 58.9476 156.028 58.2756 155.308C57.6276 154.588 57.3036 153.592 57.3036 152.32C57.3036 150.736 57.9636 149.44 59.2836 148.432C60.6036 147.424 62.4396 146.92 64.7916 146.92C66.0156 146.92 67.2396 147.088 68.4636 147.424C69.6876 147.736 70.6956 148.156 71.4876 148.684L70.3716 150.736C68.8116 149.656 66.9516 149.116 64.7916 149.116C63.1596 149.116 61.9236 149.404 61.0836 149.98C60.2676 150.556 59.8596 151.312 59.8596 152.248C59.8596 152.968 60.0876 153.544 60.5436 153.976C61.0236 154.408 61.6116 154.732 62.3076 154.948C63.0036 155.14 63.9636 155.344 65.1876 155.56C66.6996 155.848 67.9116 156.136 68.8236 156.424C69.7356 156.712 70.5156 157.204 71.1636 157.9C71.8116 158.596 72.1356 159.556 72.1356 160.78C72.1356 162.436 71.4396 163.756 70.0476 164.74C68.6796 165.7 66.7716 166.18 64.3236 166.18ZM93.3489 157.324H77.5089C77.6529 159.292 78.4089 160.888 79.7769 162.112C81.1449 163.312 82.8729 163.912 84.9609 163.912C86.1369 163.912 87.2169 163.708 88.2009 163.3C89.1849 162.868 90.0369 162.244 90.7569 161.428L92.1969 163.084C91.3569 164.092 90.3009 164.86 89.0289 165.388C87.7809 165.916 86.4009 166.18 84.8889 166.18C82.9449 166.18 81.2169 165.772 79.7049 164.956C78.2169 164.116 77.0529 162.964 76.2129 161.5C75.3729 160.036 74.9529 158.38 74.9529 156.532C74.9529 154.684 75.3489 153.028 76.1409 151.564C76.9569 150.1 78.0609 148.96 79.4529 148.144C80.8689 147.328 82.4529 146.92 84.2049 146.92C85.9569 146.92 87.5289 147.328 88.9209 148.144C90.3129 148.96 91.4049 150.1 92.1969 151.564C92.9889 153.004 93.3849 154.66 93.3849 156.532L93.3489 157.324ZM84.2049 149.116C82.3809 149.116 80.8449 149.704 79.5969 150.88C78.3729 152.032 77.6769 153.544 77.5089 155.416H90.9369C90.7689 153.544 90.0609 152.032 88.8129 150.88C87.5889 149.704 86.0529 149.116 84.2049 149.116ZM118.701 166.216C115.437 166.216 112.893 165.28 111.069 163.408C109.245 161.536 108.333 158.812 108.333 155.236V140.8H110.997V155.128C110.997 158.056 111.657 160.24 112.977 161.68C114.297 163.12 116.205 163.84 118.701 163.84C121.221 163.84 123.141 163.12 124.461 161.68C125.781 160.24 126.441 158.056 126.441 155.128V140.8H129.033V155.236C129.033 158.812 128.121 161.536 126.297 163.408C124.497 165.28 121.965 166.216 118.701 166.216ZM146.277 146.92C148.053 146.92 149.661 147.328 151.101 148.144C152.541 148.936 153.669 150.064 154.485 151.528C155.301 152.992 155.709 154.66 155.709 156.532C155.709 158.428 155.301 160.108 154.485 161.572C153.669 163.036 152.541 164.176 151.101 164.992C149.685 165.784 148.077 166.18 146.277 166.18C144.741 166.18 143.349 165.868 142.101 165.244C140.877 164.596 139.869 163.66 139.077 162.436V172.984H136.521V147.064H138.969V150.808C139.737 149.56 140.745 148.6 141.993 147.928C143.265 147.256 144.693 146.92 146.277 146.92ZM146.097 163.912C147.417 163.912 148.617 163.612 149.697 163.012C150.777 162.388 151.617 161.512 152.217 160.384C152.841 159.256 153.153 157.972 153.153 156.532C153.153 155.092 152.841 153.82 152.217 152.716C151.617 151.588 150.777 150.712 149.697 150.088C148.617 149.464 147.417 149.152 146.097 149.152C144.753 149.152 143.541 149.464 142.461 150.088C141.405 150.712 140.565 151.588 139.941 152.716C139.341 153.82 139.041 155.092 139.041 156.532C139.041 157.972 139.341 159.256 139.941 160.384C140.565 161.512 141.405 162.388 142.461 163.012C143.541 163.612 144.753 163.912 146.097 163.912Z" fill="#E67571"/>
<path d="M111.688 95.6465C124.417 90.1681 131.857 79.3012 131.857 64.5725C131.857 42.5692 102.904 31.7023 72.5166 31.7023L82.1078 48.0476C96.0016 48.0476 108.82 53.7954 108.82 64.5725C108.82 75.3496 101.828 81.726 88.0239 81.726H69.469V49.3947H76.9089L67.4969 34.3966L58.085 19.3984L48.6731 34.3966L39.3508 49.3947H46.7907V127.169H69.469V99.8675H90.3545L109.268 127.169H133.649L111.688 95.6465Z" fill="#E67571"/>
<path d="M171.207 1.70605H1.70312V191.221H171.207V1.70605Z" stroke="#E67571" stroke-width="3.88" stroke-miterlimit="10"/>
</g>
<defs>
<clipPath id="clip0">
<rect width="173" height="193" fill="white"/>
</clipPath>
</defs>
</svg>
