<svg width="137" height="116" viewBox="0 0 137 116" fill="none" xmlns="http://www.w3.org/2000/svg">
<g filter="url(#filter0_i)">
<path d="M68.5 0C30.671 0 0.000156324 30.2687 0.000156324 67.6369C-0.0356623 84.1375 6.08501 100.085 17.2165 112.495C17.5532 112.857 17.8586 113.22 18.1954 113.552C20.8926 116 21.7118 116 23.8524 116C25.993 116 27.4001 116 29.5407 113.524C38.8167 102.794 53.0875 98.1538 68.5 98.1538C83.9125 98.1538 98.2033 102.813 107.459 113.524C109.6 116 110.976 116 113.148 116C115.32 116 116.373 116 118.805 113.552C119.153 113.203 119.447 112.857 119.784 112.495C130.915 100.085 137.036 84.1375 137 67.6369C137 30.2687 106.329 0 68.5 0ZM63.9334 17.8462H73.0667V35.6923H63.9334V17.8462ZM36.5334 71.3846H18.2668V62.4615H36.5334V71.3846ZM42.667 47.995L29.7519 35.3744L36.208 29.0669L49.126 41.6847L42.667 47.995ZM74.9504 72.3327C74.3958 73.0837 73.7212 73.7427 72.9525 74.2846C71.0968 75.5494 68.8053 76.0482 66.5755 75.6726C64.3457 75.2971 62.3575 74.0776 61.0424 72.2787C59.7272 70.4799 59.1912 68.2469 59.5508 66.0644C59.9104 63.8819 61.1364 61.926 62.9629 60.6211L86.7666 49.0769L74.9504 72.3327ZM87.874 41.6847L100.792 29.0669L107.248 35.3744L94.333 47.995L87.874 41.6847ZM118.733 71.3846H100.467V62.4615H118.733V71.3846Z" fill="#505050"/>
</g>
<defs>
<filter id="filter0_i" x="0" y="0" width="137" height="120" filterUnits="userSpaceOnUse" color-interpolation-filters="sRGB">
<feFlood flood-opacity="0" result="BackgroundImageFix"/>
<feBlend mode="normal" in="SourceGraphic" in2="BackgroundImageFix" result="shape"/>
<feColorMatrix in="SourceAlpha" type="matrix" values="0 0 0 0 0 0 0 0 0 0 0 0 0 0 0 0 0 0 127 0" result="hardAlpha"/>
<feOffset dy="4"/>
<feGaussianBlur stdDeviation="2"/>
<feComposite in2="hardAlpha" operator="arithmetic" k2="-1" k3="1"/>
<feColorMatrix type="matrix" values="0 0 0 0 0 0 0 0 0 0 0 0 0 0 0 0 0 0 0.25 0"/>
<feBlend mode="normal" in2="shape" result="effect1_innerShadow"/>
</filter>
</defs>
</svg>
