<svg width="304" height="301" viewBox="0 0 304 301" fill="none" xmlns="http://www.w3.org/2000/svg">
<path d="M130.952 27.5166C72.7276 27.5166 25.854 73.9385 25.854 131.283C25.854 188.628 72.7276 235.05 130.952 235.05C189.176 235.05 236.05 188.628 236.05 131.283C236.05 73.9385 188.966 27.5166 130.952 27.5166Z" stroke="black" stroke-width="2.28" stroke-miterlimit="10"/>
<path d="M215.24 108.178C209.501 86.6076 195.509 68.1552 176.282 56.7993C157.054 45.4434 134.131 42.0936 112.454 47.4722" stroke="black" stroke-width="1.14" stroke-miterlimit="10"/>
<path d="M45.1919 154.6C56.5425 199.131 102.575 226.438 147.978 215.305" stroke="black" stroke-width="1.14" stroke-miterlimit="10"/>
<path d="M205.992 138.635C206.289 138.632 206.582 138.708 206.841 138.856C207.099 139.003 207.314 139.217 207.463 139.475C210.406 144.726 224.279 152.078 232.056 152.078L244.037 151.658H244.247L298.898 147.877C299.421 147.88 299.926 147.687 300.315 147.338C300.703 146.988 300.948 146.506 301 145.986V145.146C300.974 144.897 300.899 144.656 300.779 144.437C300.658 144.217 300.496 144.023 300.3 143.867C300.105 143.711 299.88 143.595 299.639 143.526C299.399 143.457 299.147 143.437 298.898 143.466H247.19C246.744 143.466 246.316 143.289 246.001 142.974C245.686 142.658 245.508 142.231 245.508 141.785V140.315C245.508 139.869 245.686 139.442 246.001 139.127C246.316 138.812 246.744 138.635 247.19 138.635H298.898C299.421 138.637 299.926 138.445 300.315 138.095C300.703 137.746 300.948 137.264 301 136.744V135.904C300.974 135.655 300.899 135.414 300.779 135.194C300.658 134.975 300.496 134.781 300.3 134.625C300.105 134.468 299.88 134.352 299.639 134.284C299.399 134.215 299.147 134.194 298.898 134.223H247.19C246.744 134.223 246.316 134.046 246.001 133.731C245.686 133.416 245.508 132.989 245.508 132.543V130.863C245.508 130.417 245.686 129.989 246.001 129.674C246.316 129.359 246.744 129.182 247.19 129.182H298.898C299.421 129.185 299.926 128.992 300.315 128.643C300.703 128.293 300.948 127.812 301 127.292V126.451C300.948 125.931 300.703 125.45 300.315 125.1C299.926 124.751 299.421 124.558 298.898 124.561H247.19C246.744 124.561 246.316 124.384 246.001 124.069C245.686 123.754 245.508 123.326 245.508 122.88V120.78C245.508 120.334 245.686 119.907 246.001 119.592C246.316 119.277 246.744 119.1 247.19 119.1H298.898C299.421 119.102 299.926 118.91 300.315 118.56C300.703 118.211 300.948 117.729 301 117.209V116.369C300.948 115.849 300.703 115.367 300.315 115.018C299.926 114.668 299.421 114.476 298.898 114.478L245.508 110.907H244.247L232.056 110.487C224.068 110.487 209.985 117.629 207.883 122.67C207.786 122.968 207.582 123.219 207.31 123.374C207.038 123.53 206.718 123.578 206.412 123.511L19.7584 120.57C9.03841 120.36 0 125.191 0 131.283C0 137.374 9.03841 142.205 19.7584 141.995L205.992 138.635Z" fill="#231F20"/>
<path d="M69.5684 285H58.2158L53.3574 272.256H50.1348V285H39.9053V251.675H57.3125C61.1536 251.675 64.1322 252.578 66.248 254.385C68.3802 256.175 69.4463 258.543 69.4463 261.489C69.4463 263.41 69.0557 265.111 68.2744 266.592C67.4932 268.057 65.9144 269.351 63.5381 270.474L69.5684 285ZM50.1348 265.127H54.5049C55.7907 265.127 56.8242 264.858 57.6055 264.321C58.3867 263.784 58.7773 262.995 58.7773 261.953C58.7773 259.821 57.4671 258.755 54.8467 258.755H50.1348V265.127ZM89.6562 251.675V285H79.4268V251.675H89.6562ZM97.0488 275.356L106.546 273.647C107.343 276.333 109.394 277.676 112.698 277.676C115.27 277.676 116.556 276.992 116.556 275.625C116.556 274.909 116.255 274.355 115.652 273.965C115.066 273.558 114.008 273.2 112.479 272.891C106.635 271.768 102.884 270.303 101.224 268.496C99.5635 266.689 98.7334 264.565 98.7334 262.124C98.7334 258.983 99.9215 256.37 102.298 254.287C104.69 252.204 108.125 251.162 112.601 251.162C119.388 251.162 123.872 253.888 126.053 259.341L117.581 261.904C116.702 259.674 114.92 258.56 112.234 258.56C110.005 258.56 108.89 259.251 108.89 260.635C108.89 261.253 109.142 261.733 109.646 262.075C110.151 262.417 111.128 262.743 112.576 263.052C116.564 263.898 119.396 264.647 121.072 265.298C122.749 265.949 124.148 267.064 125.271 268.643C126.395 270.205 126.956 272.052 126.956 274.185C126.956 277.554 125.589 280.288 122.854 282.388C120.12 284.471 116.531 285.513 112.088 285.513C103.966 285.513 98.9531 282.127 97.0488 275.356ZM160.936 277.041V285H135.862V251.675H160.936V259.365H145.896V264.199H158.055V271.597H145.896V277.041H160.936ZM214.539 251.675V273.745C214.539 277.928 213.294 280.939 210.804 282.778C208.33 284.601 205.099 285.513 201.111 285.513C196.912 285.513 193.535 284.634 190.979 282.876C188.44 281.118 187.171 278.254 187.171 274.282V251.675H197.571V273.086C197.571 274.681 197.905 275.845 198.572 276.577C199.256 277.31 200.338 277.676 201.819 277.676C203.056 277.676 204.065 277.415 204.847 276.895C205.644 276.357 206.116 275.755 206.263 275.088C206.425 274.421 206.507 273.118 206.507 271.182V251.675H214.539ZM235.408 272.891V285H225.032V251.675H239.266C242.814 251.675 245.507 252.082 247.347 252.896C249.202 253.709 250.667 254.954 251.741 256.631C252.832 258.307 253.377 260.187 253.377 262.271C253.377 265.444 252.27 268.008 250.057 269.961C247.843 271.914 244.889 272.891 241.194 272.891H235.408ZM235.262 265.737H238.68C241.691 265.737 243.196 264.631 243.196 262.417C243.196 260.334 241.805 259.292 239.021 259.292H235.262V265.737Z" fill="black"/>
<path d="M194.221 173.295V190.519C194.221 190.519 183.501 206.693 147.137 193.88L120.652 193.04C120.652 193.04 102.996 205.223 97.5308 204.803C92.0657 204.383 87.2312 186.528 100.474 173.295C113.716 160.061 194.221 173.295 194.221 173.295Z" fill="white"/>
<path d="M194.221 173.295C194.641 178.546 195.272 184.428 195.482 190.519V191.359C194.064 193.165 192.36 194.726 190.437 195.98L187.705 197.661L184.552 198.921C180.438 200.366 176.086 201.008 171.73 200.812C169.418 201.022 167.316 200.602 165.214 200.602L158.908 199.551L152.812 197.871L146.717 195.77H147.137L133.895 194.72L120.652 193.88H121.073C115.667 197.562 110.052 200.929 104.257 203.963C102.722 204.774 101.101 205.408 99.4226 205.853C98.3964 206.176 97.2959 206.176 96.2697 205.853C95.3629 205.41 94.5713 204.763 93.9575 203.963C91.851 200.999 90.6135 197.508 90.3842 193.88C90.0906 186.791 92.409 179.84 96.9003 174.345C97.9336 172.816 99.2119 171.468 100.684 170.354C101.48 169.851 102.325 169.428 103.206 169.094L105.728 168.043C108.923 166.9 112.237 166.125 115.608 165.733C118.954 165.314 122.324 165.103 125.697 165.103H135.576C142.302 165.313 148.819 165.733 155.335 166.573C161.851 167.413 168.367 168.253 174.883 169.304L184.552 170.984L189.386 172.034L191.698 172.664H194.221V173.295ZM194.011 173.505C193.8 173.715 193.59 173.505 193.38 173.505H189.176L184.342 173.085L174.462 172.034L154.914 170.774C142.04 169.829 129.113 169.829 116.238 170.774C113.159 170.887 110.114 171.453 107.2 172.454L105.098 173.085L103.206 174.135C102.074 174.951 101.08 175.944 100.263 177.076C96.1742 181.65 93.8622 187.537 93.7473 193.67C93.5447 196.688 94.2787 199.696 95.8493 202.282C96.2697 202.702 96.6901 203.332 97.3207 203.542H99.0022L103.416 202.282C109.277 199.447 114.901 196.145 120.232 192.41H147.768L153.653 194.09L159.539 195.56L165.634 196.611L171.52 197.031C175.497 197.177 179.472 196.68 183.291 195.56L186.023 194.72L188.546 193.46C190.22 192.634 191.718 191.493 192.96 190.099V190.729C192.96 185.058 193.59 179.596 194.011 173.505V173.505Z" fill="black"/>
<path d="M181.819 83.6013H176.564C174.798 83.5735 173.043 83.8937 171.4 84.5438C169.757 85.1938 168.259 86.1609 166.99 87.3898C165.721 88.6186 164.707 90.0852 164.006 91.7058C163.304 93.3264 162.929 95.0692 162.902 96.8347C162.846 93.3058 161.405 89.9401 158.888 87.4642C156.371 84.9883 152.981 83.6008 149.449 83.6013H142.513C138.981 83.6008 135.591 84.9883 133.074 87.4642C130.557 89.9401 129.115 93.3058 129.06 96.8347V104.187C129.033 102.421 128.658 100.678 127.956 99.0577C127.255 97.4371 126.241 95.9705 124.972 94.7416C123.703 93.5128 122.205 92.5457 120.562 91.8957C118.919 91.2456 117.164 90.9254 115.397 90.9532H109.932C106.401 90.9527 103.01 92.3402 100.494 94.8161C97.9767 97.292 96.535 100.658 96.4798 104.187V109.228C96.4525 107.628 96.11 106.049 95.4719 104.581C94.8338 103.114 93.9126 101.786 92.761 100.674C91.6093 99.5622 90.2498 98.688 88.76 98.1013C87.2702 97.5146 85.6794 97.227 84.0783 97.2548H78.8234C72.0972 97.2548 66.4219 109.228 66.4219 109.228V160.901C66.477 164.151 67.8079 167.25 70.1277 169.529C72.4475 171.808 75.5704 173.085 78.8234 173.084H84.0783C87.3313 173.085 90.4542 171.808 92.774 169.529C95.0938 167.25 96.4247 164.151 96.4798 160.901V167.203C96.535 170.732 97.9767 174.097 100.494 176.573C103.01 179.049 106.401 180.437 109.932 180.436H115.397C117.164 180.464 118.919 180.144 120.562 179.494C122.205 178.844 123.703 177.877 124.972 176.648C126.241 175.419 127.255 173.952 127.956 172.332C128.658 170.711 129.033 168.968 129.06 167.203C129.115 170.732 130.557 174.097 133.074 176.573C135.591 179.049 138.981 180.437 142.513 180.436H149.449C152.981 180.437 156.371 179.049 158.888 176.573C161.405 174.097 162.846 170.732 162.902 167.203C162.929 168.968 163.304 170.711 164.006 172.332C164.707 173.952 165.721 175.419 166.99 176.648C168.259 177.877 169.757 178.844 171.4 179.494C173.043 180.144 174.798 180.464 176.564 180.436H181.819C185.351 180.437 188.741 179.049 191.258 176.573C193.775 174.097 195.217 170.732 195.272 167.203V96.8347C195.272 96.8347 189.176 83.6013 181.819 83.6013Z" fill="white"/>
<path d="M182.45 82.5514C178.246 82.5514 174.042 82.3414 170.258 84.0218C167.679 85.1243 165.464 86.9309 163.865 89.2343C162.266 91.5378 161.35 94.2449 161.22 97.0451L164.583 96.415C164.501 93.3696 163.432 90.4333 161.536 88.047C159.641 85.6607 157.022 83.9534 154.073 83.1816C149.997 82.3067 145.798 82.1644 141.672 82.7615C138.693 82.9458 135.827 83.9714 133.409 85.7191C130.99 87.4668 129.118 89.8647 128.009 92.634C126.748 96.2049 127.379 100.616 127.379 104.397L130.742 103.767C130.589 100.942 129.612 98.2228 127.931 95.9459C126.25 93.669 123.939 91.9336 121.283 90.9536C117.589 89.9433 113.735 89.658 109.932 90.1133C107.3 90.2014 104.726 90.914 102.423 92.1923C100.121 93.4707 98.1556 95.2781 96.69 97.4652C94.3779 101.246 94.7983 105.237 94.7983 109.438L98.1614 108.808C97.9472 105.39 96.4359 102.183 93.9359 99.8408C91.4359 97.4987 88.1357 96.1982 84.7089 96.2049C80.0846 96.2049 75.8807 95.9949 72.3074 99.1457C70.092 101.036 68.24 103.313 66.8423 105.867C66.0195 106.982 65.3151 108.178 64.7403 109.438C64.5296 111.534 64.5296 113.645 64.7403 115.74V158.381C64.4114 161.582 65.0716 164.808 66.6321 167.623C70.4156 173.715 76.9317 174.135 83.2375 173.925C86.9606 174.099 90.6044 172.813 93.3923 170.341C96.1801 167.869 97.8914 164.406 98.1614 160.691L94.7983 161.112C94.7983 165.103 94.1677 169.514 95.8493 173.085C97.094 175.592 99.0105 177.705 101.386 179.188C103.761 180.672 106.501 181.467 109.302 181.487C113.27 181.808 117.263 181.381 121.073 180.226C123.816 179.228 126.201 177.437 127.923 175.08C129.645 172.724 130.626 169.909 130.742 166.993L127.379 167.623C127.361 170.161 128.062 172.651 129.401 174.807C130.74 176.963 132.662 178.696 134.946 179.806C138.485 181.199 142.293 181.773 146.086 181.487C149.944 181.8 153.812 180.998 157.226 179.176C159.411 177.965 161.24 176.203 162.531 174.065C163.822 171.928 164.529 169.489 164.583 166.993L161.22 167.623C161.375 171.25 162.886 174.688 165.455 177.255C168.024 179.822 171.463 181.332 175.093 181.487C180.558 181.697 186.233 181.697 190.858 178.336C192.769 176.935 194.319 175.099 195.379 172.98C196.439 170.862 196.978 168.521 196.953 166.153V99.5658C197.117 97.7507 196.752 95.927 195.902 94.3144C193.17 89.2731 188.756 82.9715 182.45 82.5514C180.978 82.5514 178.876 84.4419 180.978 84.6519C186.444 84.862 190.437 91.3737 192.749 95.5747C193.468 96.6173 193.769 97.8921 193.59 99.1457V121.411C193.59 136.745 194.011 152.079 193.59 167.413C193.61 169.167 193.243 170.905 192.517 172.502C191.791 174.099 190.722 175.517 189.386 176.656C186.654 179.176 183.291 179.386 179.717 179.386C176.514 179.715 173.286 179.055 170.469 177.496C168.71 176.302 167.26 174.708 166.237 172.846C165.214 170.984 164.647 168.906 164.583 166.783C164.583 165.523 161.22 166.363 161.22 167.413C161.271 169.583 160.731 171.726 159.657 173.613C158.584 175.5 157.017 177.06 155.124 178.126C152.392 179.806 149.029 179.386 145.876 179.386C142.723 179.386 139.57 179.386 136.837 177.496C134.945 176.43 133.378 174.87 132.304 172.983C131.231 171.096 130.691 168.953 130.742 166.783C130.532 165.523 127.379 166.363 127.379 167.413C127.343 170.086 126.443 172.675 124.814 174.795C123.186 176.915 120.915 178.452 118.34 179.176C115.15 179.771 111.884 179.842 108.671 179.386C106.169 178.946 103.854 177.772 102.02 176.014C100.186 174.257 98.9163 171.994 98.3716 169.514C97.9838 166.589 97.9133 163.631 98.1614 160.691C98.1614 159.431 94.7983 160.061 94.7983 161.112C94.7661 162.869 94.3328 164.597 93.5314 166.162C92.73 167.727 91.5817 169.089 90.174 170.144C87.9333 171.6 85.2697 172.265 82.6069 172.034C80.2757 172.241 77.9262 172.028 75.6705 171.404C74.0479 170.758 72.5864 169.765 71.3882 168.495C70.19 167.225 69.2841 165.709 68.734 164.052C68.2016 161.854 67.9892 159.59 68.1035 157.331V110.909C68.0251 109.405 68.4707 107.92 69.3646 106.708C70.7539 104.326 72.4499 102.137 74.4093 100.196C75.2479 99.4139 76.2451 98.8215 77.3332 98.459C78.4213 98.0966 79.5748 97.9725 80.7152 98.0954C83.6849 97.9027 86.6539 98.4816 89.3332 99.7758C90.9491 100.884 92.2843 102.353 93.233 104.067C94.1816 105.781 94.7175 107.692 94.7983 109.648C94.7983 110.699 98.1614 110.068 98.1614 109.018C97.8827 106.212 98.0244 103.38 98.5818 100.616C99.2507 98.2057 100.671 96.0712 102.637 94.5225C104.602 92.9738 107.01 92.0915 109.512 92.0038C112.829 91.6548 116.181 91.94 119.391 92.8441C121.721 93.8783 123.709 95.5529 125.123 97.6727C126.537 99.7925 127.319 102.27 127.379 104.817C127.379 105.867 130.742 105.237 130.742 103.977C130.742 102.717 130.532 98.7256 130.742 95.9949C130.843 93.0544 132.043 90.2586 134.105 88.1588C136.167 86.0591 138.942 84.8078 141.882 84.6519C145.03 84.3027 148.211 84.3733 151.341 84.862C154.158 85.4867 156.675 87.0578 158.473 89.3131C160.271 91.5685 161.241 94.3717 161.22 97.2552C161.22 98.3054 164.583 97.6753 164.583 96.625C164.614 94.1783 165.369 91.7954 166.753 89.7769C168.137 87.7583 170.088 86.1943 172.36 85.2821C175.171 84.5519 178.091 84.3384 180.978 84.6519C182.45 84.6519 184.552 82.5514 182.45 82.5514Z" fill="black"/>
<path d="M161.43 169.933L162.692 141.996L164.794 169.933L165.004 171.614L161.22 171.824L161.43 169.933Z" fill="black"/>
<path d="M164.794 94.7342L162.902 107.337L161.22 94.7342L161.01 92.8438H165.004L164.794 94.7342Z" fill="black"/>
<path d="M130.742 99.9853L129.481 116.37L126.538 100.195L126.328 98.0948L130.742 97.8848V99.9853Z" fill="black"/>
<path d="M97.9514 103.976L96.4801 118.469L93.3271 104.186L92.6965 101.875L98.3718 101.455L97.9514 103.976Z" fill="black"/>
<path d="M127.169 168.254L128.43 140.106L130.532 168.254L130.742 169.934H126.958L127.169 168.254Z" fill="black"/>
<path d="M94.5884 161.741L96.0597 135.484L97.9515 161.741L98.1617 163.422H94.3782L94.5884 161.741Z" fill="black"/>
</svg>
