<svg width="591" height="151" viewBox="0 0 591 151" fill="none" xmlns="http://www.w3.org/2000/svg">
<path d="M89.2176 150.007H62.5682L39.5603 102.998H23.0079L23.0079 150.007H0L0 32.1533L46.1813 32.1533C57.8783 32.1533 67.258 35.6845 74.3204 42.7469C81.0517 49.4782 84.4174 57.9751 84.4174 68.2376C84.4174 75.9621 82.2656 82.6382 77.962 88.266C74.0997 93.3421 69.0788 96.9837 62.8992 99.1907L89.2176 150.007ZM61.4095 68.2376C61.4095 63.4926 59.8646 59.7407 56.7748 56.982C53.7954 54.1129 49.7676 52.6783 44.6916 52.6783L23.0079 52.6783L23.0079 83.7969H44.6916C49.6573 83.7969 53.6851 82.3623 56.7748 79.4933C59.8646 76.6242 61.4095 72.8723 61.4095 68.2376Z" fill="#E67571"/>
<path d="M131.31 150.007H108.302L108.302 32.1533L131.31 32.1533L131.31 150.007Z" fill="#E67571"/>
<path d="M234.876 115.247C234.876 126.392 230.683 135.22 222.297 141.73C214.351 147.91 203.979 151 191.178 151C181.798 151 173.688 149.841 166.846 147.524C160.004 145.206 153.77 141.179 148.142 135.44L163.039 120.543C166.57 124.074 170.708 126.613 175.453 128.157C180.309 129.702 185.661 130.475 191.509 130.475C205.413 130.475 212.365 125.619 212.365 115.909C212.365 111.605 211.151 108.294 208.724 105.977C207.62 104.984 206.241 104.156 204.585 103.494C202.93 102.722 200.834 102.17 198.296 101.839L184.06 99.8528C174.019 98.4182 166.405 95.1629 161.218 90.0868C155.59 84.459 152.776 76.7345 152.776 66.9134C152.776 56.2095 156.418 47.6022 163.701 41.0916C171.094 34.4706 181.136 31.1602 193.826 31.1602C202.103 31.1602 209.22 32.2085 215.179 34.3051C221.248 36.4018 226.821 39.9329 231.897 44.8987L217.331 59.2993C214.02 56.2095 210.268 54.1129 206.075 53.0094C201.992 51.7955 197.689 51.1886 193.164 51.1886C187.205 51.1886 182.681 52.568 179.591 55.3267C176.502 58.0854 174.957 61.6718 174.957 66.0858C174.957 67.8514 175.177 69.3963 175.619 70.7205C176.17 72.0447 177.108 73.3137 178.433 74.5275C181.081 76.9552 184.723 78.5001 189.357 79.1622L203.261 81.1485C213.193 82.583 220.697 85.6177 225.773 90.2523C228.973 93.2318 231.29 96.8181 232.725 101.011C234.159 105.094 234.876 109.839 234.876 115.247Z" fill="#E67571"/>
<path d="M334.161 150.007H256.53V32.1533L334.161 32.1533V52.6783L279.538 52.6783V80.3209L326.051 80.3209V100.846L279.538 100.846V129.482H334.161V150.007Z" fill="#E67571"/>
<path d="M480.136 109.619C480.136 121.978 475.998 131.964 467.721 139.579C459.555 147.193 449.238 151 436.768 151C424.409 151 414.091 147.193 405.815 139.579C397.539 131.964 393.401 121.978 393.401 109.619V32.1533H416.409V108.791C416.409 115.522 418.23 120.819 421.871 124.681C425.513 128.544 430.478 130.475 436.768 130.475C443.058 130.475 448.024 128.599 451.665 124.847C455.417 120.985 457.293 115.633 457.293 108.791V32.1533L480.136 32.1533V109.619Z" fill="#E67571"/>
<path d="M590.37 68.8997C590.37 79.2726 586.949 87.8798 580.107 94.7215C572.824 102.005 563.279 105.646 551.471 105.646H528.795V150.007H505.787V32.1533L551.471 32.1533C563.389 32.1533 572.934 35.7397 580.107 42.9124C586.949 49.7541 590.37 58.4165 590.37 68.8997ZM567.362 68.8997C567.362 64.0443 565.817 60.1269 562.727 57.1475C559.637 54.168 555.499 52.6783 550.313 52.6783H528.795V84.9556H550.313C555.499 84.9556 559.637 83.521 562.727 80.6519C565.817 77.7828 567.362 73.8654 567.362 68.8997Z" fill="#E67571"/>
<path d="M547.169 96.5572C561.906 96.5572 573.895 83.7947 573.895 68.1077C573.895 52.4206 561.906 39.6582 547.169 39.6582C532.433 39.6582 520.444 52.4206 520.444 68.1077C520.444 83.7947 532.433 96.5572 547.169 96.5572ZM547.169 53.8829L560.532 68.1077H549.842V82.3324H544.497V68.1077H533.807L547.169 53.8829Z" fill="#E67571"/>
<path d="M41.975 96.5572C56.7114 96.5572 68.7003 83.7947 68.7003 68.1077C68.7003 52.4206 56.7114 39.6582 41.975 39.6582C27.2387 39.6582 15.2498 52.4206 15.2498 68.1077C15.2498 83.7947 27.2387 96.5572 41.975 96.5572ZM41.975 53.8829L55.3377 68.1077H44.6476V82.3324H39.3025V68.1077H28.6124L41.975 53.8829Z" fill="#E67571"/>
<path d="M405.784 0L433.408 43.9674H378.159L405.784 0Z" fill="#E67571"/>
<path d="M469.579 0L497.204 43.9674H441.955L469.579 0Z" fill="#E67571"/>
</svg>
