<svg width="954" height="214" viewBox="0 0 954 214" fill="none" xmlns="http://www.w3.org/2000/svg">
<path d="M67.1195 89.228L54.6232 79.6188C53.5781 80.0294 52.7501 80.3301 52.1393 80.5211L42.2321 83.6182L46.0453 95.816L40.3186 97.6063L27.787 57.5194L43.4209 52.632C48.6131 51.0089 53.086 50.9727 56.8397 52.5233C60.5933 54.074 63.1504 57.0254 64.511 61.3777C65.4777 64.4701 65.5377 67.3431 64.6908 69.9967C63.844 72.6502 62.1632 74.9149 59.6483 76.7907L73.3616 87.2766L67.1195 89.228ZM50.4458 75.7071C54.0727 74.5733 56.5959 72.9253 58.0155 70.7633C59.4351 68.6013 59.6913 66.0695 58.7843 63.168C57.8772 60.2664 56.2306 58.3505 53.8443 57.4201C51.446 56.4515 48.4335 56.5342 44.8066 57.668L35.0712 60.7114L40.7104 78.7505L50.4458 75.7071Z" fill="#F8E8AE"/>
<path d="M156.469 56.1072L162.246 57.7286L150.896 98.166L145.119 96.5446L156.469 56.1072Z" fill="#F8E8AE"/>
<path d="M242.733 93.0816C239.823 91.8502 237.192 90.2156 234.84 88.1779C232.54 86.119 230.921 84.0439 229.982 81.9525L233.85 78.5077C234.762 80.4574 236.181 82.3391 238.107 84.1529C240.084 85.9454 242.289 87.356 244.72 88.3849C247.925 89.7411 250.546 90.2202 252.582 89.8222C254.633 89.3874 256.041 88.2674 256.805 86.4624C257.366 85.1363 257.376 83.8809 256.835 82.6964C256.346 81.4906 255.551 80.3938 254.449 79.4062C253.383 78.4341 251.807 77.1808 249.72 75.6462C247.106 73.7148 245.045 72.0172 243.536 70.5534C242.064 69.1053 240.987 67.3901 240.306 65.4078C239.677 63.4043 239.885 61.1685 240.929 58.7004C241.802 56.6375 243.123 55.0032 244.893 53.7976C246.7 52.6076 248.919 51.9829 251.55 51.9236C254.181 51.8643 257.136 52.5283 260.414 53.9157C262.698 54.8822 264.82 56.1278 266.781 57.6525C268.742 59.1772 270.281 60.8273 271.397 62.6027L267.703 66.2516C266.519 64.5342 265.115 63.028 263.491 61.7328C261.883 60.4009 260.195 59.3607 258.427 58.6125C255.295 57.2875 252.696 56.8608 250.629 57.3324C248.599 57.8197 247.201 58.9658 246.438 60.7709C245.876 62.097 245.859 63.3708 246.384 64.5922C246.925 65.7767 247.739 66.8812 248.826 67.9057C249.965 68.9089 251.549 70.1439 253.578 71.6105C256.192 73.5419 258.235 75.2317 259.707 76.6798C261.179 78.128 262.237 79.8354 262.882 81.8021C263.563 83.7843 263.389 85.9911 262.36 88.4224C261.503 90.4484 260.163 92.0749 258.341 93.3018C256.534 94.4918 254.297 95.1087 251.629 95.1524C248.977 95.1593 246.011 94.469 242.733 93.0816Z" fill="#F8E8AE"/>
<path d="M385.927 80.0073L388.03 84.785L360.133 97.0644L343.212 58.6236L370.34 46.6826L372.443 51.4602L350.807 60.984L356.004 72.7909L375.279 64.3064L377.334 68.9742L358.058 77.4587L363.521 89.8696L385.927 80.0073Z" fill="#F8E8AE"/>
<path d="M144.49 179.456C139.053 178.114 135.204 175.515 132.942 171.661C130.68 167.806 130.268 162.966 131.706 157.141L137.431 133.957L143.256 135.396L137.589 158.346C135.431 167.084 138.178 172.397 145.828 174.286C149.556 175.207 152.674 174.844 155.182 173.197C157.699 171.511 159.505 168.455 160.598 164.028L166.265 141.077L171.915 142.472L166.191 165.656C164.743 171.52 162.121 175.631 158.325 177.99C154.538 180.31 149.926 180.799 144.49 179.456Z" fill="#F8E8AE"/>
<path d="M300.54 131.854C305.709 130.157 310.181 130.056 313.956 131.553C317.732 133.049 320.331 135.964 321.754 140.296C323.177 144.628 322.812 148.516 320.659 151.96C318.506 155.404 314.845 157.975 309.677 159.672L299.815 162.911L303.785 174.996L298.084 176.868L284.978 136.966L300.54 131.854ZM307.877 154.769C311.487 153.583 313.993 151.918 315.394 149.774C316.782 147.592 317.002 145.057 316.053 142.168C315.105 139.28 313.431 137.388 311.031 136.492C308.619 135.558 305.608 135.684 301.998 136.87L292.308 140.053L298.187 157.952L307.877 154.769Z" fill="#F8E8AE"/>
<path d="M667.891 96H674.365V53.2852H667.891V71.5957H650.986V53.2852H644.512V96H650.986V77.3379H667.891V96Z" fill="#E79A74"/>
<path d="M722.512 95H749.787V88.877H728.986V76.3379H746.74V70.5957H728.986V58.4082H749.787V52.2852H722.512V95Z" fill="#E79A74"/>
<path d="M795.512 93H822.787V86.877H801.986V50.2852H795.512V93Z" fill="#E79A74"/>
<path d="M874.986 55.4082H884.332C886.09 55.3691 887.633 55.7695 888.961 56.6094C889.84 57.1172 890.523 57.8105 891.012 58.6895C891.48 59.666 891.715 60.8672 891.715 62.293C891.715 64.0117 891.139 65.5742 889.986 66.9805C888.775 68.4258 886.969 69.168 884.566 69.207H874.986V55.4082ZM868.512 92H874.986V75.3301H884.83C889.225 75.252 892.564 73.8457 894.85 71.1113C897.076 68.5137 898.189 65.6328 898.189 62.4688C898.189 60.125 897.75 58.0938 896.871 56.375C896.031 54.5977 894.938 53.2305 893.59 52.2734C891.988 51.0039 890.406 50.1641 888.844 49.7539C887.281 49.4414 885.66 49.2852 883.98 49.2852H868.512V92Z" fill="#E79A74"/>
<path d="M578.512 169H577.512V170H578.512V169ZM605.787 169V170H606.787V169H605.787ZM605.787 162.877H606.787V161.877H605.787V162.877ZM584.986 162.877H583.986V163.877H584.986V162.877ZM584.986 126.285H585.986V125.285H584.986V126.285ZM578.512 126.285V125.285H577.512V126.285H578.512ZM578.512 170H605.787V168H578.512V170ZM606.787 169V162.877H604.787V169H606.787ZM605.787 161.877H584.986V163.877H605.787V161.877ZM585.986 162.877V126.285H583.986V162.877H585.986ZM584.986 125.285H578.512V127.285H584.986V125.285ZM577.512 126.285V169H579.512V126.285H577.512Z" fill="#E79A74"/>
<path d="M645.512 168H644.512V169H645.512V168ZM651.986 168V169H652.986V168H651.986ZM651.986 125.285H652.986V124.285H651.986V125.285ZM645.512 125.285V124.285H644.512V125.285H645.512ZM645.512 169H651.986V167H645.512V169ZM652.986 168V125.285H650.986V168H652.986ZM651.986 124.285H645.512V126.285H651.986V124.285ZM644.512 125.285V168H646.512V125.285H644.512Z" fill="#E79A74"/>
<path d="M694.512 169H693.512V170H694.512V169ZM700.986 169V170H701.986V169H700.986ZM700.986 138.648V137.648H699.986V138.648H700.986ZM701.104 138.648L701.947 138.112L701.653 137.648H701.104V138.648ZM720.41 169L719.566 169.537L719.861 170H720.41V169ZM726.533 169V170H727.533V169H726.533ZM726.533 126.285H727.533V125.285H726.533V126.285ZM720.059 126.285V125.285H719.059V126.285H720.059ZM720.059 156.637V157.637H721.059V156.637H720.059ZM719.941 156.637L719.098 157.174L719.393 157.637H719.941V156.637ZM700.605 126.285L701.449 125.748L701.154 125.285H700.605V126.285ZM694.512 126.285V125.285H693.512V126.285H694.512ZM694.512 170H700.986V168H694.512V170ZM701.986 169V138.648H699.986V169H701.986ZM700.986 139.648H701.104V137.648H700.986V139.648ZM700.26 139.185L719.566 169.537L721.254 168.463L701.947 138.112L700.26 139.185ZM720.41 170H726.533V168H720.41V170ZM727.533 169V126.285H725.533V169H727.533ZM726.533 125.285H720.059V127.285H726.533V125.285ZM719.059 126.285V156.637H721.059V126.285H719.059ZM720.059 155.637H719.941V157.637H720.059V155.637ZM720.785 156.099L701.449 125.748L699.762 126.822L719.098 157.174L720.785 156.099ZM700.605 125.285H694.512V127.285H700.605V125.285ZM693.512 126.285V169H695.512V126.285H693.512Z" fill="#E79A74"/>
<path d="M769.512 170H768.512V171H769.512V170ZM796.787 170V171H797.787V170H796.787ZM796.787 163.877H797.787V162.877H796.787V163.877ZM775.986 163.877H774.986V164.877H775.986V163.877ZM775.986 151.338V150.338H774.986V151.338H775.986ZM793.74 151.338V152.338H794.74V151.338H793.74ZM793.74 145.596H794.74V144.596H793.74V145.596ZM775.986 145.596H774.986V146.596H775.986V145.596ZM775.986 133.408V132.408H774.986V133.408H775.986ZM796.787 133.408V134.408H797.787V133.408H796.787ZM796.787 127.285H797.787V126.285H796.787V127.285ZM769.512 127.285V126.285H768.512V127.285H769.512ZM769.512 171H796.787V169H769.512V171ZM797.787 170V163.877H795.787V170H797.787ZM796.787 162.877H775.986V164.877H796.787V162.877ZM776.986 163.877V151.338H774.986V163.877H776.986ZM775.986 152.338H793.74V150.338H775.986V152.338ZM794.74 151.338V145.596H792.74V151.338H794.74ZM793.74 144.596H775.986V146.596H793.74V144.596ZM776.986 145.596V133.408H774.986V145.596H776.986ZM775.986 134.408H796.787V132.408H775.986V134.408ZM797.787 133.408V127.285H795.787V133.408H797.787ZM796.787 126.285H769.512V128.285H796.787V126.285ZM768.512 127.285V170H770.512V127.285H768.512Z" fill="#E79A74"/>
<rect x="1.5" y="1.5" width="432" height="211" stroke="#F8E8AE" stroke-width="3"/>
<rect x="520.5" y="1.5" width="432" height="211" stroke="#E79A74" stroke-width="3"/>
</svg>
