<svg width="110" height="154" viewBox="0 0 110 154" fill="none" xmlns="http://www.w3.org/2000/svg">
<g filter="url(#filter0_i)">
<path d="M55 0C55 0 0 58.8419 0 100.474C0 133.318 21.2514 154 55 154C88.7486 154 110 133.318 110 100.474C110 58.8419 55 0 55 0ZM61.1111 134.671V125.75C67.1868 125.743 73.0117 123.391 77.3078 119.21C81.604 115.029 84.0207 109.36 84.0278 103.447H93.1944C93.1853 111.726 89.8022 119.662 83.7874 125.516C77.7726 131.37 69.6173 134.662 61.1111 134.671Z" fill="#505050"/>
</g>
<defs>
<filter id="filter0_i" x="0" y="0" width="110" height="158" filterUnits="userSpaceOnUse" color-interpolation-filters="sRGB">
<feFlood flood-opacity="0" result="BackgroundImageFix"/>
<feBlend mode="normal" in="SourceGraphic" in2="BackgroundImageFix" result="shape"/>
<feColorMatrix in="SourceAlpha" type="matrix" values="0 0 0 0 0 0 0 0 0 0 0 0 0 0 0 0 0 0 127 0" result="hardAlpha"/>
<feOffset dy="4"/>
<feGaussianBlur stdDeviation="2"/>
<feComposite in2="hardAlpha" operator="arithmetic" k2="-1" k3="1"/>
<feColorMatrix type="matrix" values="0 0 0 0 0 0 0 0 0 0 0 0 0 0 0 0 0 0 0.25 0"/>
<feBlend mode="normal" in2="shape" result="effect1_innerShadow"/>
</filter>
</defs>
</svg>
